<svg id="visual" viewBox="0 0 900 600" width="900" height="600" xmlns="http://www.w3.org/2000/svg" xmlns:xlink="http://www.w3.org/1999/xlink" version="1.1"><rect x="0" y="0" width="900" height="600" fill="#FFFFFF"></rect><defs><linearGradient id="grad1_0" x1="33.3%" y1="0%" x2="100%" y2="100%"><stop offset="20%" stop-color="#ffffff" stop-opacity="1"></stop><stop offset="80%" stop-color="#ffffff" stop-opacity="1"></stop></linearGradient></defs><defs><linearGradient id="grad2_0" x1="0%" y1="0%" x2="66.7%" y2="100%"><stop offset="20%" stop-color="#ffffff" stop-opacity="1"></stop><stop offset="80%" stop-color="#ffffff" stop-opacity="1"></stop></linearGradient></defs><g transform="translate(900, 0)"><path d="M0 189.3C-33.9 184.8 -67.8 180.3 -94.6 163.9C-121.5 147.6 -141.3 119.3 -155.9 90C-170.5 60.7 -179.9 30.3 -189.3 0L0 0Z" fill="#95D074"></path></g><g transform="translate(0, 600)"><path d="M0 -189.3C33.6 -184.6 67.1 -179.9 94.6 -163.9C122.2 -148 143.7 -120.7 158.5 -91.5C173.3 -62.3 181.3 -31.1 189.3 0L0 0Z" fill="#95D074"></path></g></svg>