<svg id="visual" viewBox="0 0 900 600" width="900" height="600" xmlns="http://www.w3.org/2000/svg" xmlns:xlink="http://www.w3.org/1999/xlink" version="1.1"><rect x="0" y="0" width="900" height="600" fill="#95D074"></rect><defs><linearGradient id="grad1_0" x1="33.3%" y1="100%" x2="100%" y2="0%"><stop offset="20%" stop-color="#95d074" stop-opacity="1"></stop><stop offset="80%" stop-color="#95d074" stop-opacity="1"></stop></linearGradient></defs><defs><linearGradient id="grad2_0" x1="0%" y1="100%" x2="66.7%" y2="0%"><stop offset="20%" stop-color="#95d074" stop-opacity="1"></stop><stop offset="80%" stop-color="#95d074" stop-opacity="1"></stop></linearGradient></defs><g transform="translate(900, 600)"><path d="M-189.3 0C-181.3 -31.1 -173.3 -62.3 -158.5 -91.5C-143.7 -120.7 -122.2 -148 -94.6 -163.9C-67.1 -179.9 -33.6 -184.6 0 -189.3L0 0Z" fill="#FFFFFF"></path></g><g transform="translate(0, 0)"><path d="M189.3 0C184.5 33.3 179.6 66.6 163.9 94.6C148.2 122.6 121.6 145.3 92.5 160.2C63.4 175.1 31.7 182.2 0 189.3L0 0Z" fill="#FFFFFF"></path></g></svg>