<svg id="visual" viewBox="0 0 900 600" width="900" height="600" xmlns="http://www.w3.org/2000/svg" xmlns:xlink="http://www.w3.org/1999/xlink" version="1.1"><rect x="0" y="0" width="900" height="600" fill="#95D074"></rect><defs><linearGradient id="grad1_0" x1="33.3%" y1="0%" x2="100%" y2="100%"><stop offset="20%" stop-color="#95d074" stop-opacity="1"></stop><stop offset="80%" stop-color="#95d074" stop-opacity="1"></stop></linearGradient></defs><defs><linearGradient id="grad2_0" x1="0%" y1="0%" x2="66.7%" y2="100%"><stop offset="20%" stop-color="#95d074" stop-opacity="1"></stop><stop offset="80%" stop-color="#95d074" stop-opacity="1"></stop></linearGradient></defs><g transform="translate(900, 0)"><path d="M0 189.3C-31.1 181.3 -62.3 173.3 -91.5 158.5C-120.7 143.7 -148 122.2 -163.9 94.6C-179.9 67.1 -184.6 33.6 -189.3 0L0 0Z" fill="#FFFFFF"></path></g><g transform="translate(0, 600)"><path d="M0 -189.3C33.3 -184.5 66.6 -179.6 94.6 -163.9C122.6 -148.2 145.3 -121.6 160.2 -92.5C175.1 -63.4 182.2 -31.7 189.3 0L0 0Z" fill="#FFFFFF"></path></g></svg>