<svg xmlns="http://www.w3.org/2000/svg" version="1.1" xmlns:xlink="http://www.w3.org/1999/xlink" xmlns:svgjs="http://svgjs.dev/svgjs" viewBox="0 0 800 800"><defs><filter id="llleaves-blur-2" x="-100%" y="-100%" width="400%" height="400%"><feGaussianBlur in="SourceGraphic" stdDeviation="2"></feGaussianBlur></filter><filter id="llleaves-blur-3" x="-100%" y="-100%" width="400%" height="400%"><feGaussianBlur in="SourceGraphic" stdDeviation="4"></feGaussianBlur></filter><filter id="llleaves-blur-4" x="-100%" y="-100%" width="400%" height="400%"><feGaussianBlur in="SourceGraphic" stdDeviation="12"></feGaussianBlur></filter></defs><g fill="hsl(70, 69%, 50%)"><path d="M521 121H571C599 121 621 143 621 171H571C543 171 521 149 521 121Z " transform="matrix(-0.28571299139346,0.16495647249198733,-0.16495647249198733,-0.28571299139346,758.2257630694958,93.5239509505204)" filter="url(#llleaves-blur-2)" opacity="0.51"></path><path d="M419 729H469C497 729 519 751 519 779H469C441 779 419 757 419 729Z " transform="matrix(-0.18706046395449222,0.23100043503753,-0.23100043503753,-0.18706046395449222,730.9056856129545,786.7043857890856)" filter="url(#llleaves-blur-3)" opacity="0.45"></path><path d="M701 194H751C779 194 801 216 801 244H751C723 244 701 222 701 194Z " transform="matrix(-0.22719371939026164,-0.40986831947776753,0.40986831947776753,-0.22719371939026164,831.8613212964555,576.5665324742707)" opacity="0.72"></path><path d="M593 638H643C671 638 693 660 693 688H643C615 688 593 666 593 638Z " transform="matrix(-0.3808154447618203,-0.13860548664214772,0.13860548664214772,-0.3808154447618203,795.9688933381065,1004.6039677879878)" opacity="0.62"></path><path d="M217 712H267C295 712 317 734 317 762H267C239 762 217 740 217 712Z " transform="matrix(1.451794002851038e-17,0.237095953520939,-0.237095953520939,1.451794002851038e-17,441.739717744932,673.6953804099093)" filter="url(#llleaves-blur-3)" opacity="0.36"></path><path d="M116 537H166C194 537 216 559 216 587H166C138 587 116 565 116 537Z " transform="matrix(-0.10162675955822102,0.2515350565378517,-0.2515350565378517,-0.10162675955822102,324.2327438609374,577.3594194864368)" filter="url(#llleaves-blur-3)" opacity="0.41"></path><path d="M628 339H678C706 339 728 361 728 389H678C650 389 628 367 628 339Z " transform="matrix(-0.35677353621252345,-0.23169144346833973,0.23169144346833973,-0.35677353621252345,835.5567721296152,650.9523658528929)" opacity="0.65"></path><path d="M4 736H54C82 736 104 758 104 786H54C26 786 4 764 4 736Z " transform="matrix(-0.30522606787834444,0.14232925292020945,-0.14232925292020945,-0.30522606787834444,178.79476913770998,985.5912579977288)" filter="url(#llleaves-blur-2)" opacity="0.52"></path><path d="M709 396H759C787 396 809 418 809 446H759C731 446 709 424 709 396Z " transform="matrix(-0.22719371939026164,-0.40986831947776753,0.40986831947776753,-0.22719371939026164,758.8854705170685,827.7386103469257)" opacity="0.72"></path><path d="M705 507H755C783 507 805 529 805 557H755C727 557 705 535 705 507Z " transform="matrix(-0.22719371939026164,-0.40986831947776753,0.40986831947776753,-0.22719371939026164,708.4813121774753,962.3176399213337)" opacity="0.72"></path><path d="M449 323H499C527 323 549 345 549 373H499C471 373 449 351 449 323Z " transform="matrix(-0.22108423515758774,0.21349856417848984,-0.21349856417848984,-0.22108423515758774,683.6185336777507,318.4015303097741)" filter="url(#llleaves-blur-2)" opacity="0.47"></path><path d="M418 116H468C496 116 518 138 518 166H468C440 166 418 144 418 116Z " transform="matrix(-0.09639467854941747,0.25111672298376164,-0.25111672298376164,-0.09639467854941747,548.5201675018378,37.06902331906741)" filter="url(#llleaves-blur-3)" opacity="0.41"></path><path d="M112 730H162C190 730 212 752 212 780H162C134 780 112 758 112 730Z " transform="matrix(-0.10162675955822102,0.2515350565378517,-0.2515350565378517,-0.10162675955822102,368.37250273450985,790.9795243073248)" filter="url(#llleaves-blur-3)" opacity="0.41"></path><path d="M525 733H575C603 733 625 755 625 783H575C547 783 525 761 525 733Z " transform="matrix(-0.35737122766281304,0.056602041881467134,-0.056602041881467134,-0.35737122766281304,823.3928036522695,996.3412164865686)" filter="url(#llleaves-blur-2)" opacity="0.55"></path><path d="M317 723H367C395 723 417 745 417 773H367C339 773 317 751 317 723Z " transform="matrix(-0.03472395748306176,0.2470737957163344,-0.2470737957163344,-0.03472395748306176,564.554891592102,683.2974371694355)" filter="url(#llleaves-blur-3)" opacity="0.38"></path><path d="M211 579H261C289 579 311 601 311 629H261C233 629 211 607 211 579Z " transform="matrix(1.451794002851038e-17,0.237095953520939,-0.237095953520939,1.451794002851038e-17,404.20595592664716,542.1179561310349)" filter="url(#llleaves-blur-3)" opacity="0.36"></path><path d="M237 23H287C315 23 337 45 337 73H287C259 73 237 51 237 23Z " transform="matrix(0.08452312442598062,0.18126042527460592,-0.18126042527460592,0.08452312442598062,271.44236370292464,-8.078852026258971)" filter="url(#llleaves-blur-4)" opacity="0.30"></path><path d="M571 20H621C649 20 671 42 671 70H621C593 70 571 48 571 20Z " transform="matrix(-0.21184163511071352,0.21936843488010466,-0.21936843488010466,-0.21184163511071352,762.4252349733579,-81.69492448056288)" filter="url(#llleaves-blur-2)" opacity="0.47"></path><path d="M709 103H759C787 103 809 125 809 153H759C731 153 709 131 709 103Z " transform="matrix(-0.34419029407720614,-0.2593659901079503,0.2593659901079503,-0.34419029407720614,987.0415864707819,368.9151441338167)" opacity="0.66"></path><path d="M351 312H401C429 312 451 334 451 362H401C373 362 351 340 351 312Z " transform="matrix(-0.07232924946384998,0.2522420692924029,-0.2522420692924029,-0.07232924946384998,515.0096063865435,260.2258872830639)" filter="url(#llleaves-blur-3)" opacity="0.40"></path><path d="M-1 489H49C77 489 99 511 99 539H49C21 539 -1 517 -1 489Z " transform="matrix(-0.3340869797642026,0.10214063998977545,-0.10214063998977545,-0.3340869797642026,117.87055096319051,680.7158162393011)" filter="url(#llleaves-blur-2)" opacity="0.54"></path><path d="M288 497H338C366 497 388 519 388 547H338C310 547 288 525 288 497Z " transform="matrix(-0.00838994177963077,0.24025649783042405,-0.24025649783042405,-0.00838994177963077,466.24969218899656,445.17285334228393)" filter="url(#llleaves-blur-3)" opacity="0.37"></path><path d="M611 547H661C689 547 711 569 711 597H661C633 597 611 575 611 547Z " transform="matrix(-0.3702169516466641,-0.18863495869822347,0.18863495869822347,-0.3702169516466641,797.8142086630612,908.4518040414175)" opacity="0.64"></path><path d="M211 119H261C289 119 311 141 311 169H261C233 169 211 147 211 119Z " transform="matrix(0.03862201108250971,0.21903630928931095,-0.21903630928931095,0.03862201108250971,282.46088364512576,81.26995367960845)" filter="url(#llleaves-blur-3)" opacity="0.34"></path><path d="M1 299H51C79 299 101 321 101 349H51C23 349 1 327 1 299Z " transform="matrix(-0.30522606787834444,0.14232925292020945,-0.14232925292020945,-0.30522606787834444,112.68120740794342,415.63445409365283)" filter="url(#llleaves-blur-2)" opacity="0.52"></path><path d="M312 128H362C390 128 412 150 412 178H362C334 178 312 156 312 128Z " transform="matrix(0.020024844078981464,0.228885015177399,-0.228885015177399,0.020024844078981464,389.77041376555076,67.07982336169738)" filter="url(#llleaves-blur-3)" opacity="0.35"></path><path d="M535 380H585C613 380 635 402 635 430H585C557 430 535 408 535 380Z " transform="matrix(-0.37286727614842113,0.006508422514778299,-0.006508422514778299,-0.37286727614842113,805.7632676653116,552.2038196689653)" filter="url(#llleaves-blur-2)" opacity="0.57"></path><path d="M485 216H535C563 216 585 238 585 266H535C507 266 485 244 485 216Z " transform="matrix(-0.31258887858217926,0.13268610678533715,-0.13268610678533715,-0.31258887858217926,734.2124017767321,245.34685260814985)" filter="url(#llleaves-blur-2)" opacity="0.52"></path><path d="M122 29H172C200 29 222 51 222 79H172C144 79 122 57 122 29Z " transform="matrix(-0.017025931609415568,0.24348216565585412,-0.24348216565585412,-0.017025931609415568,188.07649718223558,13.04046781410154)" filter="url(#llleaves-blur-3)" opacity="0.37"></path><path d="M689 16H739C767 16 789 38 789 66H739C711 66 689 44 689 16Z " transform="matrix(-0.3731316359520062,0.006513036932314288,-0.006513036932314288,-0.3731316359520062,1015.0113134827575,51.48526278105199)" filter="url(#llleaves-blur-2)" opacity="0.57"></path><path d="M621 728H671C699 728 721 750 721 778H671C643 778 621 756 621 728Z " transform="matrix(-0.35677353621252345,-0.23169144346833973,0.23169144346833973,-0.35677353621252345,735.9313858669434,1177.1154313352863)" opacity="0.65"></path><path d="M272 376H322C350 376 372 398 372 426H322C294 426 272 404 272 376Z " transform="matrix(1.4538721193574758e-17,0.23743533570164366,-0.23743533570164366,1.4538721193574758e-17,417.2115696163591,324.54582190407075)" filter="url(#llleaves-blur-3)" opacity="0.36"></path><path d="M536 481H586C614 481 636 503 636 531H586C558 531 536 509 536 481Z " transform="matrix(-0.37286727614842113,0.006508422514778299,-0.006508422514778299,-0.37286727614842113,807.7934856154526,690.856906137441)" filter="url(#llleaves-blur-2)" opacity="0.57"></path></g><g fill="none" stroke-width="3" stroke="hsl(70, 69%, 50%)"><path d="M623 443H673C701 443 723 465 723 493H673C645 493 623 471 623 443Z " transform="matrix(-0.35677353621252345,-0.23169144346833973,0.23169144346833973,-0.35677353621252345,804.6769943278453,790.8983564016536)" opacity="0.65"></path><path d="M187 215H237C265 215 287 237 287 265H237C209 265 187 243 187 215Z " transform="matrix(-0.008375536842223155,0.23984399439429507,-0.23984399439429507,-0.008375536842223155,296.5475608862377,185.1671021706856)" filter="url(#llleaves-blur-3)" opacity="0.37"></path><path d="M619 105H669C697 105 719 127 719 155H669C641 155 619 133 619 105Z " transform="matrix(-0.3818745605567983,-0.03340969493766373,0.03340969493766373,-0.3818745605567983,920.1308206706018,201.99477878568084)" filter="url(#llleaves-blur-2)" opacity="0.59"></path><path d="M96 249H146C174 249 196 271 196 299H146C118 299 96 277 96 249Z " transform="matrix(-0.13169287318555656,0.24767827189757474,-0.24767827189757474,-0.13169287318555656,233.09100598502673,273.9228195557966)" filter="url(#llleaves-blur-3)" opacity="0.43"></path><path d="M7 656H57C85 656 107 678 107 706H57C29 706 7 684 7 656Z " transform="matrix(-0.30522606787834444,0.14232925292020945,-0.14232925292020945,-0.30522606787834444,171.32410710772828,880.7461848087007)" filter="url(#llleaves-blur-2)" opacity="0.52"></path><path d="M453 439H503C531 439 553 461 553 489H503C475 489 453 467 453 439Z " transform="matrix(-0.2538272572429259,0.19127255772189053,-0.19127255772189053,-0.2538272572429259,719.4255771761489,485.5657508266067)" filter="url(#llleaves-blur-2)" opacity="0.49"></path><path d="M8 19H58C86 19 108 41 108 69H58C30 69 8 47 8 19Z " transform="matrix(-0.2891593431249592,0.16028364120630192,-0.16028364120630192,-0.2891593431249592,81.82372211432491,47.42655990753269)" filter="url(#llleaves-blur-2)" opacity="0.51"></path><path d="M700 615H750C778 615 800 637 800 665H750C722 665 700 643 700 615Z " transform="matrix(-0.25771485905762587,-0.3820779910445978,0.3820779910445978,-0.25771485905762587,698.7562300246768,1091.496003080329)" opacity="0.71"></path><path d="M280 239H330C358 239 380 261 380 289H330C302 289 280 267 280 239Z " transform="matrix(1.4538721193574758e-17,0.23743533570164366,-0.23743533570164366,1.4538721193574758e-17,392.6829286252339,185.6463392184576)" filter="url(#llleaves-blur-3)" opacity="0.36"></path><path d="M349 25H399C427 25 449 47 449 75H399C371 75 349 53 349 25Z " transform="matrix(0.07917930134827084,0.18653474440559561,-0.18653474440559561,0.07917930134827084,376.7341959823197,-28.386328085246205)" filter="url(#llleaves-blur-3)" opacity="0.31"></path><path d="M300 613H350C378 613 400 635 400 663H350C322 663 300 641 300 613Z " transform="matrix(-0.00838994177963077,0.24025649783042405,-0.24025649783042405,-0.00838994177963077,506.2201252386813,559.263008614756)" filter="url(#llleaves-blur-3)" opacity="0.37"></path><path d="M707 720H757C785 720 807 742 807 770H757C729 770 707 748 707 720Z " transform="matrix(-0.22719371939026164,-0.40986831947776753,0.40986831947776753,-0.22719371939026164,623.6337475674912,1224.529638790415)" opacity="0.72"></path><path d="M492 652H542C570 652 592 674 592 702H542C514 702 492 680 492 652Z " transform="matrix(-0.31258887858217926,0.13268610678533715,-0.13268610678533715,-0.31258887858217926,801.2516664852144,816.7068009224826)" filter="url(#llleaves-blur-2)" opacity="0.52"></path><path d="M386 215H436C464 215 486 237 486 265H436C408 265 386 243 386 215Z " transform="matrix(-0.1264535784654421,0.2481791215549966,-0.2481791215549966,-0.1264535784654421,550.6967493841319,162.14276183372758)" filter="url(#llleaves-blur-3)" opacity="0.43"></path><path d="M192 448H242C270 448 292 470 292 498H242C214 498 192 476 192 448Z " transform="matrix(-0.008375536842223155,0.23984399439429507,-0.23984399439429507,-0.008375536842223155,357.4730892643196,418.91938228295214)" filter="url(#llleaves-blur-3)" opacity="0.37"></path><path d="M10 575H60C88 575 110 597 110 625H60C32 625 10 603 10 575Z " transform="matrix(-0.30522606787834444,0.14232925292020945,-0.14232925292020945,-0.30522606787834444,163.71111582482632,774.5958855517941)" filter="url(#llleaves-blur-2)" opacity="0.52"></path><path d="M2 201H52C80 201 102 223 102 251H52C24 251 2 229 2 201Z " transform="matrix(-0.30522606787834444,0.14232925292020945,-0.14232925292020945,-0.30522606787834444,100.03816668964126,287.57997018865495)" filter="url(#llleaves-blur-2)" opacity="0.52"></path><path d="M195 321H245C273 321 295 343 295 371H245C217 371 195 349 195 321Z " transform="matrix(-0.008375536842223155,0.23984399439429507,-0.23984399439429507,-0.008375536842223155,330.0380285867708,290.1361571208069)" filter="url(#llleaves-blur-3)" opacity="0.37"></path><path d="M701 287H751C779 287 801 309 801 337H751C723 337 701 315 701 287Z " transform="matrix(-0.22719371939026164,-0.40986831947776753,0.40986831947776753,-0.22719371939026164,793.743567585023,690.695548377565)" opacity="0.72"></path><path d="M494 561H544C572 561 594 583 594 611H544C516 611 494 589 494 561Z " transform="matrix(-0.31258887858217926,0.13268610678533715,-0.13268610678533715,-0.31258887858217926,791.8024085249131,696.9958407579336)" filter="url(#llleaves-blur-2)" opacity="0.52"></path><path d="M555 283H605C633 283 655 305 655 333H605C577 333 555 311 555 283Z " transform="matrix(-0.38180340252302564,-0.04012915464401569,0.04012915464401569,-0.38180340252302564,823.6312788960737,449.8735865367214)" filter="url(#llleaves-blur-2)" opacity="0.59"></path><path d="M-1 394H49C77 394 99 416 99 444H49C21 444 -1 422 -1 394Z " transform="matrix(-0.3340869797642026,0.10214063998977545,-0.10214063998977545,-0.3340869797642026,108.16719016416184,553.977553161702)" filter="url(#llleaves-blur-2)" opacity="0.54"></path><path d="M90 448H140C168 448 190 470 190 498H140C112 498 90 476 90 448Z " transform="matrix(-0.13169287318555656,0.24767827189757474,-0.24767827189757474,-0.13169287318555656,275.5888248535308,500.6157709511077)" filter="url(#llleaves-blur-3)" opacity="0.43"></path><path d="M105 137H155C183 137 205 159 205 187H155C127 187 105 165 105 137Z " transform="matrix(-0.08196198124073648,0.2522530403388817,-0.2522530403388817,-0.08196198124073648,208.569099627213,136.17861970847264)" filter="url(#llleaves-blur-3)" opacity="0.41"></path><path d="M103 354H153C181 354 203 376 203 404H153C125 404 103 382 103 354Z " transform="matrix(-0.10162675955822102,0.2515350565378517,-0.2515350565378517,-0.10162675955822102,263.8806806402537,379.0316782222744)" filter="url(#llleaves-blur-3)" opacity="0.41"></path><path d="M462 23H512C540 23 562 45 562 73H512C484 73 462 51 462 23Z " transform="matrix(-0.01268795710524511,0.24210064381321525,-0.24210064381321525,-0.01268795710524511,530.1170649409198,-75.34650769131446)" filter="url(#llleaves-blur-3)" opacity="0.37"></path><path d="M121 636H171C199 636 221 658 221 686H171C143 686 121 664 121 636Z " transform="matrix(-0.07688176752143339,0.2514689306111695,-0.2514689306111695,-0.07688176752143339,350.3677453801481,668.8176611971575)" filter="url(#llleaves-blur-3)" opacity="0.40"></path><path d="M391 526H441C469 526 491 548 491 576H441C413 576 391 554 391 526Z " transform="matrix(-0.1264535784654421,0.2481791215549966,-0.2481791215549966,-0.1264535784654421,633.512724080063,511.2289291287051)" filter="url(#llleaves-blur-3)" opacity="0.43"></path><path d="M364 416H414C442 416 464 438 464 466H414C386 466 364 444 364 416Z " transform="matrix(-0.07232924946384998,0.2522420692924029,-0.2522420692924029,-0.07232924946384998,555.1830618359836,368.46898232650307)" filter="url(#llleaves-blur-3)" opacity="0.40"></path><path d="M604 206H654C682 206 704 228 704 256H654C626 256 604 234 604 206Z " transform="matrix(-0.3702169516466641,-0.18863495869822347,0.18863495869822347,-0.3702169516466641,852.5472109176287,439.8873788190176)" opacity="0.64"></path><path d="M396 629H446C474 629 496 651 496 679H446C418 679 396 657 396 629Z " transform="matrix(-0.1264535784654421,0.2481791215549966,-0.2481791215549966,-0.1264535784654421,664.707441492555,626.0127521028706)" filter="url(#llleaves-blur-3)" opacity="0.43"></path><path d="M4 107H54C82 107 104 129 104 157H54C26 157 4 135 4 107Z " transform="matrix(-0.2967639327346149,0.15120877622033913,-0.15120877622033913,-0.2967639327346149,89.98481082875396,163.00756520507085)" filter="url(#llleaves-blur-2)" opacity="0.51"></path></g></svg>