<svg xmlns="http://www.w3.org/2000/svg" id="Icons" viewBox="0 0 60 60" width="512" height="512"><path d="M57,19h-.162c-.014-.035-.021-.074-.036-.108a6.221,6.221,0,0,0-2.6-2.55,6.065,6.065,0,0,1-1.689-1.378,6.087,6.087,0,0,1-.641-2.111,6.173,6.173,0,0,0-1.363-3.36A6.17,6.17,0,0,0,47.148,8.13a6.087,6.087,0,0,1-2.111-.641A6.057,6.057,0,0,1,43.66,5.8a6.174,6.174,0,0,0-2.554-2.595,6.085,6.085,0,0,0-3.612.023,6.083,6.083,0,0,1-2.209.218A5.95,5.95,0,0,1,33.4,2.432,6.22,6.22,0,0,0,30,1a6.22,6.22,0,0,0-3.4,1.432,5.966,5.966,0,0,1-1.883,1.016,6.209,6.209,0,0,1-2.212-.221A6.13,6.13,0,0,0,18.893,3.2a6.226,6.226,0,0,0-2.551,2.6,6.052,6.052,0,0,1-1.379,1.69,6.087,6.087,0,0,1-2.111.641A6.17,6.17,0,0,0,9.493,9.493a6.173,6.173,0,0,0-1.363,3.36,6.083,6.083,0,0,1-.64,2.109A6.037,6.037,0,0,1,5.8,16.339,6.178,6.178,0,0,0,3.2,18.916c-.01.027-.016.056-.026.084H3a3,3,0,0,0-3,3V38a3,3,0,0,0,3,3h.162c.014.035.021.074.036.108a6.226,6.226,0,0,0,2.6,2.55,6.065,6.065,0,0,1,1.689,1.378,6.087,6.087,0,0,1,.641,2.111,6.173,6.173,0,0,0,1.363,3.36,6.17,6.17,0,0,0,3.359,1.363,6.087,6.087,0,0,1,2.111.641A6.057,6.057,0,0,1,16.34,54.2a6.174,6.174,0,0,0,2.554,2.595,6.085,6.085,0,0,0,3.612-.023,6.012,6.012,0,0,1,2.209-.218A5.95,5.95,0,0,1,26.6,57.568,6.22,6.22,0,0,0,30,59a6.22,6.22,0,0,0,3.4-1.432,5.966,5.966,0,0,1,1.883-1.016,6.143,6.143,0,0,1,2.212.221,6.147,6.147,0,0,0,3.616.029,6.226,6.226,0,0,0,2.551-2.6,6.052,6.052,0,0,1,1.379-1.69,6.087,6.087,0,0,1,2.111-.641,6.17,6.17,0,0,0,3.359-1.363,6.173,6.173,0,0,0,1.363-3.36,6.083,6.083,0,0,1,.64-2.109A6.037,6.037,0,0,1,54.2,43.661,6.178,6.178,0,0,0,56.8,41.084c.01-.027.016-.056.026-.084H57a3,3,0,0,0,3-3V22A3,3,0,0,0,57,19ZM6.9,18.015a7.49,7.49,0,0,0,2.255-1.939,7.526,7.526,0,0,0,.944-2.852,4.711,4.711,0,0,1,.812-2.317,4.707,4.707,0,0,1,2.316-.812,7.5,7.5,0,0,0,2.853-.945,7.477,7.477,0,0,0,1.942-2.259,4.774,4.774,0,0,1,1.644-1.847,4.678,4.678,0,0,1,2.436.141,7.663,7.663,0,0,0,3.007.226,7.374,7.374,0,0,0,2.629-1.328A4.729,4.729,0,0,1,30,3a4.729,4.729,0,0,1,2.266,1.083A7.374,7.374,0,0,0,34.9,5.411a7.532,7.532,0,0,0,3.01-.222,4.61,4.61,0,0,1,2.432-.135A4.715,4.715,0,0,1,41.985,6.9a7.49,7.49,0,0,0,1.939,2.255,7.519,7.519,0,0,0,2.853.944,4.707,4.707,0,0,1,2.316.812,4.711,4.711,0,0,1,.812,2.317,7.531,7.531,0,0,0,.945,2.854,7.478,7.478,0,0,0,2.258,1.939A9.655,9.655,0,0,1,54.437,19H50.188A22.981,22.981,0,0,0,9.813,19H5.565A9.686,9.686,0,0,1,6.9,18.015ZM47.886,19H12.114a21,21,0,0,1,35.772,0ZM53.1,41.985a7.49,7.49,0,0,0-2.255,1.939,7.526,7.526,0,0,0-.944,2.852,4.711,4.711,0,0,1-.812,2.317,4.707,4.707,0,0,1-2.316.812,7.5,7.5,0,0,0-2.853.945,7.477,7.477,0,0,0-1.942,2.259,4.774,4.774,0,0,1-1.644,1.847,4.678,4.678,0,0,1-2.436-.141,7.627,7.627,0,0,0-3.007-.226,7.374,7.374,0,0,0-2.629,1.328A4.729,4.729,0,0,1,30,57a4.729,4.729,0,0,1-2.266-1.083,7.374,7.374,0,0,0-2.629-1.328,7.548,7.548,0,0,0-3.01.222,4.642,4.642,0,0,1-2.432.135A4.715,4.715,0,0,1,18.015,53.1a7.49,7.49,0,0,0-1.939-2.255,7.519,7.519,0,0,0-2.853-.944,4.707,4.707,0,0,1-2.316-.812,4.711,4.711,0,0,1-.812-2.317,7.531,7.531,0,0,0-.945-2.854,7.478,7.478,0,0,0-2.258-1.939A9.655,9.655,0,0,1,5.563,41h4.25a22.981,22.981,0,0,0,40.375,0h4.247A9.686,9.686,0,0,1,53.1,41.985ZM12.114,41H47.886a21,21,0,0,1-35.772,0ZM58,38a1,1,0,0,1-1,1H3a1,1,0,0,1-1-1V22a1,1,0,0,1,1-1H57a1,1,0,0,1,1,1Z"></path><path d="M10,35H9V24a1,1,0,0,0-1.707-.707l-2,2a1,1,0,0,0,1.414,1.414L7,26.414V35H6a1,1,0,0,0,0,2h4a1,1,0,0,0,0-2Z"></path><path d="M19,23c-3.309,0-6,3.14-6,7s2.691,7,6,7,6-3.14,6-7S22.309,23,19,23Zm0,12c-2.206,0-4-2.243-4-5s1.794-5,4-5,4,2.243,4,5S21.206,35,19,35Z"></path><path d="M33,23c-3.309,0-6,3.14-6,7s2.691,7,6,7,6-3.14,6-7S36.309,23,33,23Zm0,12c-2.206,0-4-2.243-4-5s1.794-5,4-5,4,2.243,4,5S35.206,35,33,35Z"></path><path d="M47,26a3,3,0,1,0-3,3A3,3,0,0,0,47,26Zm-4,0a1,1,0,1,1,1,1A1,1,0,0,1,43,26Z"></path><path d="M52,31a3,3,0,1,0,3,3A3,3,0,0,0,52,31Zm0,4a1,1,0,1,1,1-1A1,1,0,0,1,52,35Z"></path><path d="M53.707,24.293a1,1,0,0,0-1.414,0l-10,10a1,1,0,1,0,1.414,1.414l10-10A1,1,0,0,0,53.707,24.293Z"></path></svg>