<svg xmlns="http://www.w3.org/2000/svg" xmlns:xlink="http://www.w3.org/1999/xlink" id="Capa_1" x="0px" y="0px" viewBox="0 0 378.006 378.006" style="enable-background:new 0 0 378.006 378.006;" xml:space="preserve">
<g>
	<path d="M366.112,56.33c-8.114-1.719-16.066,3.462-17.783,11.565l-4.25,20.06c-10.116,0.891-16.566,3.072-22.399,5.055   c-6.371,2.166-11.403,3.876-22.675,3.876c-11.272,0-16.305-1.71-22.677-3.876c-7.546-2.565-16.099-5.472-32.329-5.472   s-24.783,2.907-32.328,5.472c-6.371,2.166-11.403,3.876-22.675,3.876c-11.27,0-16.302-1.71-22.672-3.876   c-7.546-2.565-16.099-5.473-32.328-5.473c-16.23,0-24.783,2.907-32.329,5.473c-6.37,2.165-11.401,3.876-22.67,3.876   c-11.271,0-16.302-1.71-22.672-3.876c-5.832-1.983-12.283-4.164-22.398-5.055l-4.25-20.06c-1.716-8.104-9.672-13.282-17.783-11.565   C3.79,58.048-1.389,66.009,0.329,74.114l50,236c1.468,6.932,7.588,11.891,14.674,11.891h248c7.086,0,13.206-4.959,14.674-11.891   l50-236C379.394,66.009,374.216,58.048,366.112,56.33z M300.848,292.005H77.158L40.607,119.488   c2.052,0.565,3.987,1.221,6.062,1.926c7.546,2.565,16.099,5.473,32.328,5.473c16.229,0,24.78-2.907,32.326-5.472   c6.37-2.166,11.402-3.877,22.673-3.877c11.271,0,16.302,1.711,22.672,3.876c7.546,2.565,16.099,5.473,32.328,5.473   c16.23,0,24.783-2.907,32.33-5.473c6.37-2.165,11.402-3.876,22.673-3.876c11.271,0,16.304,1.711,22.675,3.876   c7.546,2.565,16.1,5.473,32.331,5.473c16.23,0,24.783-2.907,32.329-5.472c2.075-0.706,4.011-1.361,6.064-1.927L300.848,292.005z"></path>
	<path d="M184.726,216.004h-14.249v-70.497c0-4.142-3.357-7.5-7.5-7.5h-5.999c-2.548,0-4.922,1.294-6.303,3.436l-51.748,80.247   c-0.781,1.211-1.197,2.622-1.197,4.064v3.75c0,4.142,3.357,7.5,7.5,7.5h44.248v25.499c0,4.142,3.357,7.5,7.5,7.5h5.999   c4.143,0,7.5-3.358,7.5-7.5v-25.499h14.249c4.143,0,7.5-3.358,7.5-7.5v-6C192.226,219.362,188.869,216.004,184.726,216.004z    M127.618,216.012l21.86-33.964v33.955l-21.075,0.001L127.618,216.012z"></path>
	<path d="M237.976,136.507c-26.882,0-42.299,15.581-42.299,42.749v49.498c0,27.168,15.417,42.749,42.299,42.749   c26.882,0,42.299-15.581,42.299-42.749v-49.498C280.275,152.088,264.858,136.507,237.976,136.507z M238.427,250.803h-0.9   c-14.98,0-20.549-6.382-20.549-23.549v-46.498c0-17.166,5.569-23.549,20.549-23.549h0.9c14.98,0,20.549,6.382,20.549,23.549v46.498   C258.976,244.42,253.406,250.803,238.427,250.803z"></path>
</g>
<g>
</g>
<g>
</g>
<g>
</g>
<g>
</g>
<g>
</g>
<g>
</g>
<g>
</g>
<g>
</g>
<g>
</g>
<g>
</g>
<g>
</g>
<g>
</g>
<g>
</g>
<g>
</g>
<g>
</g>
</svg>