<svg xmlns="http://www.w3.org/2000/svg" xmlns:xlink="http://www.w3.org/1999/xlink" x="0px" y="0px" viewBox="0 0 1000 1000" xml:space="preserve">
<metadata> Svg Vector Icons : http://www.onlinewebfonts.com/icon </metadata>
<g><path d="M697.7,876.4c-16.2,0-23.3,5.3-34,13.3c-13.2,10-29.7,22.3-60.8,22.3c-31.1,0-47.6-12.4-60.8-22.3c-10.7-8-17.7-13.3-33.9-13.3c-16.2,0-23.3,5.3-34,13.3c-13.2,10-29.7,22.3-60.8,22.3c-31.2,0-47.6-12.4-60.8-22.3c-10.7-8-17.7-13.3-34-13.3c-16.2,0-23.3,5.3-34,13.3c-11.6,8.7-25.7,19.3-50,21.8C311.2,961.1,402.2,990,500,990c99.3,0,191.7-29.8,269-80.7c-16.7-4.2-27.9-12.4-37.3-19.5C721,881.7,714,876.4,697.7,876.4z"></path><path d="M151.5,750.3c22.3,0,32.1-6.1,45.6-14.5c15.2-9.4,34.1-21.2,69.2-21.2c0.8,0,1.5,0.1,2.3,0.1c-3.4-6-6.6-11.9-9.4-17.8c-11.4-24.3-21.5-47.5-30.3-70c-20.4,1.4-31.2,7.4-44.6,14.8c-17.5,9.7-37.3,20.6-75.3,20.6c-38,0-57.8-11-75.3-20.6c-1.2-0.6-2.3-1.3-3.5-1.9c8,26.7,18.2,52.4,30.4,77c20.4,3.8,33.8,12.1,45.1,19.1C119.4,744.3,129.2,750.3,151.5,750.3z"></path><path d="M381.2,750.3c18.9,0,28.9-4.4,39.7-10.8c5.6-7.4,10.1-17,13.9-29.6c2.1-7,4.1-14,6.1-21.1c5-17.8,10.2-36.2,17.4-54.1c0.2-0.5,0.5-1,0.7-1.6c-5.7,2.4-11,5.3-16.7,8.5c-17.5,9.7-37.3,20.6-75.3,20.6c-38,0-57.8-11-75.3-20.6c-3.7-2.1-7.2-4-10.8-5.8c5.8,13.7,11.9,27.6,18.7,42c9.4,19.9,23.2,40.4,40.7,61C351.7,745.7,361.6,750.3,381.2,750.3z"></path><path d="M520.8,716.9c-1.6-5.3-3.1-10.6-4.6-15.9c-4.9-17.4-9.6-33.9-15.9-49.7c-0.1-0.2-0.2-0.5-0.3-0.7c-0.1,0.2-0.2,0.5-0.3,0.7c-6.3,15.8-10.9,32.2-15.9,49.7c-1.4,4.9-2.8,9.8-4.3,14.7c5.1-0.6,10.5-1.1,16.5-1.1C505.4,714.6,513.5,715.5,520.8,716.9z"></path><path d="M771.5,773.7c-13.6-8.4-23.4-14.5-45.7-14.5c-13.2,0-22,2.2-29.8,5.6c-2.8,3.4-5.5,6.8-8.5,10.2c-25.5,28.7-62.1,37.3-100.3,23.4c-9.4-3.4-17.2-7.9-24.1-13c-8.3-3.7-15.2-7.9-21.4-11.7c-13.5-8.4-23.3-14.5-45.6-14.5c-22.4,0-32.1,6.1-45.7,14.5c-0.1,0-0.1,0.1-0.2,0.1c-9.3,10-21.3,18.8-37.4,24.6c-38.2,13.8-74.7,5.4-100.3-23.4c-0.6-0.7-1.1-1.3-1.7-2c-13-8.1-22.8-13.8-44.6-13.8c-22.3,0-32.1,6.1-45.6,14.5c-15.2,9.4-34.1,21.2-69.2,21.2c-22,0-37.6-4.6-50-10.4c12,16.7,25,32.8,38.9,47.9c24,2.6,37.9,13.1,49.4,21.7c10.7,8,17.7,13.4,34,13.4c16.2,0,23.3-5.3,34-13.4c13.2-9.9,29.6-22.3,60.8-22.3c31.2,0,47.6,12.4,60.8,22.3c10.7,8,17.7,13.4,34,13.4c16.2,0,23.3-5.3,34-13.4c13.2-10,29.7-22.3,60.8-22.3c31.1,0,47.6,12.4,60.8,22.3c10.7,8,17.7,13.3,33.9,13.3c16.3,0,23.3-5.3,34-13.4c13.2-9.9,29.7-22.3,60.8-22.3c31.2,0,47.6,12.4,60.8,22.3c10.7,8.1,17.8,13.4,34.1,13.4c16.3,0,23.4-5.3,34.1-13.4c7.5-5.7,16.3-12.1,28-16.6c17.6-18.5,33.7-38.5,48.3-59.6c-14.1,8.4-32.3,17-62.3,17C805.6,795,786.7,783.2,771.5,773.7z"></path><path d="M871.9,181.5c-5.1,31.5-15.5,65.1-36.4,76.7c0,0-36.8,28.7-161.6-16.3c-19.3-7-43.2-3.5-67.6,10.8c-33.3,19.4-67.7,29.6-105.4,31.2c-0.6,0-1.3,0-1.9,0c-37.7-1.6-72.2-11.8-105.4-31.2c-42.7-24.9-92.3-13.5-129.5,29.8c-34.4,40-45.4,89-36.7,164c5,43.7,15.7,88.5,32.9,137c24.1,3.3,39.3,11.6,53,19.1c15.2,8.4,27.2,15.1,53.7,15.1c26.5,0,38.5-6.6,53.7-15.1C438.2,592.9,458,582,496,582c38,0,57.8,11,75.3,20.6c15.2,8.4,27.2,15.1,53.7,15.1c26.5,0,38.5-6.6,53.7-15.1c15.2-8.4,32.1-17.7,61.2-20.1c17-48.1,27.6-92.6,32.6-136c4.9-42.7,3.5-75.8-4.6-104.2c-3.3-11.9,3.6-24.2,15.4-27.5c11.7-3.4,24.2,3.5,27.5,15.4c9.7,34.1,11.5,72.7,6,121.4c-4.9,43-15.1,86.9-30.8,133.6c18.6,4,31.5,10.9,43.2,17.4c15.2,8.4,27.2,15.1,53.8,15.1c26.5,0,38.5-6.6,53.8-15.1c12.2-6.8,25.7-14.1,45.6-17.9c4.8-27.5,7.5-55.8,7.5-84.7C990,378.5,945.5,267.3,871.9,181.5z"></path><path d="M585.6,746.5c6.7,2.4,14.6,3.8,25.3,3.8c22.4,0,32.1-6.1,45.7-14.5c3.5-2.2,7.2-4.4,11.2-6.7c13.8-17.3,24.7-34.5,32.6-51.3c7.5-15.8,14.1-31.1,20.4-46.1c-7.2,2.6-13.5,6.1-20.4,9.9c-17.5,9.7-37.3,20.6-75.3,20.6c-38,0-57.8-11-75.3-20.6c-2.4-1.3-4.6-2.5-6.9-3.7c6.6,16.9,11.6,34.2,16.3,50.9c2,7,4,14.1,6.1,21.1C570.4,727,576.8,738.6,585.6,746.5z"></path><path d="M883.2,662.3c-38,0-57.9-11-75.3-20.6c-11.6-6.4-21.4-11.8-37.1-14c-8.8,22.3-18.7,45.3-30,69.2c-2.8,6-6,12-9.4,18c31.5,1.2,49.3,12.1,63.7,21c13.6,8.4,23.3,14.5,45.7,14.5c22.4,0,32.2-6.1,45.7-14.5c12.7-7.9,28.1-17.3,53.2-20.2c12.7-25.7,23.1-52.5,31.2-80.5c-4.1,2-8.2,4.2-12.4,6.5C941,651.3,921.2,662.3,883.2,662.3z"></path><path d="M109.1,617.7c26.5,0,38.5-6.6,53.7-15.1c13.2-7.3,27.8-15.4,50.6-18.8c-15.4-46.1-25.4-89.6-30.3-132.2c-6.8-58.8-7.5-134.5,47.2-198.2c51.3-59.8,124.3-75.2,185.8-39.2c26.5,15.5,54,23.7,83.9,25.1c29.9-1.4,57.3-9.6,83.9-25.1c36.4-21.2,74.1-26.2,106-14c103.2,39.4,122.8,18,124.7,15.5c0.1-0.1,0.2-0.1,0.2-0.2c9.2-12.2,15.4-44.8,16.9-75.7C744.4,59.3,627.9,10,500,10C229.8,10,10,229.8,10,500c0,29.5,2.7,58.4,7.8,86.5c15.7,4.1,27.1,10.3,37.7,16.2C70.6,611,82.6,617.7,109.1,617.7z"></path></g>
</svg>