<svg xmlns="http://www.w3.org/2000/svg" id="_46786522-babc-40ab-b44b-f150a9741797" data-name="46786522-babc-40ab-b44b-f150a9741797" width="512" height="512" viewBox="0 0 512 512"><circle id="Ellipse_1" data-name="Ellipse 1" cx="256" cy="256" r="256" fill="#fff"></circle><path id="Path_11" data-name="Path 11" d="M271.41,253.9a16.62,16.62,0,1,1-16.62-16.62,16.62,16.62,0,0,1,16.62,16.62Z" fill="#14d24c"></path><path id="Path_12" data-name="Path 12" d="M238.74,231.08,209.1,174.26s53.51-32.11,91.39,0l-21.4,56.82Z" fill="#14d24c"></path><path id="Path_13" data-name="Path 13" d="M240.83,282,204,334.45s-53.11-32.74-42-81.15l60.29-7.14Z" fill="#14d24c"></path><path id="Path_14" data-name="Path 14" d="M271.16,282,308,334.45s53.11-32.74,42-81.15l-60.3-7.14Z" fill="#14d24c"></path><path id="Path_15" data-name="Path 15" d="M256,384.83A128.83,128.83,0,1,1,384.83,256,128.83,128.83,0,0,1,256,384.83Zm0-243.15A114.32,114.32,0,1,0,370.32,256,114.32,114.32,0,0,0,256,141.68Z" fill="#14d24c"></path></svg>