<svg xmlns="http://www.w3.org/2000/svg" id="Layer_1" data-name="Layer 1" viewBox="0 0 512 512"><title>radio-active-flat</title><circle cx="256" cy="256" r="256" fill="#f3eeda"></circle><path d="M271.41,253.9a16.62,16.62,0,1,1-16.62-16.62A16.62,16.62,0,0,1,271.41,253.9Z" fill="#98d3cb"></path><path d="M238.74,231.08,209.1,174.26s53.51-32.11,91.39,0l-21.4,56.82Z" fill="#98d3cb"></path><path d="M240.83,282,204,334.45S150.89,301.71,162,253.3l60.29-7.14Z" fill="#98d3cb"></path><path d="M271.16,282,308,334.45S361.11,301.71,350,253.3l-60.3-7.14Z" fill="#98d3cb"></path><path d="M256,384.83A128.83,128.83,0,1,1,384.83,256,129,129,0,0,1,256,384.83Zm0-243.15A114.32,114.32,0,1,0,370.32,256,114.45,114.45,0,0,0,256,141.68Z" fill="#98d3cb"></path></svg>