<svg xmlns="http://www.w3.org/2000/svg" id="outline" viewBox="0 0 512 512"><path d="M304,128V96a48,48,0,0,0-96,0v32a24.0275,24.0275,0,0,0,24,24h48A24.0275,24.0275,0,0,0,304,128Zm-80,0V96a32,32,0,0,1,64,0v32a8.00917,8.00917,0,0,1-8,8H232A8.00917,8.00917,0,0,1,224,128Z"></path><path d="M216,256a24,24,0,1,0,24,24A24.0275,24.0275,0,0,0,216,256Zm0,32a8,8,0,1,1,8-8A8.00917,8.00917,0,0,1,216,288Z"></path><path d="M344,144h-2.02539A63.89483,63.89483,0,0,0,344,128V104a88,88,0,0,0-176,0v24a63.89483,63.89483,0,0,0,2.02539,16H168a72.08124,72.08124,0,0,0-72,72V328a24,24,0,0,0,48,0V297.44922l8-21.332v175.3291a36.71,36.71,0,0,0-16,30.44238V488a8.00039,8.00039,0,0,0,8,8h80a8.00039,8.00039,0,0,0,8-8V417.4104l24-66.00122,24,66.00122V488a8.00039,8.00039,0,0,0,8,8h80a8.00039,8.00039,0,0,0,8-8v-6.11133a36.71,36.71,0,0,0-16-30.44238V276.11719l8,21.332V328a24,24,0,0,0,48,0V216A72.08124,72.08124,0,0,0,344,144ZM120,336a8.00917,8.00917,0,0,1-8-8V304h16v24A8.00917,8.00917,0,0,1,120,336Zm96,144H152.083a20.81744,20.81744,0,0,1,11.49511-16.84473A8.00022,8.00022,0,0,0,168,456V424h48v25.37622A23.88238,23.88238,0,0,0,208,448H184v16h24a8.00917,8.00917,0,0,1,8,8Zm80,0v-8a8.00917,8.00917,0,0,1,8-8h24V448H304a23.88238,23.88238,0,0,0-8,1.37622V424h48v32a8.00022,8.00022,0,0,0,4.42188,7.15527A20.81744,20.81744,0,0,1,359.917,480Zm63.49023-250.80859A7.99958,7.99958,0,0,0,344,232V408H293.60352l-30.085-82.73438a8.00052,8.00052,0,0,0-15.0371,0L218.39648,408H168V232a7.99958,7.99958,0,0,0-15.49023-2.80859L130.45605,288H112V216a56.0629,56.0629,0,0,1,56-56h8.60986A64.02279,64.02279,0,0,0,232,192V176a48.05375,48.05375,0,0,1-48-48V104a72,72,0,0,1,144,0v24a48.05375,48.05375,0,0,1-48,48v16a64.02279,64.02279,0,0,0,55.39014-32H344a56.0629,56.0629,0,0,1,56,56v72H381.544ZM392,336a8.00917,8.00917,0,0,1-8-8V304h16v24A8.00917,8.00917,0,0,1,392,336Z"></path></svg>