<svg xmlns="http://www.w3.org/2000/svg" id="Layer_1" height="512" viewBox="0 0 512 512" width="512"><g><g><path d="m85.997 211.372c4.142 0 7.5-3.358 7.5-7.5v-175.742c0-7.24 5.89-13.13 13.13-13.13h245.605c4.142 0 7.5-3.358 7.5-7.5s-3.358-7.5-7.5-7.5h-245.605c-15.511 0-28.13 12.619-28.13 28.13v175.742c0 4.142 3.358 7.5 7.5 7.5z"></path><path d="m490.868 360.694c-3.039-2.477-7.256-2.919-10.741-1.124l-28.231 14.527c-2.698-4.055-6.749-10.396-11.612-18.799-2.074-3.584-6.664-4.81-10.248-2.734-3.585 2.075-4.809 6.663-2.734 10.248 9.414 16.266 15.852 25.052 16.121 25.418 2.184 2.967 6.198 3.909 9.472 2.223l23.63-12.16-19.207 68.833-67.177-24.381 23.63-12.159c1.96-1.009 3.376-2.831 3.873-4.978.498-2.147.023-4.407-1.293-6.175-.185-.248-18.701-25.349-38.164-71.899-17.432-41.695-39.114-109.391-44.963-197.553h21.716c2.719 56.514 26.492 146.975 57.084 204.269 1.837 3.712 6.337 5.232 10.048 3.395 3.712-1.837 5.233-6.336 3.395-10.048-5.552-11.217-11.461-24.184-17.299-38.737 14.203-1.408 25.334-13.423 25.334-27.99v-232.74c0-15.511-12.619-28.13-28.13-28.13h-21.217c-4.142 0-7.5 3.358-7.5 7.5s3.358 7.5 7.5 7.5h21.217c7.24 0 13.13 5.89 13.13 13.13v232.74c0 7.24-5.89 13.13-13.13 13.13h-2.918c-1.971-5.347-3.916-10.88-5.82-16.584 4.087-2.222 6.867-6.555 6.867-11.526v-202.78c0-7.229-5.881-13.11-13.11-13.11h-268.783c-7.229 0-13.11 5.881-13.11 13.11v202.78c0 4.959 2.769 9.283 6.841 11.51-1.915 5.751-3.859 11.292-5.811 16.6h-2.9c-7.24 0-13.13-5.89-13.13-13.13v-24.793c0-4.142-3.358-7.5-7.5-7.5s-7.5 3.358-7.5 7.5v24.793c0 14.564 11.126 26.577 25.325 27.99-2.886 7.211-5.741 13.912-8.487 20.047-14.728 32.893-28.827 55.537-35.236 65.188l-28.226-14.524c-3.485-1.793-7.702-1.354-10.742 1.124-3.04 2.477-4.322 6.518-3.269 10.293l23.862 85.512c.735 2.636 2.552 4.865 4.985 6.117 1.407.724 2.96 1.091 4.517 1.091 1.136 0 2.274-.195 3.359-.589l83.455-30.288h.001c3.686-1.338 6.227-4.731 6.476-8.644.249-3.912-1.843-7.599-5.329-9.393l-26.535-13.654c7.028-10.773 20.552-33.381 34.754-67.238 5.317-12.677 11.017-27.701 16.564-44.902h62.528v138.959h-32.69c-3.6 0-6.858 2.132-8.298 5.432-1.44 3.299-.79 7.138 1.657 9.777l60.358 65.131c2.179 2.352 5.268 3.7 8.474 3.7s6.295-1.349 8.473-3.7l60.358-65.13c2.447-2.641 3.098-6.479 1.658-9.778-1.441-3.3-4.698-5.432-8.298-5.432h-32.692v-138.959h62.526c5.547 17.201 11.247 32.225 16.564 44.902 14.202 33.857 27.727 56.465 34.754 67.238l-26.535 13.654c-3.486 1.793-5.578 5.48-5.329 9.393s2.79 7.305 6.477 8.644l83.455 30.288c1.085.394 2.223.589 3.359.589 1.557 0 3.11-.367 4.517-1.091 2.433-1.252 4.25-3.481 4.985-6.117l23.862-85.512c1.055-3.776-.227-7.817-3.267-10.294zm-162.59-149.944h-42.778v-45h35.946c1.852 15.765 4.175 30.771 6.832 45zm-42.778 15h45.757c1.319 6.255 2.701 12.333 4.129 18.25h-49.886zm34.361-75h-34.361v-20.768h32.7c.458 7.051 1.014 13.973 1.661 20.768zm-196.363-35.768v-45h265.004v45zm67.055 50.768h35.947v45h-42.778c2.657-14.229 4.98-29.235 6.831-45zm-9.81 60h45.757v18.25h-49.886c1.428-5.917 2.81-11.995 4.129-18.25zm45.757-75h-34.361c.647-6.795 1.204-13.717 1.661-20.768h32.7zm-97.797 60h-5.205v-45h14.132c-2.459 15.779-5.506 30.806-8.927 45zm11.05-60h-16.255v-20.768h18.501c-.624 7.043-1.378 13.968-2.246 20.768zm234.609 15h14.14v45h-5.246c-3.434-14.265-6.456-29.286-8.894-45zm14.14-35.768v20.768h-16.254c-.865-6.809-1.627-13.725-2.249-20.768zm-1.417 95.768h1.417v5.154c-.478-1.706-.95-3.424-1.417-5.154zm1.417-180.75v9.982h-265.004v-9.982zm-265.004 180.75h1.372c-.454 1.68-.91 3.352-1.372 5.005zm10.316 101.785c-19.463 46.55-37.979 71.651-38.16 71.894-1.32 1.768-1.796 4.027-1.299 6.177.496 2.149 1.914 3.972 3.876 4.981l23.63 12.159-67.177 24.38-19.207-68.833 23.63 12.16c3.274 1.685 7.288.744 9.472-2.223 42.025-58.065 80.992-159.978 88.481-258.249h21.717c-5.849 88.163-27.531 155.859-44.963 197.554zm34.782-53.535c1.428-4.853 2.833-9.852 4.209-15h53.695v15zm135.979 168.959-48.575 52.416-48.575-52.416h26.575c4.142 0 7.5-3.358 7.5-7.5v-305.477h29v305.478c0 4.142 3.358 7.5 7.5 7.5zm-19.075-168.959v-15h53.694c1.376 5.148 2.781 10.147 4.209 15z"></path></g></g></svg>