<svg xmlns="http://www.w3.org/2000/svg" id="Layer_3" height="512" viewBox="0 0 64 64" width="512"><path d="m35 45h-9v-6c0-2.206-1.794-4-4-4h-1c-.552 0-1 .447-1 1v5.586l-3.414 3.414h-6.586v-42h36v7c0 .553.448 1 1 1h7v21h2v-22c0-.277-.112-.527-.294-.708l-7.998-7.998c-.181-.182-.431-.294-.708-.294h-38c-.552 0-1 .447-1 1v43h-7v2h12v12h-12v2h15.764l3.789 1.895c.138.069.292.105.447.105h12c1.654 0 3-1.346 3-3v-2-4-4-4c0-.553-.448-1-1-1zm13-40.586 4.586 4.586h-4.586zm-14 55.586c0 .552-.449 1-1 1h-11.764l-3.789-1.895c-.138-.069-.292-.105-.447-.105h-2v-12h2c.265 0 .52-.105.707-.293l4-4c.188-.187.293-.441.293-.707v-5c1.103 0 2 .897 2 2v7c0 .553.448 1 1 1h9v2h-8v2h8v2h-8v2h8v2h-8v2h8z"></path><path d="m60 53h-1v-1c0-1.654-1.346-3-3-3h-2v-1.751c0-2.625.621-5.254 1.795-7.603l.1-.199c.069-.138.105-.292.105-.447v-1c0-2.757-2.243-5-5-5s-5 2.243-5 5v1c0 .155.036.309.105.447l.1.199c1.174 2.349 1.795 4.978 1.795 7.603v1.751h-2c-1.654 0-3 1.346-3 3v1h-1c-1.654 0-3 1.346-3 3v2c0 .553.448 1 1 1h1v3c0 .553.448 1 1 1h18c.552 0 1-.447 1-1v-3h1c.552 0 1-.447 1-1v-2c0-1.654-1.346-3-3-3zm-12-14.236v-.764c0-1.654 1.346-3 3-3s3 1.346 3 3v.764c-1.309 2.622-2 5.556-2 8.485v1.751h-2v-1.751c0-2.93-.691-5.863-2-8.485zm-3 13.236c0-.552.449-1 1-1h10c.551 0 1 .448 1 1v1h-12zm14 9h-16v-2h16zm2-4h-20v-1c0-.552.449-1 1-1h18c.551 0 1 .448 1 1z"></path><path d="m12 5h32v2h-32z"></path><path d="m12 9h32v2h-32z"></path><path d="m12 13h32v2h-32z"></path><path d="m47 28c0-6.065-4.935-11-11-11s-11 4.935-11 11 4.935 11 11 11 11-4.935 11-11zm-11 9c-4.962 0-9-4.037-9-9s4.038-9 9-9 9 4.037 9 9-4.038 9-9 9z"></path><path d="m35.635 31.221-2.928-2.928-1.414 1.414 4 4c.189.189.444.293.707.293.067 0 .134-.007.201-.021.329-.067.603-.296.728-.608l4-10-1.857-.742z"></path></svg>