<svg xmlns="http://www.w3.org/2000/svg" id="Layer_1" height="512" viewBox="0 0 512 512" width="512"><g><path d="m424.5 409.472h40c9.649 0 17.5-7.851 17.5-17.5v-22.305h14.5c8.547 0 15.5-6.953 15.5-15.5v-70c0-8.547-6.953-15.5-15.5-15.5h-14.5v-20.694c0-9.649-7.851-17.5-17.5-17.5h-1.5v-5.414h14.5c8.547 0 15.5-6.953 15.5-15.5v-53.335c0-8.547-6.953-15.5-15.5-15.5h-14.5v-20.694c0-9.649-7.851-17.5-17.5-17.5h-17.09v-3.53h16.504c7.444 0 13.5-6.056 13.5-13.5v-41c0-7.444-6.056-13.5-13.5-13.5h-16.504v-15.5c0-8.547-6.953-15.5-15.5-15.5h-43.99c-8.552 0-15.51 6.953-15.51 15.5v27h-9.357c-4.143 0-7.5 3.357-7.5 7.5s3.357 7.5 7.5 7.5h9.357v15h-52.218v-15h10.488c4.143 0 7.5-3.357 7.5-7.5s-3.357-7.5-7.5-7.5h-18.18v-29c0-7.444-6.056-13.5-13.5-13.5h-48c-7.444 0-13.5 6.056-13.5 13.5v29h-58.88v-25c0-9.649-7.851-17.5-17.5-17.5h-40c-9.649 0-17.5 7.851-17.5 17.5v13.5h-16.498c-7.444 0-13.5 6.056-13.5 13.5v41c0 7.444 6.056 13.5 13.5 13.5h16.498v3.53h-18.12c-9.649 0-17.5 7.851-17.5 17.5v20.693h-12.5c-9.649 0-17.5 7.851-17.5 17.5v49.335c0 9.649 7.851 17.5 17.5 17.5h12.5v5.414h-1.5c-9.649 0-17.5 7.851-17.5 17.5v20.694h-12.5c-9.649 0-17.5 7.851-17.5 17.5v66c0 9.649 7.851 17.5 17.5 17.5h12.5v22.305c0 9.649 7.851 17.5 17.5 17.5h40c9.649 0 17.5-7.851 17.5-17.5v-50.305h76.5v11.026c0 10.462 8.512 18.974 18.974 18.974h18.026v77.334h-173.654c-24.728 0-44.846 20.118-44.846 44.847 0 10.009 8.144 18.153 18.154 18.153h475.693c10.01 0 18.153-8.144 18.153-18.154 0-24.729-20.117-44.846-44.846-44.846h-83.38c-4.143 0-7.5 3.357-7.5 7.5s3.357 7.5 7.5 7.5h83.38c16.457 0 29.846 13.39 29.846 29.847 0 1.738-1.415 3.153-3.153 3.153h-475.693c-1.739 0-3.154-1.415-3.154-3.154 0-16.457 13.389-29.846 29.846-29.846h306.834c4.143 0 7.5-3.357 7.5-7.5s-3.357-7.5-7.5-7.5h-58.18v-77.333h18.025c10.463 0 18.975-8.512 18.975-18.974v-11.026h76.5v50.305c0 9.649 7.851 17.5 17.5 17.5zm3.914-363.472h15v38h-15zm-98.144 280.667h-148.539v-15h148.539zm-225.27-61.807h1.5c9.649 0 17.5-7.851 17.5-17.5v-41.97h57.5v11.025c0 10.463 8.512 18.975 18.974 18.975h18.026v20.61c0 4.143 3.358 7.5 7.5 7.5s7.5-3.357 7.5-7.5v-20.609h45v61.276h-45v-8.619c0-4.143-3.358-7.5-7.5-7.5s-7.5 3.357-7.5 7.5v8.619h-113.5zm173.5-147.36v42.891h-45v-42.891zm15.359 57.891v15h-75.718v-15zm94.141 0v15h-79.141v-15zm-101.981 45c-.006 0-.013-.001-.019-.001s-.013.001-.019.001h-59.961c-.006 0-.013-.001-.019-.001s-.013.001-.019.001h-25.507c-2.191 0-3.974-1.783-3.974-3.975v-11.025h119v11.025c0 2.191-1.783 3.975-3.975 3.975zm-82.878-30h-79.141v-15h79.141zm90.359 106.276v-61.276h18.025c10.463 0 18.975-8.512 18.975-18.975v-11.025h57.5v41.97c0 9.649 7.851 17.5 17.5 17.5h1.5v31.807h-113.5zm203-13c.275 0 .5.225.5.5v70c0 .275-.225.5-.5.5h-14.5v-71zm-29.5-35.694v143.999c0 1.379-1.121 2.5-2.5 2.5h-40c-1.379 0-2.5-1.121-2.5-2.5v-143.999c0-1.379 1.121-2.5 2.5-2.5h40c1.379 0 2.5 1.121 2.5 2.5zm10.5-92.249c.275 0 .5.225.5.5v53.335c0 .275-.225.5-.5.5h-14.5v-54.335zm-29.5-35.694v110.442h-23.5c-9.649 0-17.5 7.851-17.5 17.5v1.888h-1.5c-1.379 0-2.5-1.121-2.5-2.5v-127.33c0-1.379 1.121-2.5 2.5-2.5h40c1.379 0 2.5 1.121 2.5 2.5zm-79.08-105.03h43.99c.275 0 .5.225.5.5v87.03h-7.91c-7.901 0-14.588 5.266-16.755 12.47h-19.825c-.281 0-.51-.225-.51-.5v-34.423c0-.026.004-.051.004-.077v-30c0-.026-.004-.051-.004-.077v-34.423c0-.275.229-.5.51-.5zm0 115h19.08v30.391h-94.5v-42.891h18.025c10.463 0 18.975-8.512 18.975-18.975v-11.025h22.91v27c0 8.547 6.958 15.5 15.51 15.5zm-53.42-31.475c0 2.191-1.783 3.975-3.975 3.975h-111.051c-2.191 0-3.974-1.783-3.974-3.975v-11.025h119zm-29.308-26.025h-59.349v-15h59.349zm-7.692-57.5v27.5h-45v-27.5zm-118.878 42.5h52.222v15h-52.222zm21.878 30v11.025c0 10.463 8.512 18.975 18.974 18.975h18.026v42.891h-94.5v-30.391h18.12c9.649 0 17.5-7.851 17.5-17.5v-25zm-111.878-3.5v-38h14.998v38zm29.998 7.529c0-.01.001-.02.001-.029v-53c0-.01-.001-.02-.001-.029v-20.971c0-1.379 1.122-2.5 2.5-2.5h40c1.378 0 2.5 1.121 2.5 2.5v95c0 1.379-1.122 2.5-2.5 2.5h-18.865c-2.167-7.204-8.854-12.47-16.755-12.47h-6.88zm-63.12 118.53c-1.378 0-2.5-1.121-2.5-2.5v-49.335c0-1.379 1.122-2.5 2.5-2.5h12.5v54.335zm27.5-90.029c0-1.379 1.122-2.5 2.5-2.5h40c1.378 0 2.5 1.121 2.5 2.5v127.33c0 1.379-1.122 2.5-2.5 2.5h-1.5v-1.888c0-9.649-7.851-17.5-17.5-17.5h-23.5zm-46.5 234.637c-1.378 0-2.5-1.121-2.5-2.5v-66c0-1.379 1.122-2.5 2.5-2.5h12.5v71zm72.5 37.305c0 1.379-1.122 2.5-2.5 2.5h-40c-1.378 0-2.5-1.121-2.5-2.5v-143.999c0-1.379 1.122-2.5 2.5-2.5h40c1.378 0 2.5 1.121 2.5 2.5zm15-80.305h61.731v15h-61.731zm173.5 137.333h-45v-77.333h45zm37-96.307c0 2.191-1.783 3.974-3.975 3.974h-111.051c-2.191 0-3.974-1.782-3.974-3.974v-11.026h119zm29.77-26.026v-15h61.73v15z"></path></g></svg>