<svg xmlns="http://www.w3.org/2000/svg" id="Outline" viewBox="0 0 512 512" width="512" height="512"><path d="M425.272,76.52C380,37.493,319.886,16,256,16S132,37.493,86.728,76.52C41.118,115.838,16,168.214,16,224c0,61.348,30.912,119.074,84.865,158.711q4.418,9.174,9.711,18.057l-18.154,9.077a8,8,0,0,0,0,14.31l22.459,11.23a24.148,24.148,0,0,1,10.734,10.733l11.23,22.46a8,8,0,0,0,14.31,0l6.113-12.226C187.5,481.991,222.2,496,256,496H368a8,8,0,0,0,6.239-2.993l70.368-87.677A39.726,39.726,0,0,0,456,377.373V339.031C482.172,304.915,496,265.2,496,224,496,168.214,470.882,115.838,425.272,76.52ZM32,224C32,118.131,132.486,32,256,32a256.048,256.048,0,0,1,79.667,12.56C333.6,59.775,322.06,83.019,305.645,104.5,287.583,128.124,267.633,144,256,144c-48.527,0-92.495,13.839-123.8,38.967C98.05,210.376,80,249.462,80,296a190.753,190.753,0,0,0,8.658,55.593C52.347,316.644,32,271.447,32,224Zm369.85,41.157A32.969,32.969,0,0,0,392,288.541v76.714l-14.158,18.2a32,32,0,0,0-52.185-10.371,7.885,7.885,0,0,0-.93,1.117L251.86,479.91c-29.64-1.141-60.1-14.471-86.792-37.958a24.138,24.138,0,0,1,8.051-6.567l22.459-11.23a8,8,0,0,0,0-14.31l-22.459-11.23a24.148,24.148,0,0,1-10.734-10.733l-11.23-22.46a8,8,0,0,0-14.31,0l-11.23,22.459a23.725,23.725,0,0,1-2.069,3.386C105.734,360.947,96,327.454,96,296c0-41.517,15.98-76.289,46.214-100.555C170.69,172.588,211.1,160,256,160c39.619,0,75.178,9.517,102.831,27.521,26.464,17.231,44.474,41.744,52.431,71.2A32.181,32.181,0,0,0,401.85,265.157ZM144,447.111l-4.074-8.149a40.252,40.252,0,0,0-17.889-17.888L113.889,417l8.148-4.074a40.249,40.249,0,0,0,17.889-17.889L144,386.889l4.074,8.149a40.252,40.252,0,0,0,17.889,17.888L174.111,417l-8.148,4.074a40.249,40.249,0,0,0-17.889,17.889Zm296-69.738a23.839,23.839,0,0,1-7.029,16.97,7.812,7.812,0,0,0-.583.65L364.163,480H271.231l66.213-96.053A16,16,0,0,1,359.6,407.029a8.059,8.059,0,0,0-.815.955l-21.255,29.255a8,8,0,0,0,12.944,9.4l20.911-28.781a31.9,31.9,0,0,0,4.145-5.368l30.786-39.583v-.01A7.95,7.95,0,0,0,408,368V288.541a16.877,16.877,0,0,1,5.055-11.963A15.609,15.609,0,0,1,424.312,272,16.077,16.077,0,0,1,440,288ZM427.138,256.164c-8.754-34.029-29.248-62.3-59.576-82.051-22.508-14.654-49.621-24.165-79.619-28.078,13.158-10.374,24.452-24.025,30.412-31.824,19.892-26.022,29.509-48.634,32.542-64.1C427.1,80.784,480,147.191,480,224a169.312,169.312,0,0,1-24,86.518V288A32.174,32.174,0,0,0,427.138,256.164Z"></path><path d="M200,296a8,8,0,0,0,8-8,24,24,0,0,0-48,0,8,8,0,0,0,16,0,8,8,0,0,1,16,0A8,8,0,0,0,200,296Z"></path><path d="M328,264a24.027,24.027,0,0,0-24,24,8,8,0,0,0,16,0,8,8,0,0,1,16,0,8,8,0,0,0,16,0A24.027,24.027,0,0,0,328,264Z"></path><path d="M315.207,344.671a8,8,0,0,0-10.536,4.122C304.552,349.065,292.348,376,256,376c-35.867,0-48.13-26.017-48.687-27.243a8,8,0,0,0-14.642,6.45C193.328,356.709,209.305,392,256,392s62.672-35.291,63.329-36.793A8,8,0,0,0,315.207,344.671Z"></path><path d="M240,328h32a8,8,0,0,0,0-16H248V288a8,8,0,0,0-16,0v32A8,8,0,0,0,240,328Z"></path></svg>