<svg xmlns="http://www.w3.org/2000/svg" width="512" height="512" viewBox="0 0 512 512"><g><path d="M496,456H472V360a8,8,0,0,0-8-8H432a8,8,0,0,0,0-16H416V320h32a8,8,0,0,0,7.96-8.8l-8-80A8,8,0,0,0,440,224H376a8,8,0,0,0-7.96,7.2l-8,80A8,8,0,0,0,368,320h32v16H384a8,8,0,0,0,0,16H360a8,8,0,0,0-8,8v96H336V400a8,8,0,0,0,8-8v-8a32.01,32.01,0,0,0-16-27.69V288a32.042,32.042,0,0,0-32-32H88a32.042,32.042,0,0,0-32,32v68.31A32.01,32.01,0,0,0,40,384v8a8,8,0,0,0,8,8v56H16a8,8,0,0,0,0,16H496a8,8,0,0,0,0-16ZM72,288a16.021,16.021,0,0,1,16-16H296a16.021,16.021,0,0,1,16,16v64H278.62A23.982,23.982,0,0,0,256,320H224a23.982,23.982,0,0,0-22.62,32H182.62A23.982,23.982,0,0,0,160,320H128a23.982,23.982,0,0,0-22.62,32H72Zm192,56a8.011,8.011,0,0,1-8,8H224a8,8,0,0,1,0-16h32A8.011,8.011,0,0,1,264,344Zm-96,0a8.011,8.011,0,0,1-8,8H128a8,8,0,0,1,0-16h32A8.011,8.011,0,0,1,168,344ZM320,456H64v-8H320Zm0-24H64V400H320ZM56,384a16.021,16.021,0,0,1,16-16H312a16.021,16.021,0,0,1,16,16Zm320.84-80,6.4-64h49.52l6.4,64ZM456,456H368V400h88Zm0-72H368V368h88Z"></path><path d="M296,48H88a8,8,0,0,0-8,8V200a8,8,0,0,0,8,8H296a8,8,0,0,0,8-8V56A8,8,0,0,0,296,48ZM105.42,192l37.69-43.85L182.16,192ZM288,192H203.59l-30.9-34.69c.13-.12.26-.22.38-.34l57.18-56.79L288,158.39Zm0-56.33L235.97,83.23a8.014,8.014,0,0,0-5.65-2.37,8.105,8.105,0,0,0-5.67,2.32l-62.6,62.18-13.08-14.68a8.182,8.182,0,0,0-6.04-2.68,8.015,8.015,0,0,0-6,2.79L96,178.42V64H288Z"></path><path d="M144,120a24,24,0,1,0-24-24A24.028,24.028,0,0,0,144,120Zm0-32a8,8,0,1,1-8,8A8.009,8.009,0,0,1,144,88Z"></path></g></svg>