<svg xmlns="http://www.w3.org/2000/svg" xmlns:xlink="http://www.w3.org/1999/xlink" id="Capa_1" x="0px" y="0px" viewBox="0 0 430.478 430.478" style="enable-background:new 0 0 430.478 430.478;" xml:space="preserve">
<path id="XMLID_328_" d="M401.838,412.478v-43.653h-16.094v-88.162h17.471v-18h-17.471v-63.906c0-8.889-0.847-17.597-2.474-26.075  h16.062v-18h-20.787c-16.841-50.228-61.69-89.662-118.179-103.596V0h-90.25v51.084C113.629,65.019,68.778,104.453,51.936,154.681  H31.149v18h16.063c-1.627,8.479-2.474,17.187-2.474,26.075v63.906H27.267v18h17.471v88.162H28.639v43.653H15.792v18h398.893v-18  H401.838z M304.993,89.579c24.928,16.129,44.143,38.779,54.422,65.102h-54.422V89.579z M304.993,172.681h59.902  c1.869,8.439,2.85,17.158,2.85,26.075v63.906h-62.752V172.681z M304.993,280.662h62.752v88.162h-62.752V280.662z M249.456,67.07  c13.253,2.702,25.844,6.935,37.537,12.482v75.128h-37.537V67.07z M188.117,18h54.25v29.578c-8.834-1.273-17.898-1.936-27.126-1.936  s-18.29,0.662-27.124,1.936V18z M199.025,154.681V64.401c10.658-1.004,21.772-1.003,32.431-0.001v90.28H199.025z M231.456,172.681  v49.057h-32.431v-49.057H231.456z M143.489,79.553c11.693-5.547,24.283-9.78,37.536-12.481v87.609h-37.536V79.553z M143.489,172.681  h37.536v49.057h-22.688v18h113.81v-18h-22.691v-49.057h37.537v89.981H143.489V172.681z M286.993,280.662v88.162h-62.752v-88.162  H286.993z M143.489,280.662h62.752v88.162h-62.752V280.662z M125.489,89.58v65.101H71.068  C81.347,128.358,100.561,105.708,125.489,89.58z M62.738,198.756c0-8.917,0.98-17.636,2.85-26.075h59.901v89.981H62.738V198.756z   M62.738,280.662h62.751v88.162H62.738V280.662z M383.838,412.478H46.639v-25.653h337.199V412.478z"></path>
<g>
</g>
<g>
</g>
<g>
</g>
<g>
</g>
<g>
</g>
<g>
</g>
<g>
</g>
<g>
</g>
<g>
</g>
<g>
</g>
<g>
</g>
<g>
</g>
<g>
</g>
<g>
</g>
<g>
</g>
</svg>