<svg xmlns="http://www.w3.org/2000/svg" id="Capa_1" height="512" viewBox="0 0 512.414 512.414" width="512"><g><path d="m10.081 512.015c95.592.252 151.137.399 151.256.399 2.573 0 5.091-1.043 6.906-2.86l63.411-63.411c3.165.112 6.324.114 9.472.009-.282 2.222.43 4.546 2.136 6.252 2.93 2.929 7.678 2.929 10.607 0l8.626-8.627c16.183-3.078 31.719-9.001 45.833-17.463 4.699 1.679 9.708-1.629 10.01-6.603 5.928-4.287 11.54-9.057 16.769-14.285l165.391-165.392c15.812-15.811 15.814-41.403.001-57.215-6.634-6.633-15.165-10.68-24.37-11.632l8.468-8.468c15.348-15.346 16.285-39.871 2.135-55.833-6.825-7.698-15.995-12.403-26.075-13.442l5.587-5.588c16.126-16.125 16.048-43.088-1.812-58.921-15.961-14.148-40.485-13.212-55.832 2.135l-5.178 5.178c-.926-8.913-4.797-17.574-11.612-24.389-15.808-15.81-41.402-15.813-57.215 0l-25.639 25.639c-2.929 2.929-2.929 7.678.001 10.606 2.928 2.929 7.677 2.928 10.606 0l25.639-25.639c9.948-9.949 26.052-9.95 36.001 0 10.02 10.02 9.83 26.265 0 36.001-16.239 16.239-88.217 88.217-104.463 104.463-2.929 2.929-2.929 7.678 0 10.606 2.929 2.929 7.677 2.929 10.607 0 25.535-25.535 96.009-96.008 131.859-131.86 9.746-9.745 25.241-10.411 35.273-1.517 11.05 9.795 11.525 26.723 1.156 37.09-.045.045-128.714 128.715-132.288 132.289-2.929 2.929-2.929 7.678 0 10.606 2.93 2.929 7.678 2.929 10.607 0 .478-.478 104.112-104.114 104.463-104.462 10.365-10.368 27.286-9.903 37.088 1.155 8.896 10.034 8.23 25.529-1.517 35.275-25.523 25.524-80.296 80.296-104.033 104.034-2.929 2.929-2.929 7.678 0 10.606 2.93 2.929 7.678 2.929 10.607 0l73.327-73.327c9.947-9.948 26.05-9.95 36.001 0 9.949 9.951 9.95 26.052-.001 36.001-180.63 180.631-166.97 167.148-171.538 171.131v-10.202c0-1.627-.529-3.209-1.507-4.509l-18.258-24.264c-.956-1.27-2.29-2.204-3.811-2.666l-33.45-10.174c.586-6.969.155-14.156-1.396-21.208l8.461-.564c1.813-.121 3.52-.896 4.805-2.18l33.9-33.9c1.406-1.406 2.196-3.314 2.196-5.303v-23.696c0-4.142-3.357-7.5-7.5-7.5s-7.5 3.358-7.5 7.5v20.591l-29.711 29.71-9.679.646c-2.579-5.423-5.835-10.399-9.645-14.792l29.294-29.293c1.406-1.406 2.196-3.314 2.196-5.303v-48.833c0-1.989-.79-3.897-2.196-5.303l-16.729-16.728c-2.928-2.93-7.677-2.929-10.606 0s-2.929 7.678.001 10.606l14.531 14.531v42.62l-27.634 27.633c-1.977-1.383-4.033-2.641-6.16-3.763 4.636-10.069 2.993-21.926-4.41-30.355l.399-.374c1.516-1.418 2.376-3.401 2.376-5.477v-10.363c0-4.142-3.357-7.5-7.5-7.5s-7.5 3.358-7.5 7.5v7.109l-.762.712c-5.317-1.617-11.051-1.618-16.37 0l-.761-.712v-7.109c0-4.142-3.357-7.5-7.5-7.5s-7.5 3.358-7.5 7.5v10.363c0 2.076.86 4.059 2.376 5.477l.399.373c-7.402 8.429-9.046 20.286-4.41 30.355-2.127 1.123-4.183 2.38-6.161 3.763l-27.633-27.633v-42.62l14.531-14.531c2.93-2.929 2.93-7.677.001-10.606s-7.677-2.929-10.607 0l-11.439 11.439 30.115-112.39c2.977-11.109 13.088-18.868 24.59-18.868 16.739 0 28.924 15.863 24.589 32.045l-8.28 30.904c-1.146 4.276.659 8.636 4.493 10.85 3.835 2.214 8.514 1.598 11.644-1.533l71.547-71.546c2.929-2.929 2.929-7.678 0-10.606s-7.677-2.93-10.607 0l-57.416 57.416 3.108-11.603c6.886-25.696-12.453-50.927-39.078-50.927-18.278 0-34.348 12.331-39.077 29.985l-44.856 167.403c-4.914-2.413-10.802 1.132-10.802 6.735v23.698c0 1.989.79 3.897 2.196 5.303l.475.475c-.755 6.775-1.015 13.614-.772 20.479l-94.495 96.197c-1.813 1.846-2.809 4.288-2.8 6.876l.284 87.37c.022 5.35 4.39 9.714 9.741 9.729zm277.992-139.459 15.28 20.307v18.895c-7.266 4.615-14.985 8.461-23.016 11.481.019-.34.012-8.944.012-26.064 0-1.989-.79-3.897-2.196-5.303l-21.976-21.976c.865-2.069 1.63-4.187 2.293-6.344zm-97.108-93.52c-5.016-8.615 1.162-19.784 11.408-19.784 10.243 0 16.427 11.165 11.409 19.784-7.234-1.548-15.031-1.667-22.817 0zm-73.38-8.213 10.413-38.862v31.488c0 1.989.79 3.897 2.196 5.303l29.294 29.294c-3.81 4.393-7.066 9.369-9.645 14.792l-9.68-.646-26.151-26.151c1.443-8.514 3.402-14.573 3.573-15.218zm-9.24 51.235c2.699-2.702 4.161-6.463 4.012-10.32-.08-2.078-.109-4.153-.086-6.224l19.278 19.278c1.285 1.285 2.992 2.059 4.805 2.18l8.462.564c-1.558 7.079-1.978 14.267-1.4 21.208l-33.447 10.173c-1.521.462-2.854 1.396-3.811 2.666l-18.258 24.264c-.978 1.3-1.507 2.882-1.507 4.509v28.894c0 4.142 3.357 7.5 7.5 7.5s7.5-3.358 7.5-7.5v-26.387l15.28-20.307 29.599-9.003c.668 2.166 1.438 4.281 2.302 6.338l-21.981 21.981c-1.407 1.406-2.197 3.314-2.197 5.303v25.642c0 1.989.79 3.897 2.196 5.303l24.284 24.284c2.93 2.929 7.678 2.929 10.607 0s2.929-7.678 0-10.606l-22.088-22.087v-19.428l16.84-16.84c13.818 18.831 35.755 27.631 57.268 23.143 4.055-.846 6.655-4.819 5.81-8.874-.846-4.056-4.818-6.657-8.874-5.81-27.186 5.672-52.272-17.962-52.272-49.12 0-24.485 15.672-44.911 36.276-49.145 27.642-5.627 52.135 18.563 52.135 49.145 0 12.108-3.89 23.789-10.951 32.893-2.539 3.273-1.944 7.984 1.329 10.523 3.271 2.539 7.983 1.944 10.522-1.329.358-.462.709-.929 1.055-1.401l16.815 16.815v19.429l-10.09 10.09c-7.729 1.183-15.6 1.642-23.508 1.336-3.861-.148-7.618 1.314-10.32 4.016l-62.257 62.257-143.851-.379-.261-80.01z"></path><path d="m202.373 210.422c-12.05-7.67-28.262-6.252-38.772 4.259-2.929 2.929-2.929 7.678 0 10.606 2.93 2.929 7.678 2.929 10.607 0 6.317-6.318 16.544-6.318 22.861 0 2.928 2.928 7.677 2.93 10.606 0 6.304-6.304 16.562-6.304 22.863 0 2.93 2.929 7.678 2.929 10.607 0s2.929-7.678 0-10.606c-10.51-10.512-26.722-11.93-38.772-4.259z"></path><path d="m232.095 352.845c0-13.799-9.452-25.431-22.222-28.763v-13.59c0-4.142-3.357-7.5-7.5-7.5s-7.5 3.358-7.5 7.5v13.593c-2.165.563-4.265 1.368-6.245 2.402-3.672 1.917-5.094 6.448-3.177 10.12 1.918 3.671 6.449 5.093 10.12 3.176 9.648-5.036 21.523 1.924 21.523 13.063 0 8.118-6.604 14.722-14.722 14.722-5.509 0-10.515-3.038-13.066-7.928-1.917-3.673-6.446-5.096-10.119-3.18-3.672 1.916-5.096 6.446-3.18 10.119 5.146 9.862 15.248 15.989 26.365 15.989 16.39-.001 29.723-13.335 29.723-29.723z"></path></g></svg>