<svg xmlns="http://www.w3.org/2000/svg" id="Outline" viewBox="0 0 64 64" width="512" height="512"><path d="M59,20H57.64111a2.98743,2.98743,0,0,0-1.74365.55859L49.98041,24.7851l-7.92133-5.28119A2.99158,2.99158,0,0,0,40.39453,19H9.978a2.98168,2.98168,0,0,0-2.36817,1.1582L2.99658,26.08984a4.7354,4.7354,0,0,0-.00049,5.81983l4.61426,5.93262A2.981,2.981,0,0,0,9.978,39h30.4165a2.98882,2.98882,0,0,0,1.66406-.50391l7.92176-5.28119,5.91711,4.22651A2.98743,2.98743,0,0,0,57.64111,38H59a3.00328,3.00328,0,0,0,3-3V23A3.00328,3.00328,0,0,0,59,20ZM9.978,37a.9932.9932,0,0,1-.78907-.38574L4.57471,30.68164a2.73713,2.73713,0,0,1,.00049-3.36377l4.61328-5.93164A.99384.99384,0,0,1,9.978,21H19V32a5.00588,5.00588,0,0,1-5,5Zm30.9707-.168a.99435.99435,0,0,1-.5542.168H18.88965A6.97593,6.97593,0,0,0,21,32V21H40.39453a.9971.9971,0,0,1,.55469.168L49,26.53516v4.92968ZM60,35a1.0013,1.0013,0,0,1-1,1H57.64111a.99517.99517,0,0,1-.58154-.18652L51,31.48535v-4.9707l6.05957-4.32813A.99517.99517,0,0,1,57.64111,22H59a1.0013,1.0013,0,0,1,1,1Z"></path><polygon points="13.414 27 14.707 25.707 13.293 24.293 12 25.586 10.707 24.293 9.293 25.707 10.586 27 9.293 28.293 10.707 29.707 12 28.414 13.293 29.707 14.707 28.293 13.414 27"></polygon><path d="M33,31a1.0013,1.0013,0,0,1-1,1H28.82861a.99428.99428,0,0,1-.70752-.293L25.707,29.293,24.293,30.707,26.707,33.12109A2.97977,2.97977,0,0,0,28.82861,34H32a3.00328,3.00328,0,0,0,3-3V27H33Z"></path><path d="M60.395,11a6.666,6.666,0,0,0-9.10205.293,4.66282,4.66282,0,0,1-6.58594,0,6.66386,6.66386,0,0,0-9.41406,0,4.66282,4.66282,0,0,1-6.58594,0,6.66386,6.66386,0,0,0-9.41406,0,4.66282,4.66282,0,0,1-6.58594,0A6.666,6.666,0,0,0,3.605,11H2v2H4.41406l.293-.293a4.66282,4.66282,0,0,1,6.58594,0,6.66386,6.66386,0,0,0,9.41406,0,4.66282,4.66282,0,0,1,6.58594,0,6.66386,6.66386,0,0,0,9.41406,0,4.66282,4.66282,0,0,1,6.58594,0,6.66385,6.66385,0,0,0,9.41406,0,4.66282,4.66282,0,0,1,6.58594,0l.293.293H62V11Z"></path><path d="M18.293,44.293a4.28753,4.28753,0,0,1-1.48438.8833A2.84715,2.84715,0,0,1,13.707,44.293a5.05356,5.05356,0,0,0-7.41406,0L7.707,45.707a4.28753,4.28753,0,0,1,1.48438-.8833,2.8488,2.8488,0,0,1,3.10156.8833A5.01524,5.01524,0,0,0,15.895,47.34424,5.65624,5.65624,0,0,0,19.707,45.707Z"></path><path d="M26.80859,53.17627A2.84923,2.84923,0,0,1,23.707,52.293a5.05365,5.05365,0,0,0-7.41406,0L17.707,53.707a4.28753,4.28753,0,0,1,1.48438-.8833,2.849,2.849,0,0,1,3.10156.8833,5.01524,5.01524,0,0,0,3.602,1.63721A5.65624,5.65624,0,0,0,29.707,53.707L28.293,52.293A4.28753,4.28753,0,0,1,26.80859,53.17627Z"></path><path d="M46.80859,53.17627A2.84923,2.84923,0,0,1,43.707,52.293a5.05361,5.05361,0,0,0-7.41406,0L37.707,53.707a4.28753,4.28753,0,0,1,1.48438-.8833,2.849,2.849,0,0,1,3.10156.8833A5.01524,5.01524,0,0,0,45.895,55.34424,5.65624,5.65624,0,0,0,49.707,53.707L48.293,52.293A4.28753,4.28753,0,0,1,46.80859,53.17627Z"></path><path d="M37.293,44.293a4.28753,4.28753,0,0,1-1.48438.8833A2.84736,2.84736,0,0,1,32.707,44.293a5.05361,5.05361,0,0,0-7.41406,0L26.707,45.707a4.28753,4.28753,0,0,1,1.48438-.8833,2.84923,2.84923,0,0,1,3.10156.8833A5.01524,5.01524,0,0,0,34.895,47.34424,5.65624,5.65624,0,0,0,38.707,45.707Z"></path><path d="M54.80859,45.17627A2.84778,2.84778,0,0,1,51.707,44.293a5.05356,5.05356,0,0,0-7.41406,0L45.707,45.707a4.28753,4.28753,0,0,1,1.48438-.8833,2.849,2.849,0,0,1,3.10156.8833A5.01524,5.01524,0,0,0,53.895,47.34424,5.65624,5.65624,0,0,0,57.707,45.707L56.293,44.293A4.28753,4.28753,0,0,1,54.80859,45.17627Z"></path></svg>