<svg xmlns="http://www.w3.org/2000/svg" xmlns:xlink="http://www.w3.org/1999/xlink" id="Capa_1" x="0px" y="0px" viewBox="0 0 512.002 512.002" style="enable-background:new 0 0 512.002 512.002;" xml:space="preserve">
<g>
	<g>
		<path d="M207.099,353.066l-39.786-16.577c0.005-0.109,0.016-0.216,0.016-0.328v-64.124c0-12.983-10.562-23.545-23.545-23.545    c-3.003,0-5.873,0.571-8.516,1.6V231.96c0-12.983-10.562-23.545-23.545-23.545c-3.003,0-5.873,0.571-8.516,1.6v-10.117    c0-12.983-10.562-23.545-23.545-23.545c-12.983,0-23.545,10.562-23.545,23.545v9.673c-2.305-0.906-4.787-1.46-7.388-1.582    c-6.499-0.314-12.677,1.995-17.38,6.482c-4.636,4.422-7.294,10.633-7.294,17.037v88.623c0,1.483,0.439,2.934,1.262,4.168    l48.093,72.139c0.789,1.184,1.9,2.12,3.2,2.698l67.677,30.079v75.271c0,4.15,3.364,7.515,7.514,7.515    c4.15,0,7.514-3.365,7.514-7.515v-80.154c0-2.97-1.749-5.661-4.463-6.867l-70.147-31.176l-45.622-68.433v-86.347    c0-4.812,4.139-8.732,8.938-8.506c4.464,0.209,8.095,4.229,8.095,8.959v48.776c-3.641,4.22-5.653,9.535-5.695,15.17    c-0.047,6.289,2.358,12.22,6.771,16.7l42.537,43.181c3.076,3.123,8.311,2.895,11.122-0.46c2.452-2.926,2.259-7.371-0.416-10.086    L67.898,302.06c-3.26-3.31-3.212-8.783,0.09-12.044s8.79-3.212,12.044,0.09l41.298,41.923c0.798,1.321,2,2.413,3.533,3.052    l76.455,31.856c9.177,3.823,15.106,12.716,15.106,22.659v114.888c0,4.15,3.364,7.514,7.514,7.514s7.514-3.365,7.514-7.514V389.597    C231.454,373.569,221.894,359.23,207.099,353.066z M88.178,277.308c-4.02-3.055-8.895-4.73-14.035-4.768    c-1.01-0.008-2.01,0.054-2.998,0.171v-72.812c0-4.696,3.82-8.516,8.516-8.516s8.516,3.82,8.516,8.516V277.308z M120.24,309.507    l-17.064-17.322c0.016-0.201,0.031-0.404,0.031-0.61v-59.615c0-4.695,3.82-8.515,8.516-8.515s8.516,3.82,8.516,8.516V309.507z     M152.302,330.233l-17.033-7.097v-51.099c0-4.696,3.82-8.516,8.516-8.516s8.516,3.82,8.516,8.516V330.233z"></path>
	</g>
</g>
<g>
	<g>
		<path d="M480.655,214.473c-4.701-4.487-10.881-6.795-17.38-6.482c-2.601,0.122-5.083,0.676-7.388,1.582v-9.673    c0-12.983-10.562-23.545-23.545-23.545s-23.545,10.562-23.545,23.545v10.116c-2.643-1.029-5.514-1.6-8.516-1.6    c-12.983,0-23.545,10.562-23.545,23.545v18.132c-2.643-1.029-5.514-1.6-8.516-1.6c-12.983,0-23.545,10.562-23.545,23.545v64.124    c0,0.11,0.012,0.218,0.016,0.328l-39.786,16.577c-14.794,6.162-24.354,20.502-24.354,36.529v114.888    c0,4.15,3.365,7.515,7.515,7.515c4.15,0,7.514-3.365,7.514-7.515V389.597c0-9.941,5.929-18.835,15.106-22.659l76.455-31.856    c1.533-0.639,2.736-1.731,3.533-3.052l41.298-41.923c3.253-3.302,8.741-3.351,12.044-0.09c3.302,3.261,3.35,8.734,0.09,12.044    l-42.537,43.181c-2.676,2.716-2.868,7.162-0.416,10.086c2.811,3.354,8.047,3.583,11.122,0.46l42.537-43.181    c4.414-4.481,6.818-10.412,6.771-16.7c-0.042-5.636-2.054-10.95-5.695-15.17v-48.776c0-4.73,3.631-8.749,8.095-8.959    c4.799-0.225,8.938,3.694,8.938,8.506v86.347l-45.622,68.433l-70.147,31.177c-2.713,1.206-4.463,3.898-4.463,6.867v80.154    c0,4.15,3.364,7.515,7.514,7.515c4.15,0,7.514-3.365,7.514-7.515v-75.271l67.676-30.079c1.301-0.578,2.411-1.514,3.2-2.698    l48.093-72.139c0.823-1.234,1.262-2.685,1.262-4.168v-88.623C487.949,225.104,485.291,218.894,480.655,214.473z M376.734,323.136    l-17.033,7.097v-58.195c0-4.696,3.82-8.516,8.516-8.516s8.516,3.82,8.516,8.516V323.136z M391.763,309.508v-77.546    c0-4.696,3.82-8.516,8.516-8.516c4.696,0,8.516,3.819,8.516,8.515v59.615c0,0.205,0.014,0.408,0.031,0.61L391.763,309.508z     M440.858,272.711c-0.988-0.117-1.988-0.179-2.998-0.171c-5.141,0.038-10.016,1.713-14.035,4.768v-77.409    c0-4.696,3.82-8.516,8.516-8.516c4.696,0,8.516,3.82,8.516,8.516V272.711z"></path>
	</g>
</g>
<g>
	<g>
		<path d="M412.442,68.37c-5.172-23.927-17.881-43.826-35.787-56.03c-17.014-11.595-37.112-15.11-58.12-10.158    c-21.255,5.009-42.42,18.327-62.997,39.622C234.96,20.509,213.795,7.191,192.541,2.182c-21.01-4.952-41.107-1.439-58.121,10.158    c-17.907,12.204-30.616,32.103-35.787,56.03c-5.319,24.61-1.847,50.968,9.779,74.218c23.086,46.172,61.189,77.028,89.089,94.783    c30.135,19.177,54.631,27.448,55.66,27.791c1.534,0.511,3.218,0.511,4.752,0c1.028-0.343,25.525-8.614,55.66-27.791    c27.9-17.754,66.004-48.611,89.09-94.783C414.289,119.337,417.761,92.979,412.442,68.37z M389.221,135.867    c-21.476,42.952-57.185,71.887-83.36,88.597c-23.398,14.938-43.593,23.065-50.322,25.581    c-14.912-5.59-96.047-38.901-133.686-114.178c-10.1-20.201-13.13-43.044-8.531-64.322c4.291-19.853,15.066-36.906,29.562-46.786    c9.446-6.437,20.147-9.708,31.506-9.708c4.798,0,9.716,0.584,14.703,1.759c20.146,4.747,40.621,18.556,60.858,41.041    c2.941,3.267,8.231,3.267,11.171,0c20.237-22.485,40.714-36.294,60.859-41.041c16.793-3.957,32.772-1.209,46.209,7.948    c14.496,9.879,25.271,26.932,29.562,46.786C402.352,92.823,399.322,115.666,389.221,135.867z"></path>
	</g>
</g>
<g>
</g>
<g>
</g>
<g>
</g>
<g>
</g>
<g>
</g>
<g>
</g>
<g>
</g>
<g>
</g>
<g>
</g>
<g>
</g>
<g>
</g>
<g>
</g>
<g>
</g>
<g>
</g>
<g>
</g>
</svg>