<svg xmlns="http://www.w3.org/2000/svg" xmlns:xlink="http://www.w3.org/1999/xlink" id="Capa_1" x="0px" y="0px" viewBox="0 0 496 496" style="enable-background:new 0 0 496 496;" xml:space="preserve">
<g>
	<g>
		<g>
			<path d="M80,344c-26.472,0-48,21.528-48,48s21.528,48,48,48c10.48,0,20.448-3.32,28.816-9.6L99.2,417.6     c-5.568,4.192-12.208,6.4-19.2,6.4c-17.648,0-32-14.352-32-32s14.352-32,32-32s32,14.352,32,32c0,4.912-1.08,9.624-3.208,13.992     l14.368,7.016c3.216-6.568,4.84-13.64,4.84-21.008C128,365.528,106.472,344,80,344z"></path>
			<path d="M422.432,123.048C428.272,130.864,437.512,136,448,136h48V72h-48c-10.488,0-19.728,5.136-25.568,12.952     C418.408,81.888,413.44,80,408,80c-10.416,0-19.216,6.712-22.528,16H160V80c0-44.112-35.888-80-80-80S0,35.888,0,80v312     c0,44.112,35.888,80,80,80h305.472c3.312,9.288,12.112,16,22.528,16c5.44,0,10.408-1.888,14.432-4.952     C428.272,490.864,437.512,496,448,496h48v-64h-48c-10.488,0-19.728,5.136-25.568,12.952c-1.944-1.48-4.096-2.64-6.432-3.48     V366.52c2.336-0.832,4.496-2,6.432-3.48c5.84,7.824,15.08,12.96,25.568,12.96h48v-64h-48c-10.488,0-19.728,5.136-25.568,12.952     c-1.944-1.48-4.096-2.64-6.432-3.48V246.52c2.336-0.832,4.496-2,6.432-3.48c5.84,7.824,15.08,12.96,25.568,12.96h48v-64h-48     c-10.488,0-19.728,5.136-25.568,12.952c-1.944-1.472-4.096-2.64-6.432-3.48v-74.944     C418.336,125.696,420.496,124.528,422.432,123.048z M448,88h32v8h-24v16h24v8h-32c-8.824,0-16-7.184-16-16S439.176,88,448,88z      M448,448h32v8h-24v16h24v8h-32c-8.824,0-16-7.176-16-16C432,455.176,439.176,448,448,448z M448,328h32v8h-24v16h24v8h-32     c-8.824,0-16-7.176-16-16C432,335.176,439.176,328,448,328z M448,208h32v8h-24v16h24v8h-32c-8.824,0-16-7.176-16-16     C432,215.176,439.176,208,448,208z M160,176h136v216H160V176z M158.384,408H312V160H160v-16h176v280H153.272     C155.504,418.912,157.248,413.568,158.384,408z M16,80c0-35.288,28.712-64,64-64s64,28.712,64,64v264.208     C129.4,324.704,106.184,312,80,312s-49.4,12.704-64,32.208V80z M80,456c-35.288,0-64-28.712-64-64c0-35.288,28.712-64,64-64     s64,28.712,64,64C144,427.288,115.288,456,80,456z M385.472,456.024h-257.68c6.152-4.632,11.6-10.08,16.208-16.232V440h200h8h16     v-16h-16v-72h16v-16h-16V232h16v-16h-16v-72h16v-16h-16h-8H160v-16h225.472c2.416,6.776,7.744,12.112,14.528,14.528v74.952     c-9.296,3.312-16,12.112-16,22.528s6.704,19.216,16,22.528v74.952c-9.296,3.312-16,12.112-16,22.528     c0,10.416,6.704,19.216,16,22.528v74.952C393.224,443.912,387.888,449.248,385.472,456.024z M408,472c-4.416,0-8-3.584-8-8     c0-4.416,3.584-8,8-8c4.416,0,8,3.584,8,8C416,468.416,412.416,472,408,472z M408,352c-4.416,0-8-3.584-8-8c0-4.416,3.584-8,8-8     c4.416,0,8,3.584,8,8C416,348.416,412.416,352,408,352z M408,232c-4.416,0-8-3.584-8-8s3.584-8,8-8c4.416,0,8,3.584,8,8     S412.416,232,408,232z M408,112c-4.416,0-8-3.584-8-8s3.584-8,8-8c4.416,0,8,3.584,8,8S412.416,112,408,112z"></path>
		</g>
	</g>
</g>
<g>
</g>
<g>
</g>
<g>
</g>
<g>
</g>
<g>
</g>
<g>
</g>
<g>
</g>
<g>
</g>
<g>
</g>
<g>
</g>
<g>
</g>
<g>
</g>
<g>
</g>
<g>
</g>
<g>
</g>
</svg>