<svg xmlns="http://www.w3.org/2000/svg" id="Capa_1" height="512" viewBox="0 0 512.807 512.807" width="512"><g id="XMLID_160_"><path id="XMLID_502_" d="m449.545 68.609-74.038-68.609-100.447 108.395c-23.18-10.741-51.645-5.791-69.665 13.655-10.65 11.493-16.307 26.355-16.041 41.973-30.335 21.062-43.325 59.253-32.802 94.113-15.677 10.897-25.967 29.026-25.967 49.523 0 26.511 17.514 49.49 41.817 57.368v147.781h100.94v-147.783c24.304-7.878 41.817-30.857 41.817-57.368 0-15.775-6.098-30.146-16.05-40.902 15.991-.676 30.781-7.502 41.667-19.25 18.021-19.446 20.796-48.203 8.321-70.502zm-250.893 126.646c2.765 4.356 6.1 8.39 9.985 11.99 8.432 7.814 18.677 12.95 29.705 15.026 2.511 9.358 7.257 17.959 13.933 25.163-10.552.445-20.621 3.588-29.402 9.11-9.501-5.974-20.507-9.171-32.003-9.171-2.062 0-4.101.105-6.11.308-4.959-18.744.428-38.717 13.892-52.426zm58.557 142.586-13.866 1.051v143.915h-40.94v-143.915l-13.866-1.051c-15.674-1.188-27.951-14.446-27.951-30.183 0-16.699 13.586-30.285 30.285-30.285 8.082 0 15.684 3.146 21.403 8.859l10.601 10.587 10.6-10.588c5.719-5.712 13.319-8.858 21.401-8.858 16.699 0 30.285 13.586 30.285 30.285 0 15.737-12.278 28.994-27.952 30.183zm52.122-162.059 9.456 10.196c10.688 11.525 10.683 29.595-.015 41.138-5.498 5.934-12.978 9.371-21.061 9.678-8.094.314-15.803-2.55-21.737-8.05-5.929-5.493-9.365-12.966-9.677-21.043l-.579-14.971-14.972.561c-8.095.304-15.79-2.556-21.719-8.049-5.934-5.499-9.37-12.979-9.678-21.062-.309-8.083 2.551-15.803 8.049-21.737 10.696-11.542 28.713-12.923 41.017-3.14l10.885 8.654 97.82-105.56 30.028 27.827z"></path><path id="XMLID_517_" d="m80.016 149.582h30v54.084h-30z" transform="matrix(.429 -.903 .903 .429 -105.294 186.632)"></path><path id="XMLID_518_" d="m129.984 94.705h30v52.853h-30z" transform="matrix(.914 -.407 .407 .914 -36.742 69.471)"></path><path id="XMLID_520_" d="m67.078 237.519h52.852v30h-52.852z" transform="matrix(.914 -.407 .407 .914 -94.659 59.897)"></path></g></svg>