<svg xmlns="http://www.w3.org/2000/svg" id="Layer_5" height="512" viewBox="0 0 64 64" width="512"><g><path d="m40.728 39.651-1.728-.431v-.001l-4-1-2-.5-2-.5v-2.384c6.236-.973 11-6.433 11-12.835 0-7.168-5.832-13-13-13s-13 5.832-13 13c0 1.317.208 2.592.577 3.802-2.902 2.059-6.414 3.198-9.98 3.198h-2.597c-1.654 0-3 1.346-3 3v2c0 1.654 1.346 3 3 3h1.307l2.693 7.182v4.818h-4c-1.654 0-3 1.346-3 3v4c0 1.654 1.346 3 3 3h1.586l3.293 3.294c.457.455 1.062.706 1.706.706 1.332 0 2.415-1.083 2.415-2.415v-1.585h3c1.654 0 3-1.346 3-3v-4c0-1.654-1.346-3-3-3h-6v-4h2v-7.117c1.939.64 3.767 1.612 5.375 2.898l1.625 1.299v-11.783c1.542 1.86 3.6 3.292 6 4.066v6.872c-.961-.786-2.147-1.235-3.468-1.235-.678 0-1.313.264-1.792.743-.479.48-.742 1.119-.74 1.875 0 .404.096.81.276 1.171l1.195 2.392c.346.69.529 1.463.529 2.235v3.584c0 6.065 4.935 11 11 11s11-4.935 11-11v-9.438c0-1.379-.935-2.577-2.272-2.911zm-33.728-4.636c-.135-.003-.268-.015-.403-.015h-2.597c-.552 0-1-.448-1-1v-2c0-.552.448-1 1-1h2.597c.134 0 .268-.012.403-.015zm9 15.985c.552 0 1 .448 1 1v4c0 .552-.448 1-1 1h-5v3.585c0 .339-.468.53-.708.294l-3.878-3.879h-2.414c-.552 0-1-.448-1-1v-4c0-.552.448-1 1-1zm-6-8h-.307l-2.236-5.963c.857.043 1.706.15 2.543.319zm7-4.946c-2.414-1.547-5.158-2.531-8-2.892v-4.323c2.84-.361 5.588-1.346 8-2.892zm13.816-11.054c-.414-1.161-1.514-2-2.816-2-1.125 0-2.096.63-2.609 1.549-.2-1.123-.319-2.321-.364-3.549h7.946c-.05 1.396-.205 2.748-.456 4zm.184 5.816v-3.816h6.446c-1.611 1.941-3.866 3.338-6.446 3.816zm7.781-5.816h-4.224c.232-1.266.369-2.618.416-4h4.979c-.132 1.423-.539 2.775-1.171 4zm.005-10c.626 1.221 1.034 2.57 1.164 4h-4.971c-.046-1.419-.184-2.763-.409-4zm-1.307-2h-3.373c-.368-1.295-.837-2.422-1.391-3.341 1.873.676 3.517 1.834 4.764 3.341zm-8.479-4c1.075 0 2.22 1.527 3.009 4h-6.019c.79-2.473 1.935-4 3.01-4zm3.519 6c.244 1.209.408 2.553.46 4h-7.958c.052-1.447.217-2.791.46-4zm-7.233-5.341c-.553.919-1.023 2.046-1.391 3.341h-3.373c1.246-1.507 2.89-2.665 4.764-3.341zm-6.072 5.341h4.216c-.225 1.237-.363 2.581-.409 4h-4.971c.13-1.43.538-2.779 1.164-4zm-.006 10c-.626-1.227-1.031-2.578-1.16-4h4.98c.047 1.382.184 2.734.416 4zm1.313 2h4.479v3.241c-1.777-.692-3.306-1.819-4.479-3.241zm20.479 23c0 4.963-4.037 9-9 9s-9-4.037-9-9v-3.584c0-1.081-.256-2.164-.739-3.13l-1.195-2.392c-.044-.084-.066-.18-.066-.356 0-.146.056-.281.156-.383.101-.099.234-.155.449-.155.907 0 1.76.354 2.401.994.641.641.994 1.491.994 2.396v1.61 3h2v-3-1.61-17.39c0-.552.448-1 1-1s1 .448 1 1v8.719 13.281h2v-10.719l2 .5v10.219h2v-9.719l2 .5v9.219h2v-8.72l1.242.311c.446.112.758.511.758.971z"></path><path d="m62.555 19.248c-.407-2.448-2.316-4.421-4.752-4.907-.289-.058-.517-.244-.658-.486 1.009-.825 1.681-2.025 1.808-3.394l.767-.767c.826-.826 1.28-1.923 1.28-3.089 0-3.09-2.515-5.605-5.605-5.605h-2.789c-3.091 0-5.606 2.515-5.606 5.605 0 1.166.454 2.263 1.279 3.088l.767.767c.128 1.369.799 2.569 1.808 3.394-.14.242-.369.428-.659.486-2.435.486-4.344 2.459-4.751 4.907l-.625 3.753h18.361zm-12.676-12.541c-.272.272-.482.59-.631.934-.157-.32-.248-.669-.248-1.036 0-1.988 1.617-3.605 3.605-3.605h2.789c1.989 0 3.606 1.617 3.606 3.605 0 .366-.091.715-.248 1.035-.148-.344-.358-.661-.631-.934l-1.414-1.414-1.414 1.414 1.414 1.414c.187.188.293.445.293.708v1.172c0 1.654-1.346 3-3 3s-3-1.346-3-3v-1.172c0-.263.106-.521.293-.707l.707-.707 1.293 1.293 1.414-1.414-2.707-2.707zm5.774 8.511-.93 1.395c-.322.484-1.123.484-1.445 0l-.93-1.395c.107-.135.201-.28.284-.433.437.126.89.215 1.368.215s.931-.089 1.369-.214c.082.152.176.297.284.432zm-8.472 5.782.237-1.424c.272-1.634 1.546-2.949 3.17-3.274.023-.005.043-.014.065-.019l.96 1.44c.534.799 1.426 1.277 2.387 1.277s1.853-.478 2.387-1.277l.96-1.44c.022.005.042.014.065.019 1.625.325 2.898 1.641 3.171 3.274l.236 1.424z"></path><path d="m62.274 49.546-3.82-3.82-1.273.596-.48-1.322h-5.402l-.479 1.321-1.273-.596-3.82 3.82.596 1.273-1.323.481v5.402l1.321.479-.596 1.273 3.82 3.82 1.273-.596.481 1.323h5.402l.479-1.321 1.273.596 3.82-3.82-.596-1.273 1.323-.481v-5.402l-1.321-.479zm-1.274 5.753-.823.3-.442.202-.427 1.031.561 1.198-1.838 1.838-1.198-.561-1.08.446-.454 1.247h-2.598l-.3-.823-.202-.442-1.031-.427-1.198.561-1.838-1.838.561-1.198-.446-1.08-1.247-.454v-2.598l.823-.3.442-.202.427-1.031-.561-1.198 1.838-1.838 1.198.561 1.08-.446.454-1.247h2.598l.3.823.202.442 1.031.427 1.198-.561 1.838 1.838-.561 1.198.446 1.08 1.247.454z"></path><path d="m54 49c-2.757 0-5 2.243-5 5s2.243 5 5 5 5-2.243 5-5-2.243-5-5-5zm0 8c-1.654 0-3-1.346-3-3s1.346-3 3-3 3 1.346 3 3-1.346 3-3 3z"></path><path d="m5 5h6v2h-6z"></path><path d="m5 9h6v2h-6z"></path><path d="m5 13h6v2h-6z"></path><path d="m13 53h2v2h-2z"></path><path d="m5 53h2v2h-2z"></path><path d="m9 53h2v2h-2z"></path><path d="m7 27h2v-8h6v-18h-14v18h6zm-4-10v-14h10v14z"></path><path d="m53 25h2v6h-2z"></path><path d="m53 33h2v2h-2z"></path><path d="m53 37h2v6h-2z"></path></g></svg>