<svg xmlns="http://www.w3.org/2000/svg" viewBox="0 0 512 512" width="512" height="512"><g id="outline"><path d="M232,152a32,32,0,1,0-32-32A32.036,32.036,0,0,0,232,152Zm0-48a16,16,0,1,1-16,16A16.019,16.019,0,0,1,232,104Z"></path><circle cx="232" cy="120" r="8"></circle><path d="M484.116,375.245,433.7,344.991a8,8,0,0,0-8.233,0l-64.644,38.789-27.246-16.347A243.268,243.268,0,0,0,344,296.348a244.5,244.5,0,0,0-9.117-66.613,8,8,0,0,0-11.813-4.681L296,241.3l0-51.529L338.53,175.59a8,8,0,0,0,0-15.18l-28.037-9.346,36.658-15.71a8,8,0,0,0-2.02-15.274l-49.514-7.073a63.5,63.5,0,0,0-18.358-38.262,64.9,64.9,0,0,0-7.269-6.267,39.987,39.987,0,0,0-70.157-36.239A36,36,0,0,0,175.5,89.983,63.591,63.591,0,0,0,168,120a123.372,123.372,0,0,1-56.891,104.205L78.476,245.183,44.931,225.056a8,8,0,0,0-11.814,4.68A244.5,244.5,0,0,0,24,296.348c0,52.989,16.426,102.882,46.252,140.49C100.51,474.989,140.906,496,184,496c33.613,0,65.538-12.717,92.676-36.827C300.035,482.454,329.521,496,360.814,496c56.977,0,107.967-44.9,126.884-111.717A8,8,0,0,0,484.116,375.245ZM296,172.9v-9.8l14.7,4.9Zm0-33.033V129.224l18.621,2.661ZM184,68a20.023,20.023,0,0,1,19.923-20l.2.006a8.045,8.045,0,0,0,7.088-3.993,24,24,0,0,1,44.368,16.469,63.978,63.978,0,0,0-69.935,15.459A19.954,19.954,0,0,1,184,68ZM119.761,237.664A139.308,139.308,0,0,0,184,120a48,48,0,0,1,96-.061c0,.02,0,.04,0,.061v64c0,.017,0,.034,0,.051l0,66.844-13.395,8.037-78.495-47.1a8,8,0,0,0-8.232,0l-78.491,47.1-7.608-4.565ZM184,480c-79.4,0-144-82.386-144-183.652a230.254,230.254,0,0,1,5.888-52.059l44.768,26.862c0,.034-.012.067-.015.1l-2.4,25.492L65.6,326.939a8,8,0,1,0,12.8,9.6l8.793-11.724L107.562,338.4a8,8,0,0,0,8.876-13.313L96.807,312l5.593-7.457a8,8,0,0,0,1.565-4.052l2.433-25.9,77.6-46.56,78.5,47.1a8,8,0,0,0,8.232,0l51.39-30.833A230.256,230.256,0,0,1,328,296.348a228.012,228.012,0,0,1-8.6,62.579L296.17,344.99a8,8,0,0,0-8.232,0l-50.425,30.254a8,8,0,0,0-3.581,9.039c6.867,24.258,17.963,45.622,32.036,63C241.815,468.7,213.582,480,184,480Zm176.814,0c-48.106,0-91.594-37.617-109.728-94.24l40.968-24.58L320,377.947v25.109l-11.578,5.789a8,8,0,1,0,7.156,14.31l10.842-5.421,11.923,11.923a8,8,0,0,0,11.314-11.314L336,404.686V387.547l20.7,12.422a8,8,0,0,0,8.232,0l64.645-38.788,40.963,24.579C452.409,442.383,408.921,480,360.814,480Z"></path><path d="M128.006,160a7.976,7.976,0,0,0,3.572-.847A36.744,36.744,0,0,0,152,126.111V120a8,8,0,0,0-16,0v6.111a20.833,20.833,0,0,1-11.578,18.734A8,8,0,0,0,128.006,160Z"></path><path d="M356.148,326.242q-.41,1.816-.861,3.624l-3.048,12.194a8,8,0,1,0,15.522,3.88l3.049-12.193q.5-1.989.947-3.989a8,8,0,1,0-15.609-3.516Z"></path><path d="M367.543,312a8,8,0,0,0,7.969-7.4c.324-4.31.488-8.69.488-13.017V280a8,8,0,0,0-16,0v11.583c0,3.93-.149,7.9-.443,11.817a8,8,0,0,0,7.379,8.578Q367.242,312,367.543,312Z"></path></g></svg>