<svg xmlns="http://www.w3.org/2000/svg" id="Capa_1" height="512" viewBox="0 0 511.609 511.609" width="512"><g><path d="m214.954 277.352c0 22.523 18.313 40.847 40.823 40.847 54.157-2.243 54.141-79.458 0-81.693-22.51-.001-40.823 18.323-40.823 40.846zm66.645 0c0 14.252-11.584 25.847-25.823 25.847-34.257-1.419-34.247-50.279 0-51.693 14.239-.001 25.823 11.594 25.823 25.846z"></path><path d="m491.087 511.609c4.142 0 7.5-3.358 7.5-7.5s-3.358-7.5-7.5-7.5h-41.665l.934-140.567c.053-6.175-3.186-12.021-8.449-15.255l-86.864-53.457v-17.606c0-4.142-3.358-7.5-7.5-7.5s-7.5 3.358-7.5 7.5v226.885h-43.443v-69.802c0-20.608-9.154-39.974-25.116-53.131l-9.695-7.993c-3.909-3.221-9.537-3.168-13.385.127l-9.341 8.002c-15.322 13.125-24.109 32.183-24.109 52.286v70.511h-43.443v-271.42c0-.881.425-1.716 1.136-2.234l81.512-59.304c.968-.704 2.267-.704 3.234 0l81.513 59.304c.711.518 1.136 1.353 1.136 2.234v14.432c0 4.142 3.358 7.5 7.5 7.5s7.5-3.358 7.5-7.5v-14.432c0-5.664-2.733-11.033-7.311-14.364l-33.702-24.519v-54.11c0-5.663-2.735-11.031-7.311-14.355l-43.442-31.613v-45.577h17.62c4.142 0 7.5-3.358 7.5-7.5s-3.358-7.5-7.5-7.5h-17.62v-18.151c0-4.142-3.358-7.5-7.5-7.5s-7.5 3.358-7.5 7.5v18.151h-17.62c-4.142 0-7.5 3.358-7.5 7.5s3.358 7.5 7.5 7.5h17.62v45.577l-43.437 31.61c-4.582 3.328-7.316 8.695-7.316 14.358v54.11l-33.701 24.519c-4.578 3.331-7.312 8.7-7.312 14.364v63.968l-43.908 26.145c-3.559 2.12-4.727 6.723-2.607 10.281 2.132 3.591 6.781 4.707 10.281 2.607 0 0 36.234-21.576 36.234-21.576v189.995h-79.378l-.935-140.592c-.008-.971.503-1.88 1.341-2.378l17.251-10.272c3.559-2.119 4.726-6.722 2.606-10.281-2.119-3.559-6.721-4.726-10.281-2.606l-17.243 10.268c-5.403 3.208-8.727 9.108-8.674 15.384l.934 140.479h-41.664c-9.892.327-9.958 14.648 0 15 0-.002 470.62-.002 470.62-.002zm-278.563-379.413c0-.877.423-1.708 1.137-2.226l42.116-30.648 42.121 30.652c.708.515 1.132 1.346 1.132 2.223v43.196l-32.812-23.872c-6.245-4.542-14.637-4.543-20.883 0l-32.811 23.872zm17.43 364.413v-70.511c0-15.717 6.877-30.623 18.868-40.895l6.407-5.488 6.714 5.535c12.492 10.298 19.657 25.445 19.657 41.557v69.802zm125.088 0v-191.666l79.007 48.622c.814.5 1.315 1.4 1.307 2.363l-.935 140.681z"></path></g></svg>