<svg xmlns="http://www.w3.org/2000/svg" id="Capa_1" height="512" viewBox="0 0 512 512" width="512"><g><g><path d="m141.878 268.824c1.169 0 2.356-.274 3.464-.853l20.366-10.629c3.672-1.916 5.095-6.447 3.179-10.119-1.917-3.672-6.449-5.096-10.119-3.179l-20.366 10.629c-3.672 1.916-5.095 6.447-3.179 10.119 1.338 2.565 3.95 4.032 6.655 4.032z"></path><path d="m141.485 159.004c-1.917-3.672-6.446-5.096-10.119-3.179l-20.366 10.629c-3.672 1.916-5.095 6.447-3.179 10.119 1.338 2.564 3.95 4.031 6.655 4.031 1.169 0 2.355-.274 3.464-.853l20.366-10.629c3.672-1.916 5.096-6.446 3.179-10.118z"></path><path d="m450.444 431.972c-7.917 6.873-16.925 12.661-26.773 17.202-10.263 4.732-22.36 7.231-34.997 7.231-.073 0-.147 0-.22 0-12.912-.038-26.43-2.485-33.637-6.088-2.112-1.056-4.597-1.056-6.708 0-7.207 3.603-20.725 6.05-33.632 6.088-12.111.022-23.771-2.252-33.785-6.595l11.874-8.13c2.059-1.41 3.282-3.751 3.263-6.246-.02-2.495-1.278-4.817-3.359-6.195l-12.012-7.955c-3.724-2.466-6.717-5.896-8.656-9.919l-9.294-19.283c-1.257-2.609-3.928-4.266-6.8-4.244-2.895.017-5.523 1.7-6.75 4.323l-9.125 19.512c-.698 1.493-1.542 2.906-2.514 4.222-25.784-33.254-31.395-77.324-31.395-109.327 0-25.261 10.353-63.242 39.533-87.147 3.204-2.625 3.674-7.35 1.049-10.555-2.625-3.204-7.351-3.673-10.555-1.049-1.733 1.419-3.394 2.891-5.011 4.392l-24.321-66.593c-5.916-16.196-18.529-29.059-34.604-35.291-16.076-6.233-34.068-5.233-49.36 2.746l-2.076 1.083 2.074-22.605c.454-4.979 1.965-9.59 4.371-13.332 3.367-5.235 5.14-11.296 5.128-17.521-.01-8.901-3.742-17.5-10.24-23.59-6.588-6.177-15.194-9.264-24.235-8.687-7.516.473-14.507 3.565-19.907 8.593-3.303-2.584-7.1-4.541-11.198-5.69-8.695-2.439-17.756-1.204-25.514 3.477-10.528 6.352-16.234 17.846-15.584 29.495-7.199 1.56-13.717 5.521-18.393 11.405-5.643 7.09-8.035 15.916-6.736 24.853 1.281 8.813 6.2 16.791 13.492 21.887 5.105 3.573 11.091 5.584 17.311 5.816 4.446.166 9.092 1.562 13.441 4.04l19.723 11.222-2.076 1.083c-15.284 7.977-26.391 22.161-30.472 38.915-4.082 16.756-.742 34.463 9.163 48.58l36.369 51.839c-.803.72-1.653 1.392-2.548 2.005l-11.93 8.168c-2.059 1.41-3.282 3.751-3.263 6.246.02 2.495 1.279 4.817 3.359 6.195l12.012 7.954c3.724 2.466 6.717 5.897 8.656 9.919l9.294 19.283c1.251 2.596 3.877 4.244 6.756 4.244h.044c2.895-.017 5.523-1.7 6.75-4.323l5.103-10.912 26.045 37.128c1.46 2.081 3.785 3.193 6.146 3.193 1.488 0 2.99-.441 4.301-1.36 3.391-2.379 4.211-7.056 1.833-10.447l-12.369-17.633 11.333-5.915c3.672-1.916 5.095-6.447 3.179-10.119-1.917-3.673-6.446-5.095-10.119-3.179l-13.081 6.827-9.225-13.151c1.317-1.468 2.8-2.789 4.44-3.912l11.93-8.168c2.059-1.41 3.282-3.751 3.263-6.246-.02-2.495-1.278-4.817-3.359-6.195l-12.012-7.955c-3.724-2.466-6.717-5.896-8.656-9.919l-9.294-19.283c-1.257-2.609-3.914-4.249-6.8-4.244-2.895.017-5.523 1.7-6.75 4.323l-6.396 13.676-16.662-23.749 17.625-9.199c3.672-1.916 5.095-6.447 3.179-10.119s-6.446-5.096-10.119-3.179l-19.374 10.111-7.382-10.522c-7.425-10.582-9.929-23.855-6.869-36.414 3.059-12.558 11.384-23.189 22.839-29.168l60.419-31.529c11.462-5.98 24.948-6.73 36.999-2.058 12.048 4.671 21.502 14.312 25.936 26.451l8.273 22.653-20.776 9.976c-3.734 1.793-5.308 6.273-3.515 10.007 1.291 2.687 3.972 4.256 6.767 4.256 1.088 0 2.194-.238 3.241-.741l19.454-9.341 13.509 36.989c-20.766 26.066-28.558 58.809-28.558 82.006 0 34.527 6.224 82.273 34.848 118.906l-6.331 4.335c-2.059 1.41-3.282 3.751-3.263 6.246.02 2.495 1.278 4.817 3.359 6.195l12.012 7.955c2.493 1.651 4.649 3.743 6.39 6.147-13.692-.629-26.621-7.528-34.716-19.063l-33.27-47.409c-2.379-3.391-7.057-4.209-10.447-1.831-3.391 2.379-4.21 7.057-1.831 10.447l33.27 47.41c11.337 16.154 29.78 25.5 49.051 25.5 1.834 0 3.677-.088 5.521-.259l3.982 8.262c1.251 2.596 3.877 4.244 6.756 4.244h.044c2.895-.017 5.523-1.7 6.75-4.323l8.135-17.394c.596.285 1.196.59 1.788.863 12.219 5.635 26.488 8.61 41.288 8.61h.254c13.759-.041 27.483-2.365 36.947-6.171 9.464 3.806 23.189 6.13 36.953 6.171 14.844.029 29.249-2.943 41.537-8.609 11.136-5.135 21.339-11.695 30.326-19.497 3.127-2.715 3.462-7.453.747-10.58s-7.452-3.463-10.58-.747zm-367.221-133.657c5.868-4.018 10.561-9.546 13.575-15.988l2.434-5.204 2.436 5.054c3.111 6.454 7.912 11.957 13.886 15.912l2.727 1.806-2.74 1.876c-5.868 4.018-10.561 9.547-13.575 15.989l-2.433 5.204-2.436-5.054c-3.11-6.454-7.912-11.956-13.886-15.913l-2.727-1.805zm-31.213-179.055c-6.433-3.665-13.454-5.738-20.303-5.994-3.329-.125-6.535-1.202-9.274-3.119-3.974-2.777-6.546-6.951-7.244-11.752-.697-4.796.591-9.539 3.631-13.359 2.741-3.447 6.686-5.659 11.003-6.296 2.866 4.955 6.936 9.035 11.939 11.887 3.883 2.214 7.381 5.62 10.116 9.85l19.124 29.59zm37.161 11.285-24.695-38.211c-4.035-6.243-9.32-11.339-15.285-14.739-3.171-1.808-5.658-4.538-7.191-7.894-3.605-7.891-.615-17.581 6.808-22.059 8.286-5.255 20.099-1.943 24.437 6.82 1.548 2.967 2.206 6.287 1.902 9.6-.625 6.818.526 14.045 3.331 20.901l17.245 42.163zm25.237-60.44c-3.706 5.765-6.021 12.71-6.692 20.079l-1.996 21.762-13.36-32.661c-1.896-4.635-2.683-9.425-2.277-13.852.525-5.713-.497-11.423-2.923-16.616 2.993-3.181 7.063-5.151 11.464-5.427 4.872-.309 9.495 1.345 13.031 4.66 3.54 3.318 5.493 7.816 5.498 12.669.006 3.338-.943 6.583-2.745 9.386zm157.754 367.367c-5.868 4.018-10.562 9.547-13.575 15.989l-2.434 5.204-2.436-5.054c-3.111-6.454-7.912-11.956-13.886-15.912l-2.727-1.806 2.741-1.877c5.868-4.018 10.561-9.546 13.575-15.988l2.434-5.204 2.436 5.054c3.111 6.454 7.913 11.957 13.886 15.912l2.727 1.806z"></path><path d="m508.737 238.563c2.059-1.41 3.282-3.751 3.263-6.246-.02-2.495-1.278-4.817-3.359-6.195l-12.012-7.955c-3.724-2.466-6.717-5.896-8.656-9.919l-9.294-19.283c-1.251-2.596-3.877-4.244-6.756-4.244-.015 0-.03 0-.044 0-2.896.017-5.523 1.7-6.75 4.323l-6.045 12.927c-16.991-11.431-36.626-17.234-58.511-17.252-1.915-.038-18.118-.141-37.083 8.342-.349-2.578-.822-5.177-1.465-7.774 3.917-14.49 11.541-27.78 22.441-38.68l8.41-8.41c2.929-2.929 2.929-7.678 0-10.606-2.929-2.929-7.678-2.929-10.606 0l-8.41 8.41c-8.679 8.679-15.599 18.647-20.589 29.471-17.07-25.125-50.028-33.562-51.519-33.932-3.708-.917-7.519 1.098-8.842 4.684-.455 1.233-8.958 24.854-4.387 49.338-6.729.815-13.274 2.219-19.537 4.225-3.945 1.264-6.119 5.486-4.855 9.43 1.02 3.184 3.967 5.214 7.141 5.214.758 0 1.529-.116 2.29-.359 6.182-1.98 12.703-3.282 19.44-3.909.547 1.232 1.123 2.458 1.765 3.669 4.545 8.579 10.962 15.468 17.812 20.948.273.781.672 1.532 1.218 2.215 8.793 10.991 21.459 16.566 37.647 16.571.008 0 .016.001.023.001.006 0 .013-.001.019-.001 16.186-.005 28.852-5.58 37.645-16.57 2.587-3.234 2.063-7.954-1.171-10.542-3.235-2.588-7.955-2.062-10.542 1.171-4.006 5.007-9.217 8.26-15.78 9.832 1.085-4.908 2.111-11.107 2.468-17.978 18.679-10.111 35.955-9.766 36.108-9.763.086.003.172.004.259.004 19.235 0 36.398 5.153 51.13 15.311-1.221 1.3-2.576 2.477-4.059 3.493l-11.93 8.169c-2.059 1.41-3.282 3.751-3.263 6.246.02 2.495 1.278 4.817 3.359 6.195l12.012 7.955c3.724 2.466 6.717 5.896 8.656 9.919l9.294 19.283c1.251 2.596 3.877 4.244 6.756 4.244h.044c2.895-.017 5.523-1.7 6.75-4.323l7.731-16.53c6.447 14.986 10.047 31.512 10.047 46.885 0 40.057-8.709 74.821-25.185 100.532-2.234 3.487-1.219 8.126 2.269 10.361 1.253.803 2.654 1.186 4.039 1.186 2.47 0 4.89-1.22 6.322-3.455 18.027-28.13 27.555-65.692 27.555-108.624 0-19.917-5.322-41.502-14.702-60.171zm-162.313-12.01c-10.297-3.833-29.492-12.92-38.404-29.743-8.918-16.835-5.643-37.836-3.031-48.498 10.279 3.803 29.44 12.848 38.399 29.761 8.914 16.827 5.647 37.814 3.036 48.48zm141.909 7.802c-5.868 4.018-10.562 9.547-13.574 15.989l-2.434 5.204-2.436-5.054c-3.111-6.454-7.912-11.957-13.886-15.912l-2.727-1.806 2.741-1.877c5.868-4.018 10.562-9.547 13.574-15.988l2.434-5.204 2.436 5.054c3.111 6.454 7.912 11.957 13.886 15.912l2.727 1.806z"></path><path d="m219.538 95.768 12.012 7.955c3.724 2.466 6.717 5.896 8.656 9.919l9.294 19.283c1.251 2.596 3.877 4.244 6.756 4.244h.044c2.895-.017 5.523-1.7 6.75-4.323l9.125-19.512c1.878-4.016 4.804-7.462 8.461-9.967l11.93-8.169c2.059-1.41 3.282-3.751 3.263-6.246-.02-2.495-1.278-4.817-3.359-6.195l-12.012-7.955c-3.724-2.466-6.717-5.896-8.656-9.919l-9.294-19.283c-1.257-2.609-3.928-4.273-6.8-4.244-2.895.017-5.523 1.7-6.75 4.323l-9.125 19.512c-1.878 4.016-4.804 7.462-8.461 9.967l-11.93 8.168c-2.059 1.41-3.282 3.751-3.263 6.246.019 2.496 1.278 4.818 3.359 6.196zm20.308-8.234c5.868-4.018 10.562-9.547 13.575-15.988l2.434-5.204 2.436 5.054c3.111 6.454 7.913 11.957 13.886 15.912l2.727 1.806-2.741 1.877c-5.868 4.018-10.562 9.547-13.575 15.988l-2.434 5.204-2.436-5.054c-3.111-6.454-7.912-11.957-13.886-15.912l-2.727-1.806z"></path></g></g></svg>