<svg xmlns="http://www.w3.org/2000/svg" id="Capa_1" height="512" viewBox="0 0 512 512" width="512"><g><g><g><path d="m485.809 0h-287.87c-5.79 0-10.5 4.71-10.5 10.5v23.499h-23.499c-5.79 0-10.5 4.71-10.5 10.5v92.061l-110.144 55.047c-5.969 2.983-9.677 8.981-9.677 15.654v57.714c0 19.581 2.316 37.053 6.726 52.896-15.08 13.002-24.654 32.223-24.654 53.65 0 39.066 31.783 70.849 70.849 70.849 9.272 0 18.125-1.809 26.249-5.062v40.229c0 4.467 2.638 8.524 6.721 10.336 4.081 1.812 8.862 1.046 12.174-1.95l27.504-24.881 27.505 24.881c2.119 1.917 4.838 2.92 7.591 2.92 1.55 0 3.112-.318 4.583-.971 4.083-1.813 6.721-5.87 6.721-10.336v-59.101h56.412c4.143 0 7.5-3.358 7.5-7.5s-3.357-7.5-7.5-7.5h-41.38c15.895-13.605 29.168-28.198 39.443-44.668h131.451c4.143 0 7.5-3.358 7.5-7.5s-3.357-7.5-7.5-7.5h-123.2c2.955-6.153 5.535-12.565 7.716-19.278h24.97c4.143 0 7.5-3.358 7.5-7.5s-3.357-7.5-7.5-7.5h-20.861c1.38-6.173 2.452-12.595 3.217-19.278h108.157c4.143 0 7.5-3.358 7.5-7.5s-3.357-7.5-7.5-7.5h-107c.145-3.354.241-6.752.241-10.237v-9.041h106.759c4.143 0 7.5-3.358 7.5-7.5s-3.357-7.5-7.5-7.5h-106.758v-19.278h38.245c4.143 0 7.5-3.358 7.5-7.5s-3.357-7.5-7.5-7.5h-38.266c-.217-6.428-3.869-12.157-9.656-15.049l-8.461-4.229h124.896c4.143 0 7.5-3.358 7.5-7.5s-3.357-7.5-7.5-7.5h-154.91l-68.164-34.067v-89.311h278.871v56.001c0 4.142 3.357 7.5 7.5 7.5s7.5-3.358 7.5-7.5v-60.501c0-5.79-4.71-10.5-10.5-10.5h-249.371v-18.999h278.871v354.437h-19v-229.437c0-4.142-3.357-7.5-7.5-7.5s-7.5 3.358-7.5 7.5v263.436h-150.31c-4.143 0-7.5 3.358-7.5 7.5s3.357 7.5 7.5 7.5h154.81c5.79 0 10.5-4.71 10.5-10.5v-23.499h23.499c5.79 0 10.5-4.71 10.5-10.5v-363.437c0-5.79-4.71-10.5-10.5-10.5zm-455.118 371.521c0-30.795 25.054-55.849 55.849-55.849s55.849 25.054 55.849 55.849-25.054 55.849-55.849 55.849-55.849-25.054-55.849-55.849zm136.082 76.157c-4.325-3.912-10.849-3.912-15.172 0l-23.813 21.542v-40.15c17.906-12.871 29.6-33.863 29.6-57.548 0-6.465-.887-12.723-2.517-18.678 1.43.082 2.866.139 4.316.139 11.183 0 21.805-2.421 31.399-6.736v122.973zm102.982-240.417v57.714c0 39.495-9.847 70.708-30.987 98.229-8.825 11.488-19.534 22.312-33.182 33.35v-59.216c18.476-14.045 30.433-36.242 30.433-61.188 0-12.337-3.013-24.624-8.714-35.532-1.918-3.671-6.45-5.091-10.121-3.173s-5.092 6.45-3.173 10.121c4.65 8.898 7.008 18.516 7.008 28.585 0 34.094-27.737 61.832-61.832 61.832-3.682 0-7.288-.331-10.794-.953-9.48-16.933-25.703-29.591-45.014-34.318-3.853-8.052-6.024-17.055-6.024-26.561 0-34.094 27.737-61.832 61.832-61.832 12.06 0 23.756 3.487 33.826 10.083 3.462 2.27 8.113 1.302 10.383-2.164 2.27-3.465 1.301-8.114-2.164-10.383-12.518-8.201-27.057-12.536-42.045-12.536-42.365 0-76.832 34.466-76.832 76.832 0 8.575 1.423 16.821 4.032 24.526-11.865.025-23.048 2.991-32.875 8.193-3.277-13.497-4.893-28.018-4.893-43.894v-57.714c0-.953.529-1.81 1.382-2.236l109.185-54.569 109.186 54.569c.853.425 1.383 1.282 1.383 2.235z"></path><path d="m216.737 145.602c0 4.142 3.358 7.5 7.5 7.5h167.277c4.143 0 7.5-3.358 7.5-7.5s-3.357-7.5-7.5-7.5h-167.277c-4.143 0-7.5 3.357-7.5 7.5z"></path><path d="m391.513 206.657h-40.513c-4.143 0-7.5 3.358-7.5 7.5s3.357 7.5 7.5 7.5h40.514c4.143 0 7.5-3.358 7.5-7.5s-3.358-7.5-7.501-7.5z"></path><path d="m391.513 309.49h-63.513c-4.143 0-7.5 3.358-7.5 7.5s3.357 7.5 7.5 7.5h63.514c4.143 0 7.5-3.358 7.5-7.5s-3.358-7.5-7.501-7.5z"></path><path d="m359.292 103.589c4.143 0 7.5-3.358 7.5-7.5s-3.357-7.5-7.5-7.5h-102.834c-4.142 0-7.5 3.358-7.5 7.5s3.358 7.5 7.5 7.5z"></path><path d="m182.335 258.714-26.732 26.732-17.491-17.491c-2.929-2.929-7.678-2.929-10.606 0-2.929 2.929-2.929 7.678 0 10.606l22.794 22.794c1.464 1.465 3.384 2.197 5.303 2.197s3.839-.732 5.303-2.197l32.036-32.035c2.929-2.929 2.929-7.678 0-10.606-2.93-2.929-7.679-2.929-10.607 0z"></path><path d="m296.838 453.335-15.367-2.233-6.871-13.924s0-.001-.001-.001c-1.919-3.888-5.805-6.303-10.141-6.303-4.335 0-8.221 2.415-10.141 6.304l-6.872 13.924-15.367 2.233c-4.291.624-7.789 3.573-9.129 7.696-1.34 4.124-.244 8.565 2.862 11.593l11.119 10.839-2.625 15.304c-.733 4.274.991 8.512 4.499 11.061 1.982 1.44 4.301 2.172 6.637 2.172 1.797 0 3.604-.434 5.273-1.311l13.744-7.226 13.744 7.226c3.838 2.016 8.399 1.688 11.909-.861 3.508-2.548 5.232-6.786 4.499-11.061l-2.625-15.304 11.12-10.839c3.104-3.026 4.201-7.468 2.861-11.592-1.339-4.123-4.836-7.073-9.128-7.697zm-16.712 20.742c-2.666 2.599-3.882 6.34-3.252 10.01l1.688 9.845-8.841-4.647c-1.648-.867-3.456-1.3-5.264-1.3s-3.614.433-5.262 1.299l-8.841 4.648 1.688-9.845c.629-3.67-.587-7.412-3.253-10.01l-7.153-6.972 9.885-1.437c3.683-.535 6.866-2.847 8.515-6.187l4.42-8.957 4.421 8.957c1.647 3.339 4.831 5.652 8.516 6.187l9.885 1.437z"></path><path d="m389.643 453.335-15.366-2.233-6.871-13.924s0-.001-.001-.001c-1.919-3.888-5.805-6.303-10.141-6.303-4.335 0-8.221 2.415-10.141 6.304l-6.871 13.924-15.368 2.233c-4.291.624-7.788 3.573-9.128 7.697s-.243 8.565 2.861 11.592l11.12 10.839-2.625 15.303c-.734 4.273.989 8.511 4.496 11.061s8.071 2.88 11.912.862l13.743-7.226 13.744 7.226c1.67.877 3.476 1.311 5.273 1.311 2.334 0 4.653-.732 6.636-2.172 3.508-2.548 5.232-6.786 4.499-11.061l-2.625-15.304 11.12-10.839c3.104-3.026 4.201-7.468 2.861-11.592-1.338-4.123-4.836-7.073-9.128-7.697zm-16.711 20.742c-2.666 2.599-3.882 6.34-3.252 10.01l1.688 9.845-8.841-4.647c-1.648-.867-3.456-1.3-5.264-1.3s-3.614.433-5.262 1.299l-8.842 4.648 1.689-9.845c.629-3.669-.587-7.411-3.253-10.01l-7.153-6.972 9.885-1.437c3.685-.535 6.868-2.848 8.516-6.187l4.42-8.957 4.421 8.957c1.647 3.339 4.831 5.652 8.516 6.187l9.885 1.437z"></path><path d="m482.45 453.335-15.366-2.233-6.871-13.924s0-.001-.001-.001c-1.919-3.888-5.805-6.303-10.14-6.303-4.336 0-8.222 2.415-10.142 6.304l-6.871 13.924-15.368 2.233c-4.291.624-7.788 3.573-9.128 7.697s-.243 8.566 2.861 11.592l11.12 10.839-2.625 15.303c-.734 4.273.989 8.512 4.497 11.061 1.982 1.441 4.302 2.173 6.637 2.173 1.798 0 3.604-.434 5.273-1.311l13.744-7.226 13.744 7.226c3.838 2.016 8.399 1.688 11.909-.861 3.508-2.548 5.232-6.786 4.499-11.061l-2.625-15.304 11.121-10.84c3.104-3.027 4.2-7.469 2.859-11.592-1.338-4.123-4.836-7.072-9.127-7.696zm-16.708 20.739c-2.668 2.598-3.885 6.341-3.255 10.013l1.688 9.845-8.841-4.647c-1.647-.867-3.455-1.3-5.263-1.3s-3.615.433-5.264 1.299l-8.841 4.648 1.689-9.845c.629-3.669-.587-7.411-3.253-10.01l-7.153-6.972 9.885-1.437c3.682-.535 6.864-2.846 8.516-6.187l4.421-8.957 4.42 8.957c1.647 3.339 4.831 5.652 8.516 6.187l9.885 1.437z"></path><path d="m115.759 354.5-13.421-1.951-6.002-12.162c-1.854-3.756-5.607-6.09-9.796-6.09s-7.943 2.334-9.796 6.09l-6.002 12.162-13.42 1.95c-4.145.602-7.524 3.451-8.819 7.434-1.295 3.984-.236 8.275 2.764 11.199l9.712 9.467-2.292 13.366c-.708 4.129.957 8.223 4.346 10.686 1.915 1.391 4.155 2.098 6.411 2.098 1.736 0 3.481-.419 5.094-1.267l12.004-6.311 12.004 6.311c3.708 1.95 8.116 1.631 11.505-.831s5.054-6.557 4.346-10.685l-2.292-13.367 9.712-9.467c3-2.924 4.059-7.215 2.764-11.199-1.299-3.983-4.678-6.831-8.822-7.433zm-15.662 18.854c-2.575 2.51-3.75 6.125-3.142 9.669l1.259 7.34-6.591-3.465c-3.183-1.673-6.984-1.673-10.167 0l-6.591 3.465 1.259-7.34c.608-3.544-.567-7.159-3.142-9.668l-5.333-5.198 7.366-1.071c3.561-.516 6.637-2.75 8.228-5.976l3.296-6.678 3.295 6.676c1.591 3.227 4.667 5.461 8.226 5.977l7.369 1.071z"></path></g></g></g></svg>