<svg xmlns="http://www.w3.org/2000/svg" xmlns:xlink="http://www.w3.org/1999/xlink" width="512" height="512" viewBox="0 0 60 60"><title>017 - Swab Test</title><desc>Created with Sketch.</desc><defs></defs><g id="Page-1" stroke="none" stroke-width="1" fill="none" fill-rule="evenodd"><g id="017---Swab-Test" transform="translate(0.000000, -1.000000)" fill="#000000" fill-rule="nonzero"><path d="M54.4082,1.0376 C52.8857812,1.22045719 51.5342153,2.09894542 50.749,3.416 L46.938,9.7681 L41,15.7061 L41,10.8161 C42.1953265,10.3950809 42.9962789,9.26729975 43,8 L43,3 C42.9987325,1.89595593 42.1040441,1.00126747 41,1 L19,1 C17.8959559,1.00126747 17.0012675,1.89595593 17,3 L17,8 C17.0038901,9.2671528 17.8048115,10.39473 19,10.8157 L19,37.7057 L0.8926,55.813 C0.0271424969,56.6805065 -0.23285604,57.9828145 0.233146598,59.1161395 C0.699149235,60.2494646 1.80003339,60.9922024 3.0254,61 L3.0361,61 C3.84375249,61.0016887 4.61848842,60.6800764 5.1875,60.1069 L19,46.294 L19,50 C19,56.0751322 23.9248678,61 30,61 C36.0751322,61 41,56.0751322 41,50 L41,24.2939 L51.2319,14.062 L57.584,10.251 C58.8990944,9.46133935 59.7766343,8.10942389 59.9624877,6.58676315 C60.148341,5.06410241 59.621745,3.54080058 58.5352,2.458 C57.4539094,1.37068044 55.9296364,0.846067546 54.4082,1.0376 Z M28,14 C28,13.4477153 27.5522847,13 27,13 L25,13 C24.4477153,13 24,13.4477153 24,14 C24,14.5522847 24.4477153,15 25,15 L26,15 L26,18 L25,18 C24.4477153,18 24,18.4477153 24,19 C24,19.5522847 24.4477153,20 25,20 L26,20 L26,23 L25,23 C24.4477153,23 24,23.4477153 24,24 C24,24.5522847 24.4477153,25 25,25 L26,25 L26,28 L25,28 C24.4477153,28 24,28.4477153 24,29 C24,29.5522847 24.4477153,30 25,30 L26,30 L26,33 L25,33 C24.4477153,33 24,33.4477153 24,34 C24,34.5522847 24.4477153,35 25,35 L26,35 L26,38 L21,38 L21,11 L39,11 L39,38 L28,38 L28,14 Z M19,3 L41,3 L41,8 C40.9995038,8.55207909 40.5520791,8.9995038 40,9 L20,9 C19.4479209,8.9995038 19.0004962,8.55207909 19,8 L19,3 Z M3.7734,58.6924 C3.57871644,58.8894935 3.31313327,59.0002942 3.0361,59 L3.0322,59 C2.46549703,58.9910386 2.00841266,58.5335114 2,57.9668 C1.9989199,57.6890163 2.1093765,57.4224217 2.3066,57.2268 L19,40.5341 L19,43.4658 L3.7734,58.6924 Z M30,59 C25.0317218,58.9944889 21.0055111,54.9682782 21,50 L21,40 L26,40 L26,43 L25,43 C24.4477153,43 24,43.4477153 24,44 C24,44.5522847 24.4477153,45 25,45 L26,45 L26,48 L25,48 C24.4477153,48 24,48.4477153 24,49 C24,49.5522847 24.4477153,50 25,50 L26,50 L26,53 L25,53 C24.4477153,53 24,53.4477153 24,54 C24,54.5522847 24.4477153,55 25,55 L27,55 C27.5522847,55 28,54.5522847 28,54 L28,40 L39,40 L39,50 C38.9944889,54.9682782 34.9682782,58.9944889 30,59 Z M41,21.4658 L41,18.5342 L47.74,11.7942 L49.2061,13.26 L41,21.4658 Z M57.9775,6.3472 C57.8679922,7.25786887 57.3424928,8.06632098 56.5547,8.5361 L50.7773,12.0024 L48.9973,10.2224 L52.4641,4.445 C53.1908126,3.24068906 54.6602216,2.70789425 55.9899183,3.1665692 C57.319615,3.62524415 58.1480367,4.95066882 57.9777,6.3469 L57.9775,6.3472 Z" id="Shape"></path></g></g></svg>