<svg xmlns="http://www.w3.org/2000/svg" id="Capa_1" height="512" viewBox="0 0 512 512" width="512"><g><path d="m495.044 0c-6.889 0-471.53 0-478.088 0-9.35 0-16.956 7.606-16.956 16.956v478.088c0 9.35 7.606 16.956 16.956 16.956h478.088c9.35 0 16.956-7.606 16.956-16.956 0-9.837 0-201.662 0-211.569 0-4.143-3.357-7.5-7.5-7.5s-7.5 3.357-7.5 7.5v169.659h-77.643c0-2.687 0-429.085 0-438.134h75.687c1.078 0 1.956.878 1.956 1.956v231.519c0 4.143 3.357 7.5 7.5 7.5s7.5-3.357 7.5-7.5v-231.519c0-9.35-7.606-16.956-16.956-16.956zm-402.401 497h-75.687c-1.078 0-1.956-.878-1.956-1.956v-26.91h77.643zm0-43.866h-77.643v-436.178c0-1.078.878-1.956 1.956-1.956h75.687zm15-267.101 13.317 11.471-13.317 5.99zm206.255 126.774 21.81-9.81 16.679 14.367-21.81 9.81zm1.58 21.158-25.134 11.305-16.679-14.367 25.135-11.305zm-59.478-11.564-52.273-23.512c4.672-2.396 7.883-7.253 7.883-12.855v-54.451c0-7.968-6.481-14.449-14.449-14.449h-23.086c-7.967 0-14.448 6.481-14.448 14.449v47.47l-21.984-9.888v-62.718c11.329-5.096 227.224-102.203 236.715-106.472v169.189zm-79.708-19.404 21.81 9.81-16.679 14.367-21.81-9.81zm-1.665-17.514v-53.35h21.983v53.35zm38.573 34.116c16.086 7.235 11.097 4.991 24.516 11.026l-24.311 10.935-16.883-7.594zm-52.007-23.393-16.678 14.367-25.135-11.305 16.679-14.367zm-23.55 27.724 57.479 25.854-57.479 25.854zm43.781 48.462 16.679 14.367-21.811 9.81-16.679-14.367zm15.099-6.791 7.899-3.553 17.234-7.751 16.678 14.367c-19.694 8.858-14.913 6.708-25.133 11.304zm40.232-18.096c7.623-3.429 14.188-6.381 21.811-9.81l16.679 14.367-21.811 9.81zm61.84 10.502 16.883 7.594-16.679 14.367c-4.83-2.172-19.568-8.801-24.514-11.026 9.978-4.489 15.382-6.919 24.31-10.935zm31.982 14.385c.016.007 21.796 9.804 21.811 9.81l-16.679 14.367-21.811-9.81zm-13.699-22.609c10.137-4.559 52.371-23.556 57.479-25.854v51.707c-5.105-2.296-47.295-21.272-57.479-25.853zm50.608-39.211-16.679-14.367c9.226-4.15 4.79-2.155 25.135-11.305l16.678 14.367c-17.687 7.956-14.075 6.331-25.134 11.305zm0-223.954-16.679-14.367c9.226-4.15 4.79-2.155 25.135-11.305l16.678 14.367c-17.687 7.956-14.075 6.331-25.134 11.305zm-15.099 6.792-21.81 9.81-16.679-14.367 21.81-9.81zm-36.909 16.601-25.134 11.305-16.679-14.367 25.135-11.304zm-40.233 18.097-21.811 9.81-16.679-14.367 21.811-9.81zm-36.911 16.601c-19.694 8.858-14.913 6.708-25.133 11.304l-16.678-14.367c10.15-4.566 4.938-2.221 25.134-11.304zm-40.231 18.096-21.811 9.81-16.679-14.367 21.811-9.81zm-36.91 16.602c-5.092 2.29-20.199 9.085-25.134 11.305l-16.679-14.367c12.865-5.786 9.055-4.073 25.135-11.305zm-53.55 40.533 15-6.747v49.226l-15-6.747zm0 52.179 13.317 5.99-13.317 11.471zm0 38.317 15 6.747v65.201l-15 6.747zm0 99.551 13.317 11.471-13.317 5.99zm15 87.013h-15c0-35.828 0-16.903 0-53.106l15-6.747zm-3.264-96.701c12.864-5.786 9.055-4.073 25.135-11.305l16.678 14.367c-4.101 1.844-21.971 9.882-25.134 11.305zm254.978 96.701h-236.714v-66.599c8.142-3.662 56.589-25.454 117.591-52.891.004-.002.007-.004.011-.006l.755-.34.762.343.006.003c3.95 1.777 115.385 51.899 117.59 52.891v66.599zm1.584-82.334-25.134-11.305 16.678-14.367c21.55 9.693 2.246 1.01 25.135 11.305zm28.416 82.334h-15v-59.853l15 6.747zm0-69.553-13.317-5.99 13.317-11.471zm0-38.316-15-6.747v-65.201c7.698-3.462 7.245-3.259 15-6.747zm0-99.551-13.317-11.471 13.317-5.99zm0-33.908-15 6.747v-169.191c7.698-3.462 7.245-3.259 15-6.747zm0-190.046-13.317-11.471 13.317-5.99zm0-33.908-15.946 7.172c-2.013-5.193-7.048-8.89-12.944-8.89h-101.967c-4.143 0-7.5 3.357-7.5 7.5s3.357 7.5 7.5 7.5h100.857v.211l-236.714 106.472v-106.683h100.857c4.143 0 7.5-3.357 7.5-7.5s-3.357-7.5-7.5-7.5h-101.967c-7.659 0-13.891 6.23-13.891 13.89v114.54l-15 6.747v-150.177h296.715zm92.643 436.416v26.91c0 1.078-.878 1.956-1.956 1.956h-75.687v-28.866z"></path></g></svg>