<svg xmlns="http://www.w3.org/2000/svg" xmlns:xlink="http://www.w3.org/1999/xlink" id="Capa_1" x="0px" y="0px" width="213.098px" height="213.098px" viewBox="0 0 213.098 213.098" style="enable-background:new 0 0 213.098 213.098;" xml:space="preserve">
<g>
	<g>
		<path d="M181.979,75.121c-1.238,0-2.505,0.193-3.866,0.592c-36.707,5.888-64.844,29.525-69.997,34.104    c-0.154,0.126-0.302,0.26-0.593,0.52l-0.271,0.246c-0.016,0.014-0.254,0.229-0.268,0.243c-4.611,4.309-7.256,10.38-7.256,16.652    c0,12.58,10.233,22.815,22.812,22.815c7.437,0,56.761-36.23,67.242-49.272c2.953-1.962,5.085-4.969,5.924-8.386    c0.052-0.164,0.093-0.333,0.12-0.505c0.205-0.992,0.301-1.926,0.301-2.862C196.127,81.468,189.775,75.121,181.979,75.121z     M188.944,90.786c-0.011,0.017-0.011,0.034-0.018,0.051l0,0c-0.431,1.903-1.615,3.515-3.326,4.535    c-0.391,0.232-0.729,0.534-1.003,0.895c-9.641,12.708-56.305,45.25-62.301,47.012c-8.603-0.123-15.561-7.166-15.561-15.8    c0-4.4,1.787-8.497,5.219-11.693l0.243-0.226c0,0,0.441-0.391,0.445-0.394c5.034-4.47,31.908-27.047,66.797-32.565    c0.168-0.026,0.329-0.063,0.486-0.113c0.794-0.241,1.444-0.357,2.057-0.357c3.936,0,7.139,3.203,7.139,7.139    C189.118,89.741,189.057,90.235,188.944,90.786z"></path>
		<path d="M36.611,132.526l-7.215,21.187c-0.365,1.071-0.188,2.248,0.471,3.165c0.659,0.925,1.716,1.465,2.849,1.465h77.992    c1.55,0,2.912-1.013,3.354-2.498c0.444-1.485-0.141-3.083-1.431-3.936c-0.137-0.085-13.554-9.055-16.021-21.73    c-1.117-5.749,0.221-11.516,3.983-17.155l34.394-26.818c0.853-0.662,1.349-1.682,1.349-2.765V26.496    c0-6.882-5.599-12.482-12.48-12.482s-12.48,5.6-12.48,12.482v42.489h-4.641V12.482C106.733,5.6,101.133,0,94.254,0    c-6.887,0-12.486,5.6-12.486,12.482v56.507h-3.701V14.241c0-6.882-5.6-12.482-12.482-12.482c-6.882,0-12.482,5.601-12.482,12.482    v54.748h-6.785V32.194c0-6.882-5.6-12.482-12.482-12.482c-6.882,0-12.482,5.6-12.482,12.482l0.003,49.312    C21.284,82.869,19.815,114.245,36.611,132.526z M28.362,81.692V32.194c0-3.017,2.457-5.474,5.474-5.474    c3.017,0,5.474,2.458,5.474,5.474v40.299c0,1.935,1.571,3.504,3.504,3.504h13.793c1.934,0,3.504-1.569,3.504-3.504V14.241    c0-3.017,2.458-5.474,5.474-5.474s5.474,2.457,5.474,5.474v58.252c0,1.935,1.569,3.504,3.504,3.504h10.709    c1.934,0,3.504-1.569,3.504-3.504V12.482c0-3.017,2.455-5.474,5.477-5.474c3.017,0,5.47,2.457,5.47,5.474v60.011    c0,1.935,1.569,3.504,3.504,3.504h11.642c1.938,0,3.505-1.569,3.505-3.504V26.499c0-3.017,2.457-5.474,5.476-5.474    c3.018,0,5.475,2.457,5.475,5.474v55.235l-33.479,26.106c-0.282,0.217-0.525,0.48-0.729,0.775    c-5.109,7.395-6.917,15.116-5.381,22.946c1.643,8.377,6.829,15.194,11.382,19.779H37.611l6.328-18.582    c0.435-1.279,0.096-2.693-0.873-3.634C26.912,113.369,28.342,82.19,28.362,81.692z"></path>
		<path d="M143.562,161.047H20.475c-1.934,0-3.504,1.567-3.504,3.504v45.043c0,1.94,1.571,3.504,3.504,3.504h123.088    c1.938,0,3.504-1.563,3.504-3.504v-45.043C147.066,162.614,145.5,161.047,143.562,161.047z M140.059,206.089H23.979v-38.033    h116.08V206.089z"></path>
	</g>
</g>
<g>
</g>
<g>
</g>
<g>
</g>
<g>
</g>
<g>
</g>
<g>
</g>
<g>
</g>
<g>
</g>
<g>
</g>
<g>
</g>
<g>
</g>
<g>
</g>
<g>
</g>
<g>
</g>
<g>
</g>
</svg>