<svg xmlns="http://www.w3.org/2000/svg" height="389pt" viewBox="0 -44 389.11488 389" width="389pt"><path d="m359.90625.0585938h-330.691406c-16.109375 0-29.214844 13.1054682-29.214844 29.2109372v146.375c0 16.105469 13.105469 29.214844 29.214844 29.214844h80.40625c13.265625 20.707031 13.125 47.121094-.5625 67.652344l-11.539063 17.308593c-2.09375 3.136719-1.246093 7.371094 1.890625 9.464844 1.167969.777344 2.480469 1.148438 3.78125 1.148438 2.207032 0 4.371094-1.066406 5.6875-3.039063l11.539063-17.308593c15.128906-22.683594 16.734375-51.261719 4.902343-75.226563h73.046876c13.265624 20.710937 13.125 47.125-.5625 67.652344l-11.539063 17.308593c-2.097656 3.136719-1.246094 7.371094 1.890625 9.46875 1.167969.773438 2.480469 1.144532 3.78125 1.144532 2.207031 0 4.371094-1.066406 5.6875-3.039063l11.539062-17.308593c15.125-22.679688 16.734376-51.257813 4.898438-75.226563h73.046875c13.265625 20.710937 13.128906 47.125-.558594 67.65625l-11.542969 17.304687c-2.09375 3.140626-1.246093 7.375 1.894532 9.46875 1.167968.777344 2.480468 1.148438 3.78125 1.148438 2.203125 0 4.371094-1.066406 5.683594-3.042969l11.542968-17.304687c15.125-22.683594 16.734375-51.261719 4.898438-75.226563h57.09375c16.105468 0 29.210937-13.109375 29.210937-29.214843v-146.378907c.007813-16.105469-13.101562-29.2109372-29.207031-29.2109372zm15.558594 175.5859372c0 8.578125-6.976563 15.558594-15.558594 15.558594h-64.871094c-4.839844-8.988281-7.515625-18.941406-7.515625-29.234375v-25.378906h19.613281c2.304688 0 4.453126-1.164063 5.710938-3.089844 1.261719-1.925781 1.46875-4.359375.542969-6.46875l-25.367188-58.023438c-1.085937-2.488281-3.539062-4.09375-6.253906-4.09375-2.710937 0-5.164063 1.605469-6.25 4.089844l-25.375 58.023438c-.925781 2.113281-.71875 4.546875.539063 6.472656 1.261718 1.925781 3.40625 3.089844 5.710937 3.089844h17.476563v25.378906c0 10.128906 2.054687 20.023438 5.933593 29.234375h-73.511719c-4.84375-8.988281-7.519531-18.941406-7.519531-29.234375v-25.378906h19.613281c2.308594 0 4.453126-1.164063 5.714844-3.089844 1.261719-1.925781 1.464844-4.359375.539063-6.46875l-25.363281-58.023438c-1.085938-2.488281-3.539063-4.09375-6.253907-4.09375-2.710937 0-5.164062 1.605469-6.253906 4.089844l-25.371094 58.023438c-.925781 2.113281-.71875 4.546875.539063 6.472656 1.257812 1.925781 3.40625 3.089844 5.710937 3.089844h17.472657v25.378906c0 10.128906 2.058593 20.023438 5.9375 29.234375h-73.511719c-4.84375-8.988281-7.519531-18.941406-7.519531-29.234375v-25.378906h19.613281c2.308593 0 4.453125-1.164063 5.714843-3.089844 1.261719-1.925781 1.464844-4.359375.539063-6.46875l-25.363281-58.023438c-1.085938-2.488281-3.539063-4.09375-6.253906-4.09375-2.714844 0-5.164063 1.605469-6.253907 4.089844l-25.371093 58.023438c-.925782 2.113281-.722657 4.546875.539062 6.472656 1.257812 1.925781 3.40625 3.089844 5.710938 3.089844h17.472656v25.378906c0 10.128906 2.058594 20.023438 5.933594 29.234375h-73.089844c-8.582032 0-15.5625-6.980469-15.5625-15.558594v-146.375c0-8.578125 6.980468-15.558593 15.5625-15.558593h330.691406c8.582031 0 15.558594 6.980468 15.558594 15.558593zm-108.636719-52.707031 14.9375-34.15625 14.933594 34.15625zm-88.746094 0 14.9375-34.15625 14.933594 34.15625zm-88.75 0 14.941407-34.15625 14.933593 34.15625zm0 0"></path></svg>