<svg xmlns="http://www.w3.org/2000/svg" width="32" height="32" viewBox="0 0 32 32"><g transform="translate(5103.744 949.453)"><path fill="#f55" d="m -5086.1199,-926.5791 c -0.4365,0.3829 -0.9977,0.625 -1.625,0.625 -1.3807,0 -2.5,-1.1193 -2.5,-2.5 0,-0.3925 0.2437,-1.0794 0.541,-1.8184 l 0.6485,-1.4882 c 0.6441,-1.3948 1.3105,-2.6934 1.3105,-2.6934 0,0 2.5,4.6193 2.5,6 0,0.1897 -0.029,0.372 -0.07,0.5488 z"></path><path fill="#586597" d="m -5087.877,-1968.8145 c -3.1997,0.016 -6.3553,0.3686 -9.4687,1.0098 -0.3406,0.07 -0.6711,0.2094 -0.9395,0.4551 -0.2683,0.2457 -0.4589,0.6205 -0.4589,1.0351 v 25 c 0,0.8224 0.6776,1.5 1.5,1.5 h 0.582 c 0.1724,0.5571 0.6175,1 1.2226,1 h 3.6602 0.8184 a 0.50004994,0.50004994 0 0 0 0.4961,-0.4316 c 0.028,-0.1984 0.081,-0.3871 0.1484,-0.5684 h 5.1406 c 0.067,0.1814 0.1222,0.3699 0.1504,0.5684 a 0.50004994,0.50004994 0 0 0 0.4942,0.4316 h 0.8164 3.6035 c 0.6051,0 1.0479,-0.4432 1.2207,-1 h 0.6465 c 0.8223,0 1.5,-0.6776 1.5,-1.5 v -25 c 0,-0.4148 -0.1928,-0.7905 -0.461,-1.0351 -0.2682,-0.2446 -0.598,-0.3828 -0.9355,-0.4551 -3.2933,-0.7052 -6.5366,-1.0256 -9.7364,-1.0098 z" font-family="sans-serif" font-weight="400" transform="translate(0 1020.362)" style="line-height:normal;font-variant-ligatures:normal;font-variant-position:normal;font-variant-caps:normal;font-variant-numeric:normal;font-variant-alternates:normal;font-feature-settings:normal;text-indent:0;text-align:start;text-decoration-line:none;text-decoration-style:solid;text-decoration-color:#000;text-transform:none;text-orientation:mixed;shape-padding:0;isolation:auto;mix-blend-mode:normal"></path><path fill="#f6c490" d="m -5087.873,-1967.8164 c 1.8603,-0.01 3.7368,0.1141 5.6289,0.3476 v 5.1543 c 0,0.5627 -0.4374,1 -1,1 h -9 c -0.5627,0 -1,-0.4373 -1,-1 v -5.1445 c 1.7777,-0.2192 3.5668,-0.3486 5.3711,-0.3574 z" font-family="sans-serif" font-weight="400" transform="translate(0 1020.362)" style="line-height:normal;font-variant-ligatures:normal;font-variant-position:normal;font-variant-caps:normal;font-variant-numeric:normal;font-variant-alternates:normal;font-feature-settings:normal;text-indent:0;text-align:start;text-decoration-line:none;text-decoration-style:solid;text-decoration-color:#000;text-transform:none;text-orientation:mixed;shape-padding:0;isolation:auto;mix-blend-mode:normal"></path><path fill="#ffe4d8" d="m -5081.2441,-1967.3379 c 0.3877,0.057 0.7768,0.1218 1.166,0.1895 0.039,0.059 0.068,0.097 0.1386,0.2343 0.107,0.209 0.1954,0.4784 0.1954,0.6055 l -0.061,25.9922 c -8e-4,0.3388 -0.1925,0.5019 -0.3066,0.5019 h -3.6035 -0.5547 c -0.453,-1.5859 -1.7874,-2.7949 -3.4766,-2.7949 -1.6885,0 -3.0215,1.2094 -3.4746,2.7949 h -0.5586 -3.6602 c -0.1141,0 -0.3066,-0.1625 -0.3066,-0.5 l 0.061,-25.9941 c 3e-4,-0.128 0.086,-0.3963 0.1933,-0.6055 0.072,-0.14 0.102,-0.1796 0.1406,-0.2382 0.3685,-0.062 0.7379,-0.1184 1.1075,-0.1719 v 5.0097 c 0,1.0994 0.9006,2 2,2 h 9 c 1.0993,0 2,-0.9006 2,-2 z" font-family="sans-serif" font-weight="400" transform="translate(0 1020.362)" style="line-height:normal;font-variant-ligatures:normal;font-variant-position:normal;font-variant-caps:normal;font-variant-numeric:normal;font-variant-alternates:normal;font-feature-settings:normal;text-indent:0;text-align:start;text-decoration-line:none;text-decoration-style:solid;text-decoration-color:#000;text-transform:none;text-orientation:mixed;shape-padding:0;isolation:auto;mix-blend-mode:normal"></path><path fill="#fbb490" d="M-5096.5742-1966.9297c-.064.1863-.1108.3914-.1113.6192l-.059 25.496h-.5c-.2857 0-.5-.2143-.5-.5v-25c0-.1394.037-.2109.1328-.2988.096-.088.2647-.1712.4668-.2129.1895-.039.3805-.067.5703-.1035zM-5078.8535-1966.9199c.1683.034.3353.058.5039.094.2041.044.3743.129.4707.2168.096.088.1348.1558.1348.2949v25c0 .2857-.2144.5-.5.5h-.5586l.059-25.4941c0-.2239-.046-.4274-.1094-.6113zM-5087.7461-1941.6094c.747 0 1.4235.3042 1.9219.7949h-3.8418c.4978-.4902 1.1733-.7937 1.9199-.7949z" font-family="sans-serif" font-weight="400" transform="translate(0 1020.362)" style="line-height:normal;font-variant-ligatures:normal;font-variant-position:normal;font-variant-caps:normal;font-variant-numeric:normal;font-variant-alternates:normal;font-feature-settings:normal;text-indent:0;text-align:start;text-decoration-line:none;text-decoration-style:solid;text-decoration-color:#000;text-transform:none;text-orientation:mixed;shape-padding:0;isolation:auto;mix-blend-mode:normal"></path><path fill="#fbb490" d="M-5092.2441-942.95312v1h9v-1zM-5084.2441-944.95312v1h1v-1zM-5086.2441-944.95312v1h1v-1z" font-family="sans-serif" font-weight="400" style="line-height:normal;font-variant-ligatures:normal;font-variant-position:normal;font-variant-caps:normal;font-variant-numeric:normal;font-variant-alternates:normal;font-feature-settings:normal;text-indent:0;text-align:start;text-decoration-line:none;text-decoration-style:solid;text-decoration-color:#000;text-transform:none;text-orientation:mixed;shape-padding:0;isolation:auto;mix-blend-mode:normal"></path><path fill="#fbb490" d="m -5090.7449,-944.4541 a 0.5,0.5 0 0 1 -0.5,0.5 0.5,0.5 0 0 1 -0.5,-0.5 0.5,0.5 0 0 1 0.5,-0.5 0.5,0.5 0 0 1 0.5,0.5 z"></path><path fill="#b0dae4" d="m -5085.5,-928.1378 c 0,1.24005 -1.0052,2.24531 -2.2453,2.24532 -1.2401,-10e-6 -2.2453,-1.00527 -2.2453,-2.24532 0,-1.24005 2.2453,-6.1736 2.2453,-6.1736 0,0 2.2453,4.93355 2.2453,6.1736 z"></path><path fill="#586597" d="M-5087.7461-934.95312a.50005.50005 0 0 0-.4394.26171c0 0-.6297 1.16334-1.2618 2.50586-.316.67127-.6327 1.38876-.875 2.03711-.2422.64835-.4218 1.19925-.4218 1.69532 0 .24065.036.46021.082.66015a.5000737.5000737 0 1 0 .9746-.22461c-.036-.15366-.057-.2968-.057-.43554 0-.19429.1309-.73962.3574-1.34571.2265-.60609.5348-1.30479.8437-1.96094.3945-.83779.5569-1.12135.791-1.56835.2443.48636.4392.85894.8633 1.77734a.50028993.50028993 0 1 0 .9082-.41992c-.6496-1.40674-1.3203-2.71094-1.3203-2.71094a.50005.50005 0 0 0-.4453-.27148zM-5085.7871-930.7793a.50005.50005 0 0 0-.4629.69336c.2926.72725.5059 1.44728.5059 1.63282 0 1.11047-.8896 2-2 2-.4987 0-.9416-.19026-1.2969-.50196a.50005.50005 0 1 0-.6582.75196c.5176.4541 1.1991.75 1.9551.75 1.6509 0 3-1.34908 3-3 0-.59947-.2761-1.25511-.5782-2.00586a.50005.50005 0 0 0-.4648-.32032z" font-family="sans-serif" font-weight="400" style="line-height:normal;font-variant-ligatures:normal;font-variant-position:normal;font-variant-caps:normal;font-variant-numeric:normal;font-variant-alternates:normal;font-feature-settings:normal;text-indent:0;text-align:start;text-decoration-line:none;text-decoration-style:solid;text-decoration-color:#000;text-transform:none;text-orientation:mixed;shape-padding:0;isolation:auto;mix-blend-mode:normal"></path><path fill="#586597" d="m -5084.2617,-934.45898 a 0.50005,0.50005 0 0 0 -0.3418,0.15625 l -8.25,8.5 a 0.50005,0.50005 0 1 0 0.7168,0.69726 l 8.25,-8.5 a 0.50005,0.50005 0 0 0 -0.375,-0.85351 z" font-family="sans-serif" font-weight="400" style="line-height:normal;font-variant-ligatures:normal;font-variant-position:normal;font-variant-caps:normal;font-variant-numeric:normal;font-variant-alternates:normal;font-feature-settings:normal;text-indent:0;text-align:start;text-decoration-line:none;text-decoration-style:solid;text-decoration-color:#000;text-transform:none;text-orientation:mixed;shape-padding:0;isolation:auto;mix-blend-mode:normal"></path></g></svg>