<svg xmlns="http://www.w3.org/2000/svg" width="22" height="30.001" viewBox="0 0 22 30.001"><g id="dehumidifier" transform="translate(5098.747 948.449)"><path id="Path_1" data-name="Path 1" d="M-5086.12-926.579a2.452,2.452,0,0,1-1.625.625,2.5,2.5,0,0,1-2.5-2.5,6.305,6.305,0,0,1,.541-1.818l.648-1.488c.644-1.395,1.311-2.693,1.311-2.693s2.5,4.619,2.5,6a2.419,2.419,0,0,1-.07.549Z" fill="#f55"></path><path id="Path_2" data-name="Path 2" d="M-5087.88-1968.81a48.037,48.037,0,0,0-9.469,1.01,1.95,1.95,0,0,0-.939.455,1.421,1.421,0,0,0-.459,1.035v25a1.508,1.508,0,0,0,1.5,1.5h.582a1.312,1.312,0,0,0,1.223,1h4.479a.5.5,0,0,0,.5-.432,2.709,2.709,0,0,1,.148-.568h5.141a2.773,2.773,0,0,1,.15.568.5.5,0,0,0,.494.432h4.42a1.31,1.31,0,0,0,1.221-1h.646a1.508,1.508,0,0,0,1.5-1.5v-25a1.42,1.42,0,0,0-.461-1.035,1.981,1.981,0,0,0-.936-.455A45.265,45.265,0,0,0-5087.88-1968.81Z" transform="translate(0 1020.362)" fill="#14d24c"></path><path id="Path_3" data-name="Path 3" d="M-5087.87-1967.82a44.014,44.014,0,0,1,5.629.348v5.154a.987.987,0,0,1-1,1h-9a.987.987,0,0,1-1-1v-5.145A45.657,45.657,0,0,1-5087.87-1967.82Z" transform="translate(0 1020.362)" fill="#fff"></path><path id="Path_4" data-name="Path 4" d="M-5081.24-1967.34c.388.057.777.122,1.166.189a1.867,1.867,0,0,1,.139.234,1.746,1.746,0,0,1,.2.605l-.061,25.992c0,.339-.192.5-.307.5h-4.158a3.676,3.676,0,0,0-3.477-2.795,3.675,3.675,0,0,0-3.475,2.795h-4.219c-.114,0-.307-.162-.307-.5l.061-25.994a1.731,1.731,0,0,1,.193-.605,1.883,1.883,0,0,1,.141-.238c.369-.062.738-.118,1.107-.172v5.01a2.007,2.007,0,0,0,2,2h9a2.007,2.007,0,0,0,2-2Z" transform="translate(0 1020.362)" fill="#f5f2f1"></path><path id="Path_5" data-name="Path 5" d="M-5096.57-1966.93a1.9,1.9,0,0,0-.111.619l-.059,25.5h-.5a.488.488,0,0,1-.5-.5v-25a.349.349,0,0,1,.133-.3,1.023,1.023,0,0,1,.467-.213c.189-.039.38-.067.57-.1Zm17.72.01c.168.034.335.058.5.094a1.056,1.056,0,0,1,.471.217.343.343,0,0,1,.135.295v25a.488.488,0,0,1-.5.5h-.559l.059-25.494a1.86,1.86,0,0,0-.109-.611Zm-8.9,25.31a2.731,2.731,0,0,1,1.922.795h-3.842A2.733,2.733,0,0,1-5087.75-1941.61Z" transform="translate(0 1020.362)" fill="none"></path><path id="Path_6" data-name="Path 6" d="M-5092.24-942.953v1h9v-1Zm8-2v1h1v-1Zm-2,0v1h1v-1Z" fill="none"></path><path id="Path_7" data-name="Path 7" d="M-5090.75-944.454a.5.5,0,0,1-.5.5.5.5,0,0,1-.5-.5.5.5,0,0,1,.5-.5A.5.5,0,0,1-5090.75-944.454Z" fill="none"></path><path id="Path_8" data-name="Path 8" d="M-5085.5-928.138a2.245,2.245,0,0,1-2.245,2.245,2.245,2.245,0,0,1-2.245-2.245c0-1.24,2.245-6.174,2.245-6.174S-5085.5-929.378-5085.5-928.138Z" fill="none"></path><path id="Path_9" data-name="Path 9" d="M-5087.75-934.953a.5.5,0,0,0-.439.262s-.63,1.163-1.262,2.506c-.316.671-.633,1.389-.875,2.037a5.13,5.13,0,0,0-.422,1.7,2.922,2.922,0,0,0,.082.66.5.5,0,0,0,.6.375.5.5,0,0,0,.375-.6,1.9,1.9,0,0,1-.057-.436,5.385,5.385,0,0,1,.357-1.346c.227-.606.535-1.3.844-1.961.395-.838.557-1.121.791-1.568.244.486.439.859.863,1.777a.5.5,0,0,0,.664.244.5.5,0,0,0,.244-.664c-.649-1.407-1.32-2.711-1.32-2.711a.5.5,0,0,0-.445-.271Zm1.96,4.174a.5.5,0,0,0-.418.222.5.5,0,0,0-.045.471,7.63,7.63,0,0,1,.506,1.633,1.993,1.993,0,0,1-2,2,1.947,1.947,0,0,1-1.3-.5.5.5,0,0,0-.5-.115.5.5,0,0,0-.338.386.5.5,0,0,0,.181.48,2.963,2.963,0,0,0,1.955.75,3.008,3.008,0,0,0,3-3,5.852,5.852,0,0,0-.578-2.006A.5.5,0,0,0-5085.79-930.779Z" fill="#14d24c"></path><path id="Path_10" data-name="Path 10" d="M-5084.26-934.459a.5.5,0,0,0-.342.156l-8.25,8.5a.5.5,0,0,0,.01.707.5.5,0,0,0,.707-.01l8.25-8.5a.5.5,0,0,0,.1-.555A.5.5,0,0,0-5084.26-934.459Z" fill="#14d24c"></path></g></svg>