<svg xmlns="http://www.w3.org/2000/svg" id="Capa_1" height="512" viewBox="0 0 512.015 512.015" width="512"><g><path d="m439.676 439.676h15v15h-15z" transform="matrix(.707 -.707 .707 .707 -185.227 447.176)"></path><path d="m394.06 256.008 111.264-111.264c8.922-8.923 8.922-23.441 0-32.365l-105.687-105.687c-8.923-8.922-23.442-8.923-32.365 0l-111.264 111.263-111.264-111.263c-8.923-8.923-23.442-8.923-32.365 0l-105.687 105.687c-8.922 8.923-8.922 23.442 0 32.365l111.263 111.263-111.263 111.264c-8.922 8.923-8.922 23.441 0 32.365l105.687 105.687c8.924 8.923 23.442 8.923 32.365 0l111.264-111.263 111.264 111.264c4.462 4.461 10.322 6.691 16.183 6.691s11.721-2.23 16.183-6.692l36.933-36.934-10.606-10.606-36.933 36.934c-3.076 3.074-8.078 3.074-11.152 0l-121.87-121.87-121.87 121.87c-3.074 3.074-8.077 3.075-11.152 0l-105.689-105.687c-3.074-3.075-3.074-8.078 0-11.153l121.87-121.87-121.87-121.87c-3.074-3.075-3.074-8.078 0-11.152l105.686-105.686c3.076-3.074 8.079-3.074 11.153 0l121.87 121.87 121.869-121.87c3.076-3.075 8.079-3.075 11.153 0l105.686 105.687c3.075 3.075 3.075 8.078 0 11.153l-121.869 121.87 121.869 121.87c3.075 3.075 3.075 8.078.001 11.152l-36.935 36.933 10.606 10.606 36.935-36.933c8.922-8.923 8.922-23.442 0-32.365z"></path><path d="m78.552 78.552h15v15h-15z" transform="matrix(.707 -.707 .707 .707 -35.644 86.052)"></path><path d="m64.839 96.659-31.903 31.903 127.446 127.446-127.446 127.445 95.626 95.626 127.446-127.445 127.446 127.445 95.625-95.626-127.445-127.445 127.445-127.446-95.626-95.626-127.445 127.446-127.446-127.446-31.903 31.903 10.607 10.606 21.296-21.296 127.446 127.445 127.445-127.445 74.413 74.413-127.445 127.446 127.445 127.445-74.412 74.413-127.446-127.445-127.446 127.445-74.413-74.413 127.446-127.445-127.446-127.446 21.297-21.297z"></path><path d="m354.525 99.897h14.999v15h-14.999z" transform="matrix(.707 -.707 .707 .707 30.102 287.461)"></path><path d="m375.739 78.683h14.999v15h-14.999z" transform="matrix(.707 -.707 .707 .707 51.317 296.249)"></path></g></svg>