<svg xmlns="http://www.w3.org/2000/svg" id="Capa_1" height="512" viewBox="0 0 511.849 511.849" width="512"><g><path d="m30.239 407.61c-3.464-2.271-8.113-1.305-10.384 2.16-12.989 19.811-19.855 42.786-19.855 66.441v26.949c0 4.142 3.358 7.5 7.5 7.5s7.5-3.358 7.5-7.5v-26.949c0-20.725 6.017-40.856 17.399-58.216 2.271-3.464 1.304-8.114-2.16-10.385z"></path><path d="m120.246 445.613h-61.777c-7.015 0-12.723 5.708-12.723 12.723v23.038c0 7.015 5.708 12.723 12.723 12.723h61.777c7.015 0 12.723-5.708 12.723-12.723v-23.038c0-7.015-5.708-12.723-12.723-12.723zm-2.277 33.484h-57.223v-18.483h57.223z"></path><path d="m226.995 88.286c-16.659 0-30.212 13.553-30.212 30.212s13.553 30.212 30.212 30.212c16.66 0 30.213-13.553 30.213-30.212s-13.553-30.212-30.213-30.212zm0 45.424c-8.388 0-15.212-6.824-15.212-15.212s6.824-15.212 15.212-15.212 15.213 6.824 15.213 15.212-6.825 15.212-15.213 15.212z"></path><path d="m450.946 274.095c-3.528-2.171-8.147-1.073-10.319 2.455-2.172 3.527-1.072 8.147 2.454 10.318 33.668 20.73 53.768 56.674 53.768 96.15 0 62.217-50.617 112.833-112.834 112.833s-112.833-50.617-112.833-112.833 50.616-112.833 112.833-112.833c10.71 0 21.316 1.503 31.524 4.468 3.976 1.152 8.139-1.133 9.294-5.111s-1.133-8.139-5.11-9.294c-11.568-3.359-23.583-5.063-35.708-5.063-58.127 0-107.311 39-122.775 92.206l-16.754-6.836v-31.298c24.687-19.548 39.907-49.676 39.907-82.303v-3.803c18.003-1.12 32.309-16.114 32.309-34.394 0-5.117-1.129-9.973-3.138-14.344l.005-34.159c7.771-1.962 13.547-8.991 13.547-17.363v-8.785c0-9.515-7.456-17.299-16.829-17.871l.029-1.677-.969-17.774c-1.232-22.595-15.287-42.748-35.961-51.763l-1.082-1.058c-12.678-12.391-30.07-18.524-47.714-16.824l-7.983.769-4.87-2.085c-15.02-6.434-32.249-6.434-47.267 0l-4.87 2.085-7.983-.769c-17.644-1.7-35.035 4.433-47.712 16.824l-1.082 1.058c-20.673 9.014-34.729 29.167-35.96 51.763l-.993 18.184-.096 1.932c-7.464 2.167-12.94 9.053-12.94 17.206v8.785c0 7.047 4.097 13.14 10.026 16.067v34.977c-2.149 4.493-3.355 9.519-3.355 14.822 0 18.281 14.306 33.275 32.309 34.394v4.102c0 33.096 15.693 63.688 41.057 83.215v30.087l-57.461 23.445c-12.022 4.905-23.134 11.688-33.029 20.163-3.146 2.694-3.512 7.429-.817 10.575 1.483 1.732 3.585 2.621 5.7 2.621 1.727 0 3.461-.593 4.875-1.804 8.671-7.426 18.407-13.371 28.938-17.667l42.448-17.319 58.19 145.566c1.139 2.849 3.897 4.716 6.964 4.716s5.826-1.868 6.964-4.716l58.189-145.566 4.05 1.652c-1.113 6.771-1.701 13.716-1.701 20.797 0 70.488 57.346 127.833 127.833 127.833 70.488 0 127.834-57.346 127.834-127.833.001-44.724-22.767-85.442-60.902-108.923zm-166.553-119.733v-13.545h14.175l-.003 17.594c-4.266-2.305-9.071-3.732-14.172-4.049zm-57.397 9.348c-24.931 0-45.213-20.282-45.213-45.212s20.282-45.212 45.213-45.212c24.93 0 45.212 20.282 45.212 45.212s-20.282 45.212-45.212 45.212zm57.397 44.388v-38.683c9.721 1.079 17.309 9.338 17.309 19.342s-7.588 18.262-17.309 19.341zm27.722-93.993v8.785c0 1.614-1.313 2.926-2.926 2.926h-22.442c.292-2.401.461-4.84.461-7.319s-.168-4.918-.461-7.319h22.442c1.614.001 2.926 1.314 2.926 2.927zm-230.276-36.505c.945-17.33 11.946-32.745 28.028-39.271.903-.367 1.726-.905 2.422-1.586l2.1-2.053c9.509-9.294 22.548-13.893 35.79-12.62l9.892.953c1.249.121 2.515-.075 3.671-.571l6.633-2.841c11.267-4.825 24.189-4.825 35.456 0l6.633 2.841c1.156.496 2.42.692 3.671.571l9.892-.953c13.237-1.274 26.282 3.326 35.79 12.619l2.1 2.053c.697.681 1.52 1.22 2.423 1.587 16.081 6.526 27.083 21.941 28.027 39.271l.989 18.147c.002.031-.006.187-.022.433h-12.433c-8.887-22.18-30.589-37.894-55.906-37.894s-47.02 15.714-55.906 37.894h-41.171c-4.142 0-7.5 3.358-7.5 7.5s3.358 7.5 7.5 7.5h37.325c-.292 2.401-.461 4.84-.461 7.319s.168 4.918.461 7.319h-96.482c-1.614 0-2.926-1.313-2.926-2.926v-8.785c0-1.614 1.313-2.926 2.926-2.926h27.195c4.142 0 7.5-3.358 7.5-7.5s-3.358-7.5-7.5-7.5h-17.128l.021-.433zm9.976 76.762c-5.015.312-9.742 1.699-13.954 3.936v-17.482h13.954zm-17.309 34.394c0-10.004 7.588-18.263 17.309-19.342v38.684c-9.721-1.079-17.309-9.337-17.309-19.342zm32.309 38.496v-86.436h64.274c8.887 22.18 30.589 37.894 55.906 37.894 16.521 0 31.507-6.692 42.397-17.503v65.747c0 37.99-24.056 72.047-59.86 84.75l-.738.262c-13.703 4.861-28.785 4.831-42.468-.087-35.596-12.794-59.511-46.802-59.511-84.627zm54.438 98.742c8.519 3.062 17.473 4.592 26.43 4.592 8.849 0 17.7-1.495 26.128-4.485l.737-.262c5.201-1.845 10.189-4.077 14.937-6.656v24.636l-30.288 26.03c-6.197 5.326-15.511 5.289-21.667-.084l-29.659-25.892v-23.797c4.282 2.257 8.741 4.25 13.382 5.918zm27.426 157.152-51.265-128.244.194-.079 30.059 26.242c5.901 5.152 13.323 7.729 20.749 7.729 7.341 0 14.686-2.522 20.559-7.569l30.738-26.417.231.094z"></path><path d="m390.095 318.242c-3.207 2.328-7.515 2.328-10.722 0-18.898-13.726-44.878-13.175-63.178 1.339-22.018 17.464-26.315 48.947-9.784 71.675l22.321 30.685 3.447 32.665c1.088 10.303 9.721 18.073 20.081 18.073 9.71 0 18.056-6.927 19.846-16.47l6.107-32.566c.589-3.134 3.33-5.41 6.52-5.41s5.932 2.275 6.52 5.41l6.108 32.566c1.79 9.543 10.136 16.47 19.846 16.47 10.359 0 18.992-7.77 20.08-18.073l3.447-32.665 22.321-30.686c16.531-22.727 12.233-54.21-9.784-71.674-18.297-14.513-44.277-15.066-63.176-1.339zm53.854 13.091c15.698 12.451 18.762 34.896 6.976 51.099l-23.503 32.311c-.774 1.065-1.255 2.315-1.394 3.625l-3.659 34.664c-.279 2.649-2.499 4.647-5.162 4.647-2.497 0-4.643-1.781-5.104-4.235l-6.107-32.565c-1.917-10.225-10.859-17.646-21.263-17.646-10.402 0-19.344 7.42-21.262 17.645l-6.107 32.566c-.461 2.454-2.606 4.235-5.104 4.235-2.664 0-4.884-1.998-5.163-4.647l-3.658-34.664c-.139-1.31-.619-2.56-1.394-3.625l-23.504-32.311c-11.786-16.203-8.723-38.648 6.976-51.099 13.045-10.348 31.568-10.74 45.041-.955 8.478 6.157 19.871 6.157 28.351 0 13.475-9.785 31.994-9.392 45.04.955z"></path><path d="m369.821 350.61-.02-.012c-3.509-2.195-8.14-1.128-10.335 2.385s-1.127 8.14 2.386 10.335c.025.017.071.045.098.061 6.811 4.14 14.789 6.21 22.768 6.21 7.989 0 15.978-2.075 22.793-6.225 3.538-2.154 4.66-6.769 2.506-10.306-2.155-3.539-6.771-4.659-10.307-2.505-8.96 5.455-21.003 5.457-29.889.057z"></path></g></svg>