<svg xmlns="http://www.w3.org/2000/svg" id="Outline" viewBox="0 0 512 512" width="512" height="512"><path d="M40,496H216a8,8,0,0,0,8-8V456h-.009c0-.2,0-.4-.013-.6l-24-320a7.972,7.972,0,0,0-1.838-4.519l.006-.005L169.02,95.927a7.987,7.987,0,0,0,6.918-8.919L169.69,37.023A24.039,24.039,0,0,0,145.875,16h-35.75A24.039,24.039,0,0,0,86.31,37.023L80.062,87.008a7.987,7.987,0,0,0,6.918,8.919L57.854,130.878l.006.005a7.972,7.972,0,0,0-1.838,4.519l-24,320c-.015.2-.013.4-.013.6H32v32A8,8,0,0,0,40,496Zm8-16V464H208v16ZM148.253,96l26.667,32H81.08l26.667-32Zm5.56-56.992L158.938,80H136V32h9.875A8.012,8.012,0,0,1,153.813,39.008Zm-51.626,0A8.012,8.012,0,0,1,110.125,32H120V80H97.062ZM71.423,144H184.577l22.8,304H48.622Z"></path><path d="M328,16a24.027,24.027,0,0,0-24,24V88a8,8,0,0,0,8,8h8v16H280a40.045,40.045,0,0,0-40,40v24a8,8,0,0,0,.572,2.971L256,217.541V374.459l-15.428,38.57A8,8,0,0,0,240,416v40a40.045,40.045,0,0,0,40,40H440a40.045,40.045,0,0,0,40-40V416a8,8,0,0,0-.572-2.971L464,374.459V217.541l15.428-38.57A8,8,0,0,0,480,176V152a40.045,40.045,0,0,0-40-40H400V96h8a8,8,0,0,0,8-8V40a24.027,24.027,0,0,0-24-24Zm24,64V32h16V80ZM320,40a8.009,8.009,0,0,1,8-8h8V80H320ZM464,456a24.027,24.027,0,0,1-24,24H280a24.027,24.027,0,0,1-24-24V417.541L269.416,384H450.584L464,417.541ZM272,368V224H448V368ZM450.584,208H269.416l-10.952-27.38,35.13-13.174a56.185,56.185,0,0,1,37.371-.692l49.355,16.452a71.542,71.542,0,0,0,54.969-3.906L464,164.944v9.515Zm12.949-60.711-35.4,17.7a55.626,55.626,0,0,1-42.752,3.038l-49.356-16.451a72.212,72.212,0,0,0-48.048.889L256,164.456V152a24.027,24.027,0,0,1,24-24H440A24.04,24.04,0,0,1,463.533,147.289ZM384,112H336V96h48Zm16-72V80H384V32h8A8.009,8.009,0,0,1,400,40Z"></path><circle cx="320" cy="456" r="8"></circle><circle cx="296" cy="432" r="8"></circle><circle cx="320" cy="408" r="8"></circle><path d="M429,281.753l-40-32a8,8,0,0,0-7.528-1.342L360,255.567l-21.47-7.156A8,8,0,0,0,331,249.753l-40,32a8,8,0,0,0-1.862,10.363C290.215,293.908,315.977,336,360,336s69.785-42.092,70.86-43.884A8,8,0,0,0,429,281.753Zm-91.4-16.787,19.871,6.623a7.992,7.992,0,0,0,5.06,0l19.871-6.623,22.824,18.259C391.775,285.425,373.214,288,360,288s-31.769-2.576-45.223-4.776ZM315.828,299.61C329.421,301.749,346.85,304,360,304s30.578-2.251,44.172-4.39C394.24,309.347,379.03,320,360,320S325.76,309.347,315.828,299.61Z"></path><path d="M152,256c-1.87,0-7.22,0-24,13.58C111.22,256,105.87,256,104,256c-11.07,0-32,6.69-32,32,0,13.42,5.41,19.28,9.75,23.99C85.51,316.07,88,318.76,88,328c0,42.63,20.29,47.46,22.6,47.88a8.014,8.014,0,0,0,8.83-4.91L128,349.54l8.57,21.43a8.014,8.014,0,0,0,8.83,4.91c2.31-.42,22.6-5.25,22.6-47.88,0-9.24,2.49-11.93,6.25-16.01,4.34-4.71,9.75-10.57,9.75-23.99C184,262.69,163.07,256,152,256Zm10.49,45.14C158.06,305.94,152,312.51,152,328c0,14.22-2.54,22.22-4.78,26.51l-11.79-29.48a8,8,0,0,0-14.86,0l-11.79,29.48C106.54,350.22,104,342.22,104,328c0-15.49-6.06-22.06-10.49-26.86C90.08,297.41,88,295.16,88,288c0-14.27,11.7-15.85,15.37-15.99,2.99,1.17,11.81,7.54,19.42,14.06a8,8,0,0,0,10.42,0c7.61-6.52,16.43-12.89,19.42-14.06,3.67.14,15.37,1.72,15.37,15.99C168,295.16,165.92,297.41,162.49,301.14Z"></path></svg>