<svg xmlns="http://www.w3.org/2000/svg" id="Capa_1" height="512" viewBox="0 0 511.962 511.962" width="512"><g><path d="m84.791 421.962c0 49.626 40.374 90 90 90h15v-15c0-36.644 4.011-76.774 11.005-110.102 7.104-33.848 14.858-49.026 18.995-54.278 4.137 5.252 11.892 20.43 18.995 54.278 6.994 33.328 11.005 73.458 11.005 110.102v15h15c49.626 0 90-40.374 90-90 0-81.788 19.32-127.132 36.366-167.139 12.154-28.524 23.634-55.467 23.634-88.861 0-6.194-.424-12.359-1.258-18.455 10.716-21.11 28.235-38.543 49.417-49.126l24.221-12.108-23.112-14.116c-15.7-9.589-43.389-30.365-50.849-45.299l-13.419-26.858-13.419 26.858c-4.443 8.894-16.061 19.859-28.046 29.3-22.808-16.323-50.232-25.196-78.535-25.196-20.769 0-40.912 4.897-60 14.573-19.088-9.675-39.231-14.573-60-14.573-74.439 0-135 60.561-135 135 0 33.532 11.494 60.472 23.663 88.993 17.032 39.922 36.337 85.169 36.337 167.007zm315-363.021c8.877 9.703 19.691 18.581 28.91 25.418-10.947 8.124-20.709 17.818-28.91 28.706-8.201-10.888-17.963-20.582-28.91-28.706 9.219-6.837 20.033-15.715 28.91-25.418zm-240 2.021c33.779 0 55.502 16.956 60 18.998 4.677-2.124 26.359-18.998 60-18.998 18.269 0 36.055 4.771 51.719 13.641l-19.133 11.66 24.255 12.118c18.314 9.15 33.881 23.426 44.691 40.764 2.292 8.707 3.468 17.716 3.468 26.817 0 27.27-9.37 49.26-21.232 77.102-17.272 40.537-38.768 90.986-38.768 178.898 0 28.001-19.279 51.584-45.263 58.169-1.14-37.191-5.936-76.545-13.311-108.144-11.308-48.457-26.061-71.025-46.427-71.025s-35.119 22.569-46.427 71.025c-7.375 31.599-12.171 70.952-13.311 108.144-25.983-6.585-45.263-30.167-45.263-58.169 0-87.97-21.482-138.322-38.744-178.779-11.876-27.835-21.256-49.821-21.256-77.221.002-57.897 47.105-105 105.002-105z"></path></g></svg>