<svg xmlns="http://www.w3.org/2000/svg" height="496pt" viewBox="0 -32 496 496" width="496pt"><path d="m231.816406 399.808594c5.289063.121094 10.679688.191406 16.183594.191406v-16c-5.375 0-10.648438-.070312-15.816406-.191406zm0 0"></path><path d="m52.832031 365.34375c25.257813 10.878906 79.984375 29.746094 162.769531 33.855469l.796876-15.984375c-80.269532-3.984375-132.964844-22.117188-157.230469-32.558594zm0 0"></path><path d="m463.816406 246.199219c-.9375-12.382813-11.199218-22.199219-23.816406-22.199219h-32c-6.167969 0-11.742188 2.40625-16 6.238281-4.257812-3.839843-9.832031-6.238281-16-6.238281h-32c-7.007812 0-13.273438 3.070312-17.664062 7.878906-5.273438-4.847656-12.246094-7.878906-19.960938-7.878906h-36.75c-8.554688 0-16.21875 3.703125-21.625 9.519531-5.414062-5.816406-13.070312-9.519531-21.625-9.519531h-36.75c-7.714844 0-14.6875 3.03125-19.96875 7.878906-4.382812-4.808594-10.648438-7.878906-17.65625-7.878906h-32c-6.167969 0-11.742188 2.40625-16 6.238281-4.257812-3.839843-9.832031-6.238281-16-6.238281h-32c-12.617188 0-22.878906 9.816406-23.816406 22.199219l-30.734375 99.898437c-.960938 3.109375-1.449219 6.359375-1.449219 9.621094 0 15.105469 10.441406 28.265625 25 31.816406 10.34375 5.664063 86.167969 44.464844 223 44.464844s212.65625-38.800781 223-44.472656c14.558594-3.542969 25-16.703125 25-31.808594 0-3.261719-.488281-6.503906-1.449219-9.621094zm-55.816406-6.199219h32c4.414062 0 8 3.585938 8 8v32c0 13.230469-10.769531 24-24 24s-24-10.769531-24-24v-32c0-4.414062 3.585938-8 8-8zm-72 8c0-4.414062 3.585938-8 8-8h32c4.414062 0 8 3.585938 8 8v32c0 13.230469-10.769531 24-24 24s-24-10.769531-24-24zm-66.375-8h36.75c7.511719 0 13.625 6.113281 13.625 13.625 0 .992188-.113281 1.992188-.328125 2.960938l-10.28125 46.246093c-2.238281 10.113281-11.039063 17.167969-21.390625 17.167969s-19.152344-7.054688-21.390625-17.167969l-10.28125-46.246093c-.214844-.96875-.328125-1.96875-.328125-2.960938 0-7.511719 6.113281-13.625 13.625-13.625zm-80 0h36.75c7.511719 0 13.625 6.113281 13.625 13.625 0 .992188-.113281 1.992188-.328125 2.960938l-10.28125 46.246093c-2.238281 10.113281-11.039063 17.167969-21.390625 17.167969s-19.152344-7.054688-21.390625-17.167969l-10.28125-46.246093c-.214844-.96875-.328125-1.96875-.328125-2.960938 0-7.511719 6.113281-13.625 13.625-13.625zm-69.625 0h32c4.414062 0 8 3.585938 8 8v32c0 13.230469-10.769531 24-24 24s-24-10.769531-24-24v-32c0-4.414062 3.585938-8 8-8zm-72 8c0-4.414062 3.585938-8 8-8h32c4.414062 0 8 3.585938 8 8v32c0 13.230469-10.769531 24-24 24s-24-10.769531-24-24zm418.542969 124.136719-1.285157.253906-1.152343.664063c-.738281.433593-75.875 42.945312-216.105469 42.945312-139.800781 0-215.375-42.519531-216.121094-42.953125l-1.152344-.65625-1.277343-.253906c-7.792969-1.570313-13.449219-8.464844-13.449219-16.417969 0-1.671875.246094-3.328125.742188-4.917969l17.699218-57.519531c5.503906 15.511719 20.183594 26.71875 37.558594 26.71875 13.128906 0 24.703125-6.449219 32-16.246094 7.296875 9.796875 18.871094 16.246094 32 16.246094 14.289062 0 26.753906-7.59375 33.832031-18.886719l1.152344 5.191407c3.878906 17.488281 19.105469 29.695312 37.015625 29.695312s33.136719-12.207031 37.015625-29.695312l2.984375-13.425782 2.984375 13.425782c3.878906 17.488281 19.105469 29.695312 37.015625 29.695312s33.136719-12.207031 37.015625-29.695312l1.152344-5.191407c7.078125 11.292969 19.542969 18.886719 33.832031 18.886719 13.128906 0 24.703125-6.449219 32-16.246094 7.296875 9.796875 18.871094 16.246094 32 16.246094 17.375 0 32.054688-11.207031 37.558594-26.71875l17.699218 57.519531c.496094 1.589844.742188 3.246094.742188 4.917969 0 7.953125-5.65625 14.847656-13.457031 16.417969zm0 0"></path><path d="m264.191406 32.199219c-5.289062-.136719-10.6875-.199219-16.191406-.199219v16c5.367188 0 10.640625.0625 15.808594.191406zm0 0"></path><path d="m443.167969 66.65625c-25.257813-10.878906-79.984375-29.746094-162.769531-33.855469l-.796876 15.976563c80.285157 4 132.972657 22.125 157.230469 32.574218zm0 0"></path><path d="m32.183594 185.800781c.9375 12.382813 11.199218 22.199219 23.816406 22.199219h32c6.167969 0 11.742188-2.40625 16-6.238281 4.257812 3.839843 9.832031 6.238281 16 6.238281h32c7.007812 0 13.273438-3.070312 17.664062-7.878906 5.273438 4.847656 12.246094 7.878906 19.960938 7.878906h36.75c8.554688 0 16.21875-3.703125 21.625-9.519531 5.414062 5.816406 13.070312 9.519531 21.625 9.519531h36.75c7.714844 0 14.6875-3.03125 19.96875-7.878906 4.382812 4.808594 10.648438 7.878906 17.65625 7.878906h32c6.167969 0 11.742188-2.40625 16-6.238281 4.257812 3.839843 9.832031 6.238281 16 6.238281h32c12.617188 0 22.878906-9.816406 23.816406-22.199219l30.734375-99.890625c.960938-3.109375 1.449219-6.359375 1.449219-9.628906 0-15.105469-10.441406-28.273438-25-31.816406-10.34375-5.664063-86.167969-44.464844-223-44.464844s-212.65625 38.800781-223 44.472656c-14.558594 3.535156-25 16.703125-25 31.808594 0 3.269531.488281 6.511719 1.449219 9.621094zm55.816406 6.199219h-32c-4.414062 0-8-3.59375-8-8v-32c0-13.230469 10.769531-24 24-24s24 10.769531 24 24v32c0 4.40625-3.585938 8-8 8zm72-8c0 4.40625-3.585938 8-8 8h-32c-4.414062 0-8-3.59375-8-8v-32c0-13.230469 10.769531-24 24-24s24 10.769531 24 24zm66.375 8h-36.75c-7.511719 0-13.625-6.113281-13.625-13.625 0-1 .113281-1.992188.328125-2.960938l10.28125-46.253906c2.238281-10.105468 11.039063-17.160156 21.390625-17.160156s19.152344 7.054688 21.390625 17.167969l10.289063 46.265625c.207031.957031.320312 1.949218.320312 2.949218 0 7.503907-6.113281 13.617188-13.625 13.617188zm80 0h-36.75c-7.511719 0-13.625-6.113281-13.625-13.625 0-1 .113281-1.992188.328125-2.960938l10.28125-46.253906c2.238281-10.105468 11.039063-17.160156 21.390625-17.160156s19.152344 7.054688 21.390625 17.167969l10.289063 46.265625c.207031.957031.320312 1.949218.320312 2.949218 0 7.503907-6.113281 13.617188-13.625 13.617188zm69.625 0h-32c-4.414062 0-8-3.59375-8-8v-32c0-13.230469 10.769531-24 24-24s24 10.769531 24 24v32c0 4.40625-3.585938 8-8 8zm72-8c0 4.40625-3.585938 8-8 8h-32c-4.414062 0-8-3.59375-8-8v-32c0-13.230469 10.769531-24 24-24s24 10.769531 24 24zm-418.542969-124.136719 1.285157-.253906 1.152343-.664063c.738281-.425781 75.875-42.945312 216.105469-42.945312 139.800781 0 215.375 42.519531 216.121094 42.953125l1.152344.664063 1.277343.253906c7.792969 1.554687 13.449219 8.457031 13.449219 16.410156 0 1.671875-.246094 3.328125-.742188 4.917969l-17.699218 57.519531c-5.503906-15.511719-20.183594-26.71875-37.558594-26.71875-13.128906 0-24.703125 6.449219-32 16.246094-7.296875-9.796875-18.871094-16.246094-32-16.246094-14.289062 0-26.753906 7.59375-33.832031 18.886719l-1.152344-5.191407c-3.878906-17.488281-19.105469-29.695312-37.015625-29.695312s-33.136719 12.207031-37.015625 29.695312l-2.984375 13.433594-2.984375-13.433594c-3.878906-17.488281-19.105469-29.695312-37.015625-29.695312s-33.136719 12.207031-37.015625 29.695312l-1.152344 5.191407c-7.078125-11.292969-19.542969-18.886719-33.832031-18.886719-13.128906 0-24.703125 6.449219-32 16.246094-7.296875-9.796875-18.871094-16.246094-32-16.246094-17.375 0-32.046875 11.207031-37.558594 26.71875l-17.699218-57.527344c-.496094-1.582031-.742188-3.238281-.742188-4.910156 0-7.953125 5.65625-14.855469 13.457031-16.417969zm0 0"></path></svg>