<svg xmlns="http://www.w3.org/2000/svg" height="512" viewBox="0 0 64 64" width="512"><g id="Distillatory-3" data-name="Distillatory"><path d="m32 48a7 7 0 1 0 -7-7 7.008 7.008 0 0 0 7 7zm0-12a5 5 0 1 1 -5 5 5.006 5.006 0 0 1 5-5z"></path><path d="m19 59h7a1 1 0 0 0 0-2h-7a1 1 0 0 0 0 2z"></path><path d="m29 59h1a1 1 0 0 0 0-2h-1a1 1 0 0 0 0 2z"></path><path d="m62 58h-1v-48a2 2 0 0 0 -2-2h-19a2 2 0 0 0 -2 2v5.768a16.557 16.557 0 0 0 -2-.5v-13.268a1 1 0 0 0 -1-1h-6a1 1 0 0 0 -1 1v13.27a16.557 16.557 0 0 0 -2 .5v-5.77a2 2 0 0 0 -2-2h-19a2 2 0 0 0 -2 2v48h-1a1 1 0 0 0 -1 1v3a1 1 0 0 0 1 1h7a1 1 0 0 0 1-1v-3a1 1 0 0 0 -1-1h-1v-45h13v5.265a17 17 0 0 0 -7 13.735v28a3 3 0 0 0 3 3h30a3 3 0 0 0 3-3v-28a17 17 0 0 0 -7-13.735v-5.265h13v45h-1a1 1 0 0 0 -1 1v3a1 1 0 0 0 1 1h7a1 1 0 0 0 1-1v-3a1 1 0 0 0 -1-1zm-32-55h4v2h-4zm-22 58h-5v-1h5zm13-50h-13a2 2 0 0 0 -2 2v45h-1v-48h19v6.518c-.341.155-.672.324-1 .5v-4.018a2 2 0 0 0 -2-2zm27 38h-32v-16h32zm0 11a1 1 0 0 1 -1 1h-30a1 1 0 0 1 -1-1v-9h32zm-.047-29h-31.906a14.993 14.993 0 0 1 13.076-13.878 1 1 0 0 0 .877-.992v-9.13h4v9.13a1 1 0 0 0 .877.992 14.993 14.993 0 0 1 13.076 13.878zm8.047-20h-13a2 2 0 0 0 -2 2v4.017c-.328-.175-.659-.344-1-.5v-6.517h19v48h-1v-45a2 2 0 0 0 -2-2zm5 50h-5v-1h5z"></path></g></svg>