<svg xmlns="http://www.w3.org/2000/svg" id="Layer_1" height="512" viewBox="0 0 512 512" width="512" data-name="Layer 1"><path d="m421.414 131.9a6 6 0 1 0 -12 0v6.776a6 6 0 1 0 12 0z"></path><path d="m480.968 72.705a6 6 0 0 0 -.67-6.326l-42.34-54.079a6 6 0 0 0 -9.448 0l-42.341 54.079a6 6 0 0 0 4.725 9.7h16.5v36.177a6 6 0 0 0 6 6h40.274a6 6 0 0 0 6-6v-36.178h15.906a6 6 0 0 0 5.394-3.373zm-27.3-8.627a6 6 0 0 0 -6 6v36.177h-28.274v-36.177a6 6 0 0 0 -6-6h-10.183l30.023-38.345 30.022 38.345z"></path><path d="m450.965 144.672a6 6 0 0 0 6-6v-6.772a6 6 0 0 0 -12 0v6.776a6 6 0 0 0 6 5.996z"></path><path d="m415.414 151.329a6 6 0 0 0 -6 6v6.776a6 6 0 1 0 12 0v-6.776a6 6 0 0 0 -6-6z"></path><path d="m444.965 164.105a6 6 0 0 0 12 0v-6.776a6 6 0 0 0 -12 0z"></path><path d="m244.18 131.9a6 6 0 0 0 -12 0v6.776a6 6 0 0 0 12 0z"></path><path d="m282.435 112.255v-36.177h15.9a6 6 0 0 0 4.725-9.7l-42.336-54.078a6 6 0 0 0 -9.448 0l-42.341 54.079a6 6 0 0 0 4.75 9.7l16.643-.07v36.151a6 6 0 0 0 5.986 6l40.106.095h.015a6 6 0 0 0 6-6zm-12-42.177v36.163l-28.107-.067v-36.191a6 6 0 0 0 -6.025-6l-10.285.043 29.982-38.293 30.023 38.345h-9.588a6 6 0 0 0 -6 6z"></path><path d="m279.731 131.9a6 6 0 1 0 -12 0v6.776a6 6 0 1 0 12 0z"></path><path d="m238.18 151.329a6 6 0 0 0 -6 6v6.776a6 6 0 0 0 12 0v-6.776a6 6 0 0 0 -6-6z"></path><path d="m273.731 151.329a6 6 0 0 0 -6 6v6.776a6 6 0 1 0 12 0v-6.776a6 6 0 0 0 -6-6z"></path><path d="m60.946 144.672a6 6 0 0 0 6-6v-6.772a6 6 0 0 0 -12 0v6.776a6 6 0 0 0 6 5.996z"></path><path d="m83.49 12.3a6 6 0 0 0 -9.448 0l-42.342 54.079a6 6 0 0 0 4.724 9.7h16.5v36.177a6 6 0 0 0 6 6h40.276a6 6 0 0 0 6-6v-36.178h15.905a6 6 0 0 0 4.725-9.7zm15.71 51.778a6 6 0 0 0 -6 6v36.177h-28.273v-36.177a6 6 0 0 0 -6-6h-10.183l30.022-38.345 30.023 38.345z"></path><path d="m96.5 144.672a6 6 0 0 0 6-6v-6.772a6 6 0 0 0 -12 0v6.776a6 6 0 0 0 6 5.996z"></path><path d="m54.946 164.105a6 6 0 0 0 12 0v-6.776a6 6 0 0 0 -12 0z"></path><path d="m90.5 164.105a6 6 0 0 0 12 0v-6.776a6 6 0 0 0 -12 0z"></path><path d="m171.312 417.606a5.832 5.832 0 1 1 0-11.653 6.142 6.142 0 0 1 4.888 2.347 6 6 0 0 0 9.461-7.383 17.994 17.994 0 0 0 -8.962-6.164v-.423a6 6 0 0 0 -12 0v.873a17.779 17.779 0 0 0 6.615 34.4 5.833 5.833 0 1 1 0 11.655 6.142 6.142 0 0 1 -4.886-2.349 6 6 0 0 0 -9.461 7.383 18 18 0 0 0 8.347 5.967v.286a6 6 0 0 0 12 0v-.317a17.782 17.782 0 0 0 -6-34.625z"></path><path d="m432.227 234.667a6 6 0 0 0 3.332 5.8 26.853 26.853 0 0 1 13.451 14.669 6 6 0 0 0 5.228 3.895c.133.009.265.013.4.013a6 6 0 0 0 5.3-3.186 26.327 26.327 0 0 1 15.178-12.591 6 6 0 0 0 .776-11.08 26.854 26.854 0 0 1 -13.452-14.669 6 6 0 0 0 -10.923-.722 26.328 26.328 0 0 1 -15.177 12.591 6 6 0 0 0 -4.113 5.28zm23.834-3.877a38.67 38.67 0 0 0 5.366 5.963 38.108 38.108 0 0 0 -6.043 5.113 38.663 38.663 0 0 0 -5.365-5.963 38.153 38.153 0 0 0 6.042-5.113z"></path><path d="m321.324 440.771c41.93 0 76.042-33.191 76.042-73.987s-34.112-73.984-76.042-73.984-76.042 33.19-76.042 73.987 34.118 73.984 76.042 73.984zm-6-12.281a64.888 64.888 0 0 1 -34.675-13.863l7.918-7.685a53.182 53.182 0 0 0 26.757 10.824zm12 0v-10.724a53.182 53.182 0 0 0 26.758-10.824l7.918 7.685a64.885 64.885 0 0 1 -34.676 13.863zm43.313-101.21a60.7 60.7 0 0 1 14.424 33.5h-11.414a50.365 50.365 0 0 0 -10.981-25.767zm3.01 45.5h11.414a60.7 60.7 0 0 1 -14.424 33.5l-7.971-7.737a50.369 50.369 0 0 0 10.981-25.759zm-46.323-67.706a64.892 64.892 0 0 1 34.676 13.866l-7.917 7.686a53.183 53.183 0 0 0 -26.759-10.826zm-12 0v10.726a53.183 53.183 0 0 0 -26.757 10.825l-7.918-7.686a64.89 64.89 0 0 1 34.675-13.861zm6 22.381c22.44 0 40.695 17.642 40.695 39.325s-18.255 39.324-40.695 39.324-40.694-17.64-40.694-39.324 18.255-39.321 40.694-39.321zm-49.312-.179 7.97 7.737a50.38 50.38 0 0 0 -10.982 25.771h-11.413a60.692 60.692 0 0 1 14.425-33.504zm-3.01 45.5a50.373 50.373 0 0 0 10.98 25.766l-7.971 7.738a60.7 60.7 0 0 1 -14.424-33.5z"></path><path d="m320.826 373.07a5.833 5.833 0 1 1 0 11.655 6.145 6.145 0 0 1 -4.886-2.349 6 6 0 0 0 -9.46 7.383 18.008 18.008 0 0 0 8.346 5.966v.286a6 6 0 0 0 12 0v-.311a17.781 17.781 0 0 0 -6-34.625 5.833 5.833 0 1 1 0-11.654 6.137 6.137 0 0 1 4.885 2.349 6 6 0 0 0 9.462-7.381 17.992 17.992 0 0 0 -8.962-6.166v-.423a6 6 0 0 0 -12 0v.872a17.781 17.781 0 0 0 6.615 34.4z"></path><path d="m121.257 227.307c-42.854 0-88.4 13.291-88.417 37.924l-.073 192.926c0 25.02 46.326 38.521 89.915 38.521 5.889 0 11.757-.242 17.476-.7a82.833 82.833 0 0 0 74.489-6.314 17.033 17.033 0 0 0 6.186 1.288 47.47 47.47 0 0 0 33.3-13.411l.074-.071a23 23 0 0 1 15.937-6.4h102.365a23 23 0 0 1 15.935 6.4l.08.078a47.467 47.467 0 0 0 33.292 13.406 14.471 14.471 0 0 0 14.591-14.283 44.717 44.717 0 0 0 -6.991-24.152 319.541 319.541 0 0 0 18.524-54.33c9.546-39.815 8.183-71.45-4.022-94.175a48.022 48.022 0 0 1 9.945-4.508 6 6 0 0 0 .842-11.075 46.551 46.551 0 0 1 -23.157-25.591 6 6 0 0 0 -10.919-.789 44.3 44.3 0 0 1 -5.251 7.668 124.785 124.785 0 0 0 -43.217-27.862 13.637 13.637 0 0 0 -7.034-10.59 51.96 51.96 0 0 0 14.107-16.827l15.311-29.077a6 6 0 0 0 -8.116-8.1c-7.685 4.068-17.673-.337-24.7-4.748a52.685 52.685 0 0 0 -47.38-4.581c-12.01 4.8-18.151 12.407-20.554 16.083-21.929 9.395-34.285-4.612-34.87-5.3a6 6 0 0 0 -10.124 6.2l11 25.777a51.81 51.81 0 0 0 18.621 22.545 13.492 13.492 0 0 0 -4.339 9.236c-24.984 10.092-46.821 29.026-62.38 53.747v-.191c0-.076 0-.151-.007-.227l-2.027-30.92c-.444-24.407-45.758-37.577-88.412-37.577zm0 12c47.345 0 76.417 15.108 76.417 25.939s-29.072 25.939-76.417 25.939-76.417-15.108-76.417-25.939 29.072-25.939 76.417-25.939zm-76.464 45.715c16.355 11.9 47.043 18.163 76.464 18.163 30.143 0 61.617-6.576 77.642-19.049l.8 12.232c-.142 5.853-7.717 12.287-20.326 17.246-14.934 5.874-35.068 9.109-56.694 9.109-44.595 0-77.915-14-77.915-26.506zm-.026 31.144c16.592 12.155 47.9 18.557 77.915 18.557 23.093 0 44.787-3.531 61.086-9.942a67.76 67.76 0 0 0 16.472-8.951l.356 12.962c-.058 5.711-7.217 12.179-18.8 17.082a83.329 83.329 0 0 0 -10.639-.7 82.084 82.084 0 0 0 -39.377 9.993c-2.913.048-6.339.078-9.1.078-44.595 0-77.915-14-77.915-26.52zm155.822 34.422c-.485-.185-.963-.381-1.453-.557.5-.353.978-.711 1.45-1.071zm-73.426 22.017a69.71 69.71 0 0 1 38-15.165v12.188a56.409 56.409 0 0 0 -28.988 11.707zm.418 17.114a53.231 53.231 0 0 0 -11.9 27.867h-12.969a64.971 64.971 0 0 1 15.806-36.648zm-82.814-41.032c15.222 11.151 42.833 17.458 70.466 18.423a79.217 79.217 0 0 0 -14.862 18.8c-15.912-1.75-30.171-5.378-40.471-10.336-9.615-4.626-15.129-10.085-15.129-14.977zm0 31.76c11.721 8.6 30.621 14.29 50.315 16.9a75.92 75.92 0 0 0 -4.367 19.765c-29.9-4.924-45.948-15.731-45.948-24zm0 32.587a58.354 58.354 0 0 0 7.454 4.628c9.981 5.264 23.2 9.237 38.431 11.59a75.945 75.945 0 0 0 4.606 21.072c-31.452-4.365-50.491-15.638-50.491-24.687zm0 45.123v-12.616c12.949 9.5 34.688 15.421 56.718 17.6a79.689 79.689 0 0 0 19.113 21.52c-43.54-.433-75.831-14.182-75.831-26.504zm73.751 8.077a64.971 64.971 0 0 1 -15.806-36.648h12.969a53.224 53.224 0 0 0 11.9 27.867zm46.643 23.5a69.709 69.709 0 0 1 -38-15.164l9.01-8.729a56.408 56.408 0 0 0 28.988 11.706zm-37.828-66.145c0-23.311 19.661-42.276 43.828-42.276s43.828 18.965 43.828 42.276-19.661 42.276-43.828 42.276-43.828-18.965-43.828-42.279zm87.407-33.867 9.064-8.781a64.963 64.963 0 0 1 15.805 36.648h-12.969a53.215 53.215 0 0 0 -11.9-27.87zm-37.579 100.016v-12.194a56.4 56.4 0 0 0 28.987-11.706l9.026 8.744a69.493 69.493 0 0 1 -38.013 15.156zm37.579-32.284a53.229 53.229 0 0 0 11.9-27.868h12.973a64.753 64.753 0 0 1 -15.781 36.676zm210.297-180.554a58.294 58.294 0 0 0 14.228 15.937 57.435 57.435 0 0 0 -16.3 13.561 58.291 58.291 0 0 0 -14.229-15.939 57.479 57.479 0 0 0 16.301-13.559zm-69.687-94.22c8.087 5.077 15.76 7.811 22.749 8.16l-9.483 18.01a40.641 40.641 0 0 1 -29.1 20.974l7.989-40.739a6 6 0 0 0 -2.214-5.9c-.451-.35-7.016-5.275-18.617-6.3a41.1 41.1 0 0 1 28.676 5.795zm4.878 60.474a2.078 2.078 0 0 1 -1.883 1.638h-70.41a1.654 1.654 0 1 1 0-3.275h10.516a54.7 54.7 0 0 0 10.271.974h23.378a54.879 54.879 0 0 0 10.277-.974h15.972a1.776 1.776 0 0 1 1.879 1.637zm-89.387-37.165-3.629-8.5c7.969 2.465 19.376 3.243 33.316-3.329 17.429-8.217 29.162-5.366 34.368-3.124l-7.738 39.458h-18.436a40.884 40.884 0 0 1 -37.881-24.505zm8.051 47.491a13.957 13.957 0 0 0 9.043 3.312h70.41a13.936 13.936 0 0 0 9.447-3.763 111.916 111.916 0 0 1 38.665 24.723 47.679 47.679 0 0 1 -12.315 6.033 6 6 0 0 0 -.842 11.075 46.547 46.547 0 0 1 23.158 25.591 6 6 0 0 0 5.2 3.928c.146.011.29.016.434.016a6 6 0 0 0 5.281-3.155 44.4 44.4 0 0 1 6.965-9.57c11.871 24.361 8.03 57.52 2.339 81.986-6.712 28.855-17.682 53.24-19.31 56.365a6 6 0 0 0 .357 6.675 32.922 32.922 0 0 1 6.68 19.957 2.435 2.435 0 0 1 -2.591 2.3 35.53 35.53 0 0 1 -24.924-10.007l-.077-.075a34.636 34.636 0 0 0 -24.306-9.8h-102.366a34.634 34.634 0 0 0 -24.308 9.8l-.071.068a35.214 35.214 0 0 1 -16.451 9.022 76.819 76.819 0 0 0 22.554-51.92q.039-1.224.039-2.458c0-28.534-15.779-53.548-39.3-67.268l-.231-35.949c14.084-31.401 38.12-55.523 66.52-66.886zm-63.733 119.125-9.011 8.73a56.4 56.4 0 0 0 -28.987-11.707v-12.188a69.71 69.71 0 0 1 37.998 15.165z"></path><path d="m406.348 427.436a5.989 5.989 0 0 0 7.617-3.738 243.779 243.779 0 0 0 10.281-40.416 6 6 0 1 0 -11.852-1.873 231.977 231.977 0 0 1 -9.784 38.41 6 6 0 0 0 3.738 7.617z"></path><path d="m420.248 365.716h.038a6 6 0 0 0 6-5.963q.012-1.864-.032-3.72a6 6 0 0 0 -12 .283q.041 1.677.029 3.363a6 6 0 0 0 5.965 6.037z"></path></svg>