<svg xmlns="http://www.w3.org/2000/svg" id="Capa_1" height="512" viewBox="0 0 512 512" width="512"><g><path d="m502 0h-30c-18.604 0-34.282 12.767-38.734 30h-199.236c-2.49-.025-5.253.97-7.251 3.009-.142.142-184.786 184.787-193.77 193.77-1.901 1.862-3.041 4.495-3.009 7.26v199.226c-17.233 4.453-30 20.131-30 38.735v30c0 5.523 4.478 10 10 10h59.999c5.522 0 10-4.477 10-10s-4.478-10-10-10h-49.999v-20c0-11.028 8.972-20 20-20h150c11.028 0 20 8.972 20 20v20h-49.999c-5.522 0-10 4.477-10 10s4.478 10 10 10h59.999c5.522 0 10-4.477 10-10v-30c0-18.604-12.767-34.282-30-38.734v-133.054l100.213-100.212h133.053c4.452 17.233 20.13 30 38.734 30h30c5.522 0 10-4.477 10-10v-210c0-5.523-4.478-10-10-10zm-199.249 180-53.855-130h111.104v130zm-59.711 48.897-91.928-91.927 79.308-79.316 53.855 130.001zm-63.04 73.854v57.249h-130v-111.103zm-130 77.249h130v52h-130zm137.655-95.726-130.001-53.855 79.315-79.307 91.928 91.927zm192.345-234.274h52v130h-52zm112 160h-20c-11.028 0-20-8.972-20-20v-150c0-11.028 8.972-20 20-20h20z"></path><circle cx="115" cy="502" r="10"></circle></g></svg>