<svg xmlns="http://www.w3.org/2000/svg" id="Capa_1" height="512" viewBox="0 0 512 512" width="512"><g><path d="m372.965 346.636h-30.25v15.011h30.317c29.545-1.062 29.459-44.13-.078-45.067l-7.658-.008c-9.701-.185-9.688-14.654.008-14.826h30.011v-15.011h-30.011c-12.349 0-22.396 10.06-22.396 22.424 0 12.353 10.037 22.413 22.373 22.424l7.658.008c9.717.167 9.729 14.844.026 15.045z"></path><path d="m327.256 361.73v-44.916c0-16.554-13.468-30.022-30.022-30.022s-30.022 13.468-30.022 30.022v44.916h15.011v-14.958h30.022v14.958zm-45.033-29.97v-14.947c0-8.277 6.734-15.011 15.011-15.011s15.011 6.734 15.011 15.011v14.947z"></path><path d="m252.201 301.802v-15.011h-45.044v74.992h45.044v-15.011h-30.033v-14.979h15.022v-15.011h-15.022v-14.98z"></path><path d="m449.347 361.73v-42.452l24.409-32.543h-18.764l-13.15 17.532-13.148-17.532h-18.764l24.406 32.543v42.452z"></path><path d="m144.437 60.888h43.692v15.012h-43.692z" transform="matrix(.139 -.99 .99 .139 75.413 223.54)"></path><path d="m125.128 43.889h15.011v43.692h-15.011z"></path><path d="m144.403 173.346h15.011v15.011h-15.011z" transform="matrix(.707 -.707 .707 .707 -83.389 160.386)"></path><path d="m507.389 286.136v-29.303h-200.272c18.009-27.002 27.792-58.991 27.792-91.684 0-91.064-74.086-165.149-165.15-165.149-91.063 0-165.148 74.085-165.148 165.149 0 46.859 20.022 91.688 54.933 122.992l10.021-11.176c-31.739-28.461-49.943-69.217-49.943-111.816 0-82.786 67.351-150.138 150.138-150.138s150.138 67.351 150.138 150.138c0 33.163-11.069 65.529-31.249 91.684h-74.733l67.386-67.386-63.688-63.687 26.536-26.536c20.389-21.735-10.193-52.237-31.843-31.843l-79.562 79.562c-1.616-15.31-8.363-29.498-19.402-40.537-10.814-13.381-28.298-17.34-41.441-4.765l-13.686 13.686 23.74 23.74c4.182 4.182 6.485 9.742 6.485 15.656v32.926s73.295 73.13 74.552 74.099v53.385c-29.534-1.3-57.605-11.105-81.561-28.562l-8.841 12.131c26.541 19.342 57.667 30.15 90.401 31.46v46.55h-135.96v135.288h202.651v-15.011h-187.64v-105.267l390.29.02v105.247h-157.632v15.011h172.644v-120.258h60.045v-90.595h-15.011v75.584h-314.375v-104.887h314.374v14.292zm-403.936-104.706c-.302-36.525 4.446-39.811-24.007-66.103 5.013-6.08 12.038-9.012 18.519-3.071 0 0 4.765 4.765 4.765 4.765 10.745 10.63 16.028 25.215 15.384 40.247l12.768 12.769 92.042-92.041c7.089-6.866 17.477 3.532 10.614 10.614l-37.151 37.151-15.922 15.922 10.614 10.614 15.921-15.923 10.615 10.615-15.922 15.922 10.614 10.614 15.922-15.922 10.615 10.615-15.922 15.922 10.614 10.614 15.922-15.922 10.615 10.615-58.515 58.515c-4.217 4.217-9.823 6.539-15.787 6.539-5.963 0-11.569-2.323-15.786-6.539z"></path><path d="m244.242 496.989h15.011v15.011h-15.011z"></path><path d="m327.875 466.542h-30.25v15.011h30.317c29.544-1.062 29.458-44.131-.08-45.067l-7.655-.007c-9.702-.185-9.689-14.655.007-14.827h30.01v-15.011h-30.01c-12.349 0-22.396 10.06-22.396 22.424 0 12.352 10.037 22.412 22.374 22.425l7.656.007c9.716.167 9.73 14.844.027 15.045z"></path><path d="m282.647 406.805h-15.011v44.917c0 8.277-6.734 15.011-15.011 15.011s-15.011-6.734-15.011-15.011v-44.917h-15.011v44.917c0 16.554 13.468 30.022 30.022 30.022s30.022-13.468 30.022-30.022z"></path><path d="m410.253 421.681v-15.011h-45.045v74.991h45.045v-15.011h-30.033v-14.979h15.022v-15.011h-15.022v-14.979z"></path><path d="m102.088 481.709v-60.112h22.517v-15.011h-60.045v15.011h22.517v60.112z"></path><path d="m132.11 436.61v15.111c0 16.554 13.468 30.022 30.022 30.022s30.022-13.468 30.022-30.022v-15.111c0-16.554-13.468-30.022-30.022-30.022s-30.022 13.468-30.022 30.022zm45.034 0v15.111c0 8.277-6.734 15.011-15.011 15.011s-15.011-6.734-15.011-15.011v-15.111c0-8.277 6.734-15.011 15.011-15.011s15.011 6.734 15.011 15.011z"></path><path d="m57.472 207.419c-1.629-4.317-3.112-9.095-4.174-13.454l-14.584 3.554c1.202 4.932 2.876 10.33 4.713 15.2z"></path><path d="m34.802 166.148c.106 6.217.442 11.25 1.058 15.839l14.877-1.998c-.537-3.997-.831-8.477-.926-14.096z"></path></g></svg>