<svg xmlns="http://www.w3.org/2000/svg" height="512pt" viewBox="0 0 512 512" width="512pt"><path d="m392 386c0 5.523438-4.476562 10-10 10s-10-4.476562-10-10 4.476562-10 10-10 10 4.476562 10 10zm0 0"></path><path d="m192 236c0 5.523438-4.476562 10-10 10s-10-4.476562-10-10 4.476562-10 10-10 10 4.476562 10 10zm0 0"></path><path d="m10 512h212c5.523438 0 10-4.476562 10-10v-472c0-16.542969-13.457031-30-30-30h-172c-16.542969 0-30 13.457031-30 30v472c0 5.523438 4.476562 10 10 10zm10-20v-286h192v286zm10-472h172c5.515625 0 10 4.484375 10 10v156h-192v-156c0-5.515625 4.484375-10 10-10zm0 0"></path><path d="m182 166c5.523438 0 10-4.476562 10-10v-86c0-5.523438-4.476562-10-10-10s-10 4.476562-10 10v86c0 5.523438 4.476562 10 10 10zm0 0"></path><path d="m182 266c-5.523438 0-10 4.476562-10 10v80c0 5.523438 4.476562 10 10 10s10-4.476562 10-10v-80c0-5.523438-4.476562-10-10-10zm0 0"></path><path d="m502 0h-240c-5.523438 0-10 4.476562-10 10v146c0 5.523438 4.476562 10 10 10h240c5.523438 0 10-4.476562 10-10v-146c0-5.523438-4.476562-10-10-10zm-230 20h40v126h-40zm220 126h-160v-126h160zm0 0"></path><path d="m362 126h100c5.523438 0 10-4.476562 10-10v-66c0-5.523438-4.476562-10-10-10h-100c-5.523438 0-10 4.476562-10 10v66c0 5.523438 4.476562 10 10 10zm10-66h80v46h-80zm0 0"></path><path d="m482 186h-200c-16.542969 0-30 13.457031-30 30v286c0 5.523438 4.476562 10 10 10h240c5.523438 0 10-4.476562 10-10v-286c0-16.542969-13.457031-30-30-30zm-200 20h200c5.515625 0 10 4.484375 10 10v30h-140v-10c0-5.523438-4.476562-10-10-10s-10 4.476562-10 10v10h-20v-10c0-5.523438-4.476562-10-10-10s-10 4.476562-10 10v10h-20v-30c0-5.515625 4.484375-10 10-10zm-10 286v-226h220v226zm0 0"></path><path d="m382 306c-44.113281 0-80 35.886719-80 80s35.886719 80 80 80 80-35.886719 80-80-35.886719-80-80-80zm0 140c-33.085938 0-60-26.914062-60-60s26.914062-60 60-60c29.675781 0 54.375 21.660156 59.152344 50h-19.152344c-5.523438 0-10 4.476562-10 10s4.476562 9.988281 10 9.988281h19.152344c-4.777344 28.339844-29.476563 50.011719-59.152344 50.011719zm0 0"></path></svg>