<svg xmlns="http://www.w3.org/2000/svg" xmlns:xlink="http://www.w3.org/1999/xlink" id="Layer_1" x="0px" y="0px" viewBox="0 0 512.019 512.019" style="enable-background:new 0 0 512.019 512.019;" xml:space="preserve" width="512" height="512">
<g id="XMLID_808_">
	<path id="XMLID_809_" d="M403.292,369.776l-73.335,50.745c-0.704,0.487-1.586,0.664-2.424,0.491l-66.716-13.914   c-4.051-0.846-8.027,1.756-8.873,5.811c-0.846,4.055,1.756,8.028,5.811,8.874l66.716,13.913c1.216,0.254,2.448,0.378,3.677,0.378   c3.666,0,7.298-1.11,10.345-3.218l73.335-50.745c3.406-2.357,4.257-7.029,1.9-10.435S406.698,367.418,403.292,369.776z"></path>
	<path id="XMLID_810_" d="M511.64,227.411c-1.463-7.225-6.855-12.647-14.072-14.153l-29.608-6.175   c-0.035-0.007-0.069-0.015-0.104-0.022l-9.189-1.916l45.519-31.498c6.062-4.194,8.918-11.288,7.455-18.513   c-1.464-7.225-6.855-12.648-14.072-14.153L293.705,98.463c-4.054-0.846-8.027,1.755-8.874,5.811   c-0.845,4.055,1.756,8.027,5.811,8.873l203.865,42.519c1.76,0.367,2.279,1.691,2.433,2.447c0.153,0.756,0.189,2.178-1.289,3.2   l-69.468,48.071l-86.508-51.726c-5.64-3.371-12.679-3.426-18.37-0.142l-149.755,86.412L17.512,211.803   c-1.76-0.367-2.28-1.69-2.433-2.447c-0.153-0.756-0.189-2.177,1.289-3.2L182.066,91.498c0.704-0.487,1.587-0.664,2.424-0.491   l69.174,14.427c4.055,0.85,8.028-1.755,8.873-5.811c0.846-4.055-1.755-8.027-5.811-8.873l-69.174-14.427   c-4.843-1.01-9.954,0.024-14.022,2.84L7.832,193.821c-6.062,4.195-8.918,11.289-7.454,18.514   c1.463,7.225,6.855,12.648,14.072,14.153l38.903,8.113L7.833,266.099c-6.062,4.195-8.918,11.289-7.455,18.513   c1.463,7.225,6.855,12.648,14.072,14.153l38.903,8.113l-45.52,31.498c-6.062,4.195-8.918,11.289-7.455,18.514   c1.463,7.225,6.855,12.647,14.072,14.152l205.551,42.867c0.517,0.108,1.031,0.16,1.539,0.16c3.477,0,6.596-2.432,7.334-5.97   c0.846-4.055-1.756-8.028-5.811-8.873L17.512,356.358c-1.76-0.367-2.28-1.69-2.433-2.446c-0.153-0.756-0.189-2.178,1.289-3.201   l57.241-39.608l250.861,52.316c1.216,0.254,2.448,0.378,3.677,0.378c3.666,0,7.298-1.11,10.345-3.218l103.158-71.382l52.856,11.022   c1.76,0.367,2.28,1.691,2.433,2.447c0.153,0.756,0.189,2.177-1.289,3.2l-62.287,43.1c-3.406,2.357-4.257,7.029-1.9,10.435   c1.456,2.104,3.795,3.233,6.174,3.233c1.472,0,2.959-0.432,4.261-1.333l62.287-43.1c6.062-4.194,8.918-11.288,7.455-18.512   c-1.463-7.225-6.855-12.648-14.072-14.154l-38.902-8.113l45.519-31.498C510.247,241.73,513.104,234.636,511.64,227.411z    M458.893,220.516v38.509l-24.36,16.857v-54.034l7.12-4.927L458.893,220.516z M382.608,231.668v80.144l-24.361,16.857V234.89   L382.608,231.668z M397.608,229.683l21.925-2.9v59.477l-21.925,15.172V229.683z M328.803,170.507   c0.984-0.568,2.201-0.558,3.176,0.024l72.174,43.156l-194.851,25.775L328.803,170.507z M129.41,250.462l24.361,5.08v56.955   l-24.361-5.08V250.462z M114.41,304.289l-21.925-4.572v-56.955l21.925,4.572V304.289z M168.771,258.67l2.519,0.525   c0.836,0.173,1.674,0.204,2.515,0.093l16.881-2.233v63.141l-21.915-4.57V258.67z M205.686,255.071l24.361-3.222v76.556   l-24.361-5.08V255.071z M245.047,249.864l21.925-2.9v89.141l-21.925-4.572V249.864z M281.971,244.98l24.361-3.222v102.556   l-24.361-5.08V244.98z M77.485,239.633v56.955l-24.36-5.08v-38.509l20.484-14.174L77.485,239.633z M15.079,281.634   c-0.153-0.756-0.189-2.178,1.289-3.201l21.757-15.055v25.001l-20.613-4.299C15.752,283.714,15.232,282.39,15.079,281.634z    M329.957,348.244c-0.704,0.486-1.588,0.663-2.424,0.491l-6.2-1.293V239.773l21.915-2.899v102.173L329.957,348.244z M495.65,233.59   l-21.757,15.055v-25.001l20.613,4.299c1.76,0.367,2.28,1.691,2.433,2.447C497.092,231.146,497.129,232.567,495.65,233.59z"></path>
</g>















</svg>