<svg xmlns="http://www.w3.org/2000/svg" id="Layer_1" height="512" viewBox="0 0 512.043 512.043" width="512"><g><path d="m409.121 268.743 23.287-23.34c6.849-6.865-3.771-17.46-10.619-10.595l-22.663 22.716c-7.244 5.751-15.592 5.622-22.616-.143l31.599-31.673c6.849-6.865-3.772-17.462-10.619-10.595l-49.914 50.03c-6.188 6.203-16.496 6.203-22.685 0-6.267-6.281-6.267-16.501-.002-22.783.001-.001.002-.001.002-.002l8.106-8.125c6.85-6.865-3.772-17.462-10.619-10.595l-8.106 8.125c-6.188 6.203-16.496 6.203-22.685 0-6.268-6.282-6.268-16.503.001-22.786.002-.002.003-.003.005-.005l8.101-8.12c6.849-6.864-3.772-17.461-10.619-10.594l-8.1 8.119c-6.047 6.047-16.642 6.067-22.69.005-7.17-7.186-4.83-16.557.773-23.561l7.332-7.35c6.85-6.864-3.771-17.459-10.619-10.594l-7.326 7.344c-6.332 5.845-16.352 6.358-22.691.006-6.268-6.282-6.268-16.504 0-22.786l77.69-77.87c16.163-16.201 41.024-20.759 61.863-11.343 2.847 1.286 6.192.674 8.397-1.538l37.785-37.873c6.849-6.864-3.771-17.46-10.619-10.594l-34.27 34.35c-25.418-9.229-54.476-2.941-73.776 16.404l-77.69 77.871c-19.98 20.01-4.638 54.553 23.611 53.048-2.147 18.742 14.085 35.713 33.239 34.11-.659 8.731 2.336 17.689 8.983 24.352 6.382 6.397 15.325 9.698 24.32 9.029-.659 8.731 2.335 17.689 8.982 24.352 11.868 11.896 32.027 11.923 43.923 0l7.721-7.739c11.416 11.406 31.479 12.49 43.208.743z"></path><path d="m509.255 100.215c-2.932-2.925-7.681-2.921-10.606.012l-37.785 37.873c-2.198 2.204-2.807 5.535-1.53 8.374 9.4 20.904 4.852 45.84-11.32 62.05-6.848 6.863 3.77 17.462 10.619 10.594 19.298-19.343 25.565-48.466 16.352-73.932l34.284-34.363c2.925-2.933 2.919-7.682-.014-10.608z"></path><path d="m61.237 285.102-7.805 7.823c-19.298 19.343-25.565 48.466-16.352 73.932l-34.284 34.364c-6.848 6.864 3.769 17.461 10.619 10.595l37.785-37.873c2.198-2.203 2.807-5.535 1.53-8.374-9.4-20.904-4.852-45.84 11.32-62.05l7.805-7.822c6.85-6.864-3.771-17.461-10.618-10.595z"></path><path d="m275.728 358.395c.003-.003.006-.007.009-.01 12.086-12.125 12.083-31.845-.009-43.965-6.382-6.396-15.325-9.697-24.32-9.028.659-8.731-2.335-17.689-8.982-24.352-6.379-6.394-15.328-9.703-24.321-9.028.659-8.731-2.335-17.689-8.982-24.352-6.556-6.571-15.829-9.872-25.048-8.966.447-8.504-2.562-17.158-9.028-23.64-11.868-11.895-32.027-11.922-43.922 0l-43.007 43.106c-6.849 6.865 3.769 17.458 10.619 10.595l43.006-43.105c6.187-6.203 16.497-6.203 22.684 0 6.267 6.281 6.268 16.5.003 22.783-.001.001-.002.002-.003.003l-7.333 7.349c-6.847 6.864 3.768 17.462 10.619 10.595l7.333-7.349c6.37-6.37 16.682-7.566 23.457-.775 6.268 6.282 6.268 16.503 0 22.786l-8.105 8.125c-6.848 6.863 3.77 17.462 10.619 10.594l8.1-8.119c6.047-6.047 16.643-6.067 22.69-.005 6.268 6.282 6.268 16.503 0 22.786-.002.002-.003.003-.005.005l-8.101 8.12c-6.848 6.863 3.77 17.462 10.619 10.594l8.105-8.125c6.188-6.202 16.495-6.203 22.684 0 6.268 6.282 6.268 16.503 0 22.786l-13.03 13.061s0 0-.001.001l-36.883 36.969c-6.848 6.864 3.769 17.461 10.619 10.595l31.574-31.648c6.014 7.016 5.626 15.678.118 22.693l-48.887 49c-16.163 16.2-41.026 20.758-61.863 11.343-2.846-1.285-6.191-.673-8.397 1.538l-37.785 37.873c-6.848 6.864 3.769 17.461 10.619 10.595l34.27-34.35c25.418 9.229 54.476 2.941 73.776-16.404l49.509-49.624c13.219-13.239 7.654-31.067-.26-43.789z"></path><path d="m95.678 106.567c6.812 6.926 17.485-3.616 10.691-10.521l-47.543-48.318c-6.801-6.914-17.493 3.608-10.691 10.521z"></path><path d="m139.377 150.262c6.709 7.082 17.532-3.304 10.889-10.316l-13.947-14.722c-6.669-7.04-17.558 3.277-10.889 10.316z"></path><path d="m74.169 190.201-53.73-14.863c-9.347-2.585-13.346 11.871-4 14.457l53.73 14.863c9.016 2.491 13.25-11.898 4-14.457z"></path><path d="m193.101 78.341c2.392 9.223 16.963 5.656 14.52-3.765l-13.993-53.963c-2.435-9.387-16.954-5.622-14.52 3.765z"></path><path d="m403.588 393.825c-6.8-6.915-17.493 3.608-10.691 10.521l47.544 48.319c6.812 6.926 17.485-3.616 10.691-10.521z"></path><path d="m359.89 350.13c-6.669-7.04-17.558 3.277-10.889 10.316l13.947 14.722c6.709 7.082 17.532-3.304 10.889-10.316z"></path><path d="m482.829 310.598-53.73-14.863c-9.347-2.585-13.346 11.871-4 14.457l53.73 14.863c9.016 2.49 13.251-11.898 4-14.457z"></path><path d="m306.166 422.052c-2.435-9.387-16.954-5.622-14.52 3.765l13.993 53.963c2.392 9.223 16.963 5.656 14.52-3.765z"></path></g></svg>