<svg xmlns="http://www.w3.org/2000/svg" id="Icons" height="512" viewBox="0 0 74 74" width="512"><path d="m54.149 67.879h-34.299a3.158 3.158 0 0 1 -3.15-3.153v-59.573a3.158 3.158 0 0 1 3.15-3.153h34.3a3.158 3.158 0 0 1 3.15 3.153v59.573a3.158 3.158 0 0 1 -3.151 3.153zm-34.299-63.879a1.155 1.155 0 0 0 -1.15 1.153v59.573a1.155 1.155 0 0 0 1.154 1.153h34.3a1.155 1.155 0 0 0 1.146-1.153v-59.573a1.155 1.155 0 0 0 -1.151-1.153z"></path><path d="m56.3 27.485h-38.6a1 1 0 1 1 0-2h38.6a1 1 0 0 1 0 2z"></path><path d="m23.333 50.03a1 1 0 0 1 -1-1v-8.454a1 1 0 0 1 2 0v8.454a1 1 0 0 1 -1 1z"></path><path d="m23.333 17.66a1 1 0 0 1 -1-1v-4.775a1 1 0 1 1 2 0v4.775a1 1 0 0 1 -1 1z"></path><path d="m51.633 72h-5.055a1.565 1.565 0 0 1 -1.563-1.563v-3.558a1 1 0 0 1 1-1h6.185a1 1 0 0 1 1 1v3.558a1.565 1.565 0 0 1 -1.567 1.563zm-4.618-2h4.185v-2.121h-4.185z"></path><path d="m27.421 72h-5.055a1.565 1.565 0 0 1 -1.566-1.563v-3.558a1 1 0 0 1 1-1h6.181a1 1 0 0 1 1 1v3.558a1.565 1.565 0 0 1 -1.56 1.563zm-4.621-2h4.181v-2.121h-4.181z"></path></svg>