<svg xmlns="http://www.w3.org/2000/svg" id="Outline" viewBox="0 0 512 512" width="512" height="512"><path d="M488,320H448V272a135.646,135.646,0,0,0-43.391-99.5c10.8-28.9,40.247-54.13,40.558-54.4A8,8,0,0,0,440,104c-23.13,0-43.238,4.541-60.1,13.524a142.337,142.337,0,0,1,10.562-15.341,184.9,184.9,0,0,1,22.7-24.076A8,8,0,0,0,408,64c-21.625,0-40.7,4.027-56.942,11.959-2.243-16.727-9.829-46.289-35.48-59.114a8,8,0,0,0-7.156,0C282.8,29.656,275.2,59.167,272.949,75.905,256.76,67.993,237.716,64,216,64a8,8,0,0,0-5.171,14.1,184.837,184.837,0,0,1,22.706,24.079,142.487,142.487,0,0,1,10.541,15.3C227.247,108.527,207.157,104,184,104a8,8,0,0,0-5.171,14.1c.315.267,29.76,25.5,40.562,54.4A135.646,135.646,0,0,0,176,272v.918c-8.827,1.677-20.508,5.5-26.746,10.183a23.539,23.539,0,0,1-2.789,1.79c2.107-19.267,5.837-38.922,12.191-48.453h0a8,8,0,1,0-13.312-8.874h0c-7.253,10.88-12.349,30.82-15.161,59.241a22.682,22.682,0,0,1-7.437-3.7C114.308,276.767,95.9,272,88.088,272c-20.916,0-39.788,8.528-53.139,24.013-15.217,17.65-21.717,42.736-17.834,68.825l5,33.577a177.583,177.583,0,0,0,20.514,60.658c13.061,23.4,35.725,36.958,59.7,36.957a64.634,64.634,0,0,0,17.45-2.416q.273-.076.538-.172l13.382-4.787a6.774,6.774,0,0,1,4.61,0l13.381,4.787c.177.064.357.121.538.172a64.646,64.646,0,0,0,17.451,2.416c17.534,0,34.364-7.261,47.253-20.313A199.9,199.9,0,0,0,304,496c49.8,0,97.916-18.855,135.5-53.091C475.405,410.194,496,368.312,496,328A8,8,0,0,0,488,320ZM278.225,279.9l33.88-32.9,33.948,32.957L312.188,312.8Zm18.4,40.1h-45.74a79.537,79.537,0,0,0-4.13-9.541l19.983-19.406Zm60.911-28.894L387.3,320h-59.56Zm-33.951-55.258,33.851-32.874,33.976,33-33.87,32.843Zm5.6-82.612a119.134,119.134,0,0,1,41.788,14.289l-13.537,13.146Zm16.768,38.587L312.1,224.7l-33.835-32.847,33.859-32.881ZM266.783,180.7l-13.64-13.242A119.1,119.1,0,0,1,295.108,153.2Zm0,22.3L300.62,235.85l-33.893,32.914-33.876-32.81Zm-11.541,76.915L237.775,296.88c-.241-.289-.478-.582-.724-.867a68.407,68.407,0,0,0-42.16-23.195l26.476-25.712Zm-5.356,118.5,5-33.577A96.693,96.693,0,0,0,254.92,336H446.578c-4.613,26.417-20.233,52.881-43.795,73.749C374.932,434.416,339.85,448,304,448a146.623,146.623,0,0,1-62.955-14.49A180.97,180.97,0,0,0,249.887,398.415ZM418.457,320,432,306.884V320ZM432,284.611l-29.126,28.207-33.843-32.855L402.9,247.121,432,275.383Zm-1.784-33.265L414.39,235.978l8.963-8.692A118.908,118.908,0,0,1,430.216,251.346Zm-14.237-39.2-13.073,12.677-33.984-33,15.722-15.268A120.912,120.912,0,0,1,415.979,212.149Zm2.981-90.616c-9.188,10.128-20.267,24.372-27.277,40.326a136.15,136.15,0,0,0-22.812-13.381c.1-1.246.252-2.492.448-3.738C382.207,132.4,398.843,124.627,418.96,121.533Zm-32.009-40c-12.99,14.321-29.755,36.867-33.466,60.941a134.954,134.954,0,0,0-28.978-5.9c-.938-2.913-2.139-6.209-3.664-9.75C330.666,108.008,349.8,87.269,386.951,81.538ZM312,33.207c19.825,12.915,23.276,42.533,23.875,51.9a97.241,97.241,0,0,0-23.887,25.235,98.949,98.949,0,0,0-12.629-15.592,97.243,97.243,0,0,0-11.232-9.665C288.729,75.695,292.19,46.112,312,33.207ZM237.06,81.55c44.324,6.88,62.782,35.164,70.312,54.537a135.295,135.295,0,0,0-36.857,6.392q-.375-2.436-.924-4.847l.282-.261c-.146-.158-.3-.31-.444-.466C264.231,114.961,249.04,94.76,237.06,81.55Zm-32.024,39.979c20.14,3.091,36.762,10.874,49.648,23.227.194,1.24.347,2.482.445,3.722a136.15,136.15,0,0,0-22.812,13.381C225.306,145.9,214.225,131.657,205.036,121.529Zm34.424,54.947L255.3,191.853l-33.946,32.965-13.24-12.824A120.9,120.9,0,0,1,239.46,176.476Zm-38.74,50.632,9.149,8.862-16.133,15.666A118.986,118.986,0,0,1,200.72,227.108ZM215.4,451.275C205.259,469.45,187.833,480,169.534,480a48.131,48.131,0,0,1-12.734-1.724L143.7,473.59a22.893,22.893,0,0,0-15.39,0L115.2,478.279c-22.6,6.191-46.118-4.634-58.6-27a161.624,161.624,0,0,1-18.659-55.216l-5-33.576c-3.2-21.482,1.952-41.9,14.127-56.022A53.249,53.249,0,0,1,88.088,288c5.082,0,19.94,4.059,25.053,7.9a38.271,38.271,0,0,0,15.75,7.013c-.394,6.368-.614,11.965-.737,16.251-6.914-1.552-10.4-4.729-10.589-4.907l.088.087a8,8,0,1,0-11.306,11.321C107.42,326.733,117.244,336,136,336c18.772,0,28.6-9.285,29.657-10.343a8,8,0,1,0-11.314-11.314c-.042.042-3.459,3.148-10.2,4.739.139-4.833.392-10.492.793-16.568a38.372,38.372,0,0,0,13.922-6.617c5.113-3.838,19.971-7.9,25.053-7.9a53.249,53.249,0,0,1,41.021,18.461c12.175,14.121,17.324,34.54,14.127,56.022l-5,33.576A161.639,161.639,0,0,1,215.4,451.275ZM428.72,431.081C394.093,462.627,349.8,480,304,480a183.62,183.62,0,0,1-76.872-17.161c.775-1.227,1.528-2.479,2.246-3.766q2.953-5.29,5.529-10.772A162.625,162.625,0,0,0,304,464c39.762,0,78.611-15.013,109.392-42.274,27.05-23.957,44.751-54.839,49.387-85.726h16.914C477.149,369.353,458.89,403.6,428.72,431.081Z"></path><circle cx="408" cy="360" r="8"></circle><circle cx="368" cy="400" r="8"></circle><circle cx="328" cy="376" r="8"></circle><circle cx="280" cy="376" r="8"></circle><circle cx="304" cy="424" r="8"></circle></svg>