<svg xmlns="http://www.w3.org/2000/svg" height="512pt" viewBox="-31 0 512 512" width="512pt"><path d="m45 0c-24.8125 0-45 20.1875-45 45v422c0 24.8125 20.1875 45 45 45h405v-443.214844l-68.785156-68.785156zm45 30h270v392h-270zm-45 0h15v392h-15c-5.257812 0-10.304688.914062-15 2.578125v-379.578125c0-8.269531 6.730469-15 15-15zm375 452h-375c-8.269531 0-15-6.730469-15-15s6.730469-15 15-15h345v-400.785156l30 30zm0 0"></path><path d="m240 243.015625v-32.121094c49.519531-7.308593 90-51.609375 90-105.894531v-45h-15c-28.015625 0-54.4375 11.335938-74.40625 31.914062-6.050781 6.242188-11.265625 13.078126-15.59375 20.367188-4.328125-7.289062-9.542969-14.125-15.59375-20.367188-19.96875-20.578124-46.390625-31.914062-74.40625-31.914062h-15v45c0 54.269531 40.464844 98.582031 90 105.894531v32.121094c-36.660156 4.945313-68.621094 27.683594-85.25 60.941406l-14.019531 28.042969h228.539062l-14.019531-28.042969c-16.609375-33.21875-48.550781-55.992187-85.25-60.941406zm60-151.394531v13.378906c0 36.484375-26.242188 68.019531-60 75.378906v-13.378906c0-36.484375 26.242188-68.019531 60-75.378906zm-150 13.378906v-13.378906c33.757812 7.363281 60 38.894531 60 75.378906v13.378906c-33.757812-7.359375-60-38.894531-60-75.378906zm11.511719 197c15.371093-18.835938 38.414062-30 63.488281-30s48.117188 11.164062 63.488281 30zm0 0"></path><path d="m150 362h150v30h-150zm0 0"></path></svg>