<svg xmlns="http://www.w3.org/2000/svg" id="Capa_1" height="512" viewBox="0 0 511.696 511.696" width="512"><g><path d="m436.76 74.936c-48.323-48.323-112.572-74.936-180.912-74.936-64.767 0-126.57 24.265-174.026 68.325-3.036 2.818-3.211 7.563-.393 10.6 2.818 3.033 7.563 3.212 10.599.393 44.672-41.476 102.851-64.318 163.82-64.318 64.333 0 124.815 25.053 170.306 70.542 45.49 45.49 70.542 105.973 70.542 170.306s-25.053 124.814-70.542 170.305c-45.49 45.49-105.973 70.543-170.306 70.543s-124.815-25.053-170.305-70.543-70.543-105.972-70.543-170.305c0-56.198 19.778-110.897 55.691-154.021 2.651-3.184 2.219-7.912-.964-10.563-3.182-2.649-7.911-2.22-10.562.964-38.153 45.814-59.165 103.922-59.165 163.62 0 68.339 26.613 132.588 74.936 180.911 48.324 48.323 112.573 74.937 180.912 74.937s132.589-26.613 180.912-74.937 74.936-112.572 74.936-180.911c0-68.34-26.613-132.589-74.936-180.912z"></path><path d="m370.942 78.284c-52-33.771-114.628-42.795-176.351-25.404-33.137 9.338-63.644 27.041-88.221 51.197-24.631 24.209-42.813 54.419-52.581 87.364-10.81 36.462-12.462 72.984-4.911 108.552 7.031 33.118 22.212 64.474 43.9 90.677 2.87 3.468 7.097 5.503 11.596 5.583.093.002.186.003.278.003 4.392 0 8.567-1.869 11.493-5.155l22.424-25.188c2.754-3.094 2.479-7.835-.614-10.589-3.094-2.754-7.835-2.479-10.589.614l-22.424 25.188c-.039.043-.144.156-.298.13-.189-.004-.274-.106-.311-.15-42.641-51.517-55.822-119.093-36.164-185.4 9.046-30.514 25.892-58.499 48.714-80.93 22.783-22.393 51.06-38.803 81.775-47.458 57.502-16.203 115.787-7.84 164.112 23.547.045.029.14.091.164.264.024.184-.061.279-.097.32l-23.726 26.65c-4.122-7.449-9.849-15.103-14.78-21.134-2.673-3.271-6.629-5.146-10.854-5.146 0 0 0 0-.001 0-4.225 0-8.182 1.875-10.854 5.145-13.542 16.567-20.409 29.432-20.409 38.237 0 12.17 6.81 22.646 16.907 27.816l-4.552 5.114c-4.001-1.352-8.218-2.07-12.453-2.07h-7.877c-8.442 0-15.31 6.867-15.31 15.309v9.717c0 4.83.919 9.613 2.66 14.089l-15.794 17.741c-1.856-3.949-5.862-6.697-10.506-6.697h-10.588c.453-2.049.699-4.176.699-6.359 0-8.268-6.385-20.271-18.977-35.674-2.578-3.153-6.393-4.961-10.468-4.961-4.074 0-7.889 1.808-10.467 4.961-12.592 15.403-18.977 27.406-18.977 35.674 0 2.184.246 4.31.699 6.359h-10.589c-6.404 0-11.614 5.21-11.614 11.613v13.421c0 7.485 2.362 14.424 6.368 20.128-3.772 1.92-6.368 5.833-6.368 10.348v13.421c0 12.97 7.243 24.604 18.072 30.673l-14.425 16.203c-2.754 3.094-2.479 7.835.614 10.589 3.094 2.755 7.835 2.479 10.589-.614l214.183-240.577c2.989-3.356 4.359-7.838 3.76-12.294-.596-4.452-3.096-8.404-6.857-10.847zm-73.727 56.916c0-3.579 4.278-12.979 16.263-27.809 7.204 8.92 12.508 17.063 14.891 22.774l-18.585 20.875c-7.259-1.656-12.569-8.089-12.569-15.84zm-23.285 55.884v-9.717c0-.17.139-.309.31-.309h7.877c.308 0 .612.016.918.027l-9.097 10.219c-.002-.073-.008-.146-.008-.22zm-42.028 47.435-20.337 22.843h-8.11v-10.034c0-11.089 9.021-20.11 20.11-20.11h8.336v7.301zm-35.946-53.426c9.966 12.436 14.444 21.354 14.444 24.765 0 7.965-6.479 14.444-14.444 14.444s-14.444-6.479-14.444-14.444c-.001-3.41 4.478-12.329 14.444-24.765zm-35.948 46.124h8.336c11.089 0 20.111 9.021 20.111 20.11v10.035h-8.337c-11.089 0-20.11-9.021-20.11-20.111zm0 53.932v-10.035h8.337c8.708 0 16.222 5.502 18.981 13.475l-13.835 15.54c-7.896-2.773-13.483-10.358-13.483-18.98z"></path><path d="m407.052 130.441c.189.004.274.106.311.15 21.226 25.646 35.656 56.425 41.729 89.01.759 4.073 4.678 6.763 8.748 5.999 4.072-.759 6.757-4.676 5.999-8.747-6.54-35.086-22.073-68.222-44.92-95.826-2.87-3.468-7.097-5.503-11.596-5.583-4.474-.1-8.783 1.797-11.771 5.152l-257.896 289.677c-2.989 3.357-4.36 7.839-3.76 12.296.598 4.449 3.099 8.401 6.859 10.844 34.702 22.538 74.129 34.054 114.87 34.053 20.308-.001 40.948-2.863 61.479-8.648 33.137-9.337 63.644-27.04 88.221-51.196 24.631-24.209 42.814-54.419 52.581-87.363 6.9-23.272 10.076-46.916 9.44-70.272-.113-4.141-3.571-7.432-7.701-7.293-4.141.112-7.406 3.561-7.293 7.701.593 21.774-2.376 43.846-8.827 65.601-9.047 30.513-25.892 58.498-48.714 80.929-22.783 22.393-51.061 38.803-81.775 47.457-57.505 16.201-115.787 7.839-164.111-23.547-.045-.029-.14-.091-.163-.264-.025-.185.061-.28.097-.321l39.597-44.477v32.631c0 4.143 3.358 7.5 7.5 7.5s7.5-3.357 7.5-7.5v-49.479l65.869-73.987c7.245 7.817 17.472 12.408 28.466 12.408h8.187v11.731c-6.591-5.145-14.871-8.222-23.861-8.222h-7.877c-8.442 0-15.31 6.868-15.31 15.31v9.717c0 21.428 17.433 38.861 38.861 38.861h8.187v47.183c0 4.143 3.358 7.5 7.5 7.5s7.5-3.357 7.5-7.5v-47.183h8.187c21.428 0 38.861-17.434 38.861-38.861v-9.717c0-8.441-6.868-15.31-15.31-15.31h-7.877c-8.99 0-17.27 3.077-23.862 8.222v-11.732h8.187c21.428 0 38.861-17.434 38.861-38.862v-9.716c0-8.441-6.868-15.31-15.31-15.31h-7.877c-8.99 0-17.27 3.077-23.862 8.222v-11.733h8.187c21.428 0 38.861-17.434 38.861-38.861v-9.717c0-2.068-.426-4.081-1.209-5.938l39.938-44.859c.04-.043.146-.147.299-.13zm-127.679 143.209 17.711-19.893c5.52 4.481 8.894 11.305 8.894 18.562v10.026h-8.187c-7.237-.001-13.938-3.241-18.418-8.695zm-5.443 52.23v-9.717c0-.171.139-.31.31-.31h7.877c13.157 0 23.861 10.704 23.861 23.861v10.026h-8.187c-13.157.002-23.861-10.702-23.861-23.86zm70.909-10.026h7.877c.171 0 .31.139.31.31v9.717c0 13.157-10.704 23.861-23.861 23.861h-8.187v-10.026c0-13.158 10.704-23.862 23.861-23.862zm0-67.397h7.877c.171 0 .31.139.31.31v9.716c0 13.158-10.704 23.862-23.861 23.862h-8.187v-10.026c0-13.158 10.704-23.862 23.861-23.862zm8.187-57.373c0 12.278-9.323 22.417-21.261 23.717l21.261-23.881z"></path></g></svg>