<svg xmlns="http://www.w3.org/2000/svg" viewBox="0 0 512 512" width="512" height="512"><g id="Out_line" data-name="Out line"><path d="M488,168H187.31348l-44.19141-44.192A63.39714,63.39714,0,0,0,144,113.37256V112a8.00008,8.00008,0,0,0-8-8H134.627a63.175,63.175,0,0,0-13.05468,1.36884,69.04062,69.04062,0,0,1,18.71093-34.339l9.37305-9.37256a7.99975,7.99975,0,0,0-7.85352-13.34961L132.5918,50.939A85.42493,85.42493,0,0,0,73.51465,112H72a8.00076,8.00076,0,0,0-5.65723,2.34326l-48,48a8,8,0,0,0,0,11.31348l29.49561,29.49554a30.39117,30.39117,0,0,1-8.80908,18.50446l-4.68653,4.68652A8.00038,8.00038,0,0,0,40,240h8a40.068,40.068,0,0,0,39.19507-32h5.54565a153.77976,153.77976,0,0,0,45.19092,72.46753l14.09375,176.17065A8.00045,8.00045,0,0,0,160,464h16a8.00071,8.00071,0,0,0,7.91406-6.82764l10.4895-70.80737,5.62183,70.27319A8.00045,8.00045,0,0,0,208,464h16a8.00071,8.00071,0,0,0,7.91406-6.82764L252.2356,320H311.51a76.12416,76.12416,0,0,0,10.83276,13.65674L359.06055,370.374l-22.77832,83.521A7.99987,7.99987,0,0,0,344,464h24a8.00049,8.00049,0,0,0,7.38477-4.92285l37.75854-90.62036,1.91724,1.91723-22.77832,83.521A7.99987,7.99987,0,0,0,400,464h24a8.00049,8.00049,0,0,0,7.38477-4.92285l40-96a8.00052,8.00052,0,0,0-1.1377-8.07471l-9.458-11.82275a44.85323,44.85323,0,0,1-3.94043-50.54053,60.96756,60.96756,0,0,0,1.59961-57.63086l-1.51611-3.03192A40.039,40.039,0,0,0,496,192V176A8.00008,8.00008,0,0,0,488,168ZM115.90332,76.52344a84.94574,84.94574,0,0,0-11.49853,35.236c-.14209.07855-.28248.16083-.42432.2406H90.14209A69.5049,69.5049,0,0,1,115.90332,76.52344ZM58.81348,221.42334A46.1045,46.1045,0,0,0,63.31055,208h7.30883A24.12749,24.12749,0,0,1,58.81348,221.42334ZM217.09766,448h-1.71192L204.82642,316.00806l.04516-.30445a154.098,154.098,0,0,0,31.20191,4.20581Zm175.19726-94.8252,6.49805,8.12256L362.667,448h-8.19336l21.24414-77.895a8,8,0,0,0-2.06054-7.76172l-40-40c-.761-.761-1.49219-1.54638-2.209-2.34326h36.08521a75.77277,75.77277,0,0,0,10.80932,13.65674l5.57862,5.57837A60.986,60.986,0,0,0,392.29492,353.1748ZM480,192a24.00473,24.00473,0,0,1-31.68726,22.73743l-9.15747-18.31507-14.31054,7.15528,19.293,38.58593a44.99915,44.99915,0,0,1-1.18165,42.5376,60.76759,60.76759,0,0,0,5.33887,68.47363l6.49805,8.12256L418.667,448h-8.19336l21.24414-77.895a8,8,0,0,0-2.06054-7.76172l-40-40a59.94935,59.94935,0,0,1,0-84.68652l-11.31446-11.31348A75.95353,75.95353,0,0,0,360.04126,304H240.99609a138.28264,138.28264,0,0,1-33.77-4.19067l5.37061-36.25318a53.17838,53.17838,0,0,0-14.93945-45.21289l-11.31446,11.31348a37.11119,37.11119,0,0,1,10.42676,31.5542L169.09766,448h-1.71192L151.97461,255.36182l-15.15283,1.21264a137.83206,137.83206,0,0,1-32.8833-73.56665l-15.877,1.98438Q88.50207,188.516,89.10107,192H59.31348l-24-24,40-40H84.686l-2.34327,2.34326,11.31446,11.31348,7.999-7.99951a46.2884,46.2884,0,0,1,25.79883-13.1128,46.27858,46.27858,0,0,1-13.11133,25.79834l11.3125,11.31446a62.70566,62.70566,0,0,0,11.969-16.718l40.71753,40.71753A8.00076,8.00076,0,0,0,184,184H480Z"></path><rect x="72" y="144" width="16" height="16"></rect></g></svg>