<svg xmlns="http://www.w3.org/2000/svg" height="512" viewBox="0 0 512 512" width="512"><g id="Wheat_Bag" data-name="Wheat Bag"><g id="Outline"><path d="m390.449 476.17c-37.466 7.405-108.909 19.83-166.449 19.83-83.681 0-183.147-27.058-190.956-23.156-7.029 3.512-15.494.569-16.853-6.708 29.488-47.76 7.809 17.678 7.809-154.136 0-13.035 3.318-40.253 9.6-78.711a8 8 0 1 0 -15.791-2.578c-6.509 39.857-9.809 67.207-9.809 81.289 0 83.121 5.143 116.064 7.391 126.491l-14.047 21.072c-3.368 5.054-.738 19.486 10.9 26.678a28.329 28.329 0 0 0 25.2 2.13c147.206 31.9 225.67 29.277 356.109 3.5a8 8 0 1 0 -3.1-15.7z"></path><path d="m24 208h184a8 8 0 0 0 0-16h-184a8 8 0 0 1 0-16h64a8 8 0 0 0 0-16h-64a8 8 0 0 1 0-16h344a8 8 0 0 0 0-16h-344c-20.8 0-31.6 24.683-17.874 40-13.718 15.309-2.94 40 17.874 40z"></path><path d="m89.728 109.427c55.623-60.247 103.308-93.427 134.272-93.427s78.649 33.18 134.272 93.427a8 8 0 0 0 11.756-10.854c-41.517-44.973-100.552-98.573-146.028-98.573s-104.511 53.6-146.028 98.573a8 8 0 0 0 11.756 10.854z"></path><path d="m152 160a8 8 0 0 0 0 16h72a8 8 0 0 0 0-16z"></path><circle cx="120" cy="168" r="8"></circle><circle cx="184" cy="72" r="8"></circle><circle cx="208" cy="40" r="8"></circle><circle cx="224" cy="64" r="8"></circle><circle cx="248" cy="48" r="8"></circle><circle cx="264" cy="80" r="8"></circle><circle cx="296" cy="104" r="8"></circle><circle cx="240" cy="104" r="8"></circle><circle cx="200" cy="104" r="8"></circle><circle cx="152" cy="104" r="8"></circle><path d="m511.96 271.993a8 8 0 0 0 -6.719-7.841 90.193 90.193 0 0 0 6.719-32.159 8 8 0 0 0 -7.953-7.953 81.233 81.233 0 0 0 -10.746.9c3.692-10.768 3.787-25.682 2.477-30.938.5-1.935.164-.277.262-42a8 8 0 0 0 -16 0v35.452a70.416 70.416 0 0 0 -16.017 1.767c-.294-18.748-11.208-34.239-15.983-40.129v-37.092a8 8 0 0 0 -16 0v37.09c-4.777 5.892-15.7 21.393-15.983 40.15a70.4 70.4 0 0 0 -16.017-1.769v-35.471a8 8 0 0 0 -16 0c.1 41.584-.224 40.083.254 41.969-1.017 3.961-1.726 18.758 2.448 30.957-7.242-1.049-15.225-2.642-18.057 3.964a79.88 79.88 0 0 0 -9.275 5.837c-1.714-11.227-8.53-24.5-12.132-28.554-.454-1.946.017-.323-19.222-37.345a8 8 0 0 0 -14.181 7.41l16.422 31.42a70.433 70.433 0 0 0 -13.378 8.985c-8.943-16.478-25.791-25.153-32.751-28.161l-17.18-32.872a8 8 0 0 0 -14.18 7.411l17.179 32.87c-1.5 7.433-4 26.226 4.428 42.981a70.132 70.132 0 0 0 -15.013 5.853l-16.427-31.431a8 8 0 0 0 -14.181 7.41c19.482 37.061 18.339 35.586 19.663 37.069.99 4.238 7.37 17.632 16.513 26.312a78.4 78.4 0 0 0 -9.939 4.192 8 8 0 0 0 -3.365 10.733 90.263 90.263 0 0 0 20.846 25.39 8 8 0 0 0 -2.319 10.059 90.283 90.283 0 0 0 20.885 25.425 7.994 7.994 0 0 0 -2.334 10.068 90.246 90.246 0 0 0 20.811 25.362 8 8 0 0 0 -2.305 10.048c.6 1.167 15.029 28.671 41.744 37.046 15.533 4.87 32.952 2.472 48.084-3.346 38.958 74.542 36.038 69.724 38.144 71.311a7.979 7.979 0 0 0 11.665-2.253c2.484-4.117.458-3.9 1.153-84.657 10.816-1.249 30.236-5.416 44.121-19.3 19.8-19.8 19.843-50.855 19.836-52.168a8 8 0 0 0 -6.7-7.838 90.187 90.187 0 0 0 6.7-32.115 8 8 0 0 0 -6.737-7.844 90.235 90.235 0 0 0 6.74-32.205zm-80.793 15.219c-9.548-11.265-22.984-17.751-37.333-20.962-5.586-8.542-8.006-18.471-9.046-25.419 27.544 4.128 42.248 18.802 46.379 46.381zm.007 40.049c-9.524-11.24-22.944-17.744-37.315-20.967-5.6-8.553-8.03-18.5-9.071-25.463 27.581 4.134 42.272 18.848 46.386 46.43zm-.015 39.936c-9.523-11.236-22.964-17.74-37.358-20.954-5.57-8.539-7.982-18.456-9.017-25.391 28.041 4.148 42.307 19.313 46.375 46.348zm-108.538-133.506c4.257-5.646 10.783-9.7 15.486-12.09 9.36 17.624 4.412 24.875 4.576 28.713a59.372 59.372 0 0 0 -12.67 25.972l-8-15.313a77.5 77.5 0 0 0 .608-27.282zm-38.03-27.05c17.252 10.089 24.345 23.622 22.775 43.578-17.253-10.087-24.343-23.619-22.775-43.578zm-18.283 52.505c4.662-2.5 11.732-5.555 18.805-5.815a77.507 77.507 0 0 0 22.711 15.044l8.032 15.368a59.407 59.407 0 0 0 -28.6-4.454c-2.909-2.212-11.81-2.358-20.948-20.143zm41.368 110.865c8.456-2.923 22.225-6.118 35.023-2.105a8 8 0 1 0 4.787-15.267c-13.9-4.357-28.009-2.563-38.524.245-8.942-4.99-15.709-12.7-19.854-18.39 10.793-3.757 23.734-5.626 35.043-2.075a8 8 0 1 0 4.791-15.266c-13.912-4.366-28.041-2.566-38.561.247-8.915-4.99-15.663-12.68-19.8-18.357 8.419-2.93 22.149-6.122 35.046-2.072 20.258 6.344 32.2 28.887 32.317 29.115a7.942 7.942 0 0 0 .413.708c6.986 11.229 7.381 19.8 15.2 19.8a8.011 8.011 0 0 0 7.083-11.708c-2.49-6.264-22.179-33.1-13.941-59.381 4.239-13.534 15.706-23.35 22.923-28.416a86.34 86.34 0 0 0 5.092 17.068 7.994 7.994 0 0 0 -6.714 7.84 90.3 90.3 0 0 0 6.732 32.207 8 8 0 0 0 -6.732 7.839 90.243 90.243 0 0 0 6.7 32.115 8 8 0 0 0 -6.7 7.842c-.006 1.122.039 23.956 12.4 42.929-16.11-10.476-33.91-11.729-53-6.617-8.872-4.982-15.595-12.638-19.724-18.301zm18.491 35.389c11.1-3.864 23.83-5.6 35.042-2.08 12.815 4.018 22.3 14.521 27.572 21.747-26.138 9.086-46.095 2.983-62.614-19.667zm58.624-44.562c27.553 4.129 42.24 18.793 46.376 46.375-27.554-4.133-42.241-18.797-46.376-46.379zm47.209 110.581c-23.744-45.169-24.42-48.279-31.917-57.969 11.57 6.652 24.039 9.114 31.917 10.02zm0-223.2a59.421 59.421 0 0 0 -23.288-17.2c-1.559-3.317-9.374-7.559-9.236-27.554 5.284-.049 12.969.512 19.361 3.557a77.51 77.51 0 0 0 13.163 23.855zm8-33.649c-10.618-16.929-10.632-32.212 0-49.169 10.617 16.929 10.633 32.209 0 49.167zm8 16.309a77.484 77.484 0 0 0 13.175-23.89c6.376-3.022 14.017-3.58 19.3-3.543.195 20.22-7.5 23.911-9.219 27.573a59.34 59.34 0 0 0 -23.256 17.138zm.791 176.332c4.128-27.55 18.793-42.243 46.375-46.375-4.128 27.547-18.793 42.241-46.375 46.373zm37.367-60.978c-14.447 3.231-27.864 9.764-37.357 20.963 4.066-27.028 18.287-42.108 46.37-46.315-1.038 6.931-3.452 16.827-9.013 25.35zm-.067-39.935c-14.23 3.192-27.727 9.648-37.3 20.955 4.07-27.281 18.48-42.241 46.384-46.421-1.046 6.961-3.475 16.912-9.084 25.468zm.021-40.038c-14.411 3.224-27.811 9.726-37.318 20.945 4.127-27.548 18.8-42.242 46.377-46.373-1.041 6.951-3.465 16.885-9.059 25.426z"></path></g></g></svg>