<svg xmlns="http://www.w3.org/2000/svg" xmlns:xlink="http://www.w3.org/1999/xlink" id="Layer_1" x="0px" y="0px" viewBox="0 0 512 512" style="enable-background:new 0 0 512 512;" xml:space="preserve">
<g transform="translate(1 1)">
	<g>
		<path d="M416.693,203.8c0-22.656-6.142-43.771-17.691-56.083c-4.857-21.705-21.233-37.783-41.189-37.783    c-11.96,0-22.637,5.774-30.319,15.073c-7.028-19.179-21.229-32.139-37.948-32.139c-9.732,0-18.614,4.391-25.725,11.842    c-0.652-14.188-3.947-27.664-9.407-39.951c10.92-1.769,20.206-6.459,27.452-13.704c17.067-17.067,16.213-42.667,16.213-43.52    c0-5.12-3.413-8.533-7.68-7.68c-1.707,0-27.307-0.853-44.373,16.213c-5.308,5.308-8.998,11.543-11.214,18.804    C214.559,12.802,185.453-1,153.013-1c-5.12,0-8.533,3.413-8.533,8.533s3.413,8.533,8.533,8.533    c33.733,0,63.16,17.564,79.699,44.092c0.367,1.198,1.018,2.268,1.875,3.133c6.974,12.226,11.274,26.194,12.129,41.126    c-7.062-7.271-15.834-11.55-25.437-11.55c-16.718,0-30.92,12.96-37.948,32.139c-7.682-9.299-18.359-15.073-30.319-15.073    c-19.624,0-35.784,15.546-40.936,36.701c-11.47,12.131-18.797,33.831-18.797,57.165c0,22.85,6.649,42.676,17.067,54.988v4.745    c0,33.822,14.566,61.011,34.365,67.017c1.922,30.389,15.778,54.165,34.133,59.733c1.922,30.389,15.778,54.165,34.133,59.733    C215.18,484.844,233.053,511,255.413,511s40.232-26.156,42.435-60.983c18.355-5.568,32.211-29.344,34.133-59.733    c18.355-5.568,32.211-29.344,34.133-59.733c19.798-6.006,34.365-33.195,34.365-67.017v-4.81    C410.782,246.407,417.2,226.609,416.693,203.8z M257.973,27.16c5.973-6.827,15.36-9.387,22.187-10.24    c-0.853,6.827-3.413,15.36-9.387,22.187c-5.12,5.12-12.8,7.68-21.333,8.533C250.293,39.107,252.853,32.28,257.973,27.16z     M300.179,309.469c-0.13,0.128-0.259,0.263-0.389,0.387c-0.115,0.11-0.231,0.212-0.347,0.318    c-0.272,0.249-0.545,0.496-0.819,0.726c-0.035,0.029-0.07,0.057-0.105,0.086c-1.819,1.504-3.687,2.582-5.549,3.184    c-0.015,0.005-0.03,0.01-0.044,0.015c-0.342,0.109-0.683,0.198-1.024,0.275c-0.042,0.009-0.085,0.022-0.127,0.031    c-0.316,0.067-0.631,0.115-0.945,0.154c-0.061,0.008-0.122,0.021-0.184,0.027c-0.368,0.039-0.735,0.061-1.1,0.061    c-0.367,0-0.735-0.021-1.104-0.061c-0.047-0.005-0.094-0.015-0.14-0.021c-10.646-1.29-22.201-18.897-24.082-43.984    c10.365-3.347,19.258-12.525,25.326-25.409c6.069,12.884,14.961,22.061,25.326,25.409c-0.343,4.571-1.003,8.895-1.925,12.916    C310.159,295.162,305.477,304.181,300.179,309.469z M266.044,369.204c-0.129,0.128-0.258,0.262-0.388,0.386    c-0.115,0.11-0.231,0.212-0.347,0.318c-0.272,0.249-0.545,0.496-0.819,0.726c-0.035,0.029-0.069,0.056-0.104,0.085    c-1.819,1.504-3.687,2.582-5.549,3.184c-0.015,0.005-0.03,0.011-0.045,0.015c-0.342,0.109-0.683,0.198-1.024,0.275    c-0.042,0.009-0.084,0.022-0.126,0.031c-0.316,0.068-0.631,0.115-0.945,0.154c-0.061,0.008-0.122,0.021-0.183,0.027    c-0.368,0.039-0.735,0.061-1.1,0.061c-0.367,0-0.735-0.021-1.104-0.061c-0.047-0.005-0.094-0.015-0.14-0.021    c-10.646-1.29-22.201-18.897-24.082-43.984c10.365-3.347,19.258-12.525,25.326-25.409c6.069,12.884,14.961,22.061,25.326,25.409    c-0.343,4.571-1.003,8.895-1.925,12.916C276.025,354.896,271.342,363.916,266.044,369.204z M255.413,189.293    c5.913,10.982,15.174,19.446,25.294,22.099c-1.004,12.563-4.432,23.228-8.95,30.863c0,0.001-0.001,0.002-0.001,0.002    c-3.814,6.445-8.401,10.733-12.95,12.191c0,0,0,0-0.001,0c-0.351,0.112-0.701,0.204-1.051,0.282    c-0.036,0.008-0.073,0.019-0.109,0.027c-0.318,0.068-0.635,0.116-0.951,0.155c-0.06,0.007-0.12,0.021-0.18,0.027    c-0.368,0.039-0.735,0.061-1.1,0.061c-10.91,0-23.237-17.796-25.295-43.63C240.238,207.906,249.499,200.276,255.413,189.293z     M195.953,270.667c10.365-3.347,19.258-12.525,25.326-25.409c6.069,12.884,14.961,22.061,25.326,25.409    c-0.343,4.571-1.003,8.895-1.925,12.916c-2.789,11.579-7.471,20.598-12.769,25.886c-0.13,0.128-0.259,0.263-0.389,0.387    c-0.115,0.11-0.231,0.212-0.347,0.318c-0.272,0.249-0.545,0.496-0.819,0.726c-0.035,0.029-0.07,0.057-0.105,0.086    c-1.819,1.504-3.687,2.582-5.549,3.184c-0.015,0.005-0.03,0.01-0.044,0.015c-0.342,0.109-0.683,0.198-1.024,0.275    c-0.042,0.009-0.085,0.022-0.127,0.031c-0.316,0.067-0.631,0.115-0.945,0.154c-0.061,0.008-0.122,0.021-0.184,0.027    c-0.368,0.039-0.735,0.061-1.1,0.061c-0.367,0-0.735-0.021-1.104-0.061c-0.047-0.005-0.094-0.015-0.14-0.021    C209.389,313.362,197.833,295.755,195.953,270.667z M323.679,255c-10.91,0-23.236-17.796-25.295-43.629    c10.103-3.447,18.528-10.234,24.442-20.371c5.918,10.145,15.188,17.769,26.146,20.4c-0.548,6.853-1.842,13.555-3.881,19.709    c-4.825,13.996-12.693,23.035-20.319,23.831C324.41,254.974,324.047,255,323.679,255z M187.999,191    c5.913,10.137,14.338,17.757,24.44,20.393c-1.004,12.563-4.432,23.227-8.95,30.861c0,0.001-0.001,0.002-0.001,0.002    c-3.814,6.445-8.401,10.733-12.95,12.191c0,0,0,0-0.001,0c-0.351,0.112-0.701,0.204-1.051,0.282    c-0.036,0.008-0.073,0.019-0.109,0.027c-0.318,0.068-0.635,0.116-0.951,0.155c-0.06,0.007-0.12,0.021-0.18,0.027    c-0.368,0.039-0.735,0.061-1.1,0.061c-0.369,0-0.734-0.026-1.097-0.06c-2.635-0.274-5.339-1.533-7.949-3.637    c-3.039-2.543-5.86-6.296-8.465-10.938c-0.103-0.526-0.233-1.052-0.409-1.578c-4.012-8.023-6.444-17.62-7.313-27.556    c6.287-1.578,12.031-4.794,16.928-9.254C182.404,198.952,185.503,195.279,187.999,191z M374.879,255    c-2.458,0-4.914-0.734-7.253-2.119c-3.166-2.041-6.152-5.387-8.813-9.853c3.93-9.099,6.503-19.872,7.279-31.651    c14.3-3.324,25.869-15.1,31.2-30.731c2.373,7.435,3.187,14.894,3.187,23.154C400.479,233.667,386.826,255,374.879,255z     M357.813,127c12.145,0,21.893,10.769,24.747,25.292v1.162c0,0,0,0.853,0,1.707c0.462,0.924,0.67,2.096,0.767,3.25    c0.052,0.9,0.086,1.806,0.086,2.724c0,0.554-0.011,1.105-0.031,1.654c-0.011,0.314-0.031,0.625-0.048,0.937    c-0.012,0.216-0.021,0.433-0.036,0.648c-0.033,0.465-0.073,0.927-0.12,1.387c-0.004,0.04-0.007,0.081-0.011,0.121    c-1.427,13.665-8.964,24.96-19.696,28.57c-1.812,0.529-3.703,0.816-5.658,0.816c-0.853,0-1.707-0.853-3.413-0.853    c-11.588-1.545-20.378-13.581-21.939-28.51c-0.008-0.08-0.015-0.161-0.022-0.241c-0.042-0.426-0.08-0.853-0.111-1.283    c-0.016-0.23-0.026-0.462-0.038-0.693c-0.017-0.3-0.036-0.599-0.046-0.9c-0.019-0.548-0.031-1.099-0.031-1.654    C332.213,142.36,343.306,127,357.813,127z M289.546,109.933c13.653,0,25.6,19.627,25.6,42.667c0,23.04-11.947,42.667-25.6,42.667    c-13.653,0-25.6-19.627-25.6-42.667C263.946,129.56,275.893,109.933,289.546,109.933z M221.279,109.933    c13.653,0,25.6,19.627,25.6,42.667c0,23.04-11.947,42.667-25.6,42.667c-13.653,0-25.6-19.627-25.6-42.667    C195.679,129.56,207.626,109.933,221.279,109.933z M153.013,127c14.507,0,25.6,15.36,25.6,34.133c0,0.554-0.011,1.105-0.031,1.654    c-0.011,0.314-0.031,0.625-0.048,0.937c-0.012,0.216-0.021,0.433-0.036,0.648c-0.033,0.465-0.073,0.927-0.12,1.387    c-0.004,0.04-0.007,0.081-0.011,0.121c-1.427,13.665-8.964,24.96-19.696,28.57c-0.757,0.221-1.529,0.396-2.312,0.528    c-1.004-0.365-2.124-0.565-3.346-0.565c-0.853,0-1.707,0-2.56,0s-0.853,0-0.853,0c-11.588-1.545-20.378-13.581-21.938-28.51    c-0.008-0.08-0.015-0.161-0.022-0.241c-0.042-0.426-0.08-0.853-0.111-1.283c-0.016-0.23-0.026-0.462-0.038-0.693    c-0.017-0.3-0.036-0.599-0.046-0.9c-0.019-0.548-0.031-1.099-0.031-1.654C127.413,142.36,138.506,127,153.013,127z     M113.533,180.646c2.552,7.484,6.537,14.078,11.565,19.292c5.318,5.727,11.889,9.78,19.381,11.543    c0.567,7.371,1.905,14.73,3.978,21.6c1.012,3.497,2.203,6.82,3.554,9.948c-0.57,0.956-1.154,1.862-1.752,2.714    c-4.499,5.98-9.078,9.259-14.314,9.259c-11.947,0-25.6-21.333-25.6-51.2C110.346,195.54,111.16,188.08,113.533,180.646z     M127.413,271.213c4.618,1.319,9.362,1.351,13.989,0.268c7.238-1.496,14.23-5.923,20.045-12.809    c4.893,5.818,10.624,9.971,16.892,11.995c-0.343,4.571-1.003,8.895-1.925,12.916c-2.789,11.579-7.472,20.599-12.77,25.887    c-0.13,0.128-0.258,0.262-0.388,0.386c-0.115,0.11-0.231,0.211-0.347,0.318c-0.272,0.25-0.545,0.497-0.82,0.727    c-0.034,0.029-0.069,0.056-0.103,0.084c-1.819,1.504-3.687,2.582-5.55,3.184c-0.015,0.005-0.03,0.011-0.045,0.015    c-0.342,0.109-0.683,0.198-1.024,0.275c-0.042,0.009-0.084,0.022-0.126,0.031c-0.316,0.068-0.631,0.115-0.945,0.154    c-0.061,0.008-0.122,0.021-0.183,0.027c-0.368,0.039-0.735,0.061-1.1,0.061C141.919,314.733,129.973,296.813,127.413,271.213z     M161.576,330.478c10.469-3.281,19.454-12.501,25.57-25.486c6.069,12.884,14.961,22.061,25.326,25.409    c-0.343,4.571-1.003,8.895-1.925,12.916c-2.789,11.58-7.472,20.6-12.77,25.887c-0.129,0.128-0.258,0.262-0.388,0.386    c-0.115,0.11-0.231,0.212-0.347,0.318c-0.272,0.249-0.545,0.496-0.819,0.726c-0.035,0.029-0.069,0.056-0.104,0.085    c-1.819,1.504-3.687,2.582-5.549,3.184c-0.015,0.005-0.03,0.011-0.045,0.015c-0.342,0.109-0.683,0.198-1.024,0.275    c-0.042,0.009-0.084,0.022-0.126,0.031c-0.316,0.068-0.631,0.115-0.945,0.154c-0.061,0.008-0.122,0.021-0.183,0.027    c-0.368,0.039-0.735,0.061-1.1,0.061C176.107,374.467,163.382,356.718,161.576,330.478z M195.709,390.211    c10.469-3.281,19.454-12.501,25.57-25.485c6.069,12.884,14.961,22.061,25.326,25.409c-0.343,4.571-1.003,8.895-1.925,12.916    c-2.789,11.579-7.471,20.598-12.769,25.886c-0.13,0.128-0.259,0.263-0.389,0.387c-0.115,0.11-0.231,0.212-0.347,0.318    c-0.272,0.249-0.545,0.496-0.819,0.726c-0.035,0.029-0.07,0.057-0.105,0.086c-1.819,1.504-3.687,2.582-5.549,3.184    c-0.015,0.005-0.03,0.01-0.044,0.015c-0.342,0.109-0.683,0.198-1.024,0.275c-0.042,0.009-0.085,0.022-0.127,0.031    c-0.316,0.067-0.631,0.115-0.945,0.154c-0.061,0.008-0.122,0.021-0.184,0.027c-0.368,0.039-0.735,0.061-1.1,0.061    C210.24,434.2,197.515,416.452,195.709,390.211z M255.413,493.933c-11.039,0-23.764-17.748-25.57-43.989    c10.469-3.281,19.454-12.501,25.57-25.486c6.114,12.98,15.094,22.198,25.558,25.482    C278.333,476.184,266.452,493.933,255.413,493.933z M289.546,434.2c-0.367,0-0.735-0.021-1.104-0.061    c-0.047-0.005-0.094-0.015-0.14-0.021c-10.646-1.29-22.201-18.897-24.082-43.984c10.365-3.347,19.258-12.525,25.326-25.409    c6.114,12.98,15.094,22.198,25.558,25.482C312.467,416.45,300.586,434.2,289.546,434.2z M323.679,374.467    c-0.367,0-0.735-0.021-1.104-0.061c-0.047-0.005-0.094-0.015-0.14-0.021c-10.646-1.29-22.201-18.897-24.082-43.984    c10.365-3.347,19.258-12.525,25.326-25.409c6.114,12.98,15.094,22.198,25.558,25.482    C346.6,356.717,334.719,374.467,323.679,374.467z M357.813,314.733c-0.367,0-0.735-0.021-1.104-0.061    c-0.047-0.005-0.094-0.015-0.14-0.021c-10.646-1.29-22.201-18.897-24.082-43.984c3.712-1.199,7.231-3.157,10.504-5.754    c2.17-1.672,4.231-3.588,6.289-5.647c9.387,11.093,22.187,15.36,34.133,11.947C380.853,296.813,368.906,314.733,357.813,314.733z"></path>
	</g>
</g>
<g>
</g>
<g>
</g>
<g>
</g>
<g>
</g>
<g>
</g>
<g>
</g>
<g>
</g>
<g>
</g>
<g>
</g>
<g>
</g>
<g>
</g>
<g>
</g>
<g>
</g>
<g>
</g>
<g>
</g>
</svg>