<svg xmlns="http://www.w3.org/2000/svg" height="512pt" viewBox="-7 0 512 512" width="512pt"><path d="m495.394531 437.675781-52.214843-87.015625 4.675781-39.980468h6.648437c11.785156 0 21.371094-9.585938 21.371094-21.371094v-24.480469c0-11.78125-9.585938-21.367187-21.371094-21.367187h-29.320312v-28.035157c0-.074219.003906-.152343.003906-.230469 0-1.761718-.609375-3.382812-1.628906-4.664062 0-.003906-.003906-.007812-.007813-.011719l-25.894531-32.542969v-27.335937c0-9.015625-7.332031-16.351563-16.347656-16.351563h-30.152344c-.191406-.386718-.386719-.761718-.582031-1.128906-3.714844-6.988281-13.953125-15.933594-30.4375-26.59375-3.414063-2.203125-5.453125-5.964844-5.453125-10.066406v-19.875c3.210937-1.59375 5.425781-4.90625 5.425781-8.730469v-41.730469c0-14.425781-11.734375-26.164062-26.164063-26.164062h-28.492187c-14.429687 0-26.164063 11.738281-26.164063 26.164062v41.730469c0 3.824219 2.210938 7.136719 5.425782 8.730469v19.875c0 4.101562-2.042969 7.863281-5.460938 10.070312-2.722656 1.757813-5.773437 3.800782-8.878906 6.007813.023438-.582031.039062-1.164063.039062-1.75 0-22.054687-17.945312-40-40-40-22.058593 0-40 17.945313-40 40 0 2.820313.304688 5.664063.902344 8.425781.898438 4.257813 1.738282 8.21875 2.519532 11.910156-9.125-3.230468-19.671876-1.773437-27.707032 4.777344-5.921875 4.835938-9.609375 11.6875-10.378906 19.296875-.773438 7.609375 1.464844 15.0625 6.273438 20.949219 1.261718 1.5625 2.722656 3.011719 4.324218 4.292969l22.328125 17.992187c-12.570312 11.09375-20.703125 27.101563-21.359375 44.988282h-35.796875l-1.5625-2.9375c.234375-.121094.46875-.246094.699219-.367188 23.980469-12.757812 43.984375-33.707031 35.8125-49.070312-8.171875-15.363282-36.722656-10.488282-60.703125 2.269531-.234375.121093-.46875.246093-.699219.375l-10.082031-18.953125c.234375-.121094.46875-.246094.703125-.367188 11.949219-6.355468 22.261719-14.300781 29.042969-22.375 11.171875-13.292968 9.035156-22.429687 6.765625-26.695312-2.269532-4.265625-8.652344-11.148438-25.921875-9.316406-10.480469 1.113281-22.835938 5.226562-34.78125 11.582031-.234375.125-.46875.25-.699219.375l-7.558594-14.203125c-4.214844-7.921875-6.351562-16.464844-6.351562-25.386719 0-20.113281 11.015625-38.464844 28.753906-47.898437 12.777344-6.796876 27.441406-8.210938 41.28125-3.984376 13.839844 4.230469 25.207031 13.597657 32.003906 26.375l12.917969 24.300782c1.945313 3.65625 6.484375 5.046875 10.144531 3.097656 3.65625-1.941406 5.046875-6.484375 3.101563-10.140625l-12.921875-24.300781c-17.914063-33.683594-59.890625-46.503906-93.574219-28.589844-22.640625 12.042969-36.707031 35.46875-36.707031 61.140625 0 11.246094 2.804687 22.460937 8.109375 32.429687l65.234375 122.640626h-30.542969c-11.785156 0-21.371094 9.585937-21.371094 21.367187v24.480469c0 11.785156 9.585938 21.371094 21.371094 21.371094h6.644531l4.679688 39.980468-52.214844 87.015625c-2.972656 4.953125-3.839844 10.769531-2.441406 16.375 1.402344 5.601563 4.902344 10.328125 9.855468 13.300781 2.503907 1.5 5.226563 2.46875 8.097657 2.875 1.023437.144532 2.039062.214844 3.050781.214844 7.523438 0 14.578125-3.921875 18.53125-10.503906l23.351562-38.914062 1.683594 14.449218c.449219 3.816406 3.6875 6.628906 7.441406 6.628906.289063 0 .585938-.015624.878907-.050781 4.113281-.480469 7.058593-4.207031 6.578125-8.320312l-3.941406-33.773438 53.574218-89.277343h238.980469l53.574219 89.277343-9.414063 80.46875c-1.101562 9.449219-9.105469 16.574219-18.621093 16.574219h-290.0625c-9.515626 0-17.519532-7.125-18.621094-16.582031l-1.980469-16.910157c-.480469-4.113281-4.207031-7.058593-8.320313-6.574218-4.113281.480468-7.058593 4.207031-6.574218 8.320312l1.976562 16.902344c1.980469 17.015625 16.394532 29.84375 33.523438 29.84375h290.058594c17.128906 0 31.542968-12.828125 33.519531-29.839844l7.152343-61.144531 23.355469 38.917969c6.203125 10.332031 19.503907 13.519531 29.679688 7.417968 10.25-6.152343 13.566406-19.425781 7.414062-29.675781zm-422.585937-231.078125c24.15625-12.851562 39.304687-10.550781 40.417968-8.46875 1.105469 2.082032-5.457031 15.933594-29.613281 28.78125-.230469.125-.464843.25-.699219.371094l-10.804687-20.3125c.234375-.125.464844-.25.699219-.371094zm-34.972656-65.75c10.144531-5.394531 20.832031-9.007812 29.324218-9.90625 7.457032-.789062 10.738282.777344 11.09375 1.441406.351563.664063-.179687 4.261719-5.003906 10.003907-5.496094 6.539062-14.460938 13.382812-24.609375 18.777343-.230469.125-.464844.246094-.699219.371094l-10.800781-20.3125c.230469-.125.460937-.25.695313-.375zm392.707031 188.753906-11.355469-18.921874h13.566406zm-152.070313-86.140624v-25.652344l23.648438-29.71875h84.417968l15.597657 19.605468h-33.980469c-4.144531 0-7.5 3.359376-7.5 7.5 0 4.140626 3.355469 7.5 7.5 7.5h42.027344v20.765626zm104.1875-92.824219v22.453125h-76.65625v-22.453125c0-.742188.605469-1.347657 1.347656-1.347657h38.6875c.066407 0 .128907.003907.195313.003907s.132813-.003907.199219-.003907h34.875c.746094 0 1.351562.605469 1.351562 1.347657zm-117.207031-135.636719h28.492187c6.15625 0 11.164063 5.007812 11.164063 11.164062v36.464844h-50.820313v-36.464844c0-6.15625 5.007813-11.164062 11.164063-11.164062zm-18.0625 104.171875c7.714844-4.976563 12.324219-13.453125 12.324219-22.671875v-18.867188h39.96875v18.867188c0 9.21875 4.609375 17.695312 12.316406 22.667969 10.371094 6.707031 16.558594 11.667969 20.238281 15.121093h-24.886719c-9.015624 0-16.347656 7.332032-16.347656 16.347657v27.335937l-25.898437 32.546875c-1.058594 1.328125-1.632813 2.972657-1.632813 4.667969v28.273438h-9.960937c-.660157-17.886719-8.789063-33.894532-21.355469-44.988282 2.519531-2.03125 5.476562-4.410156 9.050781-7.292968l13.261719-10.683594c1.582031-1.265625 3.035156-2.707032 4.3125-4.273438 4.839844-5.925781 7.078125-13.378906 6.304688-20.988281-.773438-7.609375-4.460938-14.460937-10.394532-19.296875-5.925781-4.832031-13.378906-7.066406-20.980468-6.292969-.441407.046875-.882813.101563-1.316407.164063 4.101563-3.269532 9.1875-6.882813 14.996094-10.636719zm-26.058594 38.828125c2.0625-2.921875 3.941407-12.421875 13.894531-13.433594 3.621094-.367187 7.167969.695313 9.988282 2.996094 2.824218 2.300781 4.582031 5.566406 4.949218 9.1875.472657 4.664062-1.449218 9.140625-5.085937 12.050781l-13.28125 10.699219c-5.390625 4.34375-9.367187 7.550781-12.574219 10.132812-1.359375-.699218-2.75-1.351562-4.164062-1.953124zm-30.917969-72.171875c13.785157 0 25 11.21875 25 25 0 1.789063-.1875 3.566406-.566406 5.320313l-2.914062 13.78125c-.015625.074218-.035156.148437-.046875.222656l-11.273438 53.339844c-3.320312-.539063-6.726562-.820313-10.199219-.820313-3.46875 0-6.875.28125-10.191406.820313l-.09375-.4375c-2.605468-12.34375-5.398437-25.578126-14.144531-66.9375-.378906-1.753907-.570313-3.53125-.570313-5.285157 0-13.785156 11.214844-25.003906 25-25.003906zm-56.738281 80.910156c-4.753906-5.820312-3.882812-14.425781 1.9375-19.175781 6.613281-5.390625 16.734375-3.496094 20.777344 4.40625l3.125 6.070312c2.816406 13.332032 4.410156 20.875 5.933594 28.109376l.324219 1.527343c-1.414063.601563-2.800782 1.253907-4.164063 1.953125-27.3125-22.125-26.390625-20.980468-27.933594-22.890625zm56.738281 30.933594c25.757813 0 46.851563 20.332031 48.082032 45.789063h-96.164063c1.230469-25.457032 22.324219-45.789063 48.082031-45.789063zm-124.683593 113.007813h13.570312l-11.355469 18.921874zm-38.40625 141.535156c-1.375 2.292968-3.972657 3.53125-6.617188 3.15625h-.003906c-.871094-.125-1.707031-.421875-2.476563-.882813-1.519531-.910156-2.589843-2.359375-3.019531-4.078125-.429687-1.71875-.164062-3.5.746094-5.019531l53.496094-89.148437c.007812-.003907.011719-.011719.015625-.019532l29.375-48.949218c.101562-.160157.203125-.324219.292968-.492188l16.359376-27.261719c.910156-1.519531 2.359374-2.589843 4.078124-3.019531.535157-.136719 1.078126-.203125 1.617188-.203125 1.1875 0 2.355469.324219 3.402344.949219 3.132812 1.882812 4.15625 5.960937 2.273437 9.097656l-7.667969 12.777344c-.085937.132812-.164062.265625-.242187.402344zm111.429687-156.535156.972656-1.617188c2.972657-4.953125 3.835938-10.769531 2.4375-16.375-1.402343-5.601562-4.902343-10.328125-9.855468-13.300781-4.953125-2.972657-10.769532-3.839844-16.375-2.4375-5.605469 1.402343-10.328125 4.902343-13.300782 9.855469l-14.332031 23.875h-44.316406c-3.511719 0-6.371094-2.855469-6.371094-6.371094v-24.480469c0-3.511719 2.859375-6.367187 6.371094-6.367187h410.519531c3.511719 0 6.371094 2.855468 6.371094 6.367187v24.480469c0 3.515625-2.859375 6.371094-6.371094 6.371094h-44.316406l-14.328125-23.875c-2.972656-4.957032-7.699219-8.457032-13.304687-9.855469-5.605469-1.402344-11.417969-.535157-16.375 2.4375-4.953126 2.972656-8.453126 7.699219-9.851563 13.300781-1.402344 5.605469-.535156 11.421875 2.4375 16.375l.96875 1.617188zm339.027344 159.691406c-.144531-.023438-4.382812.570312-6.617188-3.15625-5.613281-9.351563-94.253906-157.058594-99.539062-165.867188-1.882812-3.136718-.863281-7.21875 2.273438-9.097656 3.140624-1.886719 7.210937-.871094 9.097656 2.273438 5.535156 9.226562 40.640625 67.722656 46.007812 76.667968.011719.019532.023438.039063.035156.058594l53.492188 89.144531c2.46875 4.105469-.117188 9.320313-4.75 9.976563zm0 0"></path><path d="m171.78125 376.167969v-24.816407c0-11.042968-8.984375-20.03125-20.027344-20.03125-11.046875 0-20.03125 8.988282-20.03125 20.03125v24.816407c0 11.042969 8.984375 20.03125 20.03125 20.03125 11.042969 0 20.027344-8.988281 20.027344-20.03125zm-25.058594 0v-24.816407c0-2.773437 2.257813-5.03125 5.03125-5.03125 2.773438 0 5.03125 2.257813 5.03125 5.03125v24.816407c0 2.773437-2.257812 5.03125-5.03125 5.03125-2.773437 0-5.03125-2.257813-5.03125-5.03125zm0 0"></path><path d="m220.527344 457.242188v-24.8125c0-11.046876-8.984375-20.03125-20.027344-20.03125-11.046875 0-20.03125 8.984374-20.03125 20.03125v24.8125c0 11.046874 8.984375 20.03125 20.03125 20.03125 11.042969 0 20.027344-8.984376 20.027344-20.03125zm-25.058594 0v-24.8125c0-2.773438 2.253906-5.03125 5.03125-5.03125 2.773438 0 5.027344 2.257812 5.027344 5.03125v24.8125c0 2.773437-2.253906 5.03125-5.027344 5.03125-2.777344 0-5.03125-2.257813-5.03125-5.03125zm0 0"></path><path d="m269.273438 376.167969v-24.816407c0-11.042968-8.984376-20.03125-20.027344-20.03125-11.046875 0-20.03125 8.988282-20.03125 20.03125v24.816407c0 11.042969 8.984375 20.03125 20.03125 20.03125 11.042968 0 20.027344-8.988281 20.027344-20.03125zm-25.058594 0v-24.816407c0-2.773437 2.253906-5.03125 5.03125-5.03125 2.773437 0 5.027344 2.257813 5.027344 5.03125v24.816407c0 2.773437-2.253907 5.03125-5.027344 5.03125-2.777344 0-5.03125-2.257813-5.03125-5.03125zm0 0"></path><path d="m318.019531 457.242188v-24.8125c0-11.046876-8.984375-20.03125-20.03125-20.03125-11.042969 0-20.03125 8.984374-20.03125 20.03125v24.8125c0 11.046874 8.988281 20.03125 20.03125 20.03125 11.046875 0 20.03125-8.984376 20.03125-20.03125zm-25.058593 0v-24.8125c0-2.773438 2.253906-5.03125 5.027343-5.03125 2.777344 0 5.03125 2.257812 5.03125 5.03125v24.8125c0 2.773437-2.253906 5.03125-5.03125 5.03125-2.773437 0-5.027343-2.257813-5.027343-5.03125zm0 0"></path><path d="m366.765625 376.167969v-24.816407c0-11.042968-8.984375-20.03125-20.03125-20.03125-11.042969 0-20.03125 8.988282-20.03125 20.03125v24.816407c0 11.042969 8.988281 20.03125 20.03125 20.03125 11.046875 0 20.03125-8.988281 20.03125-20.03125zm-25.0625 0v-24.816407c0-2.773437 2.257813-5.03125 5.03125-5.03125s5.03125 2.257813 5.03125 5.03125v24.816407c0 2.773437-2.257813 5.03125-5.03125 5.03125s-5.03125-2.257813-5.03125-5.03125zm0 0"></path></svg>