<svg version="1.1" id="Layer_1" xmlns="http://www.w3.org/2000/svg" xmlns:xlink="http://www.w3.org/1999/xlink" x="0px" y="0px"
	 width="100%" viewBox="0 0 128 128" enable-background="new 0 0 128 128" xml:space="preserve">
<path fill="#ffff" opacity="1.000000" stroke="none" 
	d="
M1.000000,70.000000 
	C1.000000,47.037880 1.000000,24.075760 1.000000,1.056819 
	C43.558453,1.056819 86.117004,1.056819 129.000000,1.056819 
	C129.000000,23.686529 129.000000,46.374607 128.531342,69.531662 
	C110.807167,70.000641 93.551643,70.000641 76.000237,70.000641 
	C76.000237,75.381905 75.979233,80.029434 76.005905,84.676689 
	C76.034836,89.715576 75.368568,94.730125 79.333801,99.123619 
	C80.823570,100.774284 80.881119,104.056908 80.927727,106.607658 
	C81.072739,114.544518 77.025208,119.417862 68.488190,122.136009 
	C63.412506,123.752083 55.786598,121.320816 52.608498,117.073303 
	C48.060509,110.994904 47.710911,102.360588 51.736794,96.767372 
	C52.571907,95.607140 53.849949,94.341599 53.882603,93.097267 
	C54.082527,85.478897 53.982643,77.852646 53.982643,69.913918 
	C47.359783,70.128410 51.601990,75.611420 48.881203,78.000000 
	C33.266911,78.000000 17.133455,78.000000 1.000000,78.000000 
	C1.000000,77.250000 1.000000,76.500000 1.468657,75.375145 
	C16.838514,75.000290 31.739714,75.000290 46.996914,75.000290 
	C46.864185,73.027519 46.771767,71.653854 46.660496,70.000000 
	C31.188372,70.000000 16.094187,70.000000 1.000000,70.000000 
M58.272755,118.702675 
	C59.203320,119.001022 60.118168,119.367424 61.067017,119.586624 
	C67.080757,120.975891 72.053635,119.446350 76.004288,114.523018 
	C78.486275,111.429939 80.112648,103.587181 76.734985,99.899132 
	C72.595238,95.378944 72.895348,90.485458 73.035133,85.352234 
	C73.228607,78.247902 73.082123,71.061653 74.141991,64.071320 
	C75.579025,54.593357 76.959656,44.867905 80.308807,35.981388 
	C84.188698,25.686649 90.177704,16.186792 95.376839,6.097895 
	C91.824989,2.103546 91.706772,2.027924 88.936600,4.574408 
	C76.533989,15.975533 68.303047,30.133776 63.216923,45.943775 
	C58.465580,60.713093 56.487728,76.051643 56.961872,91.640511 
	C57.004025,93.026360 57.000988,94.953133 56.173641,95.740959 
	C49.236759,102.346481 49.901188,112.613434 58.272755,118.702675 
M38.096546,56.906979 
	C38.896957,56.275497 40.085350,55.809219 40.435818,54.986145 
	C43.018837,48.919949 47.626129,44.992825 53.389496,42.181442 
	C54.241203,41.765980 55.016701,41.194290 56.228653,40.447754 
	C48.073784,37.134460 41.730320,32.451347 39.291290,22.478527 
	C36.519409,27.208183 35.107586,31.065571 32.476704,33.710255 
	C29.690462,36.511116 25.744953,38.158760 21.418653,40.865021 
	C29.107021,44.112553 34.968327,48.725933 38.096546,56.906979 
M104.295929,46.180199 
	C103.249184,45.837910 101.304680,45.515316 101.296669,45.150242 
	C101.228043,42.021740 98.925537,40.862045 97.214600,42.383839 
	C95.193344,44.181648 93.616455,47.346436 93.476997,50.004158 
	C93.413147,51.221054 97.246567,52.642448 99.312531,53.971096 
	C100.763916,51.282001 106.127533,51.620838 104.295929,46.180199 
M21.773962,29.832626 
	C25.907282,30.650112 26.778692,28.884504 25.517618,25.349777 
	C21.728821,24.214161 20.408602,25.601185 21.773962,29.832626 
M21.038616,50.645618 
	C21.623058,51.753666 21.998053,53.096027 22.873480,53.878540 
	C23.368544,54.321056 24.685875,53.843674 25.947479,53.759686 
	C25.858431,52.036732 25.786680,50.648441 25.687822,48.735630 
	C23.883228,49.159016 22.530193,49.476463 21.038616,50.645618 
z"/>
<path fill="#ffff" opacity="1.000000" stroke="none" 
	d="
M129.000000,83.000000 
	C129.000000,98.302780 129.000000,113.605560 129.000000,128.954163 
	C86.448936,128.954163 43.897812,128.954163 1.000000,128.954163 
	C1.000000,113.980881 1.000000,98.959099 1.468657,83.469025 
	C17.852255,83.000725 33.767193,83.000725 51.500851,83.000725 
	C49.771854,87.612633 48.834904,91.270020 47.102757,94.501106 
	C42.966152,102.217369 42.957291,109.748459 46.958733,117.450104 
	C52.405121,127.932869 67.082268,129.996307 76.897369,124.068184 
	C85.188988,119.060219 88.271202,105.790802 83.621681,95.968880 
	C81.844994,92.215698 81.258133,87.899277 79.877602,82.935394 
	C90.917099,82.935394 100.315598,82.935394 110.068741,82.935394 
	C109.883118,80.976120 109.752708,79.599632 109.601051,77.998810 
	C101.069405,77.998810 92.930336,78.051125 84.793312,77.945953 
	C83.477791,77.928940 82.171326,77.211914 80.860672,76.818474 
	C80.983917,76.212311 81.107155,75.606155 81.230392,75.000000 
	C97.153595,75.000000 113.076797,75.000000 129.000000,75.000000 
	C129.000000,75.750000 129.000000,76.500000 128.553482,77.625031 
	C125.861221,78.000069 123.615486,78.000069 121.017601,78.000069 
	C121.139763,79.956543 121.225037,81.322144 121.329803,83.000000 
	C124.125389,83.000000 126.562698,83.000000 129.000000,83.000000 
M115.564804,82.984299 
	C116.582489,81.735817 117.600166,80.487328 119.396446,78.283661 
	C116.153748,78.283661 114.772469,78.283661 112.154243,78.283661 
	C113.261284,80.306679 113.984131,81.627617 115.564804,82.984299 
z"/>
<path fill="#3291A7" opacity="1.000000" stroke="none" 
	d="
M129.000000,74.583336 
	C113.076797,75.000000 97.153595,75.000000 81.230392,75.000000 
	C81.107155,75.606155 80.983917,76.212311 80.860672,76.818474 
	C82.171326,77.211914 83.477791,77.928940 84.793312,77.945953 
	C92.930336,78.051125 101.069405,77.998810 109.601051,77.998810 
	C109.752708,79.599632 109.883118,80.976120 110.068741,82.935394 
	C100.315598,82.935394 90.917099,82.935394 79.877602,82.935394 
	C81.258133,87.899277 81.844994,92.215698 83.621681,95.968880 
	C88.271202,105.790802 85.188988,119.060219 76.897369,124.068184 
	C67.082268,129.996307 52.405121,127.932869 46.958733,117.450104 
	C42.957291,109.748459 42.966152,102.217369 47.102757,94.501106 
	C48.834904,91.270020 49.771854,87.612633 51.500851,83.000725 
	C33.767193,83.000725 17.852255,83.000725 1.468657,83.000366 
	C1.000000,81.611107 1.000000,80.222221 1.000000,78.416664 
	C17.133455,78.000000 33.266911,78.000000 48.881203,78.000000 
	C51.601990,75.611420 47.359783,70.128410 53.982643,69.913918 
	C53.982643,77.852646 54.082527,85.478897 53.882603,93.097267 
	C53.849949,94.341599 52.571907,95.607140 51.736794,96.767372 
	C47.710911,102.360588 48.060509,110.994904 52.608498,117.073303 
	C55.786598,121.320816 63.412506,123.752083 68.488190,122.136009 
	C77.025208,119.417862 81.072739,114.544518 80.927727,106.607658 
	C80.881119,104.056908 80.823570,100.774284 79.333801,99.123619 
	C75.368568,94.730125 76.034836,89.715576 76.005905,84.676689 
	C75.979233,80.029434 76.000237,75.381905 76.000237,70.000641 
	C93.551643,70.000641 110.807167,70.000641 128.531342,70.000320 
	C129.000000,71.388893 129.000000,72.777779 129.000000,74.583336 
z"/>
<path fill="#3291A7" opacity="1.000000" stroke="none" 
	d="
M1.000000,70.416664 
	C16.094187,70.000000 31.188372,70.000000 46.660496,70.000000 
	C46.771767,71.653854 46.864185,73.027519 46.996914,75.000290 
	C31.739714,75.000290 16.838514,75.000290 1.468657,75.000145 
	C1.000000,73.611107 1.000000,72.222221 1.000000,70.416664 
z"/>
<path fill="#3291A7" opacity="1.000000" stroke="none" 
	d="
M129.000000,82.583336 
	C126.562698,83.000000 124.125389,83.000000 121.329803,83.000000 
	C121.225037,81.322144 121.139763,79.956543 121.017601,78.000069 
	C123.615486,78.000069 125.861221,78.000069 128.553482,78.000031 
	C129.000000,79.388893 129.000000,80.777779 129.000000,82.583336 
z"/>
<path fill="#3291A7" opacity="1.000000" stroke="none" 
	d="
M57.991917,118.428505 
	C49.901188,112.613434 49.236759,102.346481 56.173641,95.740959 
	C57.000988,94.953133 57.004025,93.026360 56.961872,91.640511 
	C56.487728,76.051643 58.465580,60.713093 63.216923,45.943775 
	C68.303047,30.133776 76.533989,15.975533 88.936600,4.574408 
	C91.706772,2.027924 91.824989,2.103546 95.376839,6.097895 
	C90.177704,16.186792 84.188698,25.686649 80.308807,35.981388 
	C76.959656,44.867905 75.579025,54.593357 74.141991,64.071320 
	C73.082123,71.061653 73.228607,78.247902 73.035133,85.352234 
	C72.895348,90.485458 72.595238,95.378944 76.734985,99.899132 
	C80.112648,103.587181 78.486275,111.429939 76.004288,114.523018 
	C72.053635,119.446350 67.080757,120.975891 61.067017,119.586624 
	C60.118168,119.367424 59.203320,119.001022 57.991917,118.428505 
M64.981613,59.408619 
	C63.987728,70.868118 63.085159,82.336945 61.916924,93.778648 
	C61.703209,95.871788 60.847885,98.218597 59.525120,99.815979 
	C56.306679,103.702576 55.954353,109.399437 59.236004,112.708939 
	C62.497406,115.998016 67.628693,115.838951 71.163940,112.339165 
	C75.010124,108.531563 74.698608,104.791466 70.902184,100.241196 
	C69.382492,98.419739 68.143570,95.705421 68.139496,93.395111 
	C68.124046,84.632637 68.426483,75.851280 69.079056,67.112000 
	C69.564995,60.604321 70.389656,54.067623 71.765594,47.695454 
	C73.244415,40.846817 75.543091,34.175213 77.484032,27.426359 
	C71.447670,37.062447 67.265450,47.424583 64.981613,59.408619 
z"/>
<path fill="#3291A7" opacity="1.000000" stroke="none" 
	d="
M37.941681,56.598938 
	C34.968327,48.725933 29.107021,44.112553 21.418653,40.865021 
	C25.744953,38.158760 29.690462,36.511116 32.476704,33.710255 
	C35.107586,31.065571 36.519409,27.208183 39.291290,22.478527 
	C41.730320,32.451347 48.073784,37.134460 56.228653,40.447754 
	C55.016701,41.194290 54.241203,41.765980 53.389496,42.181442 
	C47.626129,44.992825 43.018837,48.919949 40.435818,54.986145 
	C40.085350,55.809219 38.896957,56.275497 37.941681,56.598938 
M32.340107,40.468975 
	C34.530346,42.724182 36.720585,44.979393 38.551704,46.864826 
	C41.171684,44.449348 43.354485,42.436928 45.257046,40.682869 
	C43.032944,38.757797 40.639286,36.685966 38.804520,35.097889 
	C36.969898,36.650051 34.949265,38.359581 32.340107,40.468975 
z"/>
<path fill="#3292A6" opacity="1.000000" stroke="none" 
	d="
M104.572174,46.499321 
	C106.127533,51.620838 100.763916,51.282001 99.312531,53.971096 
	C97.246567,52.642448 93.413147,51.221054 93.476997,50.004158 
	C93.616455,47.346436 95.193344,44.181648 97.214600,42.383839 
	C98.925537,40.862045 101.228043,42.021740 101.296669,45.150242 
	C101.304680,45.515316 103.249184,45.837910 104.572174,46.499321 
z"/>
<path fill="#3292A6" opacity="1.000000" stroke="none" 
	d="
M21.469656,29.524143 
	C20.408602,25.601185 21.728821,24.214161 25.517618,25.349777 
	C26.778692,28.884504 25.907282,30.650112 21.469656,29.524143 
z"/>
<path fill="#3291A7" opacity="1.000000" stroke="none" 
	d="
M21.107887,50.219765 
	C22.530193,49.476463 23.883228,49.159016 25.687822,48.735630 
	C25.786680,50.648441 25.858431,52.036732 25.947479,53.759686 
	C24.685875,53.843674 23.368544,54.321056 22.873480,53.878540 
	C21.998053,53.096027 21.623058,51.753666 21.107887,50.219765 
z"/>
<path fill="#3291A7" opacity="1.000000" stroke="none" 
	d="
M115.135895,82.966431 
	C113.984131,81.627617 113.261284,80.306679 112.154243,78.283661 
	C114.772469,78.283661 116.153748,78.283661 119.396446,78.283661 
	C117.600166,80.487328 116.582489,81.735817 115.135895,82.966431 
z"/>
<path fill="#ffff" opacity="1.000000" stroke="none" 
	d="
M64.990707,58.979073 
	C67.265450,47.424583 71.447670,37.062447 77.484032,27.426359 
	C75.543091,34.175213 73.244415,40.846817 71.765594,47.695454 
	C70.389656,54.067623 69.564995,60.604321 69.079056,67.112000 
	C68.426483,75.851280 68.124046,84.632637 68.139496,93.395111 
	C68.143570,95.705421 69.382492,98.419739 70.902184,100.241196 
	C74.698608,104.791466 75.010124,108.531563 71.163940,112.339165 
	C67.628693,115.838951 62.497406,115.998016 59.236004,112.708939 
	C55.954353,109.399437 56.306679,103.702576 59.525120,99.815979 
	C60.847885,98.218597 61.703209,95.871788 61.916924,93.778648 
	C63.085159,82.336945 63.987728,70.868118 64.990707,58.979073 
z"/>
<path fill="#ffff" opacity="1.000000" stroke="none" 
	d="
M32.634369,40.269043 
	C34.949265,38.359581 36.969898,36.650051 38.804520,35.097889 
	C40.639286,36.685966 43.032944,38.757797 45.257046,40.682869 
	C43.354485,42.436928 41.171684,44.449348 38.551704,46.864826 
	C36.720585,44.979393 34.530346,42.724182 32.634369,40.269043 
z"/>
</svg>