<svg xmlns="http://www.w3.org/2000/svg" id="Layer_1" data-name="Layer 1" viewBox="0 0 512 512" width="512" height="512"><path d="M178,282.17v68.71a68.5,68.5,0,1,0,137,0V282.17a68.5,68.5,0,1,0-137,0Zm68.465-56.51A56.536,56.536,0,0,1,303,282.17v68.71a56.5,56.5,0,1,1-113,0V282.17A56.532,56.532,0,0,1,246.465,225.66Z"></path><path d="M246.41,362.1a32.712,32.712,0,0,0,32.67-32.68c0-8.025-2.386-13.714-5.268-19.8-4.515-9.524-21.7-34.926-22.434-36A5.976,5.976,0,0,0,246.413,271h0a5.983,5.983,0,0,0-4.966,2.612c-.732,1.08-17.994,26.558-22.456,36.039-2.544,5.422-5.258,11.864-5.258,19.774A32.712,32.712,0,0,0,246.41,362.1Zm-16.561-47.355c2.523-5.362,10.614-17.975,16.556-26.977,5.469,8.288,13.849,21.266,16.563,26.99,2.786,5.883,4.112,9.577,4.112,14.662a20.675,20.675,0,1,1-41.35,0C225.73,323.974,227.68,319.368,229.849,314.745Z"></path><path d="M367.458,21.7A36.637,36.637,0,0,0,341.62,11H170.41a22.023,22.023,0,0,0-21.983,23.063A22.206,22.206,0,0,0,170.86,55H222v52H182.18a6.106,6.106,0,0,0-6.18,5.94v35.905a104.989,104.989,0,0,0-78.592,40.679A108.075,108.075,0,0,0,76.933,279.41l46.493,212.854A6.037,6.037,0,0,0,129.31,497H363.5a6.014,6.014,0,0,0,5.862-4.734l46.48-212.849A108.031,108.031,0,0,0,395.5,189.524,106.5,106.5,0,0,0,317,148.845v-35.9c0-3.314-3.057-5.94-6.37-5.94H270V55h54.67a32.776,32.776,0,0,1,23.286,9.636l52.031,51.829a22.4,22.4,0,0,0,31.119-.188,22.005,22.005,0,0,0-.007-31.054ZM358.669,485H134.142L129.4,463H363.413ZM305,119v30H226.7a6,6,0,0,0,0,12l88.121-.093a93.384,93.384,0,0,1,71.04,36.069,95.8,95.8,0,0,1,18.262,79.782L366.033,451H126.78L88.7,276.725a95.991,95.991,0,0,1,18.251-79.873A93.283,93.283,0,0,1,178,160.876c.951-.028,1.893.124,2.853.124h20.386a6,6,0,0,0,0-12H188V119Zm-71-12V55h24v52Zm188.624.791a9.944,9.944,0,0,1-7.084,2.869,9.844,9.844,0,0,1-7.076-2.681L356.427,56.136A44.7,44.7,0,0,0,324.67,43H170.86c-5.51,0-10.2-4.254-10.446-9.495A10.014,10.014,0,0,1,170.41,23H341.62a24.679,24.679,0,0,1,17.371,7.2l63.623,63.507A9.988,9.988,0,0,1,422.624,107.791Z"></path><path d="M149.732,182.821a108.563,108.563,0,0,0-10.544,8.173,6,6,0,0,0,7.924,9.012,96.607,96.607,0,0,1,9.375-7.267,6,6,0,1,0-6.755-9.918Z"></path><path d="M135.6,202.622a6,6,0,0,0-8.445.831,109.293,109.293,0,0,0-22.382,46.568,6,6,0,1,0,11.741,2.478,97.24,97.24,0,0,1,19.917-41.433A6,6,0,0,0,135.6,202.622Z"></path></svg>