<svg xmlns="http://www.w3.org/2000/svg" height="423pt" viewBox="-41 0 423 423.24585" width="423pt"><path d="m319.335938 182.992188c-16.492188-9.148438-37.785157-6.921876-58.386719 6.011718l-15.066407 9.46875v-115.09375c0-20.695312-14.691406-38.707031-34.171874-41.878906-6.988282-1.121094-13.988282-.496094-20.441407 1.800781v-.882812c0-20.691407-14.691406-38.707031-34.171875-41.878907-12.015625-1.933593-24.132812 1.386719-33.308594 9.199219-9.171874 7.800781-14.441406 19.171875-14.441406 31.214844v2.347656c-6.464844-2.296875-13.476562-2.933593-20.4375-1.800781-19.480468 3.171875-34.175781 21.183594-34.175781 41.878906v.878906c-6.464844-2.292968-13.464844-2.933593-20.4375-1.800781-19.480469 3.175781-34.175781 21.1875-34.175781 41.882813v184.1875c0 2.304687.589844 4.570312 1.707031 6.597656l25.601563 46.375v48.09375c0 7.546875 6.105468 13.652344 13.652343 13.652344s13.652344-6.105469 13.652344-13.652344v-51.613281c0-2.308594-.585937-4.574219-1.703125-6.601563l-25.601562-46.371094v-180.667968c0-7.347656 4.945312-13.894532 11.265624-14.921875 4.109376-.667969 8.121094.414062 11.226563 3.039062 3.054687 2.601563 4.8125 6.402344 4.8125 10.414063v109.226562c0 7.546875 6.109375 13.65625 13.65625 13.65625s13.652344-6.109375 13.652344-13.65625v-148.71875c0-7.347656 4.945312-13.894531 11.265625-14.921875 4.109375-.691406 8.121094.414063 11.226562 3.042969 3.054688 2.597656 4.8125 6.398438 4.8125 10.414062v136.53125c0 7.546876 6.109375 13.652344 13.65625 13.652344s13.652344-6.105468 13.652344-13.652344v-177.492187c0-4.015625 1.757812-7.8125 4.8125-10.414063 3.105469-2.628906 7.078125-3.761718 11.226562-3.039062 6.320313 1.027344 11.269532 7.574219 11.269532 14.917969v176.027343c0 7.546876 6.105468 13.652344 13.652344 13.652344 7.546874 0 13.652343-6.105468 13.652343-13.652344v-136.53125c0-4.015624 1.757813-7.816406 4.8125-10.414062 3.105469-2.640625 7.078125-3.746094 11.226563-3.042969 6.320312 1.027344 11.269531 7.574219 11.269531 14.921875v139.800782c0 4.972656 2.691406 9.546874 7.050781 11.945312 4.347656 2.425781 9.652344 2.253906 13.867188-.386719l35.988281-22.613281c11.757813-7.386719 23.238281-9.347656 30.640625-5.226562 3.71875 2.054687 6.238281 5.613281 7.355469 10.292968l-4.851563 3.921875c-57.226562 46.226563-90.050781 114.917969-90.050781 188.480469 0 7.546875 6.105469 13.652344 13.652344 13.652344s13.652343-6.105469 13.652343-13.652344c0-65.269531 29.121094-126.214844 79.894532-167.226562l10.597656-8.5625c3.214844-2.597657 5.082031-6.503907 5.082031-10.625 0-17.773438-8.066406-32.414063-22.121093-40.1875zm0 0"></path><path d="m183.441406 423.246094h-101.398437c-7.546875 0-13.652344-6.105469-13.652344-13.652344s6.105469-13.65625 13.652344-13.65625h101.398437c7.546875 0 13.65625 6.109375 13.65625 13.65625s-6.109375 13.652344-13.65625 13.652344zm0 0"></path><path d="m82.042969 368.632812c-7.546875 0-13.652344-6.105468-13.652344-13.652343v-13.65625c0-7.546875 6.105469-13.652344 13.652344-13.652344h27.304687v-13.652344c0-4.386719 2.109375-8.507812 5.667969-11.078125 3.574219-2.5625 8.132813-3.296875 12.308594-1.867187l22.984375 7.652343v-8.359374c0-5.175782 2.921875-9.894532 7.546875-12.214844l54.613281-27.304688c6.734375-3.347656 14.933594-.640625 18.320312 6.105469 3.375 6.746094.640626 14.945313-6.105468 18.320313l-47.066406 23.53125v18.867187c0 4.386719-2.105469 8.507813-5.667969 11.082031-3.574219 2.558594-8.144531 3.265625-12.304688 1.867188l-22.988281-7.65625v8.359375c0 7.546875-6.105469 13.652343-13.652344 13.652343h-27.308594c0 7.546876-6.105468 13.65625-13.652343 13.65625zm0 0" fill="#f70f0f"></path></svg>