<svg xmlns="http://www.w3.org/2000/svg" xmlns:xlink="http://www.w3.org/1999/xlink" id="Layer_1_1_" x="0px" y="0px" viewBox="0 0 64 64" style="enable-background:new 0 0 64 64;" xml:space="preserve" width="512" height="512">
<g>
	<path d="M46,19c-4.68,0-8.923,1.901-12,4.971v-9.67c0-1.063-0.33-2.081-0.956-2.94l-6.64-9.131C25.844,1.46,24.94,1,23.987,1   c-1.524,0-2.771,1.151-2.951,2.628c-0.008-0.003-0.014-0.007-0.022-0.009l-7.326-2.443C13.339,1.059,12.975,1,12.606,1h-0.182   C10.536,1,9,2.536,9,4.425c0,1.352,0.798,2.58,2.033,3.129l6.501,2.89c0.521,0.23,0.962,0.603,1.277,1.076l2.685,4.027   C21.826,16.041,22,16.616,22,17.211v2.486l-1.277-1.916C19.979,16.666,18.735,16,17.395,16H7.5c-2.757,0-5,2.243-5,5   c0,0.021,0,0.042,0.001,0.063C1.639,21.285,1,22.069,1,23v10.121c0,0.718,0.159,1.442,0.46,2.096l5.05,10.941   c0.421,0.911,0.951,1.77,1.576,2.55l0.635,0.794C9.981,51.077,10.752,53,10.947,55H9v8h22v-8h-2v-0.72   c0-1.381,0.27-2.728,0.8-4.001l2.039-4.893C34.887,49.97,40.094,53,46,53c9.374,0,17-7.626,17-17S55.374,19,46,19z M29,61H11v-4h18   V61z M27.954,49.51C27.321,51.028,27,52.634,27,54.28V55H12.957c-0.201-2.454-1.132-4.819-2.675-6.747l-0.635-0.794   c-0.524-0.655-0.969-1.375-1.321-2.139l-5.05-10.941C3.096,33.987,3,33.552,3,33.121V23c2.206,0,4,1.794,4,4v4   c0,0.939,0.448,1.837,1.2,2.399l1.999,1.5C11.146,35.609,12.317,36,13.5,36c3.032,0,5.5-2.468,5.5-5.5v-4   c0-3.032-2.468-5.5-5.5-5.5h-9c0-1.654,1.346-3,3-3h9.895c0.67,0,1.292,0.333,1.664,0.891l2.604,3.907   C21.884,23.129,22,23.513,22,23.908V29h2v-5.092v-6.697c0-0.991-0.29-1.95-0.84-2.773l-2.685-4.027   c-0.526-0.789-1.263-1.41-2.13-1.795l-6.5-2.89C11.332,5.498,11,4.987,11,4.425C11,3.639,11.639,3,12.425,3h0.182   c0.153,0,0.306,0.024,0.45,0.072l7.325,2.442c0.628,0.209,1.176,0.627,1.544,1.177l3.242,4.863l0,0l1.328,1.992   C26.826,14.041,27,14.616,27,15.211V29h2V15.211c0-0.991-0.29-1.95-0.84-2.773l-4.566-6.852c-0.003-0.005-0.008-0.009-0.012-0.014   l-0.416-0.624C23.058,4.783,23,4.594,23,4.398V3.987C23,3.443,23.443,3,23.987,3c0.315,0,0.614,0.152,0.8,0.406l6.64,9.13   C31.802,13.053,32,13.662,32,14.301v12.077c-1.888,2.739-3,6.052-3,9.622c0,2.559,0.585,4.978,1.601,7.157L27.954,49.51z M7.469,23   H13.5c1.93,0,3.5,1.57,3.5,3.5v4c0,1.93-1.57,3.5-3.5,3.5c-0.753,0-1.498-0.249-2.101-0.7l-2-1.5C9.149,31.612,9,31.313,9,31v-4   C9,25.465,8.42,24.062,7.469,23z M46,51c-8.271,0-15-6.729-15-15s6.729-15,15-15s15,6.729,15,15S54.271,51,46,51z"></path>
	<polygon points="52.293,29.293 42,39.586 39.707,37.293 38.293,38.707 42,42.414 53.707,30.707  "></polygon>
	<path d="M46,47c-6.065,0-11-4.935-11-11c0-2.595,0.925-5.115,2.604-7.098l-1.525-1.293C34.094,29.953,33,32.933,33,36   c0,7.168,5.832,13,13,13c3.067,0,6.047-1.094,8.391-3.079l-1.293-1.525C51.115,46.075,48.595,47,46,47z"></path>
	<path d="M46,23c-3.067,0-6.047,1.094-8.391,3.079l1.293,1.525C40.885,25.925,43.405,25,46,25c6.065,0,11,4.935,11,11   c0,2.595-0.925,5.115-2.604,7.098l1.525,1.293C57.906,42.047,59,39.067,59,36C59,28.832,53.168,23,46,23z"></path>
</g>
</svg>