<svg xmlns="http://www.w3.org/2000/svg" height="512" viewBox="0 0 56 60" width="512"><g id="Page-1" fill="none" fill-rule="evenodd"><g id="001---Diving-Helmet" fill="rgb(0,0,0)" fill-rule="nonzero"><path id="Shape" d="m5 36h1.836c1.73247925 4.04769 4.5841524 7.5168788 8.22 10h-3.056c-1.1045695 0-2 .8954305-2 2v.08c-3.44092669.4966526-5.99592548 3.4434178-6 6.92v4c0 .5522847.44771525 1 1 1h46c.5522847 0 1-.4477153 1-1v-4c-.0040745-3.4765822-2.5590733-6.4233474-6-6.92v-.08c0-1.1045695-.8954305-2-2-2h-3.056c3.6358476-2.4831212 6.4875207-5.95231 8.22-10h1.836c2.7600532-.0033061 4.9966939-2.2399468 5-5v-8c-.0033061-2.7600532-2.2399468-4.9966939-5-5h-1.836c-2.7745158-6.4842089-8.3592757-11.3456458-15.164-13.2v-.8c0-2.209139-1.790861-4-4-4h-4c-2.209139 0-4 1.790861-4 4v.8c-6.8047243 1.8543542-12.38948416 6.7157911-15.164 13.2h-1.836c-2.76005315.0033061-4.99669388 2.2399468-5 5v8c.00330612 2.7600532 2.23994685 4.9966939 5 5zm1 22v-3c.00271358-2.3769086 1.67617107-4.4243347 4.005-4.9.0325881 3.1166648 1.5196831 6.0390655 4.02 7.9zm40-7.9c2.3268415.4777312 3.997774 2.5246235 4 4.9v3h-8.025c2.5022025-1.8598914 3.9912313-4.7824572 4.025-7.9zm-2-.1c-.0049599 4.4162219-3.5837781 7.9950401-8 8h-16c-4.4162219-.0049599-7.9950401-3.5837781-8-8v-2h2v2.121c-.0222226 1.1448495.3053589 2.2692321.939 3.223 1.1489685 1.6621639 3.0403774 2.6547705 5.061 2.656h16c2.0206226-.0012295 3.9120315-.9938361 5.061-2.656.6336411-.9537679.9612226-2.0781505.939-3.223v-2.121h2zm-4-2v2.121c.0177959.7380237-.1855891 1.4644982-.584 2.086-.7819311 1.1146672-2.0544601 1.7825959-3.416 1.793h-16c-1.3615399-.0104041-2.6340689-.6783328-3.416-1.793-.3984109-.6215018-.6017959-1.3479763-.584-2.086v-2.121h2.637c5.957179 2.6667231 12.768821 2.6667231 18.726 0zm11-28c1.6568542 0 3 1.3431458 3 3v8c0 1.6568542-1.3431458 3-3 3h-1.093c1.4573247-4.5528919 1.4573247-9.4471081 0-14zm-27-16c0-1.1045695.8954305-2 2-2h4c1.1045695 0 2 .8954305 2 2v.355c-2.645663-.47332722-5.354337-.47332722-8 0zm4 2c11.5979797 0 21 9.4020203 21 21s-9.4020203 21-21 21-21-9.4020203-21-21c.01267598-11.5927251 9.4072749-20.98732402 21-21zm-26 17c0-1.6568542 1.34314575-3 3-3h1.093c-1.45732471 4.5528919-1.45732471 9.4471081 0 14h-1.093c-1.65685425 0-3-1.3431458-3-3z"></path><path id="Shape" d="m28 43c8.836556 0 16-7.163444 16-16s-7.163444-16-16-16-16 7.163444-16 16c.0104696 8.8322157 7.1677843 15.9895304 16 16zm0-30c7.7319865 0 14 6.2680135 14 14s-6.2680135 14-14 14-14-6.2680135-14-14c.0082673-7.7285595 6.2714405-13.9917327 14-14z"></path><path id="Shape" d="m28 39c6.627417 0 12-5.372583 12-12s-5.372583-12-12-12-12 5.372583-12 12c.0071648 6.624447 5.375553 11.9928352 12 12zm0-22c5.5228475 0 10 4.4771525 10 10s-4.4771525 10-10 10-10-4.4771525-10-10c.0060624-5.5203344 4.4796656-9.9939376 10-10z"></path><circle id="Oval" cx="28" cy="9" r="1"></circle><path id="Shape" d="m15.979 14.979c.2860606-.2859742.3716717-.7161158.2169084-1.0898272-.1547633-.3737115-.5194187-.6173863-.9239084-.6173863s-.7691451.2436748-.9239084.6173863c-.1547633.3737114-.0691522.803853.2169084 1.0898272.3904999.3903819 1.0235001.3903819 1.414 0z"></path><circle id="Oval" cx="10" cy="27" r="1"></circle><path id="Shape" d="m14.565 39.021c-.2860606.2859742-.3716717.7161158-.2169084 1.0898272.1547633.3737115.5194187.6173863.9239084.6173863s.7691451-.2436748.9239084-.6173863c.1547633-.3737114.0691522-.803853-.2169084-1.0898272-.3904999-.3903819-1.0235001-.3903819-1.414 0z"></path><circle id="Oval" cx="28" cy="45" r="1"></circle><path id="Shape" d="m40.021 39.021c-.2860606.2859742-.3716717.7161158-.2169084 1.0898272.1547633.3737115.5194187.6173863.9239084.6173863s.7691451-.2436748.9239084-.6173863c.1547633-.3737114.0691522-.803853-.2169084-1.0898272-.3904999-.3903819-1.0235001-.3903819-1.414 0z"></path><circle id="Oval" cx="46" cy="27" r="1"></circle><path id="Shape" d="m41.435 14.979c.2860606-.2859742.3716717-.7161158.2169084-1.0898272-.1547633-.3737115-.5194187-.6173863-.9239084-.6173863s-.7691451.2436748-.9239084.6173863c-.1547633.3737114-.0691522.803853.2169084 1.0898272.3904999.3903819 1.0235001.3903819 1.414 0z"></path><path id="Shape" d="m22 28c.5522847 0 1-.4477153 1-1 .0033061-2.7600532 2.2399468-4.9966939 5-5 .5522847 0 1-.4477153 1-1s-.4477153-1-1-1c-3.8641657.0044086-6.9955914 3.1358343-7 7 0 .5522847.4477153 1 1 1z"></path><path id="Shape" d="m4 14c1.65685425 0 3-1.3431458 3-3 0-1.65685425-1.34314575-3-3-3s-3 1.34314575-3 3c0 1.6568542 1.34314575 3 3 3zm0-4c.55228475 0 1 .4477153 1 1s-.44771525 1-1 1-1-.4477153-1-1 .44771525-1 1-1z"></path><path id="Shape" d="m10 8c2.209139 0 4-1.790861 4-4s-1.790861-4-4-4-4 1.790861-4 4 1.790861 4 4 4zm0-6c1.1045695 0 2 .8954305 2 2s-.8954305 2-2 2-2-.8954305-2-2 .8954305-2 2-2z"></path><circle id="Oval" cx="3" cy="5" r="1"></circle><path id="Shape" d="m49 11c0 1.6568542 1.3431458 3 3 3s3-1.3431458 3-3c0-1.65685425-1.3431458-3-3-3s-3 1.34314575-3 3zm3-1c.5522847 0 1 .4477153 1 1s-.4477153 1-1 1-1-.4477153-1-1 .4477153-1 1-1z"></path><path id="Shape" d="m46 8c2.209139 0 4-1.790861 4-4s-1.790861-4-4-4-4 1.790861-4 4 1.790861 4 4 4zm0-6c1.1045695 0 2 .8954305 2 2s-.8954305 2-2 2-2-.8954305-2-2 .8954305-2 2-2z"></path><circle id="Oval" cx="53" cy="5" r="1"></circle></g></g></svg>