<svg xmlns="http://www.w3.org/2000/svg" height="512pt" viewBox="0 0 512 512.0333" width="512pt"><path d="m102.417969 51.234375c14.136719 0 25.597656-11.460937 25.597656-25.601563 0-14.136718-11.460937-25.5976558-25.597656-25.5976558-14.140625 0-25.601563 11.4609378-25.601563 25.5976558 0 14.140626 11.460938 25.601563 25.601563 25.601563zm0-34.132813c4.710937 0 8.53125 3.820313 8.53125 8.53125 0 4.714844-3.820313 8.535157-8.53125 8.535157-4.714844 0-8.535157-3.820313-8.535157-8.535157 0-4.710937 3.820313-8.53125 8.535157-8.53125zm0 0"></path><path d="m256.015625 401.101562c84.832031 0 153.601563-68.769531 153.601563-153.601562s-68.769532-153.601562-153.601563-153.601562c-84.828125 0-153.597656 68.769531-153.597656 153.601562.097656 84.789062 68.808593 153.5 153.597656 153.601562zm0-290.136718c75.40625 0 136.535156 61.128906 136.535156 136.535156s-61.128906 136.535156-136.535156 136.535156c-75.402344 0-136.53125-61.128906-136.53125-136.535156.089844-75.367188 61.164063-136.445312 136.53125-136.535156zm0 0"></path><path d="m153.617188 247.5c-.003907-6.933594.695312-13.847656 2.082031-20.640625 1.289062-6.460937 3.234375-12.777344 5.800781-18.84375 1.304688-2.828125.960938-6.136719-.886719-8.640625-1.851562-2.503906-4.917969-3.800781-8-3.382812-3.085937.414062-5.699219 2.472656-6.820312 5.375-3.011719 7.109374-5.300781 14.503906-6.828125 22.070312-1.613282 7.917969-2.421875 15.980469-2.414063 24.0625 0 4.710938 3.820313 8.535156 8.53125 8.535156 4.714844 0 8.535157-3.824218 8.535157-8.535156zm0 0"></path><path d="m177.578125 177.59375c2.261719 0 4.433594-.898438 6.03125-2.5 14.15625-14.199219 32.179687-23.914062 51.824219-27.929688 4.226562-.914062 8.5-1.601562 12.800781-2.0625 4.625-.492187 8.007813-4.597656 7.601563-9.234374-.410157-4.632813-4.453126-8.089844-9.09375-7.765626-4.960938.511719-9.890626 1.296876-14.765626 2.355469-15.285156 3.136719-29.804687 9.25-42.734374 17.988281-6.351563 4.285157-12.28125 9.164063-17.707032 14.574219-2.4375 2.441407-3.167968 6.109375-1.847656 9.296875 1.320312 3.191406 4.429688 5.269532 7.882812 5.269532zm0 0"></path><path d="m237.132812 164.265625c-4.933593 1-9.742187 2.546875-14.335937 4.609375-10.132813 4.289062-19.34375 10.5-27.121094 18.285156-3.949219 3.953125-7.523437 8.265625-10.671875 12.886719-2.644531 3.902344-1.625 9.207031 2.277344 11.851563 3.902344 2.644531 9.207031 1.625 11.851562-2.277344 2.546876-3.722656 5.433594-7.203125 8.621094-10.394532 6.21875-6.230468 13.582032-11.199218 21.691406-14.632812 3.550782-1.617188 7.269532-2.828125 11.09375-3.609375 3.046876-.546875 5.5625-2.703125 6.566407-5.632813 1.003906-2.933593.339843-6.175781-1.730469-8.476562-2.074219-2.304688-5.230469-3.300781-8.25-2.609375zm0 0"></path><path d="m193.109375 274.261719c-1.742187-4.195313-3.074219-8.546875-3.96875-12.996094-.925781-4.53125-1.390625-9.140625-1.390625-13.765625.15625-5.164062.777344-10.304688 1.851562-15.359375.816407-4.5625-2.152343-8.941406-6.691406-9.867187-4.539062-.925782-8.988281 1.9375-10.023437 6.453124-1.308594 6.175782-2.046875 12.460938-2.203125 18.773438-.007813 5.773438.5625 11.535156 1.707031 17.195312 1.164063 5.65625 2.878906 11.183594 5.121094 16.503907 1.773437 3.789062 4.265625 9.148437 9.324219 9.148437 1.292968-.023437 2.566406-.316406 3.738281-.855468l-3.414063-7.9375 7.621094-3.804688c-.144531-.265625-.546875-1.101562-1.671875-3.488281zm0 0"></path><path d="m416.117188 388.300781c46.214843-52.417969 63.792968-124.164062 47.039062-192.003906-16.757812-67.84375-65.710938-123.15625-131.015625-148.03125-.101563-.273437-.082031-.566406-.210937-.855469-14.167969-29.011718-43.628907-47.410156-75.914063-47.410156s-61.746094 18.398438-75.910156 47.410156c-.128907.265625-.113281.554688-.214844.855469-33.316406 12.796875-62.902344 33.726563-86.066406 60.882813-.589844-35.726563-18.414063-57.914063-46.875-57.914063-18.917969 0-29.867188-6.980469-29.867188-42.667969 0-4.710937-3.820312-8.5312498-8.53125-8.5312498-4.714843 0-8.535156 3.8203128-8.535156 8.5312498 0 25.644532 4.863281 59.734375 46.933594 59.734375 25.984375 0 29.867187 26.734375 29.867187 42.664063v17.070312c.015625 1.023438.222656 2.039063.605469 2.992188-52.472656 80.136718-44.902344 185.464844 18.492187 257.273437-38.972656 13.652344-95.898437 50.097657-95.898437 115.199219 0 4.710938 3.820313 8.535156 8.535156 8.535156h494.933594c4.710937 0 8.53125-3.824218 8.53125-8.535156 0-65.101562-56.925781-101.546875-95.898437-115.199219zm-160.101563-371.199219c19.476563-.003906 37.988281 8.46875 50.714844 23.210938-33.3125-8.195312-68.113281-8.195312-101.425781 0 12.726562-14.742188 31.238281-23.214844 50.710937-23.210938zm0 34.132813c108.394531 0 196.269531 87.871094 196.269531 196.265625s-87.875 196.265625-196.269531 196.265625-196.265625-87.871094-196.265625-196.265625c.121094-108.34375 87.921875-196.144531 196.265625-196.265625zm-146.933594 350.71875c13.300781 12.679687 28.171875 23.597656 44.253907 32.488281l-22.699219 60.523438h-113.152344c5.1875-54.40625 59.289063-83.769532 91.597656-93.011719zm59.621094 40.105469c24.824219 11.195312 51.570313 17.496094 78.78125 18.5625v34.34375h-98.621094zm95.847656 52.90625v-34.34375c27.207031-1.066406 53.957031-7.367188 78.777344-18.5625l19.839844 52.90625zm116.847657 0-22.699219-60.535156c16.078125-8.886719 30.953125-19.800782 44.253906-32.476563 32.304687 9.25 86.40625 38.613281 91.597656 93.011719zm0 0"></path><path d="m178.738281 339.394531c3.625 3.015625 9.007813 2.523438 12.023438-1.101562 3.015625-3.621094 2.523437-9.003907-1.101563-12.023438-14.886718-12.269531-25.773437-28.703125-31.273437-47.195312-1.398438-4.5-6.183594-7.015625-10.683594-5.617188-4.5 1.402344-7.015625 6.183594-5.613281 10.683594 6.449218 21.652344 19.210937 40.890625 36.648437 55.253906zm0 0"></path><path d="m153.617188 8.566406c0 4.714844-3.820313 8.535156-8.535157 8.535156-4.710937 0-8.53125-3.820312-8.53125-8.535156 0-4.710937 3.820313-8.5312498 8.53125-8.5312498 4.714844 0 8.535157 3.8203128 8.535157 8.5312498zm0 0"></path><path d="m51.214844 93.898438c0 4.714843-3.820313 8.535156-8.53125 8.535156-4.714844 0-8.535156-3.820313-8.535156-8.535156 0-4.710938 3.820312-8.53125 8.535156-8.53125 4.710937 0 8.53125 3.820312 8.53125 8.53125zm0 0"></path></svg>