<svg xmlns="http://www.w3.org/2000/svg" viewBox="0 0 98 98"><path d="M19.6519 65.9551v.0078l2-.0078c0-.457.1445-.8916.4189-1.2568l-1.5996-1.2002C19.9351 64.2124 19.6519 65.062 19.6519 65.9551zM22.6079 62.0181l.5566 1.9209c.1885-.0547.3857-.0825.585-.0825h1.125v-2h-1.125C23.3618 61.8565 22.9771 61.9107 22.6079 62.0181z"></path><rect width="2" height="2" x="19.652" y="67.963"></rect><rect width="1.845" height="2" x="26.875" y="61.856"></rect><rect width="2" height="3.209" x="29.419" y="73.418"></rect><rect width="2" height="3.209" x="69.769" y="73.418"></rect><rect width="2" height="2" x="82.71" y="28.617"></rect><rect width="2" height="2" x="78.71" y="28.617"></rect><rect width="2" height="2" x="86.71" y="28.617"></rect><rect width="2" height="2" x="78.576" y="23.027" transform="rotate(60.007 79.573 24.026)"></rect><rect width="2" height="2" x="85.503" y="19.027" transform="rotate(60.007 86.5 20.026)"></rect><rect width="2" height="2" x="82.039" y="21.027" transform="rotate(-119.993 83.04 22.026)"></rect><rect width="2" height="2" x="79.189" y="34.561" transform="rotate(29.991 80.191 35.566)"></rect><rect width="2" height="2" x="86.117" y="38.561" transform="rotate(29.991 87.12 39.567)"></rect><rect width="2" height="2" x="82.653" y="36.561" transform="rotate(29.991 83.655 37.567)"></rect><rect width="2" height="2" x="20.479" y="28.617"></rect><rect width="2" height="2" x="12.479" y="28.617"></rect><rect width="2" height="2" x="16.479" y="28.617"></rect><rect width="2" height="2" x="13.685" y="19.028" transform="rotate(-59.991 14.685 20.029)"></rect><rect width="2" height="2" x="20.613" y="23.027" transform="rotate(-60.007 21.612 24.027)"></rect><rect width="2" height="2" x="17.149" y="21.027" transform="rotate(-60.007 18.148 22.027)"></rect><rect width="2" height="2" x="13.071" y="38.561" transform="rotate(60.007 14.07 39.56)"></rect><rect width="2" height="2" x="16.535" y="36.561" transform="rotate(-29.98 17.537 37.564)"></rect><rect width="2" height="2" x="19.999" y="34.562" transform="rotate(149.991 21 35.564)"></rect><path d="M47.0864,56.9497c0.2529-0.6582,0.4736-1.3276,0.6572-1.9897l-1.9277-0.5342c-0.166,0.6006-0.3672,1.2085-0.5967,1.8071   L47.0864,56.9497z"></path><path d="M85.6138,65.9575c0-4.5059-3.666-8.1714-8.1719-8.1714H61.2544c-1.6635-2.785-2.4808-5.5882-2.4532-8.348   c1.1489-0.9821,2.2106-2.139,3.1725-3.4105c2.8101-0.2825,5.1379-1.1701,6.9399-2.6805c2.9392-2.4632,3.5881-5.8048,3.7322-7.2115   c2.4301-1.1735,4.1193-3.6589,4.1193-6.5184c0-2.6182-1.4171-4.9221-3.5208-6.1942c-1.1143-3.7979-3.1774-7.2901-6.0027-10.1158   c-0.8677-0.8674-1.8099-1.6425-2.7849-2.3533c0.3507-1.5635-0.3611-3.1466-1.7112-3.924   c-3.7344-2.1484-8.0098-3.2842-12.3643-3.2842c-4.3545,0-8.6289,1.1357-12.3623,3.2842c-1.3406,0.7727-2.058,2.3423-1.713,3.9102   c-4.3718,3.2092-7.5236,7.7835-8.9321,13.0078c-1.6783,1.3303-2.7631,3.3796-2.7631,5.6694c0,3.9478,3.2119,7.1958,7.1611,7.2397   l1.0107,0.0112v-14.502l-1.0107,0.0112c-0.6584,0.0073-1.2934,0.111-1.8994,0.2849c1.4457-3.9536,4.0184-7.405,7.4091-9.9558   c1.1227,1.1063,2.9651,1.4022,4.3408,0.6109c2.6436-1.5215,5.6719-2.3257,8.7588-2.3257c3.0879,0,6.1162,0.8042,8.7598,2.3262   c1.3951,0.8022,3.1349,0.5815,4.3257-0.6089c0.8232,0.6143,1.6221,1.2748,2.3608,2.0127c2.2159,2.2163,3.9162,4.8809,5.0031,7.7823   c-0.3994-0.0738-0.8077-0.1219-1.2267-0.1265l-1.0107-0.0112v14.502l1.0107-0.0112c0.3133-0.0035,0.6197-0.0341,0.9225-0.0766   c-0.2689,1.3356-0.9849,3.4311-2.8971,5.0336c-1.109,0.929-2.4915,1.5629-4.1085,1.9346   c2.6161-4.3032,4.1661-9.3859,4.1661-13.4551c0-1.6418-0.2365-3.2646-0.699-4.825c-0.0006-0.0026-0.0013-0.005-0.002-0.0075   c-0.0048-0.0163-0.008-0.033-0.0129-0.0493c-2.1592-7.2021-8.667-12.0693-16.1982-12.1118h-0.1895   c-7.5195,0.0425-14.0225,4.9097-16.1816,12.1113c-0.005,0.0167-0.0082,0.0338-0.0131,0.0504   c-0.0005,0.0022-0.0012,0.0042-0.0016,0.0063c-0.4625,1.5609-0.6991,3.1837-0.6991,4.8256c0,6.0541,3.423,14.3543,8.6945,18.986   c0.0697,2.801-0.7454,5.6578-2.4484,8.5067H23.7466c-4.5059,0-8.1709,3.6655-8.1709,8.1714V96.999h70.0381V65.9575z    M30.7827,34.7466c-2.376-0.498-4.1719-2.6177-4.1719-5.1294s1.7959-4.6313,4.1719-5.1294V34.7466z M60.1392,11.5845   c-2.9463-1.6963-6.3203-2.5928-9.7578-2.5928c-3.4365,0-6.8105,0.8965-9.7568,2.5928c-0.6748,0.3887-1.6064,0.1851-2.0781-0.4438   c-0.5668-0.7548-0.3865-1.8849,0.4707-2.3774c3.4297-1.9741,7.3594-3.0176,11.3642-3.0176c4.0049,0,7.9356,1.0435,11.3662,3.0176   C63.5361,9.7908,62.0236,12.6699,60.1392,11.5845z M70.5933,24.4878c2.376,0.498,4.1719,2.6177,4.1719,5.1294   s-1.7959,4.6313-4.1719,5.1294V24.4878z M50.5913,15.2998h0.1777c6.3979,0.0362,11.9497,4.0283,14.0524,10.0016   c-1.4348,0.8943-3.0714,1.3637-4.7761,1.3637c-3.7197,0-7.1074-2.3286-8.4277-5.794c-0.1475-0.3877-0.5195-0.644-0.9346-0.644   s-0.7871,0.2563-0.9346,0.644c-1.3203,3.4653-4.7031,5.794-8.417,5.794c-1.7044,0-3.3407-0.4692-4.7753-1.3632   C38.643,19.4159,44.3084,15.3351,50.5913,15.2998z M35.6899,30.2935c0-1.0162,0.1086-2.0223,0.3101-3.0082   c1.6288,0.9016,3.4448,1.3798,5.3315,1.3798c3.8281,0,7.3691-2.0254,9.3516-5.2022c1.9844,3.1768,5.5283,5.2022,9.3623,5.2022   c1.8868,0,3.7027-0.4783,5.3315-1.3799c0.2015,0.9858,0.3101,1.9921,0.3101,3.0083c0,4.226-1.8388,9.6252-4.7746,13.8191   c-1.4088,0.069-2.972-0.0383-4.657-0.2883c-0.058-2.3229-1.9564-4.1973-4.293-4.1973c-2.373,0-4.3037,1.9307-4.3037,4.3037   c0,2.3735,1.9307,4.3042,4.3037,4.3042c1.7037,0,3.1661-1.0032,3.8631-2.4429c1.231,0.1885,2.4008,0.2973,3.5097,0.3276   c-2.446,2.7678-5.4296,4.6475-8.6521,4.6475C42.4067,50.7671,35.6899,38.3784,35.6899,30.2935z M54.2661,43.9307   c0,1.2705-1.0332,2.3042-2.3037,2.3042s-2.3037-1.0337-2.3037-2.3042s1.0332-2.3037,2.3037-2.3037S54.2661,42.6602,54.2661,43.9307   z M44.3416,50.7606c0.6398,0.4134,1.2983,0.7777,1.9779,1.0721c-0.0316,0.2468-0.0446,0.4961-0.0865,0.7401l1.9707,0.3379   c0.0247-0.1439,0.0413-0.2902,0.0628-0.4351c0.7867,0.1858,1.5922,0.2916,2.4167,0.2916c2.2018,0,4.278-0.7074,6.1753-1.8964   c0.2239,2.676,1.1374,5.3596,2.7309,8.0074l-8.9951,17.9915l-8.995-17.9895C43.2217,56.1871,44.1391,53.4662,44.3416,50.7606z    M83.6138,94.999H71.769V79.1748h-2V94.999H51.688v-0.7192h-2v0.7192H31.4185V79.1748h-2V94.999H17.5757V65.9575   c0-3.4028,2.7686-6.1714,6.1709-6.1714h16.0693l10.7783,21.5552l10.7773-21.5552h16.0703c3.4033,0,6.1719,2.7686,6.1719,6.1714   V94.999z"></path><rect width="2" height="2" x="49.688" y="86.28"></rect><rect width="2" height="2" x="49.688" y="90.28"></rect><rect width="2" height="2" x="49.688" y="82.28"></rect><rect width="2" height="2" x="88.418" y="69.963"></rect><rect width="2" height="2" x="88.418" y="81.963"></rect><rect width="2" height="2" x="88.418" y="73.963"></rect><rect width="2" height="2" x="88.418" y="77.963"></rect><rect width="2" height="2" x="10.771" y="77.963"></rect><rect width="2" height="2" x="10.771" y="81.963"></rect><rect width="2" height="2" x="10.771" y="73.963"></rect><rect width="2" height="2" x="10.771" y="69.963"></rect><rect width="2" height="2" x="11.779" y="1.001"></rect><rect width="2" height="2" x="7.779" y="1.001"></rect><rect width="2" height="2" x="3.779" y="1.001"></rect><rect width="2" height="2" x="16.008" y="52.84"></rect><rect width="2" height="2" x="8.008" y="52.84"></rect><rect width="2" height="2" x="12.008" y="52.84"></rect><rect width="2" height="2" x="85.526" y="49.757"></rect><rect width="2" height="2" x="89.526" y="49.757"></rect><rect width="2" height="2" x="81.526" y="49.757"></rect><rect width="2" height="2" x="84.221" y="1.001"></rect><rect width="2" height="2" x="92.221" y="1.001"></rect><rect width="2" height="2" x="88.221" y="1.001"></rect><polygon points="23.821 7.92 21.652 7.92 21.652 5.751 19.652 5.751 19.652 7.92 17.483 7.92 17.483 9.92 19.652 9.92 19.652 12.088 21.652 12.088 21.652 9.92 23.821 9.92"></polygon><polygon points="79.177 6.455 79.177 8.624 77.008 8.624 77.008 10.624 79.177 10.624 79.177 12.793 81.177 12.793 81.177 10.624 83.346 10.624 83.346 8.624 81.177 8.624 81.177 6.455"></polygon></svg>