<svg xmlns="http://www.w3.org/2000/svg" xmlns:xlink="http://www.w3.org/1999/xlink" id="Capa_1" x="0px" y="0px" viewBox="0 0 512 512" style="enable-background:new 0 0 512 512;" xml:space="preserve">
<g>
	<g>
		<path d="M216,203c-5.52,0-10,4.48-10,10s4.48,10,10,10s10-4.48,10-10S221.52,203,216,203z"></path>
	</g>
</g>
<g>
	<g>
		<path d="M459,369h-40c-5.522,0-10,4.477-10,10v60c0,5.523,4.478,10,10,10h40c5.522,0,10-4.477,10-10v-60    C469,373.477,464.522,369,459,369z M449,429h-20v-40h20V429z"></path>
	</g>
</g>
<g>
	<g>
		<path d="M459,213h-40c-5.522,0-10,4.477-10,10v40c0,5.523,4.478,10,10,10h40c5.522,0,10-4.477,10-10v-40    C469,217.477,464.522,213,459,213z M449,253h-20v-20h20V253z"></path>
	</g>
</g>
<g>
	<g>
		<path d="M93,369H53c-5.522,0-10,4.477-10,10v60c0,5.523,4.478,10,10,10h40c5.522,0,10-4.477,10-10v-60    C103,373.477,98.522,369,93,369z M83,429H63v-40h20V429z"></path>
	</g>
</g>
<g>
	<g>
		<path d="M93,213H53c-5.522,0-10,4.477-10,10v40c0,5.523,4.478,10,10,10h40c5.522,0,10-4.477,10-10v-40    C103,217.477,98.522,213,93,213z M83,253H63v-20h20V253z"></path>
	</g>
</g>
<g>
	<g>
		<path d="M502,120H386v-20h10c5.522,0,10-4.477,10-10V50c0-5.523-4.478-10-10-10h-76.747C307.77,15.812,283.192,0,256,0    c-27.191,0-51.768,15.811-63.252,40H116c-5.522,0-10,4.477-10,10v40c0,5.523,4.478,10,10,10h10v20H10c-5.522,0-10,4.477-10,10    c0,2.967,0,366.887,0,372c0,5.522,4.478,10,10,10c9.874,0,480.594,0,492,0c5.522,0,10-4.478,10-10c0-2.358,0-363.125,0-372    C512,124.477,507.522,120,502,120z M325.277,60H386v20c-6.637,0-54.033,0-60.723,0c0.472-3.297,0.723-6.634,0.723-10    C326,66.634,325.749,63.297,325.277,60z M256,20c27.199,0,50,21.99,50,50c0,28.012-22.803,50-50,50c-27.198,0-50-21.988-50-50    S228.803,20,256,20z M256,140c27.191,0,51.768-15.811,63.252-40H366v183H146V100c6.197,0,41.846,0,46.747,0    C204.23,124.188,228.808,140,256,140z M126,60h60.723C186.251,63.297,186,66.634,186,70c0,3.366,0.251,6.703,0.723,10    c-6.882,0-49.785,0-60.723,0V60z M389,303v23H123v-23C132.073,303,377.403,303,389,303z M20,140h106v23H20V140z M20,183h106v100    h-13c-5.522,0-10,4.477-10,10v13H20V183z M126,492H20V326h83v10c0,5.523,4.478,10,10,10h13V492z M246,492h-40V389h40V492z     M306,492h-40V389h40V492z M366,492h-40V379c0-5.523-4.478-10-10-10H196c-5.522,0-10,4.477-10,10v113h-40V346h220V492z M492,492    H386V346h13c5.522,0,10-4.477,10-10v-10h83V492z M492,306h-83v-13c0-5.523-4.478-10-10-10h-13V183h106V306z M492,163H386v-23h106    V163z"></path>
	</g>
</g>
<g>
	<g>
		<path d="M296,203h-40c-5.522,0-10,4.477-10,10s4.478,10,10,10h40c5.522,0,10-4.477,10-10S301.522,203,296,203z"></path>
	</g>
</g>
<g>
	<g>
		<path d="M336,163H176c-5.522,0-10,4.477-10,10v80c0,5.523,4.478,10,10,10h160c5.522,0,10-4.477,10-10v-80    C346,167.477,341.522,163,336,163z M326,243H186v-60h140V243z"></path>
	</g>
</g>
<g>
	<g>
		<path d="M276,60h-10V50c0-5.523-4.478-10-10-10c-5.522,0-10,4.477-10,10v10h-10c-5.522,0-10,4.477-10,10s4.478,10,10,10h10v10    c0,5.523,4.478,10,10,10c5.522,0,10-4.477,10-10V80h10c5.522,0,10-4.477,10-10S281.522,60,276,60z"></path>
	</g>
</g>
<g>
</g>
<g>
</g>
<g>
</g>
<g>
</g>
<g>
</g>
<g>
</g>
<g>
</g>
<g>
</g>
<g>
</g>
<g>
</g>
<g>
</g>
<g>
</g>
<g>
</g>
<g>
</g>
<g>
</g>
</svg>