<svg xmlns="http://www.w3.org/2000/svg" xmlns:xlink="http://www.w3.org/1999/xlink" id="Capa_1" x="0px" y="0px" viewBox="0 0 480 480" style="enable-background:new 0 0 480 480;" xml:space="preserve">
<g>
	<g>
		<g>
			<rect x="336" y="280" width="16" height="16"></rect>
			<rect x="336" y="312" width="16" height="16"></rect>
			<rect x="336" y="344" width="16" height="16"></rect>
			<rect x="336" y="216" width="16" height="16"></rect>
			<rect x="336" y="248" width="16" height="16"></rect>
			<rect x="336" y="184" width="16" height="16"></rect>
			<rect x="336" y="152" width="16" height="16"></rect>
			<path d="M480,232h-20.688l14.632-14.624l-11.312-11.312L448,220.688V200h-16v20.688l-14.632-14.624l-11.312,11.312L420.688,232     H400v16h20.688l-14.632,14.624l11.312,11.312L432,259.312V400h-0.8c-3.825-18.613-20.198-31.979-39.2-32h-8V136h32v-16h-32     c0.004-15.067-6.088-29.494-16.888-40H384V64h-80V46.528c12.473-4.393,19.023-18.066,14.629-30.539     C315.249,6.393,306.174-0.019,296,0H184c-13.224-0.025-23.964,10.675-23.989,23.899c-0.019,10.174,6.393,19.249,15.989,22.629V64     H96v16h16.888c-10.8,10.506-16.892,24.933-16.888,40H64v16h32v232h-8c-19.002,0.021-35.375,13.387-39.2,32H48V259.312     l14.632,14.624l11.312-11.312L59.312,248H80v-16H59.312l14.632-14.624l-11.312-11.312L48,220.688V200H32v20.688l-14.632-14.624     L6.056,217.376L20.688,232H0v16h20.688L6.056,262.624l11.312,11.312L32,259.312V400.8C13.389,404.627,0.024,420.999,0,440v40h480     v-40c-0.024-19.001-13.389-35.373-32-39.2V259.312l14.632,14.624l11.312-11.312L459.312,248H480V232z M96,416v48H80v-16H64v16H48     v-16H32v16H16v-24c0-13.255,10.745-24,24-24h24v-8c0-13.255,10.745-24,24-24h8V416z M184,16h112c4.418,0,8,3.582,8,8     s-3.582,8-8,8H184c-4.418,0-8-3.582-8-8S179.582,16,184,16z M288,48v16h-96V48H288z M160,464h-48v-32h48V464z M160,416h-48v-16     h48V416z M160,352v32h-48V136h48V352z M160,120h-48c0.026-22.08,17.92-39.974,40-40h8V120z M256,464h-32v-24c0-4.418,3.582-8,8-8     h16c4.418,0,8,3.582,8,8V464z M304,416v48h-32v-24c0-13.255-10.745-24-24-24h-16c-13.255,0-24,10.745-24,24v24h-32v-64h128V416z      M304,384H176v-16h128V384z M304,120v232H176V80h128V120z M368,464h-48v-32h48V464z M368,416h-48v-16h48V416z M368,368v16h-48     V136h48V368z M320,120V80h8c22.08,0.026,39.974,17.92,40,40H320z M464,440v24h-16v-16h-16v16h-16v-16h-16v16h-16v-80h8     c13.255,0,24,10.745,24,24v8h24C453.255,416,464,426.745,464,440z"></path>
			<rect x="128" y="280" width="16" height="16"></rect>
			<rect x="128" y="312" width="16" height="16"></rect>
			<rect x="128" y="344" width="16" height="16"></rect>
			<rect x="128" y="216" width="16" height="16"></rect>
			<rect x="128" y="248" width="16" height="16"></rect>
			<rect x="128" y="184" width="16" height="16"></rect>
			<rect x="128" y="152" width="16" height="16"></rect>
			<path d="M280,96h-80v48h80V96z M232,128h-16v-16h16V128z M264,128h-16v-16h16V128z"></path>
			<path d="M280,160h-80v48h80V160z M232,192h-16v-16h16V192z M264,192h-16v-16h16V192z"></path>
			<path d="M280,224h-80v48h80V224z M232,256h-16v-16h16V256z M264,256h-16v-16h16V256z"></path>
			<path d="M280,288h-80v48h80V288z M232,320h-16v-16h16V320z M264,320h-16v-16h16V320z"></path>
		</g>
	</g>
</g>
<g>
</g>
<g>
</g>
<g>
</g>
<g>
</g>
<g>
</g>
<g>
</g>
<g>
</g>
<g>
</g>
<g>
</g>
<g>
</g>
<g>
</g>
<g>
</g>
<g>
</g>
<g>
</g>
<g>
</g>
</svg>