<svg xmlns="http://www.w3.org/2000/svg" id="Capa_1" height="512" viewBox="0 0 512 512" width="512"><g><g><path d="m481.506 475.797c-43.436-37.219-39.246-84.804-33.706-124.474 10.133-4.09 17.051-14.273 16.433-25.751l-.541-10.483c-.777-14.448-13.149-25.598-27.636-24.871l-24.058 1.269-.697-13.381c-.415-7.878-3.892-15.14-9.792-20.446-5.044-4.538-11.327-7.16-17.966-7.563l-11.48-219.244c-.944-17.93-16.29-31.735-34.213-30.807-8.658.456-16.638 4.27-22.468 10.74-5.835 6.476-8.797 14.811-8.341 23.469l4.132 78.915h-27.536c.832-11.943-3.751-24.915-12.947-34.224-9.631-9.748-21.916-13.14-34.209-9.817-8.58-12.924-23.292-21.104-39.153-21.104-7.189 0-14.105 1.593-20.42 4.663-9.665-10.735-23.602-17.108-38.295-17.108-18.694 0-35.66 10.021-44.746 25.984-10.678 2.032-19.74 9.055-25.445 19.947-5.142 9.818-6.784 21.339-5.03 31.658h-3.086c-18.366 0-33.306 14.939-33.306 33.303 0 15.192 10.229 28.03 24.158 32.016l18.612 178.676-13.587 13.586c-3.906 3.905-3.906 10.238-.001 14.143 1.953 1.953 4.512 2.93 7.072 2.93 2.559 0 5.118-.976 7.07-2.928l2.115-2.115 9.9 95.042c.531 5.095 4.825 8.965 9.946 8.965h198.228c7.193 5.681 15.122 10.437 23.608 14.052 19.161 8.18 40.464 11.162 61.351 11.162 44.445 0 86.989-13.509 102.893-19.191 3.357-1.199 5.822-4.095 6.469-7.601.647-3.507-.621-7.093-3.328-9.412zm-44.415-165.605c.108-.006.216-.008.323-.008 3.33 0 6.127 2.618 6.307 5.956l.541 10.483c.186 3.452-2.483 6.412-5.935 6.598l-.055.003c-.015.001-.03.001-.046.002l-165.456 8.698c-1.662.086-3.271-.486-4.531-1.62-1.251-1.127-1.986-2.652-2.071-4.328l-.565-10.425c-.085-1.676.494-3.294 1.629-4.556 1.127-1.253 2.659-1.989 4.313-2.073.007 0 .014-.001.021-.001zm-106.852-286.018c2.257-2.505 5.333-3.981 8.662-4.156 6.912-.358 12.825 4.968 13.19 11.882l11.47 219.048-25.077 1.318-11.471-219.061c-.175-3.321.97-6.528 3.226-9.031zm50.962 245.876c2.548-.14 5.007.747 6.934 2.48 1.926 1.732 3.06 4.085 3.193 6.621l.698 13.388-77.5 4.087-.698-13.389c-.134-2.552.746-5.015 2.477-6.936 1.734-1.923 4.099-3.056 6.66-3.191zm-295.063-179.259c2.346-4.479 6.722-9.821 14.25-9.839 4.012-.009 7.63-2.415 9.19-6.111 4.938-11.701 16.335-19.261 29.033-19.261 11.1 0 21.496 5.953 27.131 15.536 1.467 2.495 3.943 4.232 6.789 4.763 2.844.528 5.781-.199 8.048-1.998 4.827-3.831 10.618-5.856 16.748-5.856 11.089 0 21.201 6.973 25.162 17.35 1.039 2.722 3.212 4.855 5.953 5.842 2.74.988 5.775.731 8.311-.702 7.346-4.153 13.978-3.316 19.71 2.487 5.349 5.415 8.016 13.631 7.065 20.166h-179.625c-2.127-6.557-1.378-15.48 2.235-22.377zm4.512 273.779 89.807-89.798c5.283 2.882 11.145 4.331 17.012 4.33 9.089 0 18.182-3.461 25.102-10.38 6.702-6.701 10.394-15.616 10.394-25.102s-3.691-18.4-10.393-25.101c-13.841-13.839-36.363-13.839-50.204 0-6.702 6.701-10.393 15.616-10.393 25.101 0 6.048 1.506 11.861 4.331 17.019l-78.323 78.315-16.581-159.18h75.914c5.523 0 10-4.477 10-10.001s-4.477-10.001-10-10.001h-87.01c-.352 0-2.344-.127-3.771-.552-5.505-1.629-9.535-6.724-9.535-12.748 0-7.334 5.968-13.302 13.305-13.302h17.534 192.66c.008 0 .015.001.023.001s.015-.001.023-.001h41.676l1.393 26.603h-76.48c-5.523 0-10 4.477-10 10.001s4.477 10.001 10 10.001h77.528l3.861 73.743c-6.564 1.102-12.534 4.36-17.07 9.392-5.312 5.892-8.009 13.484-7.595 21.374l.698 13.398-24.023 1.267c-7.005.355-13.457 3.435-18.167 8.671-4.698 5.222-7.089 11.95-6.733 18.98l.565 10.426c.355 6.99 3.431 13.433 8.66 18.142 1.574 1.418 3.296 2.601 5.109 3.587-2.951 8.247-5.22 16.103-6.738 23.438-2.436 11.712-2.977 23.345-1.709 34.643h-155.426zm91.324-120.949c0-4.142 1.61-8.034 4.534-10.957 3.022-3.022 6.992-4.533 10.961-4.533s7.939 1.511 10.961 4.533c2.924 2.924 4.534 6.814 4.534 10.957s-1.61 8.034-4.535 10.957c-6.043 6.043-15.878 6.043-21.922 0-2.923-2.923-4.533-6.814-4.533-10.957zm-80.677 223.164-3.12-29.948h157.615c1.97 6.138 4.511 12.12 7.646 17.887 2.288 4.209 4.874 8.23 7.704 12.061zm220.669 15.654c-37.406-15.935-57.621-55.484-49.157-96.182 1.569-7.575 4.075-15.866 7.438-24.696l34.175-1.797c-9.623 44.244-4.864 75.173 14.213 92.029 1.902 1.68 4.264 2.506 6.617 2.506 2.768 0 5.521-1.142 7.498-3.379 3.657-4.139 3.266-10.459-.873-14.116-13.766-12.163-16.044-39.104-6.694-78.131l42.188-2.218c-4.754 21.085-10.071 57.787 13.301 101.699 1.798 3.379 5.258 5.304 8.836 5.304 1.585 0 3.193-.378 4.69-1.175 4.875-2.595 6.724-8.651 4.128-13.527-22.128-41.573-14.347-76.135-10.151-93.394l29.097-1.53c-5.038 38.006-7.655 85.178 28.865 125.212-31.222 9.367-90.07 22.221-134.171 3.395z"></path><path d="m192.224 159.773c-5.523 0-10 4.477-10 10.001s4.477 10.001 10 10.001h.057c5.523 0 9.972-4.477 9.972-10.001s-4.506-10.001-10.029-10.001z"></path></g></g></svg>