<svg xmlns="http://www.w3.org/2000/svg" id="Capa_1" height="512" viewBox="0 0 512.002 512.002" width="512"><g><g><g><g><path d="m131.322 269.907h249.358c4.142 0 7.854-2.553 9.337-6.42 1.483-3.866.429-8.247-2.651-11.017l-124.679-112.1c-3.801-3.418-9.57-3.418-13.371 0l-124.679 112.1c-3.08 2.77-4.135 7.15-2.651 11.017 1.482 3.867 5.195 6.42 9.336 6.42zm134.679-20v-79.661l88.6 79.661zm-20-79.661v79.661h-88.6z"></path><path d="m461.019 412.88c-2.852 0-5.673.241-8.438.708v-131.233c6.034 3.584 12.95 5.505 20.072 5.505h.006c11.131 0 21.784-4.733 29.228-12.985 7.035-7.796 10.608-17.86 10.061-28.341-.548-10.483-5.151-20.124-12.963-27.147l-43.303-38.934v-92.673c0-5.522-4.478-10-10-10h-65.002c-5.522 0-10 4.478-10 10v16.247l-88.362-79.447c-15.003-13.492-37.63-13.492-52.598-.031l-80.306 71.538c-4.124 3.674-4.489 9.995-.815 14.118 3.674 4.125 9.996 4.491 14.118.815l80.341-71.569c7.379-6.637 18.507-6.636 25.888.001l216.668 194.808c3.834 3.447 6.093 8.177 6.361 13.317.269 5.139-1.484 10.074-4.938 13.9-3.658 4.057-8.899 6.383-14.379 6.383-4.782.001-9.376-1.761-12.935-4.96l-197.036-177.158c-3.801-3.418-9.57-3.418-13.371 0l-197.039 177.158c-7.922 7.127-20.175 6.489-27.314-1.424-3.451-3.825-5.204-8.761-4.936-13.899.269-5.141 2.527-9.87 6.395-13.348l69.184-62.761c4.091-3.711 4.398-10.034.688-14.125s-10.036-4.4-14.125-.688l-69.15 62.73c-7.813 7.025-12.416 16.665-12.964 27.149-.548 10.48 3.025 20.545 10.06 28.341 12.749 14.129 33.524 16.85 49.307 7.481v131.232c-2.765-.467-5.586-.708-8.438-.708-28.112 0-50.982 22.87-50.982 50.982 0 10.632 3.242 20.822 9.377 29.47 1.875 2.644 4.915 4.214 8.156 4.214h476.934c3.241 0 6.281-1.57 8.156-4.214 6.135-8.647 9.377-18.838 9.377-29.47-.001-28.112-22.871-50.982-50.983-50.982zm-70.339-315.1h45.002v64.69l-45.002-40.461zm-311.259 167.611 176.58-158.765 176.58 158.765v156.183c-4.048 2.719-7.717 6.021-10.867 9.823-1.997-.422-4.042-.637-6.101-.637-5.729 0-11.174 1.645-15.796 4.574-6.507-7.561-16.141-12.28-26.567-12.28-11.772 0-22.685 5.865-29.188 15.69-1.084 1.638-1.662 3.558-1.662 5.521v33.28h-27.653v-66.921c0-32.393-26.353-58.745-58.745-58.745s-58.745 26.353-58.745 58.745v66.921h-27.653v-33.28c0-1.963-.578-3.883-1.662-5.521-6.504-9.825-17.416-15.69-29.188-15.69-10.427 0-20.061 4.72-26.567 12.28-4.622-2.93-10.067-4.574-15.796-4.574-2.059 0-4.104.215-6.101.637-3.15-3.803-6.819-7.104-10.867-9.823v-156.183zm-56.246 212.155c-2.087-4.228-3.174-8.88-3.174-13.684 0-17.084 13.898-30.982 30.982-30.982 11.053 0 21.35 5.959 26.873 15.551 1.332 2.313 3.533 3.997 6.113 4.679 2.578.68 5.325.302 7.625-1.051 1.463-.861 3.076-1.298 4.794-1.298 3.823 0 7.255 2.275 8.743 5.797 1.695 4.012 5.785 6.461 10.13 6.065 4.337-.4 7.916-3.562 8.849-7.816 1.493-6.81 7.65-11.752 14.642-11.752 4.146 0 8.044 1.7 10.851 4.646v29.846h-126.428zm194.081 0v-66.921c0-21.364 17.381-38.745 38.745-38.745s38.745 17.381 38.745 38.745v66.921zm271.571 0h-126.427v-29.846c2.807-2.945 6.705-4.646 10.851-4.646 6.991 0 13.148 4.942 14.642 11.752.933 4.255 4.512 7.416 8.849 7.816 4.354.397 8.436-2.055 10.13-6.065 1.488-3.521 4.92-5.797 8.743-5.797 1.718 0 3.331.437 4.794 1.298 2.3 1.354 5.046 1.73 7.625 1.051 2.58-.682 4.781-2.366 6.113-4.679 5.523-9.592 15.82-15.551 26.873-15.551 17.084 0 30.982 13.898 30.982 30.982-.001 4.805-1.088 9.457-3.175 13.685z"></path></g></g><g><g><path d="m122.341 143.928c-4.169 0-8.017-2.697-9.415-6.631-1.379-3.88-.204-8.326 2.946-10.991 3.284-2.777 8.09-3.122 11.745-.864 3.497 2.16 5.336 6.418 4.523 10.446-.931 4.617-5.085 8.04-9.799 8.04z"></path></g></g><g><path d="m191.448 374.381h-69.745c-5.522 0-10-4.478-10-10v-59.745c0-5.522 4.478-10 10-10h69.745c5.522 0 10 4.478 10 10v59.745c0 5.523-4.477 10-10 10zm-59.745-20h49.745v-39.745h-49.745z"></path></g><g><path d="m390.299 374.381h-69.745c-5.522 0-10-4.478-10-10v-59.745c0-5.522 4.478-10 10-10h69.745c5.522 0 10 4.478 10 10v59.745c0 5.523-4.478 10-10 10zm-59.745-20h49.745v-39.745h-49.745z"></path></g></g></g></svg>