<svg xmlns="http://www.w3.org/2000/svg" id="Layer_5" height="512" viewBox="0 0 64 64" width="512"><g><path d="m61 41v-29c0-2.757-2.243-5-5-5v-4h-2v4h-2v-6h-2v6h-2v-4h-2v4h-2c-2.757 0-5 2.243-5 5v9h-5c-2.757 0-5 2.243-5 5v1h-1c-2.757 0-5 2.243-5 5v9h-1.259c-.647-3.901-1.116-7.854-1.4-11.785l3.361-3.361-1.157-2.314 2.455-.819v-5.441l-2.455-.819 1.157-2.314-3.848-3.848-2.315 1.158-.818-2.457h-5.441l-.818 2.456-2.315-1.158-3.848 3.848 1.157 2.314-2.456.819v5.441l2.455.819-1.157 2.314 3.359 3.359c-.347 4.818-.962 9.656-1.852 14.399l-.269 1.439-4.536 4.536v13.414h62v-22zm-26-8v2h-10v-2zm26 10v2h-52.586l2-2zm-16-2v-4h10v4zm0-8h10v2h-10zm.184-2c.414-1.161 1.514-2 2.816-2h4c1.302 0 2.402.839 2.816 2zm6.816-4h-1v-1c0-.342-.035-.677-.101-1h2.101v2.101c-.323-.066-.658-.101-1-.101zm-3-14h4v2h-4zm0 4h4v2h-4zm4-6h-4v-2h4zm-4 10h4v2h-3.026c-.279-.369-.606-.695-.974-.974zm0 5v1h-1c-2.757 0-5 2.243-5 5v9h-2v-18h5c1.654 0 3 1.346 3 3zm10-14v29h-2v-9c0-1.627-.793-3.061-2-3.974v-19.026h1c1.654 0 3 1.346 3 3zm-18 0c0-1.654 1.346-3 3-3h3v12.101c-.323-.066-.658-.101-1-.101h-5zm-10 14c0-1.654 1.346-3 3-3h5v18h-2v-9c0-2.757-2.243-5-5-5h-1zm-3 3h4c1.302 0 2.402.839 2.816 2h-9.631c.413-1.161 1.513-2 2.815-2zm-3 8h10v4h-10zm-17.382-14.135c-.056-.125-.105-.251-.155-.379l-.169-.441-2.294-.766v-2.559l2.294-.765.169-.441c.05-.128.1-.255.155-.379l.194-.433-1.081-2.162 1.809-1.809 2.162 1.081.433-.194c.123-.055.248-.105.375-.153l.445-.168.766-2.297h2.559l.766 2.298.445.168c.127.048.252.098.375.153l.433.194 2.162-1.081 1.809 1.809-1.081 2.162.194.433c.056.125.105.251.155.379l.169.441 2.293.765v2.559l-2.294.765-.169.441c-.05.128-.1.255-.155.379l-.194.433 1.081 2.162-1.809 1.809-2.162-1.081-.433.194c-.123.055-.248.105-.375.153l-.445.168-.766 2.297h-2.559l-.766-2.298-.445-.168c-.127-.048-.252-.098-.375-.153l-.433-.194-2.161 1.082-1.809-1.809 1.081-2.162zm2.067 6.067.776-.388.818 2.456h5.441l.818-2.456.774.387c.277 4.023.75 8.072 1.403 12.068h-10.129l-1.574 1.574c.794-4.505 1.359-9.082 1.673-13.641zm-6.685 21.482 3.414-3.414h54.586v2h-32v12h-2v-10h-6v10h-2v-10h-6v10h-2v-10h-6v10h-2zm42 .586v4h-6v-4zm-8 4h-6v-4h6zm-6 2h6v4h-6zm8 0h6v4h-6zm8 0h6v4h-6zm0-2v-4h6v4zm8-4h6v4h-6zm-30 10h-2v-8h2zm-8 0h-2v-8h2zm-8 0h-2v-8h2zm46 0v-4h6v4z"></path><path d="m14 25c2.757 0 5-2.243 5-5s-2.243-5-5-5-5 2.243-5 5 2.243 5 5 5zm0-8c1.654 0 3 1.346 3 3s-1.346 3-3 3-3-1.346-3-3 1.346-3 3-3z"></path><path d="m31 4c0 .551-.448 1-1 1h-4c-1.654 0-3 1.346-3 3s1.346 3 3 3h7c.552 0 1 .449 1 1s-.448 1-1 1h-7v2h7c1.654 0 3-1.346 3-3s-1.346-3-3-3h-7c-.552 0-1-.449-1-1s.448-1 1-1h4c1.654 0 3-1.346 3-3s-1.346-3-3-3h-16v2h16c.552 0 1 .449 1 1z"></path></g></svg>