<svg xmlns="http://www.w3.org/2000/svg" xmlns:xlink="http://www.w3.org/1999/xlink" id="Capa_1" x="0px" y="0px" viewBox="0 0 483.246 483.246" style="enable-background:new 0 0 483.246 483.246;" xml:space="preserve">
<g>
	<g>
		<path d="M268.284,235.459l-18.797-30.078c-2.922-4.672-10.641-4.672-13.563,0l-18.797,30.078    c-5.906,9.438-6.203,20.883-0.813,30.617c5.398,9.734,15.258,15.547,26.391,15.547s20.992-5.813,26.391-15.547    C274.487,256.342,274.191,244.897,268.284,235.459z M255.105,258.319c-2.539,4.578-7.172,7.305-12.398,7.305    s-9.859-2.727-12.398-7.305c-2.531-4.57-2.391-9.945,0.383-14.375l12.016-19.227l12.016,19.227    C257.495,248.373,257.636,253.748,255.105,258.319z"></path>
	</g>
</g>
<g>
	<g>
		<path d="M370.987,37.905c0-9.688-3.773-18.805-10.625-25.656c-14.148-14.133-37.156-14.141-51.289-0.023l-26.342,26.111    l-10.369-10.369L261.05,39.28l16,16l2.344,2.344L237.05,99.967c-1.5,1.5-2.344,3.531-2.344,5.656v24c0,4.422,3.578,8,8,8h24    c2.125,0,4.156-0.844,5.656-2.344l42.344-42.344l2.344,2.344l16,16l11.313-11.313l-10.319-10.319l26.319-26.087    C367.214,56.717,370.987,47.6,370.987,37.905z M263.394,121.623h-12.688v-12.688l40-40l12.688,12.688L263.394,121.623z     M349.073,52.225L322.73,78.334l-2.367-2.367l-24-24l-2.32-2.32l26.32-26.086c7.906-7.906,20.781-7.906,28.688,0    c3.828,3.836,5.938,8.93,5.938,14.344C354.987,43.326,352.878,48.42,349.073,52.225z"></path>
	</g>
</g>
<g>
	<g>
		<path d="M482.659,241.022c-0.344-3.102-2.461-5.719-5.422-6.703c-3.109-1.039-76.805-24.922-127.656,17.438    c-22.009,18.344-30.057,39.843-32.083,58.618l-10.792-22.563v-87.555c9.313-3.305,16-12.203,16-22.633c0-13.234-10.766-24-24-24    h-112c-13.234,0-24,10.766-24,24c0,10.43,6.688,19.328,16,22.633v87.555l-3.9,8.155c0.561-23.478-4.08-50.476-21.592-74.991    c-41.648-58.313-130.039-66.977-133.781-67.32c-3.922-0.375-7.422,2.125-8.445,5.867c-1.008,3.703-24.445,91.352,0.367,149.25    c25.781,60.156,107.867,60.852,111.352,60.852c2.883,0,5.539-1.547,6.961-4.055c1.422-2.516,1.383-5.594-0.102-8.063l-24-40    c-0.93-1.547-2.359-2.742-4.047-3.375l-36.063-13.523l18.563-3.094c2.445-0.406,4.563-1.922,5.734-4.102s1.266-4.773,0.266-7.039    l-18.664-41.984l14.352,11.484c3.18,2.531,7.773,2.297,10.656-0.594l10.344-10.344v44.688c0,1.5,0.422,2.969,1.219,4.242    l38.456,61.53l-32.987,68.97c-5.961,12.469-5.117,26.891,2.25,38.586c7.367,11.688,20.016,18.672,33.836,18.672h186.453    c13.82,0,26.469-6.984,33.836-18.672c7.367-11.695,8.211-26.117,2.25-38.586l-32.585-68.129l28.906-28.652    c0.891-0.883,1.563-1.961,1.953-3.148l8.414-25.234l0.414,1.234c0.703,2.117,2.266,3.852,4.313,4.766    c2.039,0.914,4.383,0.938,6.422,0.055l22.18-9.5l-55.25,60.766c-1.609,1.773-2.336,4.172-1.992,6.539s1.727,4.453,3.773,5.688    c7.156,4.328,19.648,8.813,34.352,8.813c14.484,0,31.125-4.359,46.914-17.508C490.55,317.78,483.003,244.139,482.659,241.022z     M122.706,287.326v-61.703c0-3.234-1.945-6.156-4.938-7.391c-2.992-1.25-6.43-0.555-8.719,1.734l-18.938,18.938l-34.406-27.531    c-2.883-2.297-6.961-2.336-9.891-0.086c-2.914,2.258-3.922,6.211-2.422,9.586l27.805,62.555l-37.805,6.305    c-3.57,0.594-6.297,3.516-6.648,7.117s1.766,6.992,5.148,8.266l61.391,23.016l14.586,24.313    c-22.977-2.977-66.141-13.398-81.813-49.969c-18.883-44.063-6.125-110.742-1.273-131.992    c20.844,3.172,84.242,16.156,115.414,59.789c26.219,36.711,18.875,81.75,12.383,104.852L122.706,287.326z M356.237,454.42    c-4.422,7.016-12.016,11.203-20.305,11.203H149.48c-8.289,0-15.883-4.188-20.305-11.203c-2.47-3.918-3.581-8.346-3.577-12.797    h95.905c2.539,0,4.93-1.211,6.438-3.25c1.508-2.047,1.953-4.688,1.203-7.117c-1.18-3.813-0.625-7.828,1.547-11.313l12.016-19.227    l11.984,19.18c1.445,2.336,2.172,4.859,2.172,7.484c0,1.359-0.188,2.602-0.57,3.805c-0.781,2.43-0.352,5.086,1.156,7.156    c1.508,2.063,3.906,3.281,6.461,3.281h95.905C359.818,446.074,358.707,450.502,356.237,454.42z M354.879,425.623h-82.072    c-0.297-4.953-1.836-9.805-4.523-14.164l-17.578-28.128v-5.708h8c22.055,0,40-17.945,40-40c0-4.422-3.578-8-8-8h-16    c-9.04,0-17.294,3.128-24,8.205v-0.205h-3.391c-6.19-14.102-20.249-24-36.609-24h-16c-4.422,0-8,3.578-8,8    c0,22.055,17.945,40,40,40h8v21.708l-17.578,28.128c-2.711,4.344-4.242,9.219-4.523,14.164h-82.072l63.392-132.547    c0.516-1.078,0.781-2.258,0.781-3.453v-88h24v-16h-32c-4.414,0-8-3.586-8-8s3.586-8,8-8h112c4.414,0,8,3.586,8,8s-3.586,8-8,8h-32    v16h24v88c0,1.195,0.266,2.375,0.781,3.453L354.879,425.623z M252.073,361.623c3.305-9.313,12.203-16,22.633-16h6.633    c-3.305,9.313-12.203,16-22.633,16H252.073z M233.339,345.623h-6.633c-10.43,0-19.328-6.688-22.633-16h6.633    C221.136,329.623,230.034,336.311,233.339,345.623z M429.589,347.756c-20.961,17.469-41.805,14.914-53.43,11.242l72.469-79.711    c2.531-2.789,2.781-6.961,0.594-10.023c-2.188-3.078-6.234-4.195-9.664-2.711l-48.008,20.57l-5.258-15.75    c-1.086-3.266-4.141-5.469-7.586-5.469s-6.5,2.203-7.586,5.469l-15.398,46.195l-21.133,20.945    c-3.555-17.125-4.906-49.344,25.242-74.461c36.898-30.766,90.625-20.273,107.258-15.992    C467.73,264.725,466.542,316.967,429.589,347.756z"></path>
	</g>
</g>
<g>
	<g>
		<rect x="160.816" y="361.621" transform="matrix(0.4472 -0.8944 0.8944 0.4472 -231.8145 364.1609)" width="35.776" height="16"></rect>
	</g>
</g>
<g>
	<g>
		<rect x="149.761" y="401.638" transform="matrix(0.4472 -0.8944 0.8944 0.4472 -278.6621 368.3942)" width="17.888" height="16"></rect>
	</g>
</g>
<g>
	<g>
		<path d="M162.706,1.623c-26.469,0-48,21.531-48,48s21.531,48,48,48s48-21.531,48-48S189.175,1.623,162.706,1.623z M162.706,81.623    c-17.648,0-32-14.352-32-32s14.352-32,32-32s32,14.352,32,32S180.355,81.623,162.706,81.623z"></path>
	</g>
</g>
<g>
	<g>
		<path d="M394.706,129.623c-17.648,0-32,14.352-32,32s14.352,32,32,32s32-14.352,32-32S412.355,129.623,394.706,129.623z     M394.706,177.623c-8.82,0-16-7.18-16-16s7.18-16,16-16s16,7.18,16,16S403.526,177.623,394.706,177.623z"></path>
	</g>
</g>
<g>
	<g>
		<polygon points="466.706,17.623 466.706,1.623 450.706,1.623 450.706,17.623 434.706,17.623 434.706,33.623 450.706,33.623     450.706,49.623 466.706,49.623 466.706,33.623 482.706,33.623 482.706,17.623   "></polygon>
	</g>
</g>
<g>
	<g>
		<rect x="138.706" y="41.623" width="16" height="16"></rect>
	</g>
</g>
<g>
	<g>
		<polygon points="58.706,65.623 58.706,49.623 42.706,49.623 42.706,65.623 26.706,65.623 26.706,81.623 42.706,81.623     42.706,97.623 58.706,97.623 58.706,81.623 74.706,81.623 74.706,65.623   "></polygon>
	</g>
</g>
<g>
</g>
<g>
</g>
<g>
</g>
<g>
</g>
<g>
</g>
<g>
</g>
<g>
</g>
<g>
</g>
<g>
</g>
<g>
</g>
<g>
</g>
<g>
</g>
<g>
</g>
<g>
</g>
<g>
</g>
</svg>