<svg xmlns="http://www.w3.org/2000/svg" id="Capa_1" height="512" viewBox="0 0 512 512" width="512"><g><path d="m223.089 219.767c-1.446 3.855-5.783 5.783-9.666 4.337-3.855-1.474-5.783-5.811-4.337-9.694l28.574-74.949c1.333-3.543 4.819-5.868 8.589-5.868s7.256 2.325 8.589 5.897l28.29 74.977c1.446 3.855-.51 8.164-4.365 9.638-3.855 1.446-8.192-.511-9.638-4.365l-5.216-13.806h-35.547zm177.111-43.91 106.159 27.326c3.288.821 5.641 3.826 5.641 7.227v54.058c0 4.139-3.345 7.513-7.484 7.513-4.138 0-7.512-3.374-7.512-7.513v-21.628h-96.804v221.898h96.805v-166.282c0-4.139 3.374-7.512 7.512-7.512 4.139 0 7.484 3.373 7.484 7.512v173.796c0 4.139-3.345 7.482-7.484 7.482-165.687 0-331.345 0-497.004 0-4.139 0-7.512-3.344-7.512-7.482v-29.113c0-4.167 3.373-7.512 7.512-7.512 4.138 0 7.483 3.345 7.483 7.512v21.601h96.804v-221.899h-96.804v166.311c0 4.139-3.345 7.512-7.483 7.512-4.139 0-7.512-3.373-7.512-7.512v-198.74c0-3.345 2.268-6.378 5.669-7.227l106.13-27.328c0-35.773 0-71.548 0-107.321 0-3.486 2.466-6.604 5.981-7.342l136.547-28.744c1.021-.227 2.098-.255 3.203-.028l136.178 28.659c3.657.51 6.491 3.656 6.491 7.455zm96.804 51.988v-11.65l-96.804-24.918v36.567h96.804zm-385.204 0v-36.567l-96.805 24.917v11.65zm273.405-141.875v-11.367l-129.205-27.213-129.176 27.213v11.367zm0 14.995h-258.381v363.775h65.481v-45.752c0-4.139 3.373-7.483 7.512-7.483h112.394c4.139 0 7.484 3.345 7.484 7.483v45.752h65.509v-363.775zm-72.994 233.578h49.777c4.139 0 7.484 3.344 7.484 7.482v49.778c0 4.139-3.345 7.512-7.484 7.512h-49.777c-4.139 0-7.512-3.373-7.512-7.512v-49.778c.001-4.138 3.374-7.482 7.512-7.482zm42.266 14.994h-34.781v34.755h34.781zm-42.266-93.231h49.777c4.139 0 7.484 3.344 7.484 7.512v49.749c0 4.166-3.345 7.512-7.484 7.512h-49.777c-4.139 0-7.512-3.346-7.512-7.512v-49.749c.001-4.169 3.374-7.512 7.512-7.512zm42.266 14.994h-34.781v34.782h34.781zm-49.777 155.199h-97.4v38.24h97.4zm-73.589-91.956h49.777c4.139 0 7.512 3.344 7.512 7.482v49.778c0 4.139-3.373 7.512-7.512 7.512h-49.777c-4.139 0-7.483-3.373-7.483-7.512v-49.778c0-4.138 3.345-7.482 7.483-7.482zm42.294 14.994h-34.781v34.755h34.781zm-42.294-93.231h49.777c4.139 0 7.512 3.344 7.512 7.512v49.749c0 4.166-3.373 7.512-7.512 7.512h-49.777c-4.139 0-7.483-3.346-7.483-7.512v-49.749c0-4.169 3.345-7.512 7.483-7.512zm42.294 14.994h-34.781v34.782h34.781zm-123.365 63.243h49.777c4.139 0 7.483 3.344 7.483 7.482v49.778c0 4.139-3.345 7.512-7.483 7.512h-49.777c-4.139 0-7.512-3.373-7.512-7.512v-49.778c0-4.138 3.373-7.482 7.512-7.482zm42.265 14.994h-34.781v34.755h34.781zm231.423-93.231h49.777c4.139 0 7.483 3.344 7.483 7.512v49.749c0 4.166-3.345 7.512-7.483 7.512h-49.777c-4.139 0-7.512-3.346-7.512-7.512v-49.749c0-4.169 3.373-7.512 7.512-7.512zm42.265 14.994h-34.782v34.782h34.782zm-42.265 63.243h49.777c4.139 0 7.483 3.344 7.483 7.482v49.778c0 4.139-3.345 7.512-7.483 7.512h-49.777c-4.139 0-7.512-3.373-7.512-7.512v-49.778c0-4.138 3.373-7.482 7.512-7.482zm42.265 14.994h-34.782v34.755h34.782zm-427.47-93.231h49.777c4.139 0 7.483 3.344 7.483 7.512v49.749c0 4.166-3.345 7.512-7.483 7.512h-49.777c-4.139 0-7.512-3.346-7.512-7.512v-49.749c.001-4.169 3.374-7.512 7.512-7.512zm42.266 14.994h-34.782v34.782h34.782zm-42.266 63.243h49.777c4.139 0 7.483 3.344 7.483 7.482v49.778c0 4.139-3.345 7.512-7.483 7.512h-49.777c-4.139 0-7.512-3.373-7.512-7.512v-49.778c.001-4.138 3.374-7.482 7.512-7.482zm42.266 14.994h-34.782v34.755h34.782zm69.251-93.231h49.777c4.139 0 7.483 3.344 7.483 7.512v49.749c0 4.166-3.345 7.512-7.483 7.512h-49.777c-4.139 0-7.512-3.346-7.512-7.512v-49.749c0-4.169 3.373-7.512 7.512-7.512zm42.265 14.994h-34.781v34.782h34.781zm167.16-74.778c0 7.738-3.118 14.712-8.192 19.786-5.046 5.047-12.047 8.193-19.757 8.193-10.233 0-25.881.057-25.909.057-4.11.027-7.569-3.346-7.54-7.455 0-25.372 0-50.714 0-76.056 0-4.139 3.373-7.482 7.512-7.482h22.082c6.888 0 13.153 2.806 17.66 7.312 4.535 4.536 7.341 10.771 7.341 17.688 0 5.669-1.899 10.886-5.074 15.081 1.304.936 2.551 1.983 3.685 3.117 5.075 5.047 8.192 12.048 8.192 19.759zm-46.403-27.95c4.875 0 9.723-.029 14.599-.029 2.75 0 5.244-1.105 7.059-2.919 1.814-1.814 2.919-4.309 2.919-7.059 0-2.778-1.105-5.272-2.919-7.087-1.814-1.813-4.309-2.92-7.059-2.92h-14.599zm27.61 37.133c2.353-2.352 3.798-5.584 3.798-9.184 0-3.572-1.446-6.803-3.798-9.156-2.353-2.352-5.585-3.798-9.156-3.798h-18.454v26.022c7.456-.057 17.831-.086 18.454-.086 3.571.001 6.832-1.444 9.156-3.798zm-188.138-64.572c0-4.139 3.374-7.512 7.512-7.512s7.483 3.373 7.483 7.512v68.57l19.134-.086c4.11 0 7.456 3.347 7.456 7.485 0 4.109-3.345 7.455-7.456 7.455h-25.965c-4.393 0-8.164-3.062-8.164-7.455zm93.687 17.914-12.133 31.861h24.18z"></path></g></svg>