<svg xmlns="http://www.w3.org/2000/svg" id="Capa_1" height="512" viewBox="0 0 512 512" width="512"><g><path d="m160.564 396.1c2.693 3.147 2.324 7.852-.822 10.546-3.147 2.694-7.853 2.325-10.546-.822-7.484-8.761-12.956-18.172-16.641-27.499-1.587-4.025-2.834-8.022-3.798-11.964-31.043 5.5-56.501 1.107-76.374-8.334-28.662-13.637-45.643-37.961-51.001-58.6-2.013-7.653-1.786-16.471.425-25.089 2.126-8.278 6.124-16.443 11.793-23.219 15.195-18.2 35.068-15.705 56.955-12.955 13.012 1.615 26.847 3.373 39.661.027 8.278-2.154 15.933-6.378 23.133-11.169-8.646-1.332-16.584-3.487-23.842-6.237-14.486-5.5-26.336-13.493-35.692-22.623-2.949-2.892-3.005-7.627-.142-10.574 2.892-2.977 7.626-3.033 10.574-.142 7.995 7.796 18.115 14.601 30.532 19.334 10.717 4.055 23.105 6.577 37.224 6.832 5.981-4.223 11.878-7.994 18.002-10.573-.199-5.784.623-11.85 2.41-17.747 2.268-7.57 6.152-14.97 11.453-21.207 15.309-18.059 35.182-15.449 57.04-12.529 7.938 1.049 15.933 2.098 23.956 2.098 2.835-6.436 4.706-12.898 5.783-19.136 1.389-8.08 1.361-15.734.227-22.341-.907-5.301-3.629-10.886-7.626-15.874-3.998-4.962-9.214-9.3-15.167-12.163-13.721-6.634-27.244 1.361-42.071 10.433 2.75 12.418.227 25.288-7.144 35.721-14.317 20.214-42.269 25.061-62.511 10.745-10.404-7.371-17.123-18.654-18.654-31.326-17.01-3.601-32.432-6.635-43.177 4.196-4.649 4.677-8.108 10.488-10.234 16.498-2.098 6.039-2.835 12.19-1.9 17.521.822 4.818 2.353 9.638 4.281 14.117 1.617 3.799-.142 8.221-3.94 9.837-3.799 1.644-8.193-.113-9.837-3.911-2.41-5.643-4.252-11.482-5.273-17.521-1.332-7.797-.396-16.557 2.551-24.977 2.835-8.022 7.484-15.818 13.75-22.112 16.669-16.84 36.259-12.673 57.861-8.08 12.786 2.723 26.365 5.613 39.463 3.346 13.126-2.239 24.863-9.44 36.117-16.301 18.825-11.511 35.891-21.972 57.238-11.651 7.995 3.854 14.969 9.638 20.298 16.271 5.585 6.945 9.413 14.884 10.745 22.709 1.417 8.192 1.446 17.576-.227 27.385-.822 4.734-2.013 9.61-3.685 14.487 12.36-3.43 23.274-11.311 33.538-18.739 17.889-12.956 34.104-24.692 56.189-16.046 8.25 3.203 15.677 8.448 21.489 14.629 6.208 6.605 10.489 13.947 12.701 22.736.963 4.025-1.531 8.051-5.557 9.015-4.026.963-8.08-1.531-9.043-5.557-1.446-6.123-4.706-11.368-8.987-15.932-4.366-4.65-9.922-8.562-16.046-10.972-14.203-5.528-27.074 3.486-41.164 13.664 3.742 12.191 2.154 25.232-4.366 36.175-5.896 9.864-15.536 17.463-27.556 20.497-11.992 3.033-24.069.906-33.935-4.99-10.972-6.549-18.513-17.265-21.007-29.767-17.265-2.27-32.857-4.111-42.695 7.512-3.94 4.621-6.804 10.149-8.533 15.819-1.021 3.374-1.616 6.747-1.786 10.007 4.989-.17 10.234.653 15.876 2.836 8.278 3.146 15.734 8.336 21.631 14.514 6.123 6.407 10.603 14.034 12.587 21.717 1.787 6.832 2.637 14.629 2.354 22.907 6.151 2.211 12.842 3.884 20.043 4.847 6.804.935 14.033 1.248 21.772.852.823-6.747 2.41-13.013 4.536-18.514 2.864-7.399 8.193-14.458 15.026-20.156 6.52-5.442 14.515-9.694 23.133-11.906 18.825-4.848 32.092 3.487 45.19 14.912 5.698-5.698 10.319-11.737 13.976-17.918 4.99-8.476 8.193-17.18 9.951-25.571.851-4.053 4.819-6.634 8.845-5.811 4.054.851 6.662 4.819 5.812 8.846-2.07 9.95-5.869 20.213-11.708 30.136-4.196 7.087-9.412 13.948-15.791 20.439 8.874 8.193 18.371 16.471 29.682 20.837 12.417 4.819 26.195 4.678 39.378 4.536 22.056-.227 42.071-.425 55.084 19.363 4.876 7.428 7.938 15.96 9.1 24.381 1.219 8.788.425 17.576-2.438 25.004-5.5 14.204-17.066 29.569-34.133 40.908-13.892 9.271-31.497 15.904-52.476 17.096-11.424.68-22.878-.369-34.104-2.665-9.639-1.984-19.108-4.904-28.237-8.505-5.953 13.068-15.393 26.082-28.945 36.826-19.221 15.28-46.663 26.054-83.858 26.054-13.806 0-26.252-1.503-37.45-4.141-12.247-2.891-22.992-7.199-32.375-12.501-3.601-2.041-4.876-6.577-2.864-10.178 2.042-3.601 6.578-4.877 10.178-2.836 8.107 4.594 17.577 8.335 28.462 10.916 10.092 2.381 21.404 3.742 34.048 3.742 33.424 0 57.748-9.44 74.559-22.793 21.943-17.406 31.185-41.448 31.185-59.647 0-5.415-1.729-11.369-4.819-16.926-3.09-5.585-7.512-10.717-12.871-14.571-13.154-9.384-29.739-2.212-43.29 3.175.766 12.615-4.139 25.118-13.04 34.02-8.137 8.108-19.335 13.154-31.723 13.154-12.389 0-23.615-5.046-31.723-13.154-8.93-8.901-13.835-21.404-13.069-34.02-16.16-6.435-30.844-12.021-43.262-3.175-5.387 3.855-9.781 8.986-12.899 14.571-3.09 5.557-4.819 11.511-4.819 16.926 0 7.482 1.587 16.018 5.018 24.721 3.143 7.908 7.764 15.903 14.058 23.274zm-76.742-141.409c2.495 6.436 7.059 11.623 12.701 14.941 6.605 3.854 14.685 5.215 22.68 3.146 7.995-2.098 14.374-7.202 18.229-13.807 3.316-5.642 4.791-12.39 3.827-19.25-8.164 5.444-17.038 10.263-27.3 12.957-10.293 2.666-20.386 2.779-30.137 2.013zm70.619-24.323c3.798 12.161 2.353 25.174-4.111 36.174-5.812 9.893-15.394 17.576-27.386 20.695-11.964 3.118-24.069 1.077-33.963-4.734-10.971-6.436-18.654-17.123-21.234-29.569-17.265-2.183-32.885-3.884-42.666 7.797-4.252 5.074-7.229 11.17-8.817 17.294-1.588 6.207-1.786 12.416-.426 17.661 4.452 17.038 18.711 37.251 43.007 48.789 17.378 8.307 39.945 12.078 67.728 7.088-.51-10.035 1.786-18.853 6.662-27.641 4.139-7.456 10.064-14.346 17.293-19.477 18.71-13.381 36.797-6.747 56.614 1.135 6.548-9.357 10.772-19.165 13.097-28.662 3.118-12.729 2.863-24.862.369-34.531-1.361-5.187-4.564-10.517-8.987-15.165-4.394-4.594-9.951-8.448-16.103-10.803-14.258-5.471-27.072 3.657-41.077 13.949zm222.403 30.164c-1.729 6.69-1.049 13.55 1.616 19.561 6.691 15.111 24.296 21.886 39.406 15.225 6.01-2.666 11.142-7.286 14.345-13.382-9.81-.368-19.845-1.616-29.739-5.443-9.894-3.828-18.144-9.639-25.628-15.961zm71.526 21.46c-4.025 12.134-12.758 21.857-24.466 27.045-10.49 4.622-22.736 5.245-34.303.795-11.567-4.479-20.213-13.211-24.863-23.701-5.103-11.566-5.103-24.862.085-36.401-12.757-11.849-24.438-22.367-39.207-18.597-6.378 1.644-12.361 4.848-17.265 8.959-4.933 4.083-8.675 8.986-10.631 14.034-2.864 7.369-4.48 16.5-4.196 26.449.198 6.804 1.275 13.976 3.459 21.29 16.13-5.811 31.354-8.59 47.003 2.58 7.201 5.131 13.126 12.02 17.265 19.477 4.337 7.796 6.776 16.272 6.776 24.183 0 6.377-.936 13.323-2.892 20.496 8.448 3.373 17.208 6.095 26.139 7.909 10.007 2.07 20.185 2.977 30.306 2.381 18.059-1.049 33.141-6.719 45.048-14.628 14.316-9.525 23.927-22.197 28.435-33.849 1.928-4.99 2.438-11.171 1.559-17.549-.879-6.322-3.147-12.729-6.747-18.229-8.393-12.729-24.099-12.814-41.505-12.644zm-136.787-128.366c-8.221 5.386-17.123 10.148-27.386 12.757-10.263 2.58-20.355 2.58-30.136 1.758 2.438 6.464 6.974 11.679 12.615 15.025 6.549 3.912 14.6 5.329 22.623 3.316 7.995-2.041 14.43-7.088 18.342-13.665 3.347-5.612 4.849-12.332 3.942-19.191zm-119.523-50.804c-8.618 4.706-17.86 8.788-28.292 10.575-10.433 1.786-20.497 1.049-30.192-.539 1.956 6.604 6.038 12.162 11.396 15.932 13.466 9.526 32.121 6.351 41.646-7.116 3.798-5.358 5.811-11.962 5.442-18.852zm84.851 222.715c-9.299 3.231-19.108 5.698-29.654 5.698-10.574 0-20.355-2.467-29.682-5.698.793 6.86 3.912 13.014 8.562 17.662 5.386 5.415 12.871 8.731 21.121 8.731 8.249 0 15.706-3.316 21.092-8.731 4.649-4.648 7.767-10.802 8.561-17.662zm6.067-18.228c-2.636-8.533-4.026-16.982-4.337-25.062-8.193.34-15.904-.027-23.162-1.02-7.087-.936-13.693-2.467-19.873-4.48-.255 1.221-.539 2.467-.822 3.686-2.495 10.178-6.804 20.639-13.296 30.646 8.335 2.894 16.953 5.132 25.77 5.132 12.417-.001 24.295-4.396 35.72-8.902z"></path></g></svg>