<svg xmlns="http://www.w3.org/2000/svg" id="Capa_1" height="512" viewBox="0 0 512 512" width="512"><g><path d="m399.634 220.004 20.253-20.253c45.636-45.635 45.636-119.89 0-165.525-45.636-45.636-119.891-45.635-165.524 0l-27.303 27.303-27.303-27.302c-45.635-45.635-119.889-45.636-165.525 0-45.636 45.635-45.636 119.89-.038 165.487l182.777 184.09c9.793 72.29 71.905 128.196 146.837 128.196 81.713 0 148.192-66.479 148.192-148.192 0-69.363-47.905-127.739-112.366-143.804zm-182.346 121.541-147.008-148.064h104.942l10.284-18.311 44.317 67.611 39.511-52.503 117.957-.357-25.722 25.723c-73.145 1.09-133.618 55.43-144.281 125.901zm-161.844-286.105c33.939-33.938 89.162-33.938 123.1 0l48.516 48.516 48.516-48.516c33.938-33.938 89.158-33.939 123.099 0 16.44 16.44 25.494 38.299 25.494 61.55 0 15.264-3.926 29.916-11.258 42.841l-158.546.448-22.848 30.361-47.987-73.21-25.866 46.051h-114.24c-21.257-33.631-17.266-78.755 12.02-108.041zm323.364 425.612v-28.48h-30v28.48c-53.118-6.757-95.34-48.91-102.209-101.993h28.696v-30h-28.759c6.667-53.32 48.988-95.717 102.273-102.496v28.982h30v-28.982c53.286 6.779 95.607 49.176 102.274 102.496h-28.76v30h28.697c-6.871 53.084-49.094 95.236-102.212 101.993z"></path><path d="m348.808 306.91.239 47.582-21.302 16.776 18.561 23.569 32.815-25.842-.313-62.237z"></path></g></svg>