<svg xmlns="http://www.w3.org/2000/svg" id="Capa_1" height="512" viewBox="0 0 511.883 511.883" width="512"><g><path d="m496.883 0c-20.777 0-453.994 0-481.883 0-8.284 0-15 6.716-15 15v451.765c0 8.284 6.716 15 15 15h81.941v14.176c0 8.284 6.716 15 15 15s15-6.716 15-15v-14.176h257.059v15.118c0 8.284 6.716 15 15 15s15-6.716 15-15v-15.118h82.883c8.284 0 15-6.716 15-15v-451.765c0-8.284-6.716-15-15-15zm-399.118 384v-30.235h316.353v30.235zm90.353 30h135.647v37.765h-135.647zm128.117-90.235h-128.117v-37.765h22.647c8.284 0 15-6.716 15-15s-6.716-15-15-15h-22.647v-105.529h128.118v173.294zm-128.117-203.294v-30.236h128.118v30.235h-128.118zm-158.118-30.236h128.118v30.235h-128.118zm158.118-60.235h128.118v30.235h-128.118zm158.117 60.235h135.647v30.235h-135.647zm135.648-30h-135.648v-30.235h135.647v30.235zm-323.765-30.235v30.235h-128.118v-30.235zm-128.118 421.765v-165.765h22.647c8.284 0 15-6.716 15-15s-6.716-15-15-15h-22.647v-105.529h128.118v173.294h-75.353c-8.284 0-15 6.716-15 15v60.235c0 8.284 6.716 15 15 15h14.176v37.765zm96.941-37.765h31.176v37.765h-31.176zm226.824 37.765v-37.765h30.235v37.765zm60.235 0v-37.765h15.118c8.284 0 15-6.716 15-15v-60.235c0-8.284-6.716-15-15-15h-82.883v-37.765h22.647c8.284 0 15-6.716 15-15s-6.716-15-15-15h-22.647v-105.529h135.647v301.294z"></path></g></svg>