<svg xmlns="http://www.w3.org/2000/svg" id="Layer_5" height="512" viewBox="0 0 64 64" width="512"><path d="m47.514 29 5.538 1.845c.209.07.422.104.631.104.837 0 1.619-.53 1.899-1.367l.018-.055 4.123 2.473h3.277v-2h-2.723l-4.039-2.423c.276-1.016-.279-2.085-1.289-2.422l-6.463-2.155h-9.306l.438-2.627 6.126-1.751 4.597-5.748c.66-.823.553-2.008-.212-2.714l2.371-3.16h4.5v-2h-5.5l-2.924 3.899-.108-.086c-.861-.688-2.123-.55-2.811.313l-3.402 4.253-5.677 1.621h-.836c.596-1.139 1.258-2.694 1.258-4 0-.869-.431-1.572-1.034-2.134.683-1.093 1.034-2.041 1.034-2.866 0-2.347-2.058-4.473-2.293-4.707l-1.416 1.413c.476.479 1.709 2.004 1.709 3.294 0 .214-.087.773-.702 1.772-.889-.425-1.733-.661-2.055-.742l-.243-.061-.243.061c-.322.08-1.167.317-2.056.742-.614-.998-.701-1.558-.701-1.772 0-1.29 1.233-2.815 1.708-3.294l-1.416-1.413c-.234.234-2.292 2.36-2.292 4.707 0 .812.358 1.778 1.035 2.865-.603.563-1.035 1.265-1.035 2.135 0 1.306.662 2.861 1.257 4h-.836l-5.677-1.622-3.402-4.253c-.688-.861-1.951-1.002-2.812-.312l-.107.086-2.923-3.899h-5.5v2h4.5l2.37 3.16c-.765.706-.872 1.891-.213 2.714l4.598 5.748 6.126 1.751.439 2.627h-9.306l-6.463 2.155c-1.01.337-1.565 1.406-1.289 2.422l-4.039 2.423h-2.723v2h3.277l4.124-2.474.018.055c.28.837 1.062 1.367 1.898 1.367.209 0 .422-.033.631-.104l5.538-1.844h2.762l-1.083 6h-7.165c-1.144 0-2.171.636-2.683 1.658l-3 6c-.493.986-.092 2.19.895 2.684l.479.24-1.447 3.617-2.56.854.633 1.896 3.44-1.146 1.759-4.398c.125.024.25.043.376.043.734 0 1.442-.405 1.792-1.105l2.17-4.343h2.702c.15.257.322.498.523.714-.654.551-1.079 1.366-1.079 2.286 0 2.163 1.389 3.992 3.315 4.687-.195.398-.315.84-.315 1.313 0 2.162 1.388 3.991 3.313 4.687l-.02.02 6.586 6.586c1.1 1.101 2.564 1.707 4.121 1.707s3.021-.606 4.121-1.707l6.586-6.586-.02-.02c1.925-.696 3.313-2.525 3.313-4.687 0-.473-.12-.915-.315-1.313 1.926-.695 3.315-2.524 3.315-4.687 0-.92-.425-1.735-1.08-2.286.202-.217.373-.457.523-.714h2.702l2.171 4.342c.35.7 1.058 1.105 1.792 1.105.125 0 .251-.019.376-.043l1.759 4.398 3.44 1.146.633-1.896-2.56-.854-1.447-3.617.479-.24c.986-.493 1.388-1.697.895-2.684l-3-6c-.511-1.021-1.539-1.657-2.683-1.657h-7.165l-1.083-6zm-4.829-4h4.464l-.324 2h-2.708c-.361-.756-.844-1.428-1.432-2zm-25.834 0h4.464c-.588.572-1.072 1.244-1.431 2h-2.709zm4.74-9.586 2.906.831c-.313.457-.497 1.008-.497 1.602 0 .117.014.23.028.344l-3.601-1.029zm21.981 1.748-3.601 1.029c.015-.114.029-.228.029-.344 0-.594-.184-1.145-.496-1.602l2.906-.831zm-6.419-.162c.467 0 .847.38.847.847 0 .047-.004.094-.011.14l-.836 5.013h-10.306l-.836-5.014c-.007-.046-.011-.092-.011-.139 0-.467.38-.847.847-.847zm-15.893 12.111c.43-2.382 2.5-4.111 4.92-4.111h4.742c-.377 3.372-2.605 6.345-5.814 7.579l-4.808 1.849zm10.74-.532c1.194 2.639 3.383 4.794 6.174 5.868l1.44.553h-15.228l1.44-.554c2.791-1.073 4.98-3.229 6.174-5.867zm-13 8.421h26c1.103 0 2 .897 2 2s-.897 2-2 2h-26c-1.103 0-2-.897-2-2s.897-2 2-2zm19.892-4.421c-3.209-1.234-5.437-4.207-5.814-7.579h4.742c2.421 0 4.49 1.729 4.92 4.111l.96 5.317zm14.792-3.631-4.884-1.628.324-2 5.193 1.732zm-6.465-18.574 1.562 1.25-3.544 4.43-1.163-1.748zm-18.219.626c0-.733 1.695-1.586 3-1.964 1.305.378 3 1.23 3 1.964 0 1.18-.954 3.007-1.554 4h-2.893c-.599-.993-1.553-2.82-1.553-4zm-12.219-.625 3.145 3.931-1.163 1.748-3.544-4.43zm-6.465 18.573-.633-1.896 5.193-1.731.324 2zm-1.421 15.499-1.789-.895 2.751-5.502 1.236 2zm3.899-5.447-1.236-2h3.999c-.345.591-.557 1.268-.557 2zm21.913 20.879c-1.446 1.445-3.968 1.445-5.414 0l-4.879-4.879h15.172zm6.293-6.879h-18c-1.654 0-3-1.346-3-3 0-.552.449-1 1-1h22c.551 0 1 .448 1 1 0 1.654-1.346 3-3 3zm3-6h-1-22-1c-1.654 0-3-1.346-3-3 0-.552.449-1 1-1h1 26 1c.551 0 1 .448 1 1 0 1.654-1.346 3-3 3zm4.444-10h3.999l-1.236 2h-2.207c0-.732-.212-1.409-.556-2zm8.451 6.553-1.789.895-2.198-4.396 1.236-2z"></path></svg>