<svg xmlns="http://www.w3.org/2000/svg" id="Layer_1" height="512" viewBox="0 0 512 512" width="512"><g><g><path d="m469.67 114.5h-49.593c-4.142 0-7.5 3.357-7.5 7.5s3.358 7.5 7.5 7.5h49.593c15.07 0 27.33 12.26 27.33 27.33v10.06c0 .888-.722 1.61-1.61 1.61h-158.89v-4.436c0-10.236-8.328-18.564-18.564-18.564h-123.872c-10.236 0-18.564 8.328-18.564 18.564v4.436h-35.526c-4.142 0-7.5 3.357-7.5 7.5s3.358 7.5 7.5 7.5h35.741c1.633 12.949 12.707 23 26.092 23h108.385c13.385 0 24.459-10.051 26.092-23h125.722l-25.423 139.216c-.744 4.075 1.956 7.981 6.031 8.726.456.083.909.123 1.356.123 3.552 0 6.708-2.534 7.369-6.153l12.579-68.881h10.823c12.279 0 22.27-9.99 22.27-22.271v-50.842c8.401-.817 14.99-7.916 14.99-16.528v-10.06c-.001-23.341-18.99-42.33-42.331-42.33zm-148.17 65.692c0 6.235-5.073 11.308-11.308 11.308h-108.384c-6.235 0-11.308-5.072-11.308-11.308v-16.128c0-1.966 1.599-3.564 3.564-3.564h123.872c1.965 0 3.564 1.599 3.564 3.564zm160.51 54.068c0 4.009-3.261 7.271-7.27 7.271h-8.083l10.597-58.03h4.755v50.759z"></path><path d="m439.56 348.164c-4.073-.744-7.981 1.955-8.726 6.03l-2.663 14.58c-1.451 7.953-8.374 13.726-16.461 13.726h-311.42c-8.088 0-15.011-5.772-16.462-13.728l-33.834-185.272h55.314c4.142 0 7.5-3.357 7.5-7.5s-3.358-7.5-7.5-7.5h-88.698c-.888 0-1.61-.723-1.61-1.61v-10.06c0-15.07 12.26-27.33 27.33-27.33h342.516c4.142 0 7.5-3.357 7.5-7.5s-3.358-7.5-7.5-7.5h-342.516c-23.341 0-42.33 18.989-42.33 42.33v10.06c0 8.734 6.78 15.898 15.35 16.546v50.824c0 12.28 9.99 22.271 22.27 22.271h10.462l20.989 114.936c2.752 15.085 15.881 26.034 31.218 26.034h311.42c15.337 0 28.466-10.949 31.218-26.032l2.663-14.578c.744-4.077-1.955-7.983-6.03-8.727zm-401.94-106.634c-4.009 0-7.27-3.262-7.27-7.271v-50.759h4.396l10.597 58.03z"></path></g></g></svg>