<svg xmlns="http://www.w3.org/2000/svg" height="496pt" viewBox="0 0 496 496" width="496pt"><path d="m464 320v-64h-40v-24h48v-48h-48v-16h16v-48h-16v-24c0-13.230469-10.769531-24-24-24s-24 10.769531-24 24v24h-16v48h16v16h-48v48h48v24h-28.910156c-9.945313 0-18.976563 6.257812-22.480469 15.566406l-18.152344 48.433594h-12.90625l-18.160156-48.433594c-3.503906-9.308594-12.535156-15.566406-22.480469-15.566406h-20.910156v-16c0-8.824219-7.175781-16-16-16h-80c-8.824219 0-16 7.175781-16 16v16h-20.910156c-9.945313 0-18.976563 6.257812-22.480469 15.566406l-18.152344 48.433594h-58.457031v16l21.425781 82.472656c12.023438 45.648438 53.382813 77.527344 100.574219 77.527344h252c47.199219 0 88.558594-31.878906 100.574219-77.527344l21.167969-80.433594.257812-18.039062zm-72-224c0-4.40625 3.59375-8 8-8s8 3.59375 8 8v24h-16zm-16 40h48v16h-48zm16 32h16v16h-16zm-48 32h112v16h-112zm48 32h16v24h-16zm-52.40625 45.191406c1.167969-3.101562 4.183594-5.191406 7.496094-5.191406h100.910156v48h-124.457031zm-203.59375-37.191406h80v16h-80zm-44.40625 37.191406c1.167969-3.101562 4.183594-5.191406 7.496094-5.191406h153.820312c3.320313 0 6.328125 2.089844 7.496094 5.191406l16.050781 42.808594h-200.914062zm282.40625 202.808594h-252c-39.9375 0-74.9375-26.976562-85.105469-65.609375l-8-30.390625h387.105469v-16h-391.304688l-8.421874-32h463.453124l-8.421874 32h-39.304688v16h35.097656l-8 30.390625c-10.167968 38.632813-45.160156 65.609375-85.097656 65.609375zm0 0"></path><path d="m81.96875 431.144531-11.433594 11.183594c13.480469 13.777344 32.25 21.671875 51.472656 21.671875h39.128907v-16h-39.128907c-15.175781 0-29.390624-5.992188-40.039062-16.855469zm0 0"></path><path d="m67.839844 406.246094-15.472656 4.082031c1.632812 6.183594 4.082031 12.136719 7.273437 17.671875l13.855469-8c-2.480469-4.304688-4.382813-8.929688-5.65625-13.753906zm0 0"></path><path d="m168 288h16v16h-16zm0 0"></path><path d="m216 288h16v16h-16zm0 0"></path><path d="m120 288h16v16h-16zm0 0"></path><path d="m19.945312 172.511719c8.207032 20.753906 28.421876 35.488281 52.054688 35.488281s43.847656-14.734375 52.054688-35.488281l5.289062 7.929687 13.3125-8.875-20.441406-30.65625-30.65625 20.441406 8.875 13.3125 7.140625-4.761718c-5.4375 10.753906-15.445313 18.824218-27.574219 21.296875v-79.199219h32v-16h-32v-16.808594c18.230469-3.71875 32-19.871094 32-39.191406 0-22.054688-17.945312-40-40-40s-40 17.945312-40 40c0 19.3125 13.769531 35.472656 32 39.191406v16.808594h-32v16h32v79.191406c-12.136719-2.472656-22.144531-10.542968-27.574219-21.296875l7.140625 4.761719 8.875-13.3125-30.65625-20.441406-20.441406 30.65625 13.3125 8.875zm28.054688-132.511719c0-13.230469 10.769531-24 24-24s24 10.769531 24 24c0 10.414062-6.710938 19.214844-16 22.527344v-14.527344h-16v14.527344c-9.289062-3.3125-16-12.113282-16-22.527344zm0 0"></path><path d="m352 288h16v16h-16zm0 0"></path><path d="m384 288h16v16h-16zm0 0"></path><path d="m416 288h16v16h-16zm0 0"></path></svg>