<svg xmlns="http://www.w3.org/2000/svg" id="Capa_1" height="512" viewBox="0 0 512 512" width="512"><g><g><path d="m498.482 392.784c-2.205-2.204-4.631-4.187-7.211-5.893-3.461-2.288-8.122-1.336-10.411 2.125-2.288 3.461-1.336 8.123 2.125 10.411 8.659 5.725 13.988 15.576 13.988 25.991 0 8.315-3.237 16.131-9.117 22.01-6.182 6.183-14.724 9.509-23.486 9.082-2.104-.091-4.171.698-5.667 2.192-1.496 1.496-2.291 3.553-2.192 5.667.412 8.742-2.898 17.303-9.082 23.486-12.272 12.27-31.885 12.131-44.018 0-5.88-5.879-9.117-13.695-9.117-22.009 0-8.315 3.237-16.131 9.117-22.01 4.129-4.128 10.54-8.695 4.644-14.591-.013-.013-29.692-29.691-29.692-29.691l21.192-21.192s29.643 29.643 29.691 29.692c3.174 3.174 8.76 2.723 11.391-.894.971-1.337 2.049-2.598 3.2-3.75 3.572-3.573 7.805-6.151 12.582-7.663 3.956-1.253 6.148-5.475 4.896-9.431-1.252-3.957-5.476-6.146-9.431-4.896-6.546 2.073-12.62 5.646-17.648 10.37l-26.551-26.551s-6.974-17.538-8.138-25.794c-2.505-17.777-2.751-35.464-2.565-53.309.137-13.145.269-26.32-.997-39.42-6.422-66.433-40.103-124.726-67.226-161.929-25.078-34.397-56.828-64.692-57.37-65.234-19.875-19.876-51.829-24.795-89.979-13.856-36.61 10.499-75.001 34.51-108.102 67.611s-57.112 71.492-67.611 108.102c-10.94 38.149-6.02 70.104 13.854 89.979.492.492 30.578 32.103 65.234 57.37 30.492 22.23 63.917 40.936 99.639 53.301 10.445 3.616 21.087 6.674 31.88 9.066 17.386 3.854 35.085 5.865 52.951 5.917 23.441.069 46.836-.786 70.189 2.504 8.256 1.163 24.988 7.953 25.392 8.045l26.954 26.643c-8.088 8.591-12.525 19.759-12.525 31.612 0 12.327 4.801 23.917 13.518 32.635 8.718 8.717 20.308 13.518 32.635 13.518 12.328 0 23.918-4.801 32.636-13.518 7.366-7.367 11.982-17.006 13.196-27.231 10.225-1.214 19.865-5.831 27.231-13.196 8.717-8.718 13.518-20.308 13.518-32.636.001-12.327-4.8-23.918-13.517-32.635zm-478.34-207.231c9.808-34.201 32.463-70.29 63.792-101.618 31.328-31.329 67.417-53.985 101.618-63.792 11.942-3.424 23.086-5.121 33.195-5.121 17.543 0 31.967 5.109 42.015 15.156 15.838 15.837 19.402 42.548 10.036 75.21-9.807 34.201-32.462 70.29-63.791 101.618-31.328 31.329-67.417 53.985-101.618 63.791-32.665 9.368-59.372 5.803-75.21-10.036-15.839-15.836-19.403-42.547-10.037-75.208zm321.397 199.113c-4.933-.695-9.861-1.237-14.791-1.652-14.079-1.188-28.167-1.351-42.415-1.148-28.473.406-54.034-1.726-81.318-9.646-40.166-11.66-75.438-30.905-109.081-55.389-12.734-9.268-23.875-18.414-33.127-26.544 3.667.431 7.453.654 11.359.654 11.536 0 24.076-1.887 37.365-5.698 36.609-10.499 75.001-34.51 108.102-67.61 33.1-33.101 57.111-71.493 67.61-108.102 5.1-17.785 6.75-34.221 5.048-48.717 8.129 9.251 17.272 20.387 26.539 33.121 25.929 35.625 58.113 91.3 64.197 154.228 3 31.05-.74 62.316 3.638 93.381 1.24 8.794 4.026 16.587 6.852 23.604l-26.372 26.372c-7.016-2.828-14.808-5.614-23.606-6.854z"></path><path d="m113.965 253.477c28.026-9.417 57.923-29.066 84.185-55.328s45.91-56.158 55.328-84.185c10.011-29.793 7.387-54.338-7.387-69.114-29.542-29.537-96.875-8.481-153.299 47.939-8.686 8.686-16.742 17.876-23.949 27.316-2.517 3.299-1.884 8.014 1.414 10.532 3.301 2.517 8.014 1.884 10.532-1.414 6.801-8.911 14.415-17.593 22.63-25.807 48.782-48.783 109.254-70.736 132.046-47.94 10.376 10.376 11.751 29.949 3.77 53.701-8.692 25.869-27.057 53.692-51.71 78.344-24.652 24.653-52.475 43.018-78.344 51.71-23.75 7.98-43.325 6.609-53.702-3.77-14.109-14.109-11.424-44.045 7.007-78.126 1.974-3.65.615-8.209-3.035-10.182-3.649-1.976-8.209-.616-10.182 3.035-22.048 40.767-23.698 76.618-4.415 95.9 8.877 8.877 21.278 13.368 36.229 13.367 9.929.001 20.99-1.981 32.882-5.978z"></path><path d="m166.712 146.568c11.417 0 25.47-7.258 37.509-20.39 17.76-19.373 22.405-42 10.807-52.633-6.123-5.613-15.269-6.604-25.753-2.792-8.836 3.214-17.979 9.648-25.745 18.119-17.76 19.372-22.406 41.999-10.808 52.634 3.737 3.424 8.566 5.062 13.99 5.062zm7.895-47.542c6.074-6.625 13.292-11.783 19.803-14.152 6.552-2.384 12.714-1.871 11.853 6.462-.955 9.233-7.033 18.047-13.118 24.686-12.624 13.768-26.575 17.788-30.267 14.406-3.69-3.383-.894-17.633 11.729-31.402z"></path></g></g></svg>