<svg xmlns="http://www.w3.org/2000/svg" height="512pt" viewBox="0 -69 512.001 512" width="512pt"><path d="m89.1875 290.355469c-14.921875 0-27.0625 12.144531-27.0625 27.066406s12.140625 27.0625 27.0625 27.0625c14.925781 0 27.066406-12.140625 27.066406-27.0625s-12.140625-27.066406-27.066406-27.066406zm0 39.132812c-6.652344 0-12.0625-5.414062-12.0625-12.066406s5.410156-12.0625 12.0625-12.0625 12.066406 5.410156 12.066406 12.0625-5.414062 12.066406-12.066406 12.066406zm0 0"></path><path d="m422.8125 290.355469c-14.925781 0-27.066406 12.144531-27.066406 27.066406s12.140625 27.0625 27.066406 27.0625c14.921875 0 27.0625-12.140625 27.0625-27.0625s-12.140625-27.066406-27.0625-27.066406zm0 39.132812c-6.652344 0-12.066406-5.414062-12.066406-12.066406s5.414062-12.0625 12.066406-12.0625 12.0625 5.410156 12.0625 12.0625-5.410156 12.066406-12.0625 12.066406zm0 0"></path><path d="m61.09375 176.988281v90.558594c-17.394531 9.839844-29.171875 28.503906-29.171875 49.875 0 31.578125 25.6875 57.269531 57.269531 57.269531 21.371094 0 40.035156-11.777344 49.875-29.175781h233.871094c9.839844 17.398437 28.5 29.175781 49.875 29.175781 31.578125 0 57.269531-25.691406 57.269531-57.269531 0-21.371094-11.777343-40.035156-29.175781-49.875v-90.558594h39.90625c11.683594 0 21.1875-9.503906 21.1875-21.1875v-39.894531c0-11.683594-9.503906-21.191406-21.1875-21.191406h-1.140625c3.398437-8.234375 5.171875-17.085938 5.171875-26.132813 0-29.269531-18.578125-55.328125-46.257812-64.863281-14.386719-4.953125-30.324219-4.964844-44.707032.011719-19.511718 6.71875-34.492187 21.675781-41.628906 40.175781-5.519531-3.53125-13.574219-7.808594-24.515625-11.597656-38.976563-13.484375-85.949219-13.714844-124.566406 1.03125-13.210938 5.046875-25.816407 11.652344-39.355469 15.832031-22.257812 6.863281-54.914062 11.597656-69.449219-10.6875-6.390625-9.800781-14.019531-16.992187-25.582031-20.1875-14.648438-4.042969-29.703125 7.425781-29.703125 22.769531v53.652344h-27.886719c-11.6875 0-21.191406 9.503906-21.191406 21.1875v39.894531c0 11.683594 9.507812 21.191407 21.191406 21.191407h39.902344zm15 84.671875v-84.671875h26.1875v84.671875c-4.273438-1.003906-8.699219-1.507812-13.09375-1.507812-4.390625 0-8.816406.503906-13.09375 1.507812zm13.09375 98.03125c-23.304688 0-42.265625-18.960937-42.265625-42.269531 0-22.945313 19.347656-42.269531 42.28125-42.269531 29.710937.003906 50.800781 31.851562 38.652344 59.308594-6.5625 14.84375-21.421875 25.230468-38.667969 25.230468zm375.890625-42.269531c0 23.308594-18.960937 42.269531-42.269531 42.269531-21.332032 0-39.90625-16.839844-42.054688-38.042968-2.105468-20.808594 12.449219-40.882813 32.8125-45.464844 25.644532-5.765625 51.511719 14.867187 51.511719 41.238281zm-29.175781-55.761719c0-.214844-4.378906-.832031-4.78125-.890625-7-1.035156-14.417969-.753906-21.40625.890625v-84.671875h26.1875zm43.941406-193.082031c0 9.21875-2.339844 18.175781-6.800781 26.136719h-19.390625v-72.207032c16.003906 9.515626 26.191406 26.914063 26.191406 46.070313zm-41.191406-52.148437v78.285156h-24.816406v-78.285156c8.070312-1.917969 16.753906-1.917969 24.816406 0zm-39.816406 6.078124v72.207032s-19.386719 0-19.394532-.007813c-6.652344-10.503906-8.136718-24.058593-5.851562-36.113281 2.855468-15.089844 12.078125-28.257812 25.246094-36.085938zm-40.667969 37.597657c-1.445313 11.679687.15625 23.726562 4.640625 34.609375h-20.023438v-44.28125c7.609375 3.445312 12.667969 6.816406 15.476563 8.941406-.03125.246094-.0625.488281-.09375.730469zm-30.382813 34.609375h-24.816406v-55.160156c8.792969 1.199218 17.097656 2.972656 24.816406 5.300781zm-39.816406-56.632813v56.632813h-24.808594v-56.800782c3.355469-.183593 20.117188-.125 24.808594.167969zm-39.808594 56.632813h-24.816406v-49.125c8.351562-2.898438 16.347656-4.886719 24.816406-6.164063zm-45.023437-40.941406c1.734375-.753907 3.46875-1.511719 5.203125-2.257813v43.199219h-24.816406v-32.960938c6.664062-2.339844 13.140624-5.15625 19.613281-7.980468zm-34.613281 40.941406h-24.808594v-25.574219c8.699218-.261719 16.816406-1.257813 24.808594-3.050781zm-39.808594-25.964844v25.964844h-24.816406v-34.195313c5.46875 3.949219 13.140624 7.089844 24.816406 8.230469zm-64.636719-27.683594c0-5.496094 5.378906-9.777344 10.71875-8.308594 7.5625 2.085938 11.132813 5.554688 14.101563 9.625v52.332032h-24.820313s0-53.519532 0-53.648438zm-42.886719 120.921875c-3.414062 0-6.191406-2.777343-6.191406-6.1875v-39.894531c0-3.414062 2.777344-6.191406 6.191406-6.191406h469.617188c3.414062 0 6.191406 2.777344 6.191406 6.191406v39.894531c0 3.410157-2.777344 6.1875-6.191406 6.1875h-302.558594c-4.140625 0-7.5 3.359375-7.5 7.5 0 4.144531 3.359375 7.5 7.5 7.5h206.46875v90.558594c-9.09375 5.140625-16.644531 12.691406-21.78125 21.78125h-36.6875c-4.140625 0-7.5 3.359375-7.5 7.5 0 4.144531 3.359375 7.5 7.5 7.5h30.800781c-.0625.257813-.105469.519531-.160156.773437-1.839844 8.34375-1.792969 17.097657.160156 25.414063h-222.101562c.0625-.257813.101562-.519531.160156-.777344 1.710937-7.777343 1.746094-15.886719.195313-23.695312-.113282-.570313-.222657-1.144531-.355469-1.714844h161.300781c4.140625 0 7.5-3.355469 7.5-7.5 0-4.140625-3.359375-7.5-7.5-7.5h-167.1875c-5.140625-9.089844-12.6875-16.640625-21.78125-21.78125v-90.554687h40.96875c4.140625 0 7.5-3.359376 7.5-7.5 0-4.144532-3.359375-7.5-7.5-7.5h-137.058594zm0 0"></path></svg>