<svg xmlns="http://www.w3.org/2000/svg" height="479pt" viewBox="1 1 479 479.99829" width="479pt"><path d="m246.152344 2.34375c-3.121094-3.125-8.1875-3.125-11.3125 0l-232 232c-3.121094 3.121094-3.121094 8.1875 0 11.308594l21.65625 21.65625v204.691406c0 4.417969 3.582031 8 8 8h416c4.417968 0 8-3.582031 8-8v-204.691406l21.65625-21.65625c3.125-3.121094 3.125-8.1875 0-11.308594zm114.34375 461.65625h-240v-16h240zm16 0v-24c0-4.421875-3.582032-8-8-8h-256c-4.417969 0-8 3.578125-8 8v24h-16v-192h16v120c0 4.417969 3.582031 8 8 8h280v64zm-227.71875-135.035156-.96875-.964844.96875-.96875c4.492187-4.519531 10.605468-7.050781 16.976562-7.03125h21.488282c6.371093-.019531 12.484374 2.511719 16.976562 7.03125l.964844.96875-.964844.964844c-4.492188 4.519531-10.605469 7.050781-16.976562 7.035156h-21.488282c-6.371094.015625-12.484375-2.515625-16.976562-7.035156zm99.71875-.964844c0-4.421875 3.582031-8 8-8h112c4.417968 0 8 3.578125 8 8 0 4.417969-3.582032 8-8 8h-112c-4.417969 0-8-3.582031-8-8zm144 24v32h-168v-32zm-184 0v32h-88v-32zm232 112h-32v-120c0-4.421875-3.582032-8-8-8h-9.46875c.945312-2.5625 1.445312-5.269531 1.46875-8 0-13.257812-10.742188-24-24-24h-112c-13.253906 0-24 10.742188-24 24 .027344 2.730469.527344 5.4375 1.472656 8h-14.160156l2.34375-2.347656c3.125-3.121094 3.125-8.1875 0-11.308594l-6.621094-6.625c-7.488281-7.527344-17.671875-11.746094-28.289062-11.71875h-21.488282c-10.617187-.027344-20.800781 4.191406-28.289062 11.71875l-6.625 6.625c-3.121094 3.121094-3.121094 8.1875 0 11.308594l2.34375 2.347656h-12.6875v-72c0-4.421875-3.582032-8-8-8h-32c-4.417969 0-8 3.578125-8 8v200h-32v-196.691406l200-200 200 200zm8-211.3125-202.34375-202.34375c-3.121094-3.125-8.1875-3.125-11.3125 0l-202.34375 202.34375-12.6875-12.6875 220.6875-220.691406 220.6875 220.691406zm0 0"></path></svg>