<svg xmlns="http://www.w3.org/2000/svg" viewBox="0 0 512 512" width="512" height="512"><g id="_21-mouth_wash" data-name="21-mouth wash"><g id="filled"><path d="M504.485,232.485c6.932-.746,2.23-83.64,3.517-88.484a12.134,12.134,0,0,0-4.8-9.6L444,90V16A12,12,0,0,0,432,4H368a12,12,0,0,0-12,12V90l-59.2,44.4A12.127,12.127,0,0,0,292,144c1.31,5.17-3.458,87.408,3.515,88.485L324,260.971v70.058l-28.485,28.486A12.083,12.083,0,0,0,292,368v96a44.049,44.049,0,0,0,44,44H464a44.049,44.049,0,0,0,44-44V368a12.083,12.083,0,0,0-3.515-8.485L476,331.029V260.971Zm-48.97,112L467.029,356H332.971l11.514-11.515A12,12,0,0,0,348,336V256a12,12,0,0,0-3.515-8.485L332.971,236H467.029l-11.514,11.515A12,12,0,0,0,452,256v80A12,12,0,0,0,455.515,344.485ZM316,212V156H484v56ZM380,28h40V52H380Zm-4.8,77.6A12,12,0,0,0,380,96V76h40V96a12,12,0,0,0,4.8,9.6L460,132H340ZM484,464a20.023,20.023,0,0,1-20,20H336a20.023,20.023,0,0,1-20-20V380H484Z"></path><path d="M256,308H96a12.074,12.074,0,0,0-11.951,13.086L97.4,467.984a43.785,43.785,0,0,0,23.7,35.209A44.269,44.269,0,0,0,141.223,508h69.554A43.819,43.819,0,0,0,254.6,467.984l13.355-146.9A12.074,12.074,0,0,0,256,308Zm-13.141,24-2.181,24H111.322l-2.181-24ZM141.223,484a19.9,19.9,0,0,1-19.918-18.189L113.5,380H238.5l-7.8,85.811A19.9,19.9,0,0,1,210.777,484Z"></path><circle cx="196" cy="420" r="12"></circle><circle cx="156" cy="404" r="12"></circle><circle cx="148" cy="260" r="12"></circle><circle cx="180" cy="212" r="12"></circle><circle cx="212" cy="284" r="12"></circle><circle cx="156" cy="452" r="12"></circle></g></g></svg>