<svg xmlns="http://www.w3.org/2000/svg" xmlns:xlink="http://www.w3.org/1999/xlink" id="Capa_1" x="0px" y="0px" viewBox="0 0 512.001 512.001" style="enable-background:new 0 0 512.001 512.001;" xml:space="preserve">
<g>
	<g>
		<g>
			<path d="M342.508,302.746c-43.269,0-69.254,9.707-92.682,34.621c-3.757,3.995-5.732,9.214-5.564,14.694     c0.169,5.481,2.462,10.568,6.457,14.325c8.245,7.753,21.264,7.355,29.019-0.893c13.227-14.067,27.147-21.69,62.77-21.69     c27.481,0,45.624,3.457,62.77,21.69c3.864,4.109,9.316,6.466,14.957,6.466c5.246,0,10.24-1.979,14.061-5.573     c8.247-7.754,8.648-20.772,0.893-29.02C411.76,312.452,385.775,302.746,342.508,302.746z M424.02,355.46     c-1.028,0.967-2.373,1.5-3.785,1.5c-1.543,0-2.975-0.619-4.03-1.742c-20.685-21.996-43.534-26.415-73.698-26.415     c-40.687,0-58.364,10.107-73.697,26.415c-2.091,2.223-5.597,2.329-7.818,0.24c-1.076-1.012-1.694-2.382-1.739-3.858     c-0.045-1.477,0.487-2.883,1.499-3.959c20.494-21.794,42.652-29.898,81.755-29.898c39.102,0,61.26,8.103,81.754,29.897     C426.35,349.864,426.243,353.37,424.02,355.46z"></path>
			<path d="M490.794,281.344c-24.517-24.079-52.024-36.813-79.742-43.433l-14.196-64.708c29.83,9.63,62.73-1.836,80.031-28.617     c13.887-21.497,14.623-49.076,1.922-71.975c-2.01-3.623-6.575-4.931-10.195-2.921c-3.622,2.009-4.93,6.574-2.921,10.195     c10.011,18.049,9.474,39.722-1.404,56.56c-14.44,22.354-42.716,31.124-67.226,20.852c-4.067-1.703-8.702-1.003-12.095,1.828     c-3.419,2.851-4.95,7.319-3.998,11.658l14.026,63.934c-17.879-2.871-35.624-3.616-52.489-3.616     c-6.618,0-13.373,0.121-20.217,0.432c-0.479-1.115-0.974-2.212-1.497-3.27c-12.951-26.191-30.641-45.346-50.397-59.945     c9.376-13.115,22.294-21.882,52.706-28.554c26.843-5.889,45.305-6.401,65.961,7.736c4.653,3.185,10.482,4.319,15.995,3.11     c5.123-1.124,9.577-4.127,12.54-8.458c6.394-9.342,3.994-22.142-5.348-28.537c-28.224-19.315-55.685-23.229-97.947-13.957     c-39.282,8.619-62.158,22.22-79.28,47.653c-12.57-6.025-25.333-10.951-37.738-15.272c-7.499-2.613-15.237-5.133-23.188-7.403     c0.996-2.037,2.102-4.015,3.337-5.906c17.726-27.148,46.407-57.217,124.731-74.401c42.89-9.41,93.221-15.171,141.303,13.445     c3.561,2.118,8.161,0.95,10.281-2.609c2.118-3.56,0.95-8.162-2.609-10.281C398.571,13.6,344.708,19.644,298.951,29.683     c-46.915,10.293-99.533,27.948-134.076,80.85c-2.128,3.257-3.981,6.696-5.544,10.277c-36.397-8.431-76.677-9.902-118.607,9.898     c-17.02,8.038-30.393,22.93-36.686,40.857c-6.25,17.801-5.218,36.766,2.907,53.399c13.993,28.648,45.295,43.944,76.059,37.932     l-23.212,66.638c-5.001,14.359,2.612,30.112,16.972,35.114l40.212,14.006c0.816,0.285,1.648,0.419,2.467,0.419     c3.103,0,6.005-1.94,7.083-5.035c1.362-3.912-0.704-8.188-4.616-9.55l-40.211-14.005c-6.551-2.282-10.023-9.467-7.741-16.016     l25.107-72.081c1.463-4.198,0.474-8.816-2.583-12.053c-3.035-3.214-7.552-4.461-11.791-3.252     c-25.556,7.283-52.589-4.787-64.268-28.7c-6.351-13-7.144-27.863-2.233-41.849c4.975-14.168,15.522-25.927,28.938-32.263     c29.319-13.844,69.498-24.442,145.223,1.936c41.865,14.582,87.986,36.284,113.833,86.451     c-21.206,2.042-42.924,6.544-63.883,15.879c-13.912-22.483-34.334-36.909-68.582-48.84c-40.86-14.234-68.594-13.614-98.914,2.208     c-10.034,5.238-13.937,17.663-8.702,27.698c5.237,10.036,17.662,13.939,27.698,8.703c17.118-8.934,32.771-11.553,66.413,0.165     c21.622,7.532,36.658,15.362,46.937,31.405c-4.39,3.504-8.705,7.318-12.93,11.468c-13.43,13.189-21.158,31.652-21.204,50.653     c-0.013,5.523,0.613,10.929,1.81,16.148l-6.666,19.137c-2.071,5.943-8.271,9.465-14.413,8.185     c-4.055-0.842-8.027,1.762-8.869,5.817c-0.843,4.056,1.761,8.026,5.816,8.87c1.864,0.387,3.728,0.574,5.571,0.574     c11.503,0,22.146-7.28,26.06-18.51l1.106-3.175c2.783,4.468,6.082,8.643,9.897,12.425c22.639,22.45,57.229,26.602,84.305,10.802     v70.565c0,15.206,12.371,27.578,27.578,27.578h74.596c15.206,0,27.578-12.371,27.578-27.578v-70.564     c27.078,15.799,61.667,11.647,84.305-10.802c13.144-13.035,20.357-30.605,20.312-49.471     C511.953,312.995,504.225,294.533,490.794,281.344z M257.997,159.883c-3.145-1.969-6.324-3.845-9.531-5.631     c14.747-20.972,34.847-32.437,69.052-39.941c38.192-8.381,61.573-5.212,86.262,11.684c2.517,1.723,3.163,5.171,1.44,7.687     c-0.798,1.166-1.997,1.976-3.376,2.278c-1.507,0.33-3.039,0.033-4.311-0.838c-24.918-17.053-48.183-16.472-77.645-10.009     C284.943,132.781,269.108,144.226,257.997,159.883z M165.146,224.305c-38.42-13.383-58.438-9.654-78.284,0.702     c-2.704,1.411-6.052,0.36-7.462-2.344c-1.411-2.703-0.359-6.05,2.344-7.461c26.524-13.84,50.115-14.204,87.041-1.341     c30.014,10.455,47.997,22.747,60.034,41.434c-3.193,1.792-6.359,3.718-9.498,5.777     C206.872,242.012,189.068,232.638,165.146,224.305z M481.127,370.817c-18.896,18.739-48.394,21.247-70.133,5.962     c-3.607-2.535-8.282-2.845-12.204-0.808c-3.951,2.051-6.405,6.087-6.405,10.533v76.329c0,6.936-5.643,12.578-12.578,12.578     H305.21c-6.936,0-12.578-5.643-12.578-12.578v-76.329c0-4.445-2.454-8.48-6.404-10.532c-1.722-0.895-3.59-1.337-5.448-1.337     c-2.375,0-4.734,0.722-6.758,2.144c-21.742,15.285-51.236,12.776-70.133-5.962c-6.738-6.682-11.465-14.912-13.923-23.964     c-0.049-0.221-0.108-0.438-0.177-0.653c-1.175-4.551-1.787-9.301-1.775-14.167c0.037-15.015,6.13-29.59,16.715-39.987     c4.603-4.521,9.658-9.061,15.428-13.434c0.079-0.038,0.16-0.065,0.239-0.106c0.816-0.423,1.514-0.981,2.097-1.625     c5.525-4.006,11.697-7.848,18.733-11.376c0.534-0.145,1.061-0.346,1.57-0.618c0.337-0.18,0.648-0.389,0.945-0.611     c22.352-10.659,53.161-18.172,98.765-18.172c44.998,0,96.556,5.458,137.778,45.943c10.586,10.396,16.678,24.972,16.715,39.987     C497.037,346.855,491.399,360.628,481.127,370.817z"></path>
			<path d="M385.648,281.696c4.143,0,7.5-3.358,7.5-7.5v-7.161c0-4.142-3.357-7.5-7.5-7.5c-4.143,0-7.5,3.358-7.5,7.5v7.161     C378.149,278.339,381.506,281.696,385.648,281.696z"></path>
			<path d="M342.508,287.196c6.527,0,12.733-2.827,17.027-7.755c2.722-3.123,2.395-7.86-0.728-10.581     c-3.123-2.721-7.86-2.397-10.581,0.727c-1.445,1.658-3.53,2.609-5.72,2.609s-4.275-0.951-5.721-2.609     c-2.721-3.123-7.459-3.448-10.58-0.727c-3.123,2.721-3.449,7.458-0.728,10.581C329.773,284.369,335.98,287.196,342.508,287.196z"></path>
			<path d="M299.367,281.696c4.143,0,7.5-3.358,7.5-7.5v-7.161c0-4.142-3.357-7.5-7.5-7.5s-7.5,3.358-7.5,7.5v7.161     C291.868,278.339,295.224,281.696,299.367,281.696z"></path>
		</g>
	</g>
</g>
<g>
</g>
<g>
</g>
<g>
</g>
<g>
</g>
<g>
</g>
<g>
</g>
<g>
</g>
<g>
</g>
<g>
</g>
<g>
</g>
<g>
</g>
<g>
</g>
<g>
</g>
<g>
</g>
<g>
</g>
</svg>