<svg xmlns="http://www.w3.org/2000/svg" id="Capa_1" height="512" viewBox="0 0 512.002 512.002" width="512"><g><g><path d="m23.528 391.995c-4.142 0-7.5 3.358-7.5 7.5v105.005c0 4.142 3.358 7.5 7.5 7.5s7.5-3.358 7.5-7.5v-105.005c0-4.142-3.358-7.5-7.5-7.5z"></path><path d="m23.528 0c-4.142 0-7.5 3.358-7.5 7.5v359.005c0 4.142 3.358 7.5 7.5 7.5s7.5-3.358 7.5-7.5v-359.005c0-4.142-3.358-7.5-7.5-7.5z"></path><path d="m485.978 306.492c-9.757-18.154-26.279-35.285-47.782-49.542-3.454-2.288-8.105-1.346-10.396 2.106-2.289 3.452-1.346 8.106 2.106 10.396 5.458 3.619 10.514 7.425 15.174 11.364-6.825 7.753-18.164 12.581-30.212 12.581-20.267 0-36.755-13.033-36.755-29.053 0-6.172 2.527-12.184 7.155-17.16 5.729 2.113 11.317 4.405 16.75 6.886 1.01.461 2.068.68 3.111.68 2.846 0 5.567-1.629 6.827-4.387 1.721-3.768.061-8.217-3.707-9.938-21.922-10.011-46.102-17.18-72.188-21.445 1.446-.537 2.88-1.08 4.287-1.639 34.58-13.725 53.625-32.838 53.625-53.819s-19.044-40.094-53.625-53.819c-16.233-6.443-35.109-11.434-55.63-14.811v-87.392c0-4.142-3.358-7.5-7.5-7.5s-7.5 3.358-7.5 7.5v85.249c-16.063-1.961-32.929-2.979-50.171-2.979-30.415 0-59.66 3.166-85.384 9.1v-51.87c0-4.142-3.358-7.5-7.5-7.5s-7.5 3.358-7.5 7.5v55.762c-7.175 2.082-14.005 4.397-20.417 6.942-34.581 13.725-53.625 32.838-53.625 53.819 0 18.736 14.761 35.698 42.686 49.052 3.738 1.788 8.215.206 10.001-3.531 1.787-3.737.207-8.214-3.531-10.001-22.026-10.533-34.157-23.147-34.157-35.52 0-3.164.804-6.345 2.355-9.5 28.433 24.983 88.567 40.813 157.07 40.813 68.345 0 128.632-15.843 157.076-40.804 1.549 3.153 2.351 6.33 2.351 9.491 0 14.204-16.095 28.739-44.158 39.877-30.669 12.172-71.605 18.876-115.268 18.876-34.6 0-67.623-4.22-95.499-12.203-3.979-1.141-8.135 1.163-9.275 5.145-1.141 3.982 1.163 8.135 5.145 9.275 6.734 1.929 13.758 3.637 21.005 5.141 6.182 13.302 10.279 27.088 12.976 39.811-6.462-4.908-14.957-9.062-26.043-10.848-4.087-.664-7.938 2.122-8.597 6.211s2.122 7.938 6.211 8.597c24.195 3.898 31.566 22.535 32.798 26.231.003.009.008.016.011.025.38 4.661.58 8.746.679 12.085-14.72 1.628-31.138 2.805-49.404 3.326-7.234.207-13.589 4.702-16.19 11.451-2.629 6.823-.984 14.204 4.294 19.263 16.741 16.047 47.103 38.147 97.913 54.58v33.333c-6.896-9.582-16.966-19.31-31.682-27.241-3.645-1.965-8.195-.602-10.161 3.043-1.965 3.646-.603 8.195 3.043 10.161 30.363 16.365 36.978 41.357 38.413 51.343.076.528.21 1.032.386 1.514v31.981c0 4.142 3.358 7.5 7.5 7.5s7.5-3.358 7.5-7.5v-99.621c6.048 1.685 12.354 3.287 18.927 4.791v22.969c0 4.142 3.358 7.5 7.5 7.5s7.5-3.358 7.5-7.5v-19.808c11.522 2.23 23.799 4.156 36.858 5.713-9.299 11.427-22.327 31.073-30.445 58.852-1.162 3.976 1.119 8.141 5.095 9.303.703.206 1.411.303 2.107.303 3.246 0 6.239-2.125 7.195-5.398 9.99-34.181 28.372-54.997 34.426-61.168 17.682 1.542 36.693 2.416 57.12 2.475-26.478 22.522-54.876 51.493-65.135 78.966-1.449 3.88.522 8.201 4.403 9.65.865.323 1.751.476 2.623.476 3.04 0 5.901-1.863 7.027-4.878 8.612-23.066 35.405-53.174 75.442-84.779.073-.058.137-.122.207-.181 61.033-4.189 101.361-25.917 111.958-61.073 5.159-17.114 2.6-35.994-7.399-54.6zm-291.799-200.951c-.947 3.037-3.274 6.346-6.82 9.572-6.655 6.054-16.846 11.042-27.961 13.683-11.121 2.641-22.472 2.772-31.141.361-7.144-1.988-11.794-5.46-12.758-9.526-.003-.013-.008-.025-.011-.038 22.626-7.46 49.666-12.277 78.691-14.052zm-122.337 36.749c6.998-6.273 16.982-12.216 29.546-17.465 2.834 8.818 10.87 15.45 22.847 18.783 5.47 1.522 11.541 2.282 17.918 2.282 6.68 0 13.698-.834 20.712-2.5 13.706-3.258 25.989-9.359 34.587-17.181 7.285-6.627 11.425-13.992 12.12-21.317 3.308-.078 6.633-.122 9.976-.122 43.663 0 84.599 6.704 115.268 18.876 13.927 5.528 24.903 11.893 32.43 18.638-25.007 22.605-83.16 37.552-147.698 37.552-64.712-.001-122.729-14.926-147.706-37.546zm228.068 87.738c25.07 1.545 48.563 5.617 70.227 12.119-4.569 6.677-7.023 14.303-7.023 22.196 0 24.291 23.217 44.053 51.755 44.053 16.36 0 31.46-6.498 41.143-17.312 9.661 10.138 16.721 20.868 20.81 31.533-13.16 28.883-55.9 45.413-117.785 45.413-100.269 0-164.851-20.211-204.567-40.718 92.768-9.132 124.95-35.694 127.642-38.054 1.379-1.159 14.876-12.686 24.562-27.696 2.246-3.48 1.245-8.123-2.235-10.368-3.481-2.246-8.123-1.245-10.368 2.235-2.874 4.454-6.19 8.605-9.351 12.177v-33.455c4.537-.747 8.988-1.576 13.353-2.479.584.19 1.197.317 1.837.356zm-30.19 4.267v45.541c-4.233 2.907-14.076 8.827-31.484 15.016 2.334-17.318 7.055-39.576 16.539-59.028 5.048-.421 10.035-.929 14.945-1.529zm-111.125-1.495c13.206 2.015 27 3.372 41.16 4.022-2.237 8.344-5.628 22.797-7.244 38.817-.416 4.122 2.588 7.799 6.709 8.215.256.026.51.039.762.039 3.803 0 7.063-2.883 7.453-6.748 1.762-17.464 5.889-33.289 7.776-39.903 1.445.014 2.888.033 4.338.033 6.146 0 12.242-.133 18.273-.388-9.239 22.005-13.422 45.807-15.309 62.962-13.09 3.714-29.145 7.255-48.608 10.015-.588-16.251-3.405-46.89-15.31-77.064zm286.153 159.541c-21.311 10.338-50.147 15.58-85.708 15.58-152.163 0-222.575-45.715-251.004-72.965-1.174-1.126-.928-2.388-.677-3.04.258-.671.943-1.803 2.622-1.851 6.16-.176 12.117-.425 17.882-.738 38.537 24.566 109.837 53.703 231.174 53.703 35.945 0 65.811-5.202 88.766-15.461 13.863-6.196 25.039-14.28 33.129-23.827-.026 4.454-.648 8.813-1.915 13.019-4.378 14.525-16.228 26.828-34.269 35.58z"></path><path d="m249.748 118.097c-15.289 0-27.728 10.859-27.728 24.207s12.439 24.208 27.728 24.208 27.728-10.859 27.728-24.208c0-13.348-12.439-24.207-27.728-24.207zm0 33.414c-6.899 0-12.728-4.216-12.728-9.208 0-4.991 5.829-9.207 12.728-9.207s12.728 4.216 12.728 9.207c0 4.992-5.828 9.208-12.728 9.208z"></path><path d="m295.073 321.497c0 13.635 15.523 24.316 35.341 24.316 19.817 0 35.34-10.681 35.34-24.316s-15.523-24.316-35.34-24.316c-19.818 0-35.341 10.681-35.341 24.316zm35.34-9.316c12.228 0 20.34 5.607 20.34 9.316s-8.113 9.316-20.34 9.316c-12.228 0-20.341-5.607-20.341-9.316s8.113-9.316 20.341-9.316z"></path><path d="m79.997 75.5c4.142 0 7.5-3.358 7.5-7.5v-60.5c0-4.142-3.358-7.5-7.5-7.5s-7.5 3.358-7.5 7.5v60.5c0 4.142 3.358 7.5 7.5 7.5z"></path><path d="m210.1 54.5c4.142 0 7.5-3.358 7.5-7.5v-16c0-4.142-3.358-7.5-7.5-7.5s-7.5 3.358-7.5 7.5v16c0 4.142 3.358 7.5 7.5 7.5z"></path><path d="m94.997 377.5c-4.142 0-7.5 3.358-7.5 7.5v119.5c0 4.142 3.358 7.5 7.5 7.5s7.5-3.358 7.5-7.5v-119.5c0-4.142-3.358-7.5-7.5-7.5z"></path><path d="m87.497 262c0-4.142-3.358-7.5-7.5-7.5s-7.5 3.358-7.5 7.5v25c0 4.142 3.358 7.5 7.5 7.5s7.5-3.358 7.5-7.5z"></path></g></g></svg>