<svg version="1.1" id="Layer_1" xmlns="http://www.w3.org/2000/svg" xmlns:xlink="http://www.w3.org/1999/xlink" x="0px" y="0px"
	 width="100%" viewBox="0 0 128 128" enable-background="new 0 0 128 128" xml:space="preserve">
<path fill="#3291A7" opacity="1.000000" stroke="none" 
	d="
M129.000000,58.000000 
	C129.000000,81.666672 129.000000,105.333351 129.000000,129.000000 
	C126.970207,129.000000 124.983009,129.000000 122.672165,128.558533 
	C122.232391,126.299011 122.017944,124.481117 122.015358,122.662918 
	C121.989952,104.848625 122.148796,87.032097 121.887932,69.221588 
	C121.827774,65.114876 120.364014,61.028721 119.546165,56.933105 
	C118.964401,57.037178 118.382629,57.141251 117.800858,57.245323 
	C117.800858,64.676079 117.800858,72.106834 117.800858,79.616043 
	C109.030357,79.616043 100.662529,79.616043 91.785355,79.616043 
	C91.785355,71.757797 91.785355,64.274162 91.785355,56.790531 
	C91.288513,56.723583 90.791679,56.656631 90.294838,56.589684 
	C89.529922,60.949692 88.157166,65.302368 88.104439,69.670975 
	C87.865761,89.444862 88.000031,109.223236 88.000000,129.000000 
	C86.285645,129.000000 84.571281,129.000000 82.602722,128.558533 
	C82.232376,126.132263 82.017075,124.147583 82.015160,122.162682 
	C81.991882,98.018166 82.118782,73.872505 81.891983,49.730091 
	C81.850456,45.309757 80.403290,40.902630 79.604973,36.489410 
	C79.012955,36.596252 78.420937,36.703094 77.828918,36.809937 
	C77.828918,44.395729 77.828918,51.981522 77.828918,59.600819 
	C69.000160,59.600819 60.631031,59.600819 51.818157,59.600819 
	C51.818157,51.881844 51.818157,44.557243 51.818157,37.232647 
	C51.310795,37.166142 50.803429,37.099640 50.296066,37.033134 
	C49.530735,41.248459 48.135300,45.458935 48.102829,49.679897 
	C47.899456,76.118637 48.000027,102.559700 48.000000,129.000000 
	C46.285641,129.000000 44.571285,129.000000 42.602722,128.558533 
	C42.232391,126.299133 42.018753,124.481400 42.015488,122.663277 
	C41.988285,107.513809 42.172935,92.361015 41.888783,77.216827 
	C41.808891,72.958710 40.386860,68.725784 39.580441,64.481300 
	C38.993839,64.590958 38.407234,64.700615 37.820633,64.810265 
	C37.820633,72.397713 37.820633,79.985153 37.820633,87.600349 
	C28.996542,87.600349 20.628653,87.600349 11.819441,87.600349 
	C11.819441,79.881256 11.819441,72.557114 11.819441,65.232971 
	C11.313073,65.159683 10.806705,65.086395 10.300337,65.013115 
	C9.533588,69.230255 8.167719,73.438538 8.105164,77.666107 
	C7.852012,94.774178 8.000031,111.888184 8.000000,129.000000 
	C5.681349,129.000000 3.362698,129.000000 1.000000,129.000000 
	C1.000000,108.312454 1.000000,87.624886 1.304916,66.764679 
	C2.067130,65.947784 2.718028,65.366753 2.952221,64.649635 
	C5.752676,56.074493 15.463135,49.559494 24.022514,49.768269 
	C30.667179,49.930344 36.316891,51.760902 41.041203,55.208504 
	C42.060875,47.899841 41.963066,40.559216 44.289780,34.090683 
	C46.829483,27.030003 53.107395,22.557751 60.960590,22.075382 
	C78.977051,20.968746 85.717133,27.286972 88.510475,47.608406 
	C89.161957,47.118980 89.616089,46.705696 90.133583,46.399498 
	C105.954445,37.038345 119.033485,40.967617 127.227898,57.472607 
	C127.414734,57.848915 128.391632,57.832973 129.000000,58.000000 
M97.999954,62.598160 
	C97.999954,66.342010 97.999954,70.085854 97.999954,73.669685 
	C103.114349,73.669685 107.375443,73.669685 112.447662,73.669685 
	C111.950073,66.751785 111.897499,60.132088 110.746750,53.709141 
	C110.413376,51.848373 107.000908,49.461864 104.871475,49.325684 
	C103.016098,49.207027 100.212616,51.529766 99.221550,53.481384 
	C98.039192,55.809677 98.341057,58.891685 97.999954,62.598160 
M72.000046,45.479618 
	C71.671471,41.557812 71.962463,37.432987 70.770119,33.794216 
	C70.108688,31.775656 66.959068,29.328978 64.949707,29.345589 
	C62.944153,29.362167 59.544975,31.973944 59.226490,33.864109 
	C58.124557,40.403893 58.098621,47.124981 57.669842,53.674412 
	C63.104355,53.674412 67.365791,53.674412 72.000046,53.674412 
	C72.000046,51.050316 72.000046,48.747810 72.000046,45.479618 
M28.316635,81.998596 
	C29.519501,81.479805 31.770771,80.950844 31.765854,80.443771 
	C31.705172,74.186256 31.754936,67.859428 30.742641,61.720921 
	C30.438313,59.875488 26.923407,57.317257 24.911367,57.345814 
	C22.907877,57.374252 19.551626,59.997997 19.218079,61.908047 
	C18.098721,68.317986 18.063847,74.917305 17.575560,81.999763 
	C21.458576,81.999763 24.415056,81.999763 28.316635,81.998596 
z"/>
<path fill="#ffff" opacity="1.000000" stroke="none" 
	d="
M129.000000,57.531342 
	C128.391632,57.832973 127.414734,57.848915 127.227898,57.472607 
	C119.033485,40.967617 105.954445,37.038345 90.133583,46.399498 
	C89.616089,46.705696 89.161957,47.118980 88.510475,47.608406 
	C85.717133,27.286972 78.977051,20.968746 60.960590,22.075382 
	C53.107395,22.557751 46.829483,27.030003 44.289780,34.090683 
	C41.963066,40.559216 42.060875,47.899841 41.041203,55.208504 
	C36.316891,51.760902 30.667179,49.930344 24.022514,49.768269 
	C15.463135,49.559494 5.752676,56.074493 2.952221,64.649635 
	C2.718028,65.366753 2.067130,65.947784 1.304916,66.296021 
	C1.000000,44.393490 1.000000,22.786980 1.000000,1.000000 
	C31.687325,1.000000 62.375004,1.000000 93.790787,1.345907 
	C93.478493,8.870479 90.226074,13.965652 82.209091,14.169367 
	C82.209091,16.279642 82.209091,17.893431 82.209091,19.877138 
	C89.882355,20.228098 93.646423,24.686560 94.248924,32.040005 
	C96.420189,31.941208 98.035934,31.867687 99.847488,31.785257 
	C100.496391,25.456129 103.314743,21.258900 109.752960,19.969088 
	C110.942017,19.730875 111.827827,17.979000 112.853607,16.925758 
	C111.778801,15.915220 110.834106,14.244226 109.607811,14.002645 
	C102.315598,12.566083 100.295647,7.474247 100.000000,1.000000 
	C109.617226,1.000000 119.234444,1.000000 129.000000,1.000000 
	C129.000000,19.687330 129.000000,38.375008 129.000000,57.531342 
M24.930214,33.973976 
	C25.424332,35.975025 25.918449,37.976078 26.382812,39.856621 
	C28.358967,39.856621 29.832979,39.856621 31.752745,39.856621 
	C32.451714,33.425728 35.419907,28.945560 42.327133,27.885513 
	C43.301319,27.736006 44.529491,25.976192 44.682453,24.833538 
	C44.793331,24.005276 43.486412,22.701025 42.510460,22.090979 
	C41.456310,21.432049 39.757961,21.681177 38.858982,20.921104 
	C36.745201,19.133934 33.693798,17.209164 33.277187,14.928146 
	C32.480034,10.563552 30.767441,9.230025 26.075573,10.427326 
	C25.875790,17.643457 21.589283,21.562651 14.192368,22.194517 
	C14.192368,24.156864 14.192368,25.769558 14.192368,26.488733 
	C18.031738,28.961237 21.349277,31.097691 24.930214,33.973976 
z"/>
<path fill="#ffff" opacity="1.000000" stroke="none" 
	d="
M48.468658,129.000000 
	C48.000027,102.559700 47.899456,76.118637 48.102829,49.679897 
	C48.135300,45.458935 49.530735,41.248459 50.296066,37.033134 
	C50.803429,37.099640 51.310795,37.166142 51.818157,37.232647 
	C51.818157,44.557243 51.818157,51.881844 51.818157,59.600819 
	C60.631031,59.600819 69.000160,59.600819 77.828918,59.600819 
	C77.828918,51.981522 77.828918,44.395729 77.828918,36.809937 
	C78.420937,36.703094 79.012955,36.596252 79.604973,36.489410 
	C80.403290,40.902630 81.850456,45.309757 81.891983,49.730091 
	C82.118782,73.872505 81.991882,98.018166 82.015160,122.162682 
	C82.017075,124.147583 82.232376,126.132263 82.174255,128.558533 
	C70.979103,129.000000 59.958210,129.000000 48.468658,129.000000 
M57.765434,70.000374 
	C52.450130,69.562469 54.080849,72.874931 54.350052,75.630707 
	C61.739510,75.630707 68.757591,75.630707 76.021324,75.630707 
	C75.927246,73.654961 75.851433,72.062950 75.753174,69.999420 
	C69.886696,69.999420 64.298195,69.999420 57.765434,70.000374 
M64.524574,81.998817 
	C62.441319,81.998817 60.358063,81.998817 58.237312,81.998817 
	C58.237312,84.277092 58.237312,85.868057 58.237312,87.727600 
	C62.822571,87.727600 67.181007,87.727600 71.656433,87.727600 
	C71.656433,85.757683 71.656433,84.065201 71.656433,81.998825 
	C69.380356,81.998825 67.425522,81.998825 64.524574,81.998817 
z"/>
<path fill="#ffff" opacity="1.000000" stroke="none" 
	d="
M88.468658,129.000000 
	C88.000031,109.223236 87.865761,89.444862 88.104439,69.670975 
	C88.157166,65.302368 89.529922,60.949692 90.294838,56.589684 
	C90.791679,56.656631 91.288513,56.723583 91.785355,56.790531 
	C91.785355,64.274162 91.785355,71.757797 91.785355,79.616043 
	C100.662529,79.616043 109.030357,79.616043 117.800858,79.616043 
	C117.800858,72.106834 117.800858,64.676079 117.800858,57.245323 
	C118.382629,57.141251 118.964401,57.037178 119.546165,56.933105 
	C120.364014,61.028721 121.827774,65.114876 121.887932,69.221588 
	C122.148796,87.032097 121.989952,104.848625 122.015358,122.662918 
	C122.017944,124.481117 122.232391,126.299011 122.174263,128.558533 
	C110.979103,129.000000 99.958214,129.000000 88.468658,129.000000 
M108.408539,89.999252 
	C103.675087,89.999252 98.941635,89.999252 93.962883,89.999252 
	C94.072296,92.339073 94.146751,93.931267 94.229881,95.709015 
	C101.551575,95.709015 108.570183,95.709015 115.625565,95.709015 
	C115.625565,93.717064 115.625565,92.022064 115.625565,89.999260 
	C113.302513,89.999260 111.339996,89.999260 108.408539,89.999252 
M106.403534,108.001129 
	C108.161278,108.001129 109.919022,108.001129 112.019264,108.001129 
	C111.904938,105.635963 111.822914,103.939049 111.741570,102.256226 
	C106.956055,102.256226 102.725433,102.256226 98.323570,102.256226 
	C98.323570,104.209152 98.323570,105.902023 98.323570,108.001175 
	C100.911514,108.001175 103.191116,108.001175 106.403534,108.001129 
z"/>
<path fill="#ffff" opacity="1.000000" stroke="none" 
	d="
M8.468657,129.000000 
	C8.000031,111.888184 7.852012,94.774178 8.105164,77.666107 
	C8.167719,73.438538 9.533588,69.230255 10.300337,65.013115 
	C10.806705,65.086395 11.313073,65.159683 11.819441,65.232971 
	C11.819441,72.557114 11.819441,79.881256 11.819441,87.600349 
	C20.628653,87.600349 28.996542,87.600349 37.820633,87.600349 
	C37.820633,79.985153 37.820633,72.397713 37.820633,64.810265 
	C38.407234,64.700615 38.993839,64.590958 39.580441,64.481300 
	C40.386860,68.725784 41.808891,72.958710 41.888783,77.216827 
	C42.172935,92.361015 41.988285,107.513809 42.015488,122.663277 
	C42.018753,124.481400 42.232391,126.299133 42.174263,128.558533 
	C30.979105,129.000000 19.958210,129.000000 8.468657,129.000000 
M31.290134,97.999527 
	C25.702381,97.999527 20.114628,97.999527 14.313071,97.999527 
	C14.313071,100.183823 14.313071,101.879128 14.313071,103.672806 
	C21.640408,103.672806 28.662214,103.672806 35.697407,103.672806 
	C36.106003,100.547424 37.012524,97.441605 31.290134,97.999527 
M24.524567,109.998817 
	C22.441313,109.998817 20.358059,109.998817 18.237316,109.998817 
	C18.237316,112.277092 18.237316,113.868057 18.237316,115.727600 
	C22.822575,115.727600 27.181013,115.727600 31.656422,115.727600 
	C31.656422,113.757668 31.656422,112.065186 31.656422,109.998825 
	C29.375006,109.998825 27.422838,109.998825 24.524567,109.998817 
z"/>
<path fill="#3190A6" opacity="1.000000" stroke="none" 
	d="
M99.571533,1.000000 
	C100.295647,7.474247 102.315598,12.566083 109.607811,14.002645 
	C110.834106,14.244226 111.778801,15.915220 112.853607,16.925758 
	C111.827827,17.979000 110.942017,19.730875 109.752960,19.969088 
	C103.314743,21.258900 100.496391,25.456129 99.847488,31.785257 
	C98.035934,31.867687 96.420189,31.941208 94.248924,32.040005 
	C93.646423,24.686560 89.882355,20.228098 82.209091,19.877138 
	C82.209091,17.893431 82.209091,16.279642 82.209091,14.169367 
	C90.226074,13.965652 93.478493,8.870479 94.259445,1.345907 
	C95.714355,1.000000 97.428719,1.000000 99.571533,1.000000 
z"/>
<path fill="#ffff" opacity="1.000000" stroke="none" 
	d="
M97.999954,62.122673 
	C98.341057,58.891685 98.039192,55.809677 99.221550,53.481384 
	C100.212616,51.529766 103.016098,49.207027 104.871475,49.325684 
	C107.000908,49.461864 110.413376,51.848373 110.746750,53.709141 
	C111.897499,60.132088 111.950073,66.751785 112.447662,73.669685 
	C107.375443,73.669685 103.114349,73.669685 97.999954,73.669685 
	C97.999954,70.085854 97.999954,66.342010 97.999954,62.122673 
z"/>
<path fill="#ffff" opacity="1.000000" stroke="none" 
	d="
M72.000046,45.962463 
	C72.000046,48.747810 72.000046,51.050316 72.000046,53.674412 
	C67.365791,53.674412 63.104355,53.674412 57.669842,53.674412 
	C58.098621,47.124981 58.124557,40.403893 59.226490,33.864109 
	C59.544975,31.973944 62.944153,29.362167 64.949707,29.345589 
	C66.959068,29.328978 70.108688,31.775656 70.770119,33.794216 
	C71.962463,37.432987 71.671471,41.557812 72.000046,45.962463 
z"/>
<path fill="#ffff" opacity="1.000000" stroke="none" 
	d="
M27.844086,81.999176 
	C24.415056,81.999763 21.458576,81.999763 17.575560,81.999763 
	C18.063847,74.917305 18.098721,68.317986 19.218079,61.908047 
	C19.551626,59.997997 22.907877,57.374252 24.911367,57.345814 
	C26.923407,57.317257 30.438313,59.875488 30.742641,61.720921 
	C31.754936,67.859428 31.705172,74.186256 31.765854,80.443771 
	C31.770771,80.950844 29.519501,81.479805 27.844086,81.999176 
z"/>
<path fill="#3190A6" opacity="1.000000" stroke="none" 
	d="
M24.798515,33.604057 
	C21.349277,31.097691 18.031738,28.961237 14.192368,26.488733 
	C14.192368,25.769558 14.192368,24.156864 14.192368,22.194517 
	C21.589283,21.562651 25.875790,17.643457 26.075573,10.427326 
	C30.767441,9.230025 32.480034,10.563552 33.277187,14.928146 
	C33.693798,17.209164 36.745201,19.133934 38.858982,20.921104 
	C39.757961,21.681177 41.456310,21.432049 42.510460,22.090979 
	C43.486412,22.701025 44.793331,24.005276 44.682453,24.833538 
	C44.529491,25.976192 43.301319,27.736006 42.327133,27.885513 
	C35.419907,28.945560 32.451714,33.425728 31.752745,39.856621 
	C29.832979,39.856621 28.358967,39.856621 26.382812,39.856621 
	C25.918449,37.976078 25.424332,35.975025 24.798515,33.604057 
z"/>
<path fill="#3290A7" opacity="1.000000" stroke="none" 
	d="
M58.237564,69.999893 
	C64.298195,69.999420 69.886696,69.999420 75.753174,69.999420 
	C75.851433,72.062950 75.927246,73.654961 76.021324,75.630707 
	C68.757591,75.630707 61.739510,75.630707 54.350052,75.630707 
	C54.080849,72.874931 52.450130,69.562469 58.237564,69.999893 
z"/>
<path fill="#3290A7" opacity="1.000000" stroke="none" 
	d="
M64.997635,81.998825 
	C67.425522,81.998825 69.380356,81.998825 71.656433,81.998825 
	C71.656433,84.065201 71.656433,85.757683 71.656433,87.727600 
	C67.181007,87.727600 62.822571,87.727600 58.237312,87.727600 
	C58.237312,85.868057 58.237312,84.277092 58.237312,81.998817 
	C60.358063,81.998817 62.441319,81.998817 64.997635,81.998825 
z"/>
<path fill="#3290A7" opacity="1.000000" stroke="none" 
	d="
M108.893005,89.999252 
	C111.339996,89.999260 113.302513,89.999260 115.625565,89.999260 
	C115.625565,92.022064 115.625565,93.717064 115.625565,95.709015 
	C108.570183,95.709015 101.551575,95.709015 94.229881,95.709015 
	C94.146751,93.931267 94.072296,92.339073 93.962883,89.999252 
	C98.941635,89.999252 103.675087,89.999252 108.893005,89.999252 
z"/>
<path fill="#3290A7" opacity="1.000000" stroke="none" 
	d="
M105.937126,108.001152 
	C103.191116,108.001175 100.911514,108.001175 98.323570,108.001175 
	C98.323570,105.902023 98.323570,104.209152 98.323570,102.256226 
	C102.725433,102.256226 106.956055,102.256226 111.741570,102.256226 
	C111.822914,103.939049 111.904938,105.635963 112.019264,108.001129 
	C109.919022,108.001129 108.161278,108.001129 105.937126,108.001152 
z"/>
<path fill="#3290A7" opacity="1.000000" stroke="none" 
	d="
M31.761683,98.000061 
	C37.012524,97.441605 36.106003,100.547424 35.697407,103.672806 
	C28.662214,103.672806 21.640408,103.672806 14.313071,103.672806 
	C14.313071,101.879128 14.313071,100.183823 14.313071,97.999527 
	C20.114628,97.999527 25.702381,97.999527 31.761683,98.000061 
z"/>
<path fill="#3290A7" opacity="1.000000" stroke="none" 
	d="
M24.997620,109.998825 
	C27.422838,109.998825 29.375006,109.998825 31.656422,109.998825 
	C31.656422,112.065186 31.656422,113.757668 31.656422,115.727600 
	C27.181013,115.727600 22.822575,115.727600 18.237316,115.727600 
	C18.237316,113.868057 18.237316,112.277092 18.237316,109.998817 
	C20.358059,109.998817 22.441313,109.998817 24.997620,109.998825 
z"/>
</svg>