<svg xmlns="http://www.w3.org/2000/svg" width="512" height="512" viewBox="0 0 128 128"><g><path d="M110,91.423H18a1.749,1.749,0,0,0-1.75,1.75v6.219a1.75,1.75,0,0,0,1.75,1.75h92a1.75,1.75,0,0,0,1.75-1.75V93.173A1.749,1.749,0,0,0,110,91.423Zm-1.75,3.5v2.719H19.75V94.923Z"></path><path d="M110,108.25H18a1.75,1.75,0,0,0,0,3.5h92a1.75,1.75,0,0,0,0-3.5Z"></path><path d="M38.784,28.028A33.955,33.955,0,0,0,86.742,75.987l8.79,8.79A1.75,1.75,0,0,0,98.007,82.3l-8.791-8.791A33.955,33.955,0,0,0,41.258,25.553l-8.79-8.79a1.75,1.75,0,1,0-2.475,2.474ZM64,81.245A30.454,30.454,0,0,1,41.263,30.507l3.246,3.246c-2.56,2.522-5.377,8.663.122,16.477C50.1,58,43.677,64.6,43.405,64.872a1.75,1.75,0,1,0,2.463,2.486c3.077-3.046,7.376-10.969,1.626-19.141-4.824-6.856-1.514-10.98-.508-11.987L64.478,53.723c1.885,6.161-2.743,10.918-2.972,11.149a1.75,1.75,0,1,0,2.463,2.486,15.846,15.846,0,0,0,4.42-9.724L84.262,73.507A30.346,30.346,0,0,1,64,81.245ZM64,20.3A30.454,30.454,0,0,1,86.737,71.033l-4.184-4.185c3.01-3.353,6.6-10.879,1.143-18.631-5.273-7.494-.826-11.726-.3-12.19a1.75,1.75,0,0,0-2.263-2.669c-2.645,2.228-6.112,8.621-.305,16.872,4.669,6.636.669,12.415-.768,14.131L67.521,51.816a16.189,16.189,0,0,0-1.926-3.6c-5.272-7.491-.828-11.723-.294-12.189a1.75,1.75,0,0,0-2.264-2.67,10.951,10.951,0,0,0-3.122,10.853L43.738,28.033A30.344,30.344,0,0,1,64,20.3Z"></path></g></svg>