<svg xmlns="http://www.w3.org/2000/svg" height="512pt" viewBox="0 0 512 512" width="512pt"><path d="m502 492h-44v-13.28125c0-5.523438-4.476562-10-10-10s-10 4.476562-10 10v13.28125h-172v-13.28125c0-5.523438-4.476562-10-10-10s-10 4.476562-10 10v13.28125h-172v-13.28125c0-5.523438-4.476562-10-10-10s-10 4.476562-10 10v13.28125h-44c-5.523438 0-10 4.476562-10 10s4.476562 10 10 10h492c5.523438 0 10-4.476562 10-10s-4.476562-10-10-10zm0 0"></path><path d="m50 448h100.128906v13.28125c0 5.523438 4.476563 10 10 10 5.519532 0 10-4.476562 10-10v-13.28125h172v13.28125c0 5.523438 4.476563 10 10 10 5.519532 0 10-4.476562 10-10v-13.28125h139.871094c5.523438 0 10-4.476562 10-10s-4.476562-10-10-10h-452c-5.523438 0-10 4.476562-10 10s4.476562 10 10 10zm0 0"></path><path d="m10 448c2.628906 0 5.210938-1.070312 7.070312-2.929688 1.859376-1.859374 2.929688-4.441406 2.929688-7.070312s-1.070312-5.210938-2.929688-7.070312c-1.859374-1.859376-4.441406-2.929688-7.070312-2.929688s-5.210938 1.070312-7.070312 2.929688c-1.859376 1.859374-2.929688 4.441406-2.929688 7.070312s1.070312 5.210938 2.929688 7.070312c1.859374 1.859376 4.441406 2.929688 7.070312 2.929688zm0 0"></path><path d="m256 404c111.382812 0 202-90.617188 202-202 0-53.933594-20.996094-104.648438-59.125-142.796875-3.902344-3.90625-10.234375-3.90625-14.140625-.003906-3.90625 3.90625-3.910156 10.238281-.003906 14.144531 8.972656 8.976562 16.882812 18.734375 23.6875 29.109375l-87.578125 50.566406c-2.445313-20.035156 3.003906-40.871093 16.351562-57.3125 3.484375-4.289062 2.828125-10.585937-1.460937-14.066406-4.285157-3.480469-10.582031-2.828125-14.066407 1.460937-13.859374 17.074219-21.492187 38.585938-21.492187 60.578126 0 6.761718.730469 13.480468 2.132813 20.039062l-41.519532 23.972656c-19.523437-27.566406-18.539062-65.476562 2.980469-91.984375 3.480469-4.289062 2.824219-10.585937-1.460937-14.066406-4.289063-3.480469-10.585938-2.828125-14.066407 1.460937-13.859375 17.074219-21.496093 38.585938-21.496093 60.578126 0 19.273437 5.867187 38.179687 16.648437 54.054687l-37.402344 21.59375c-3.632812-9.972656-8.898437-19.355469-15.652343-27.675781-22.566407-27.796875-22.566407-68.148438 0-95.945313 3.480468-4.285156 2.824218-10.585937-1.460938-14.066406-4.289062-3.480469-10.585938-2.824219-14.066406 1.460937-13.859375 17.074219-21.496094 38.589844-21.496094 60.578126 0 21.992187 7.632812 43.503906 21.496094 60.578124 6.210937 7.648438 10.703125 16.253907 13.492187 25.28125l-94.65625 54.652344c-12.554687-24.703125-19.644531-52.632812-19.644531-82.191406 0-100.355469 81.644531-182 182-182 22.453125 0 44.371094 4.035156 65.136719 12 5.160156 1.980469 10.941406-.601562 12.917969-5.757812 1.976562-5.15625-.601563-10.9375-5.757813-12.917969-23.0625-8.839844-47.386719-13.324219-72.296875-13.324219-111.382812 0-202 90.617188-202 202s90.617188 202 202 202zm-64.300781-153.328125c.355469 17.550781-5.265625 35.203125-16.890625 49.527344-3.480469 4.285156-2.828125 10.585937 1.460937 14.066406 1.851563 1.503906 4.082031 2.234375 6.296875 2.234375 2.910156 0 5.792969-1.261719 7.769532-3.695312 13.859374-17.074219 21.492187-38.585938 21.492187-60.578126 0-4.253906-.292969-8.492187-.851563-12.683593l44.027344-25.421875c15.496094 26.890625 13.25 61.417968-6.765625 86.074218-3.480469 4.289063-2.828125 10.585938 1.460938 14.066407 1.855469 1.507812 4.082031 2.238281 6.296875 2.238281 2.910156 0 5.792968-1.265625 7.769531-3.699219 13.859375-17.070312 21.496094-38.585937 21.496094-60.574219 0-16.921874-4.539063-33.554687-12.9375-48.105468l36.347656-20.984375c3.386719 7.535156 7.742187 14.644531 12.996094 21.117187 22.566406 27.796875 22.566406 68.144532 0 95.941406-3.480469 4.289063-2.828125 10.585938 1.460937 14.066407 1.855469 1.503906 4.082032 2.234375 6.296875 2.234375 2.910157 0 5.792969-1.261719 7.769531-3.695313 13.859376-17.074219 21.496094-38.585937 21.496094-60.578125 0-21.988281-7.632812-43.503906-21.496094-60.574218-4.65625-5.734376-8.332031-12.007813-11.066406-18.589844l92.328125-53.304688c12.773438 25.179688 19.542969 53.191406 19.542969 82.246094 0 100.355469-81.644531 182-182 182-63.664062 0-119.785156-32.863281-152.320312-82.511719zm0 0"></path><path d="m354.863281 49.148438c.15625.113281.324219.230468.492188.335937 1.667969 1.074219 3.542969 1.589844 5.394531 1.589844 3.230469 0 6.402344-1.5625 8.332031-4.457031 3.0625-4.59375 1.820313-10.800782-2.773437-13.863282-.011719-.011718-.027344-.019531-.042969-.027344-4.4375-2.945312-10.445313-1.894531-13.609375 2.453126-3.25 4.464843-2.261719 10.71875 2.207031 13.96875zm0 0"></path></svg>