<svg xmlns="http://www.w3.org/2000/svg" xmlns:xlink="http://www.w3.org/1999/xlink" id="Capa_1" x="0px" y="0px" viewBox="0 0 480.025 480.025" style="enable-background:new 0 0 480.025 480.025;" xml:space="preserve">
<g>
	<g>
		<path d="M456,144.013c13.684-0.47,24.413-11.914,24-25.6V24.677c0.594-12.964-9.384-23.979-22.344-24.664H278.344    c-12.96,0.685-22.938,11.7-22.344,24.664v93.736c-0.413,13.686,10.316,25.13,24,25.6h56v32h-64.36    c-3.016-33.776-25.816-52.352-67.808-55.472c26.838-15.371,36.133-49.588,20.762-76.426    c-15.371-26.838-49.588-36.133-76.426-20.762c-26.838,15.371-36.133,49.588-20.762,76.426    c4.951,8.644,12.118,15.811,20.762,20.762c-41.992,3.12-64.8,21.696-67.808,55.472H8c-4.418,0-8,3.582-8,8v32c0,4.418,3.582,8,8,8    h8v248c0,4.418,3.582,8,8,8h432c4.418,0,8-3.582,8-8v-248h8c4.418,0,8-3.582,8-8v-32c0-4.418-3.582-8-8-8h-72v-32H456z     M136,72.013c0-22.091,17.909-40,40-40s40,17.909,40,40s-17.909,40-40,40C153.92,111.986,136.026,94.093,136,72.013z     M161.336,136.013h29.328c41.36,0,61.688,12.448,64.84,40H96.496C99.648,148.461,120,136.013,161.336,136.013z M48,464.013H32    v-240h16V464.013z M288,464.013H64v-240h224V464.013z M448,240.013h-32v16h32v208H304v-240h144V240.013z M464,192.013v16H16v-16    H464z M384,144.013v32h-32v-32H384z M352,128.013v-48h32v48H352z M392,64.013h-48c-4.418,0-8,3.582-8,8v56h-56    c-4.837-0.485-8.395-4.755-8-9.6V24.677c0-4.664,2.904-8.664,6.344-8.664h179.312c3.44,0,6.344,4,6.344,8.664v93.736    c0.395,4.845-3.163,9.115-8,9.6h-56v-56C400,67.594,396.418,64.013,392,64.013z"></path>
	</g>
</g>
<g>
	<g>
		<rect x="384" y="240.013" width="16" height="16"></rect>
	</g>
</g>
<g>
	<g>
		<rect x="360" y="32.013" width="16" height="16"></rect>
	</g>
</g>
<g>
</g>
<g>
</g>
<g>
</g>
<g>
</g>
<g>
</g>
<g>
</g>
<g>
</g>
<g>
</g>
<g>
</g>
<g>
</g>
<g>
</g>
<g>
</g>
<g>
</g>
<g>
</g>
<g>
</g>
</svg>