<svg xmlns="http://www.w3.org/2000/svg" xmlns:xlink="http://www.w3.org/1999/xlink" id="Capa_1" x="0px" y="0px" viewBox="0 0 480 480" style="enable-background:new 0 0 480 480;" xml:space="preserve">
<g>
	<g>
		<g>
			<rect x="56" y="32" width="16" height="16"></rect>
			<rect x="104" y="32" width="16" height="16"></rect>
			<rect x="128" y="424" width="16" height="16"></rect>
			<path d="M32,104v32h16v-24h24V96H40C35.582,96,32,99.582,32,104z"></path>
			<path d="M472,16h-16V8c0-4.418-3.582-8-8-8h-24c-8.837,0-16,7.163-16,16v16c0,8.837,7.163,16,16,16h24c4.418,0,8-3.582,8-8v-8h8     v112c0,39.764-32.235,72-72,72c-39.764,0-72-32.236-72-72V32h8v8c0,4.418,3.582,8,8,8h24c8.837,0,16-7.163,16-16V16     c0-8.837-7.163-16-16-16h-24c-4.418,0-8,3.582-8,8v8h-16c-4.418,0-8,3.582-8,8v120c0.06,45.47,34.722,83.421,80,87.592V240     c0.026,39.738-32.167,71.973-71.905,71.999c-14.277,0.009-28.234-4.229-40.095-12.175V24c0-13.255-10.745-24-24-24H24     C10.745,0,0,10.745,0,24v432c0,13.255,10.745,24,24,24h224c13.255,0,24-10.745,24-24V318.288     c43.153,22.175,96.112,5.17,118.287-37.983c6.407-12.468,9.737-26.288,9.713-40.305v-8.408c45.278-4.171,79.94-42.122,80-87.592     V24C480,19.582,476.418,16,472,16z M440,32h-16V16h16V32z M344,16h16v16h-16V16z M256,285.152     c-10.356-12.769-16.006-28.711-16-45.152v-72c0-30.928-25.072-56-56-56c-30.928,0-56,25.072-56,56v32.8     c-21.645,4.418-35.61,25.547-31.192,47.192c4.418,21.645,25.547,35.61,47.192,31.192c21.645-4.418,35.61-25.547,31.192-47.192     c-3.207-15.709-15.483-27.985-31.192-31.192V168c0-22.091,17.909-40,40-40s40,17.909,40,40v72     c-0.001,26.255,11.737,51.136,32,67.832V384H48v16h208v56c0,4.418-3.582,8-8,8H24c-4.418,0-8-3.582-8-8V80h208V64H16V24     c0-4.418,3.582-8,8-8h224c4.418,0,8,3.582,8,8V285.152z M136,216c13.255,0,24,10.745,24,24s-10.745,24-24,24s-24-10.745-24-24     S122.745,216,136,216z"></path>
			<rect x="152" y="320" width="16" height="16"></rect>
			<rect x="184" y="320" width="32" height="16"></rect>
			<rect x="152" y="352" width="64" height="16"></rect>
		</g>
	</g>
</g>
<g>
</g>
<g>
</g>
<g>
</g>
<g>
</g>
<g>
</g>
<g>
</g>
<g>
</g>
<g>
</g>
<g>
</g>
<g>
</g>
<g>
</g>
<g>
</g>
<g>
</g>
<g>
</g>
<g>
</g>
</svg>