<svg xmlns="http://www.w3.org/2000/svg" xmlns:xlink="http://www.w3.org/1999/xlink" id="Capa_1" x="0px" y="0px" viewBox="0 0 447.8 447.8" style="enable-background:new 0 0 447.8 447.8;" xml:space="preserve">
<g>
	<g>
		<path d="M367.856,278c-0.1-0.1-0.1-0.1-0.2-0.2l-149.6-149.1V74.5c0-41.1-33.4-74.5-74.5-74.5c-41.1,0-74.5,33.4-74.5,74.6v142.6    l-1.9,2c-33.8,33.9-33.8,88.8,0.1,122.7l45,45c33.9,33.9,88.8,33.9,122.7,0l106.7-106.7l12,11.8c3.9,3.9,10.2,4,14.1,0.1    C371.656,288.2,371.756,281.9,367.856,278z M89.056,74.6c0-30.1,24.4-54.5,54.5-54.5c30.1,0,54.5,24.4,54.5,54.5v34.2l-20.7-20.7    c-3.9-3.9-10.2-3.9-14.1,0.1c-3.9,3.9-3.9,10.2,0.1,14.1l10.4,10.5l-84.7,84.4V74.6z M204.356,232.4c11.1,0,20.2,9,20.2,20.1    s-9,20.2-20.1,20.2c-11.1,0-20.2-9-20.2-20.1C184.256,241.5,193.256,232.5,204.356,232.4z M220.856,372.8    c-26,26.1-68.3,26.1-94.4,0.1c0,0,0,0-0.1-0.1l-45-45c-26-26.1-26-68.3,0-94.4l6-6l100.5-100.6l10.2,10.3V213    c-21.9,3.4-36.9,24-33.4,45.9c3.4,21.9,24,36.9,45.9,33.4c19.5-3.1,33.9-19.9,33.9-39.6c0.2-16.9-10.4-32.1-26.4-37.7v-58    l109.5,109L220.856,372.8z"></path>
	</g>
</g>
<g>
	<g>
		<path d="M392.856,370l-25.1-25.2c-3.9-3.9-10.2-3.9-14.1,0l-25.3,25.2c-17.8,17.7-18,46.5-0.3,64.3c8.6,8.6,20.2,13.5,32.3,13.5    s23.7-4.7,32.4-13.1l0.1-0.1C410.356,417.1,410.356,387.5,392.856,370z M378.956,420.4c-5,4.8-11.6,7.4-18.4,7.4    c-6.7,0-13.2-2.6-17.9-7.3c-9.8-10.1-9.8-26.2,0-36.3l18.1-18.2l18.2,18.2C388.656,394.3,388.656,410.3,378.956,420.4z"></path>
	</g>
</g>
<g>
</g>
<g>
</g>
<g>
</g>
<g>
</g>
<g>
</g>
<g>
</g>
<g>
</g>
<g>
</g>
<g>
</g>
<g>
</g>
<g>
</g>
<g>
</g>
<g>
</g>
<g>
</g>
<g>
</g>
</svg>