<svg xmlns="http://www.w3.org/2000/svg" id="Layer_1" height="512" viewBox="0 0 512 512" width="512"><path d="m437.713 489.896-47.829-88.997c-2.614-4.865-7.69-7.899-13.213-7.899 0 0-75.608.009-75.671.01v-162.01h1.109l17.186 17.508c2.937 2.992 6.82 4.492 10.706 4.492 3.792 0 7.587-1.429 10.507-4.295 5.912-5.803 6-15.3.197-21.212l-21.596-22c-2.104-2.144-4.786-3.587-7.684-4.183l39.078-22.571c4.64-2.68 7.498-7.631 7.498-12.989v-100.5c0-5.358-2.858-10.309-7.498-12.989l-87-50.25c-4.643-2.682-10.362-2.682-15.005 0l-87 50.25c-4.64 2.68-7.498 7.631-7.498 12.989v100.5c0 5.358 2.858 10.309 7.498 12.989l39.173 22.626c-2.78.615-5.355 2.002-7.396 4.052l-21.905 22c-5.845 5.871-5.824 15.368.046 21.213 5.871 5.844 15.367 5.824 21.213-.046l17.508-17.584h.863v162.01c-.064-.001-75.671-.01-75.671-.01-5.522 0-10.599 3.035-13.213 7.899l-47.829 88.997c-3.921 7.297-1.185 16.392 6.112 20.313 2.259 1.214 4.69 1.79 7.087 1.79 5.345 0 10.519-2.864 13.226-7.902l43.584-81.097h17.566c-.512 1.18-.879 2.432-1.075 3.735l-10.218 67.92c-1.232 8.192 4.41 15.832 12.602 17.064.756.114 1.508.169 2.25.169 7.298 0 13.696-5.335 14.814-12.771l9.009-59.889 21.756-9.947v26.719c0 8.284 6.716 15 15 15h60c8.284 0 15-6.716 15-15v-26.86l22.063 10.09 9.009 59.889c1.119 7.436 7.516 12.771 14.814 12.771.742 0 1.494-.055 2.25-.169 8.192-1.232 13.834-8.873 12.602-17.064l-10.218-67.92c-.196-1.303-.563-2.555-1.075-3.735h17.258l43.583 81.098c2.708 5.039 7.881 7.902 13.226 7.902 2.396 0 4.829-.576 7.087-1.79 7.299-3.924 10.035-13.019 6.114-20.316zm-166.713-168.896h-30v-30h30zm-30 30h30v30h-30zm-57-277.091 72-41.586 72 41.586v83.183l-72 41.586-72-41.586zm87 157.091v30.001h-30v-30.001zm-30 210v-30h30v30z"></path></svg>