<svg xmlns="http://www.w3.org/2000/svg" height="512pt" viewBox="0 0 512 512.00161" width="512pt"><path d="m213.335938 224c0 24.40625 35.609374 38.46875 39.671874 39.996094 1.925782.710937 4.042969.710937 5.972657 0 4.078125-1.527344 39.6875-15.589844 39.6875-39.996094-.378907-15.660156-13.351563-28.0625-29.011719-27.734375-4.828125-.078125-9.574219 1.257813-13.65625 3.839844-4.078125-2.582031-8.824219-3.917969-13.652344-3.839844-15.660156-.328125-28.636718 12.074219-29.011718 27.734375zm29.011718-10.667969c2.953125-.027343 5.742188 1.371094 7.484375 3.757813 3.414063 3.382812 8.921875 3.382812 12.339844 0 1.742187-2.386719 4.527344-3.785156 7.484375-3.757813 6.234375-.324219 11.566406 4.4375 11.945312 10.667969 0 9.003906-15.675781 18.433594-25.601562 22.785156-9.921875-4.351562-25.597656-13.78125-25.597656-22.785156.378906-6.230469 5.710937-10.992188 11.945312-10.667969zm0 0"></path><path d="m497.015625 163.71875c-6.28125-2.425781-13.292969-2.09375-19.316406.914062-5.792969 2.863282-10.144531 8-12.015625 14.183594l-5.574219 18.695313c-3.785156 13.796875-11.761719 26.078125-22.824219 35.148437-5.359375 4.269532-10.0625 9.304688-13.953125 14.941406-5.757812 8.28125-13.277343 15.175782-22.023437 20.191407l-4.183594 2.390625c-4.742188-3.691406-10.585938-5.679688-16.597656-5.648438-8.761719-.074218-16.988282 4.214844-21.945313 11.441406l-28.253906 40.824219c-12.511719 3.488281-55.851563 18.140625-74.328125 55.601563-18.472656-37.460938-61.8125-52.113282-74.324219-55.601563l-28.160156-40.722656c-4.957031-7.289063-13.226563-11.621094-22.042969-11.542969-6.007812-.03125-11.851562 1.957032-16.59375 5.648438l-4.105468-2.339844c-8.8125-5.035156-16.394532-11.972656-22.1875-20.308594-3.882813-5.609375-8.570313-10.621094-13.910157-14.867187-11.066406-9.074219-19.042969-21.363281-22.824219-35.164063l-5.574218-18.6875c-1.863282-6.175781-6.195313-11.308594-11.972656-14.183594-6.023438-3.015624-13.042969-3.347656-19.328126-.914062-9.085937 3.554688-15.0429682 12.34375-14.976562 22.101562v30.722657c.015625 10.484375 2.550781 20.8125 7.398438 30.113281l15.644531 30.277344c3.367187 6.519531 7.777343 12.449218 13.054687 17.550781l45.738282 44.136719c32.078124 34.414062 77.253906 89.753906 77.253906 105.113281-1.621094 11.019531-5.523438 21.582031-11.460938 31.007813-4.160156 7.820312-3.890625 17.257812.714844 24.824218 4.726562 7.792969 13.210938 12.519532 22.324219 12.433594h51.199219c9.828124.109375 18.871093-5.363281 23.332031-14.121094 4.464843-9.277344 8.078125-18.933594 10.800781-28.859375 2.726562 9.925781 6.339844 19.582031 10.804688 28.859375 4.460937 8.757813 13.5 14.230469 23.328124 14.121094h51.203126c9.113281.085938 17.601562-4.636719 22.332031-12.433594 4.601562-7.566406 4.875-17.003906.714843-24.824218-5.9375-9.425782-9.84375-19.988282-11.46875-31.007813 0-15.359375 45.175782-70.699219 76.945313-104.789063l46.082031-44.460937c5.261719-5.105469 9.660156-11.035156 13.019532-17.550781l15.589843-30.199219c4.871094-9.308594 7.429688-19.652344 7.449219-30.160156v-30.71875c.085938-9.773438-5.878906-18.582031-14.984375-22.136719zm-267.09375 326.488281c-1.570313 2.972657-4.691406 4.804688-8.054687 4.726563h-51.199219c-3.136719.085937-6.082031-1.511719-7.722657-4.191406-1.511718-2.457032-1.589843-5.539063-.203124-8.070313 7.382812-11.785156 11.96875-25.105469 13.414062-38.9375 0-27.5625-68.175781-102.09375-82.152344-117.078125l-46.078125-44.457031c-3.953125-3.804688-7.253906-8.230469-9.773437-13.101563l-15.605469-30.285156c-3.589844-6.863281-5.46875-14.492188-5.480469-22.238281v-30.71875c-.066406-2.644531 1.476563-5.0625 3.902344-6.117188.851562-.339843 1.761719-.519531 2.679688-.539062 1.058593-.003907 2.105468.242187 3.054687.71875 1.558594.75 2.738281 2.109375 3.257813 3.761719l5.566406 18.671874c4.777344 17.183594 14.777344 32.457032 28.617187 43.707032 4.011719 3.195312 7.527344 6.960937 10.4375 11.179687 7.214844 10.402344 16.65625 19.070313 27.640625 25.367188l3.472656 1.988281c-.496093 1.921875-.757812 3.898438-.785156 5.882812.035156 2.859376.527344 5.699219 1.460938 8.402344 2.054687 5.769532 4.007812 12 5.628906 17.964844 3.9375 14.734375 11.796875 28.121094 22.742188 38.742188.21875.214843.453124.417968.699218.605468l44.628906 34.558594c3.730469 2.886719 9.089844 2.203125 11.976563-1.523438 2.886719-3.726562 2.207031-9.089843-1.523437-11.976562l-44.253907-34.261719c-8.5625-8.429687-14.707031-19.003906-17.789062-30.617187-1.707031-6.410156-3.839844-13.046875-5.972657-19.003906-.332031-.929688-.515624-1.90625-.546874-2.890626 0-1.621093.496093-3.203124 1.425781-4.53125.066406-.105468.074219-.214843.144531-.316406.066406-.105468.246094-.300781.347656-.46875 2.011719-2.210937 4.886719-3.425781 7.871094-3.320312 2.984375.101562 5.773438 1.507812 7.625 3.847656l30.046875 43.433594c1.234375 1.78125 3.097656 3.027344 5.214844 3.492187 2.996093.648438 72.832031 16.546875 72.832031 76.988281.039062 27.816407-5.9375 55.3125-17.519531 80.605469zm265.011719-273.632812c-.011719 7.761719-1.898438 15.40625-5.503906 22.28125l-15.605469 30.242187c-2.523438 4.871094-5.828125 9.296875-9.78125 13.101563l-46.359375 44.78125c-13.65625 14.660156-81.835938 89.191406-81.835938 116.753906 1.441406 13.832031 6.03125 27.152344 13.414063 38.9375 1.386719 2.53125 1.308593 5.613281-.203125 8.070313-1.640625 2.679687-4.585938 4.277343-7.722656 4.191406h-51.203126c-3.371093.085937-6.5-1.746094-8.078124-4.726563-11.582032-25.292969-17.558594-52.789062-17.519532-80.605469 0-60.441406 69.835938-76.339843 72.816406-76.988281 2.113282-.464843 3.976563-1.710937 5.210938-3.492187l30.113281-43.519532c1.785157-2.429687 4.59375-3.902343 7.609375-3.988281 3.015625-.085937 5.902344 1.226563 7.820313 3.554688.101562.167969.246093.304687.351562.46875.101563.160156.074219.210937.144531.316406.925782 1.328125 1.421876 2.910156 1.425782 4.53125-.027344.914063-.1875 1.820313-.480469 2.6875-2.183594 6.160156-4.265625 12.800781-6.03125 19.242187-3.085937 11.601563-9.226563 22.164063-17.785156 30.582032l-44.253907 34.261718c-3.722656 2.890626-4.402343 8.257813-1.507812 11.980469 2.890625 3.726563 8.253906 4.402344 11.980469 1.511719l44.628906-34.558594c.246094-.1875.480469-.390625.699219-.605468 10.9375-10.609376 18.796875-23.988282 22.734375-38.710938 1.628906-5.972656 3.582031-12.226562 5.699219-18.191406.898437-2.644532 1.371093-5.414063 1.398437-8.207032-.027344-1.984374-.289063-3.960937-.785156-5.882812l3.550781-2.039062c10.933594-6.273438 20.332031-14.902344 27.519531-25.257813 2.925781-4.242187 6.457031-8.03125 10.488281-11.246094 13.832032-11.242187 23.828126-26.507812 28.601563-43.683593l5.574219-18.6875c.519531-1.652344 1.699218-3.011719 3.257812-3.761719 1.792969-.878907 3.875-.957031 5.726563-.214844 2.429687 1.054687 3.972656 3.472656 3.910156 6.117187zm0 0"></path><path d="m217.082031 128.726562c-33.210937 16.316407-54.433593 49.910157-54.90625 86.910157-.921875 36.722656 19.957031 70.511719 53.207031 86.117187 1.730469.863282 3.226563 2.140625 4.351563 3.714844 8.332031 11.816406 21.898437 18.832031 36.359375 18.800781 14.457031-.03125 27.996094-7.105469 36.277344-18.957031 1.074218-1.488281 2.496094-2.695312 4.148437-3.503906 32.359375-15.242188 53.105469-47.695313 53.347657-83.464844 0-42.054688-21.195313-76.441406-55.320313-89.761719-2.671875-1.078125-4.417969-3.675781-4.414063-6.554687v-33.417969c-.039062-8.707031 5.015626-16.632813 12.929688-20.265625 7.328125-4.015625 10.984375-12.5 8.875-20.585938-2.109375-8.085937-9.445312-13.699218-17.800781-13.625h-4.003907v-14.804687c-.007812-10.671875-8.65625-19.3203125-19.324218-19.328125h-29.613282c-10.667968.0078125-19.316406 8.65625-19.328124 19.328125v14.804687h-4c-10.121094-.023437-18.351563 8.148438-18.398438 18.269532 0 6.648437 3.632812 12.761718 9.472656 15.941406 7.878906 3.148438 13.015625 10.816406 12.925782 19.300781v34.382813c-.113282 2.988281-1.996094 5.621094-4.785157 6.699218zm21.851563-109.398437c0-1.25 1.011718-2.261719 2.261718-2.261719h29.613282c1.246094 0 2.257812 1.011719 2.257812 2.261719v14.804687h-34.132812zm-21.820313 34.03125c-.359375-.1875-.585937-.566406-.578125-.972656.039063-.695313.636719-1.226563 1.332032-1.1875h76.269531c.699219-.03125 1.292969.503906 1.332031 1.203125.003906.402344-.222656.773437-.582031.957031-13.414063 6.609375-21.886719 20.292969-21.820313 35.25v33.417969c.023438 9.90625 6.070313 18.800781 15.277344 22.46875 27.390625 10.691406 44.457031 38.96875 44.457031 73.847656-.222656 29.179688-17.175781 55.640625-43.585937 68.042969-4.199219 2.019531-7.835938 5.042969-10.582032 8.808593-5.011718 7.589844-13.539062 12.109376-22.632812 12.003907-9.054688.191406-17.570312-4.292969-22.535156-11.867188-2.785156-3.835937-6.476563-6.921875-10.742188-8.988281-27.15625-12.691406-44.234375-40.246094-43.519531-70.210938.464844-30.371093 17.683594-58 44.746094-71.792968 8.964843-3.820313 14.839843-12.566406 14.984375-22.3125v-34.382813c.097656-14.722656-8.441406-28.136719-21.820313-34.285156zm0 0"></path><path d="m369.433594 87.832031-17.066406 17.066407c-2.21875 2.144531-3.105469 5.316406-2.324219 8.300781.777343 2.984375 3.109375 5.3125 6.09375 6.09375s6.15625-.109375 8.296875-2.328125l17.066406-17.066406c3.234375-3.347657 3.1875-8.667969-.101562-11.960938-3.292969-3.292969-8.613282-3.335938-11.964844-.105469zm0 0"></path><path d="m366.933594 136.535156c0 4.710938 3.820312 8.53125 8.535156 8.53125h17.066406c4.710938 0 8.53125-3.820312 8.53125-8.53125 0-4.714844-3.820312-8.535156-8.53125-8.535156h-17.066406c-4.714844 0-8.535156 3.820312-8.535156 8.535156zm0 0"></path><path d="m153.601562 119.464844c3.449219 0 6.5625-2.078125 7.882813-5.265625s.589844-6.859375-1.851563-9.300781l-17.066406-17.066407c-3.347656-3.230469-8.667968-3.1875-11.960937.105469s-3.335938 8.613281-.105469 11.960938l17.066406 17.066406c1.601563 1.601562 3.773438 2.5 6.035156 2.5zm0 0"></path><path d="m110.933594 136.535156c0 4.710938 3.820312 8.53125 8.535156 8.53125h17.066406c4.710938 0 8.53125-3.820312 8.53125-8.53125 0-4.714844-3.820312-8.535156-8.53125-8.535156h-17.066406c-4.714844 0-8.535156 3.820312-8.535156 8.535156zm0 0"></path></svg>