<svg xmlns="http://www.w3.org/2000/svg" viewBox="0 0 64 64" width="512" height="512"><g id="recession"><path d="M56.76,22.35A10.992,10.992,0,1,0,40,13a10.837,10.837,0,0,0,1.34,5.25L36,23.59,21.71,9.29a1.008,1.008,0,0,0-1.42,0l-4.79,4.8L2.71,1.29,1.29,2.71l13.5,13.5a1.008,1.008,0,0,0,1.42,0L21,11.41l14.29,14.3a1.014,1.014,0,0,0,1.42,0l5.76-5.77A11,11,0,0,0,51,24a10.856,10.856,0,0,0,3.87-.72l6.42,6.43,1.42-1.42ZM51,22a9,9,0,1,1,9-9A9.014,9.014,0,0,1,51,22Z"></path><path d="M50,20h2V18a2,2,0,0,0,2-2V14a2,2,0,0,0-2-2H50V10h4V8H52V6H50V8a2,2,0,0,0-2,2v2a2,2,0,0,0,2,2h2v2H48v2h2Z"></path><path d="M17,45H15a3,3,0,0,1,0-6h6V37H17V35H15v2a5,5,0,0,0,0,10h2a3,3,0,0,1,0,6H11v2h4v2h2V55a5,5,0,0,0,0-10Z"></path><path d="M62,51a3.009,3.009,0,0,0-3-3H47a3.009,3.009,0,0,0-3,3,2.974,2.974,0,0,0-.78-2A2.974,2.974,0,0,0,44,47V45a2.974,2.974,0,0,0-.78-2A2.974,2.974,0,0,0,44,41V39a3.009,3.009,0,0,0-3-3H29a2.98,2.98,0,0,0-2.35,1.16,22.858,22.858,0,0,0-3.76-4.85,2.969,2.969,0,0,0-.55-4.98l1.63-6.07a1.019,1.019,0,0,0-.22-.92,1,1,0,0,0-.89-.33L16,20.99l-6.86-.98a1,1,0,0,0-.89.33,1.019,1.019,0,0,0-.22.92l1.63,6.07a2.969,2.969,0,0,0-.55,4.98C5.09,36.15,2,42.81,2,48v4c0,5.42,4.12,10,9,10H21a8.259,8.259,0,0,0,5.21-1.92A3.005,3.005,0,0,0,29,62H41a3.009,3.009,0,0,0,3-3,3.009,3.009,0,0,0,3,3H59a3.009,3.009,0,0,0,3-3V57a2.974,2.974,0,0,0-.78-2A2.974,2.974,0,0,0,62,53ZM15.86,22.99a1.31,1.31,0,0,0,.28,0l5.5-.79L20.35,27h-8.7l-1.29-4.8ZM11,29H21a1,1,0,0,1,0,2H11a1,1,0,0,1,0-2ZM21,60H11c-3.73,0-7-3.74-7-8V48c0-5,3.35-11.77,7.36-15h9.28C24.65,36.23,28,43,28,48v4C28,56.26,24.73,60,21,60Zm21-1a1,1,0,0,1-1,1H29a1,1,0,0,1-1-1v-.81A10.571,10.571,0,0,0,29.21,56H41a1,1,0,0,1,1,1Zm0-6a1,1,0,0,1-1,1H29.81A11.023,11.023,0,0,0,30,52V50H41a1,1,0,0,1,1,1Zm0-6a1,1,0,0,1-1,1H30a16.869,16.869,0,0,0-.53-4H41a1,1,0,0,1,1,1Zm0-6a1,1,0,0,1-1,1H29a.527.527,0,0,1-.12-.03c-.26-.74-.55-1.48-.88-2.22V39a1,1,0,0,1,1-1H41a1,1,0,0,1,1,1Zm2,16a2.974,2.974,0,0,0-.78-2A2.974,2.974,0,0,0,44,53a2.974,2.974,0,0,0,.78,2A2.974,2.974,0,0,0,44,57Zm16,2a1,1,0,0,1-1,1H47a1,1,0,0,1-1-1V57a1,1,0,0,1,1-1H59a1,1,0,0,1,1,1Zm0-6a1,1,0,0,1-1,1H47a1,1,0,0,1-1-1V51a1,1,0,0,1,1-1H59a1,1,0,0,1,1,1Z"></path></g></svg>