<svg xmlns="http://www.w3.org/2000/svg" xmlns:xlink="http://www.w3.org/1999/xlink" id="Capa_1" x="0px" y="0px" viewBox="0 0 456.8 456.8" style="enable-background:new 0 0 456.8 456.8;" xml:space="preserve">
<g>
	<g>
		<path d="M434.8,218.88c-0.543-5.027-3.539-9.46-8-11.84V98.56h14.72c8.439,0,15.28-6.841,15.28-15.28    c-0.008-0.986-0.197-1.963-0.56-2.88l-21.36-55.36c-0.895-7.715-7.434-13.531-15.2-13.52H37.12    c-7.766-0.011-14.305,5.805-15.2,13.52L0.56,80.32C0.197,81.237,0.008,82.214,0,83.2c0,8.439,6.841,15.28,15.28,15.28h15.04v108.8    c-4.461,2.38-7.457,6.813-8,11.84L0.56,274.4c-0.363,0.917-0.552,1.894-0.56,2.88c0.088,8.376,6.903,15.12,15.28,15.12h15.04    v144.88c0,4.418,3.582,8,8,8h380.16c4.418,0,8-3.582,8-8V292.4h15.04c8.439,0,15.28-6.841,15.28-15.28    c-0.008-0.986-0.197-1.963-0.56-2.88L434.8,218.88z M16.88,82.56l20.4-52.88c0.259-0.694,0.421-1.421,0.48-2.16h381.2    c0.059,0.739,0.221,1.466,0.48,2.16l20.48,52.88h-21.44H16.88z M410.48,98.56v106.96H46.32V98.56H410.48z M261.84,429.28h-66.96    v-86.56h66.96V429.28z M277.92,429.28v-86.56c0-8.837-7.163-16-16-16h-67.04c-8.837,0-16,7.163-16,16v86.56H46.32V292.4h364.16    l0.4,136.88H277.92z M16.88,276.4l20.48-52.88c0.259-0.694,0.421-1.421,0.48-2.16h381.12c0.059,0.739,0.221,1.466,0.48,2.16    l20.48,52.88H16.88z"></path>
	</g>
</g>
<g>
	<g>
		<path d="M136.4,314h-64c-4.418,0-8,3.582-8,8v64c0,4.418,3.582,8,8,8h64c4.418,0,8-3.582,8-8v-64    C144.4,317.582,140.818,314,136.4,314z M128.4,378h-48v-48h48V378z"></path>
	</g>
</g>
<g>
	<g>
		<path d="M384.4,314h-64c-4.418,0-8,3.582-8,8v64c0,4.418,3.582,8,8,8h64c4.418,0,8-3.582,8-8v-64    C392.4,317.582,388.818,314,384.4,314z M376.4,378h-48v-48h48V378z"></path>
	</g>
</g>
<g>
	<g>
		<path d="M136.4,112.08h-64c-4.418,0-8,3.582-8,8v64c0,4.418,3.582,8,8,8h64c4.418,0,8-3.582,8-8v-64    C144.4,115.662,140.818,112.08,136.4,112.08z M128.4,176.08h-48v-48h48V176.08z"></path>
	</g>
</g>
<g>
	<g>
		<path d="M384.4,112.08h-64c-4.418,0-8,3.582-8,8v64c0,4.418,3.582,8,8,8h64c4.418,0,8-3.582,8-8v-64    C392.4,115.662,388.818,112.08,384.4,112.08z M376.4,176.08h-48v-48h48V176.08z"></path>
	</g>
</g>
<g>
	<g>
		<path d="M260.4,112.08h-64c-4.418,0-8,3.582-8,8v64c0,4.418,3.582,8,8,8h64c4.418,0,8-3.582,8-8v-64    C268.4,115.662,264.818,112.08,260.4,112.08z M252.4,176.08h-48v-48h48V176.08z"></path>
	</g>
</g>
<g>
</g>
<g>
</g>
<g>
</g>
<g>
</g>
<g>
</g>
<g>
</g>
<g>
</g>
<g>
</g>
<g>
</g>
<g>
</g>
<g>
</g>
<g>
</g>
<g>
</g>
<g>
</g>
<g>
</g>
</svg>