<svg xmlns="http://www.w3.org/2000/svg" id="Capa_1" height="512" viewBox="0 0 512 512" width="512"><g><path d="m475.14 412.31c3.64-7.006 5.71-14.956 5.71-23.387 0-28.02-22.741-50.815-50.692-50.815h-8.014c2.86-6.358 4.466-13.399 4.466-20.814 0-28.019-22.74-50.813-50.692-50.813h-6.246c2.86-6.358 4.466-13.399 4.466-20.814 0-5.909-1.739-12.245-5.318-19.369-5.452-10.853-14.346-19.874-25.723-26.089-7.112-3.886-11.651-11.345-11.846-19.468l-.336-14.002c-.06-2.511-.748-4.965-2.001-7.14-5.474-9.505-15.279-15.18-26.228-15.18s-20.754 5.675-26.228 15.18l-13.393 23.254c-4.263 7.401-12.208 11.999-20.734 11.999-27.952 0-50.692 22.795-50.692 50.814 0 7.415 1.606 14.457 4.466 20.814h-6.246c-12.308 0-24.095 4.521-33.225 12.452-11.763-3.902-24.328-6.021-37.379-6.021-65.757 0-119.255 53.628-119.255 119.545s53.498 119.544 119.257 119.544h342.051c27.951 0 50.692-22.795 50.692-50.815 0-23.212-15.613-42.824-36.86-48.875zm-24.217-23.387c0 11.477-9.315 20.814-20.764 20.814-.706 0-1.347.233-1.932.634h-191.054c.88-5.845 1.339-11.827 1.339-17.915 0-8.341-.86-16.484-2.489-24.348h194.135c11.45 0 20.765 9.337 20.765 20.815zm-229.354-143.257c0-11.477 9.315-20.814 20.764-20.814 19.184 0 37.06-10.346 46.652-26.999l12.231-21.237.116 4.847c.452 18.811 10.968 36.088 27.445 45.088 6.008 3.282 10.612 7.86 13.314 13.238 2.059 4.101 2.12 5.867 2.12 5.878 0 11.478-9.315 20.814-20.764 20.814h-81.114c-11.45-.001-20.764-9.337-20.764-20.815zm154.35 50.814c11.449 0 20.764 9.337 20.764 20.814s-9.314 20.814-20.764 20.814h-150.458c-8.406-16.44-20.504-30.683-35.185-41.628zm-345.991 95.976c0-49.375 40.073-89.545 89.329-89.545s89.328 40.17 89.328 89.545-40.073 89.544-89.328 89.544c-49.256 0-89.329-40.169-89.329-89.544zm431.38 89.544h-263.135c12.898-11.435 23.314-25.619 30.33-41.629h232.806c11.449 0 20.764 9.337 20.764 20.814-.001 11.478-9.316 20.815-20.765 20.815z"></path><path d="m164.628 385.749c-2.189-5.856-7.773-9.736-14.012-9.736h-19.366l16.45-12.923c6.505-5.11 7.646-14.539 2.548-21.06s-14.503-7.662-21.008-2.554l-50.573 39.729c-5.024 3.947-6.997 10.653-4.915 16.701s7.763 10.105 14.145 10.105h22.79l-18.66 16.311c-6.229 5.444-6.875 14.92-1.444 21.164 2.959 3.401 7.111 5.142 11.285 5.142 3.488 0 6.992-1.216 9.828-3.694l48.755-42.616c4.702-4.11 6.367-10.714 4.177-16.569z"></path><path d="m397.999 175.319c0 8.284 6.7 15 14.964 15s14.964-6.716 14.964-15c0-8.368 2.483-11.693 6.992-17.731 5.469-7.324 12.96-17.355 12.96-35.707s-7.491-28.384-12.96-35.708c-4.509-6.038-6.992-9.364-6.992-17.732s2.483-11.693 6.991-17.731c5.47-7.325 12.96-17.356 12.96-35.709 0-8.284-6.7-15-14.964-15s-14.964 6.716-14.964 15c0 8.368-2.483 11.694-6.992 17.732-5.469 7.324-12.96 17.357-12.96 35.708 0 18.353 7.491 28.385 12.96 35.709 4.508 6.038 6.991 9.363 6.991 17.731 0 8.367-2.483 11.692-6.991 17.73-5.468 7.325-12.959 17.356-12.959 35.708z"></path><path d="m291.51 121.166c1.305 0 2.632-.173 3.951-.534 7.973-2.182 12.67-10.43 10.493-18.421-1.163-4.271-1.729-9.083-1.729-14.715 0-14.261 3.581-20.766 8.114-29.002 5.274-9.581 11.838-21.507 11.838-43.494 0-8.284-6.7-15-14.964-15s-14.964 6.716-14.964 15c0 14.261-3.581 20.766-8.114 29.002-5.274 9.581-11.838 21.507-11.838 43.494 0 8.338.911 15.736 2.786 22.617 1.817 6.67 7.847 11.053 14.427 11.053z"></path><path d="m132.639 175.319c0 8.284 6.7 15 14.964 15s14.964-6.716 14.964-15c0-8.368 2.483-11.693 6.992-17.731 5.469-7.324 12.96-17.355 12.96-35.707s-7.491-28.384-12.96-35.708c-4.509-6.038-6.992-9.364-6.992-17.732s2.483-11.693 6.992-17.731c5.47-7.325 12.96-17.356 12.96-35.709 0-8.284-6.7-15-14.964-15s-14.964 6.716-14.964 15c0 8.368-2.483 11.694-6.992 17.732-5.469 7.324-12.96 17.357-12.96 35.708 0 18.353 7.491 28.385 12.96 35.709 4.508 6.038 6.991 9.363 6.991 17.731 0 8.367-2.483 11.692-6.991 17.73-5.469 7.325-12.96 17.356-12.96 35.708z"></path></g></svg>