<svg xmlns="http://www.w3.org/2000/svg" id="Layer_1" height="512" viewBox="0 0 510 510" width="512"><g><path d="m479.201 337.007c-11.365-166.22-146.044-299.187-314.201-306.659v-30.348h-90v30h-75v165h75v30h90v-28.924c50.816 7.301 90 51.119 90 103.924v30c-20.25-.004-31.127 6.816-39.855 12.294-7.129 4.474-12.28 7.706-23.9 7.706-25.123 0-27.591-20-63.749-20-20.254 0-31.118 6.816-39.848 12.294-7.129 4.474-12.281 7.706-23.902 7.706-20.481 0-23.885-11.864-44.762-17.611l-18.982-5.227-.002 182.838h510v-182.837c-16.104 4.763-21.482 5.078-30.799 9.844zm-449.201-172.007v-105h45v105zm105 30h-30v-165h30zm30-29.162v-105.463c155.132 7.678 279.62 133.743 284.81 289.506-28.745 1.893-29.422-19.881-67.319-19.881-36.485.006-38.156 20.101-63.751 20-16.544 0-20.314-6.718-33.74-13.381v-36.619c0-69.369-52.595-126.676-120-134.162zm-101.254 214.162c20.254 0 31.118-6.816 39.848-12.294 7.13-4.474 12.281-7.706 23.902-7.706 25.124 0 27.589 20 63.749 20 20.253 0 31.116-6.816 39.846-12.294 7.129-4.474 12.28-7.706 23.9-7.706 25.124 0 27.589 20 63.749 20 36.488-.007 38.156-20.1 63.751-20 25.136 0 27.592 20 63.754 20 15.835 0 25.932-4.167 33.755-8.603v34.21c-13.359 6.619-17.17 13.393-33.755 13.393-25.136 0-27.593-20-63.754-20-36.488.007-38.154 20.101-63.751 20-25.123 0-27.591-20-63.749-20-20.253 0-31.116 6.816-39.846 12.294-7.129 4.474-12.28 7.706-23.9 7.706-25.123 0-27.591-20-63.749-20-20.254 0-31.118 6.816-39.848 12.294-7.129 4.474-12.281 7.706-23.902 7.706-16.576 0-20.387-6.771-33.745-13.39l.001-34.208c7.822 4.434 17.916 8.598 33.744 8.598zm-33.746 100 .001-39.605c22.542 13.528 54.637 10.281 73.593-3.689 7.13-4.473 12.281-7.705 23.902-7.705 25.124 0 27.589 20 63.749 20 20.253 0 31.116-6.816 39.846-12.294 7.129-4.474 12.28-7.706 23.9-7.706 25.124 0 27.589 20 63.749 20 20.254 0 31.118-6.816 39.849-12.294 7.13-4.474 12.281-7.706 23.902-7.706 25.136 0 27.592 20 63.754 20 15.843 0 25.93-4.171 33.755-8.609v39.608z"></path><path d="m345 240h30v30h-30z"></path><path d="m270 150h30v30h-30z"></path></g></svg>