<svg xmlns="http://www.w3.org/2000/svg" id="Layer_1" height="512" viewBox="0 0 512.002 512.002" width="512"><g><g><path d="m436.749 280.662v-40.662h13.251c5.522 0 10-4.477 10-10v-60c0-1.081-.175-2.155-.519-3.18l-53.66-160c-1.366-4.074-5.183-6.82-9.481-6.82h-332.679c-4.297 0-8.115 2.746-9.481 6.82l-53.66 160c-.344 1.025-.52 2.098-.52 3.18v60c0 5.523 4.477 10 10 10h13.252v170c0 5.523 4.477 10 10 10h242.055c12.646 52.708 60.164 92.002 116.694 92.002 66.168 0 120-53.832 120-120 0-50.359-31.184-93.565-75.252-111.34zm-147.12-60.662v-40h150.371v40zm-99.257 20h79.258v38.698c0 1.659-.508 2.619-.828 2.834-.059.039-.333.022-.735-.142l-34.301-13.938c-2.414-.98-5.115-.98-7.529 0l-34.3 13.938c-.403.164-.678.181-.736.143-.32-.216-.828-1.176-.828-2.834v-38.699zm0-20v-40h79.258v40zm67.88-200 10.592 140h-77.688l10.592-140zm177.847 140h-147.197l-10.592-140h110.837zm-365.245-140h110.837l-10.592 140h-147.197zm-50.854 200v-40h150.371v40zm23.252 180v-20.001h44.996c5.523 0 10-4.477 10-10s-4.477-10-10-10h-44.996v-119.999h127.119v38.698c0 8.213 3.521 15.294 9.661 19.426 5.706 3.84 12.789 4.494 19.432 1.795l30.536-12.409 30.536 12.408c2.701 1.098 5.476 1.641 8.199 1.641 3.977 0 7.847-1.157 11.232-3.436 6.14-4.132 9.661-11.213 9.661-19.426v-38.697h127.119v34.574c-7.989-1.682-16.266-2.572-24.747-2.572-66.168 0-120 53.832-120 120 0 2.688.098 5.353.273 7.998zm348.749 92.002c-55.141 0-100-44.86-100-100s44.859-100 100-100 100 44.86 100 100-44.859 100-100 100z"></path><path d="m133.245 359.998c-5.523 0-10 4.477-10 10s4.477 10 10 10h.007c5.523 0 9.997-4.477 9.997-10s-4.481-10-10.004-10z"></path><path d="m417.876 352.001h-47.606l2.929-2.929c3.905-3.905 3.905-10.237 0-14.143-3.906-3.905-10.236-3.905-14.143 0l-20 20c-3.905 3.905-3.905 10.237 0 14.143l20 20c1.953 1.953 4.512 2.929 7.071 2.929s5.118-.976 7.071-2.929c3.905-3.905 3.905-10.237 0-14.143l-2.929-2.929h47.606c11.028 0 20 8.972 20 20s-8.972 20-20 20h-81.75c-5.522 0-10 4.477-10 10s4.478 10 10 10h81.75c22.056 0 40-17.944 40-40s-17.943-39.999-39.999-39.999z"></path></g></g></svg>