<svg xmlns="http://www.w3.org/2000/svg" xmlns:xlink="http://www.w3.org/1999/xlink" id="Layer_1" x="0px" y="0px" viewBox="0 0 511.999 511.999" style="enable-background:new 0 0 511.999 511.999;" xml:space="preserve">
<g>
	<g>
		<path d="M246.858,33.002c-0.794-4.319-4.937-7.172-9.256-6.383c-29.545,5.43-46.818,23.145-60.697,37.38    c-14.443,14.814-23.983,24.6-44.933,24.6c-20.949,0-30.49-9.785-44.934-24.6C70.992,47.541,49.014,24.998,7.95,24.998    c-4.391,0-7.95,3.56-7.95,7.95v102.207c0,4.391,3.56,7.95,7.95,7.95s7.95-3.56,7.95-7.95V41.239    C45.134,43.8,61.278,60.355,75.656,75.103c13.158,13.495,24.79,25.408,45.189,28.571v226.529c0,4.391,3.56,7.95,7.95,7.95    s7.95-3.56,7.95-7.95V104.356c24.463-1.483,37.078-14.417,51.546-29.256c12.945-13.278,27.618-28.327,52.185-32.841    C244.794,41.465,247.652,37.321,246.858,33.002z"></path>
	</g>
</g>
<g>
	<g>
		<path d="M504.05,24.998c-41.063,0-63.042,22.542-79.092,39.003C410.515,78.814,400.972,88.6,380.023,88.6    c-20.951,0-30.492-9.786-44.937-24.601c-13.877-14.232-31.148-31.945-60.686-37.377c-4.319-0.79-8.462,2.064-9.257,6.381    c-0.794,4.319,2.063,8.463,6.381,9.257c24.562,4.516,39.233,19.563,52.178,32.839c14.471,14.841,27.088,27.774,51.554,29.256    v98.642c0,4.391,3.56,7.95,7.95,7.95s7.95-3.56,7.95-7.95v-99.325c20.397-3.164,32.029-15.077,45.189-28.574    c14.377-14.745,30.521-31.3,59.756-33.861v334.759c-36.009,2.685-56.161,23.34-71.139,38.702l-0.002,0.002    c-11.61,11.906-20.057,20.561-33.803,23.5V245.4c0-4.391-3.56-7.95-7.95-7.95s-7.95,3.56-7.95,7.95v193.712    c-17.719-1.401-26.87-10.772-40.169-24.412c-16.049-16.459-38.028-39.001-79.091-39.001s-63.041,22.543-79.089,39.002    c-13.296,13.638-22.446,23.009-40.161,24.411v-66.507c0-4.391-3.56-7.95-7.95-7.95c-4.391,0-7.95,3.56-7.95,7.95v65.596    c-13.747-2.938-22.194-11.593-33.806-23.502c-14.979-15.362-35.13-36.018-71.139-38.702V186.037c0-4.391-3.56-7.95-7.95-7.95    S0,181.647,0,186.037v229.411c0,4.391,3.56,7.95,7.95,7.95c20.949,0,30.49,9.785,44.934,24.6    c16.048,16.459,38.026,39.002,79.089,39.002c41.063,0,63.041-22.543,79.089-39.002c14.443-14.814,23.983-24.6,44.933-24.6    s30.492,9.786,44.937,24.601c16.048,16.459,38.027,39.001,79.09,39.001c41.064,0,63.043-22.542,79.091-39.001    c14.444-14.814,23.986-24.601,44.936-24.601c4.391,0,7.95-3.56,7.95-7.95v-382.5C512,28.558,508.44,24.998,504.05,24.998z     M496.099,407.903L496.099,407.903c-22.408,2.367-34.54,14.812-48.371,28.997c-15.631,16.031-33.347,34.201-67.706,34.201    s-52.075-18.17-67.708-34.203c-15.381-15.776-28.666-29.399-56.32-29.399c-27.653,0-40.938,13.625-56.318,29.4    c-15.63,16.032-33.346,34.202-67.704,34.202c-34.359,0-52.075-18.17-67.706-34.204c-13.828-14.182-25.964-26.626-48.367-28.993    v-15.965c29.234,2.561,45.377,19.116,59.756,33.864c15.381,15.774,28.665,29.398,56.317,29.398    c27.653,0,40.938-13.625,56.318-29.4c15.63-16.032,33.346-34.202,67.704-34.202c34.359,0,52.076,18.17,67.706,34.201    c15.382,15.777,28.667,29.401,56.321,29.401s40.939-13.625,56.32-29.399l0.002-0.001c14.377-14.745,30.521-31.3,59.756-33.861    V407.903z"></path>
	</g>
</g>
<g>
</g>
<g>
</g>
<g>
</g>
<g>
</g>
<g>
</g>
<g>
</g>
<g>
</g>
<g>
</g>
<g>
</g>
<g>
</g>
<g>
</g>
<g>
</g>
<g>
</g>
<g>
</g>
<g>
</g>
</svg>