<svg xmlns="http://www.w3.org/2000/svg" viewBox="0 0 512 512" width="512" height="512"><g id="Out_line" data-name="Out line"><path d="M456,400a47.5972,47.5972,0,0,0-28.80908,9.60449l9.61133,12.791a31.99234,31.99234,0,1,1,6.40087,54.94531l-6.40624,14.66211A48.00458,48.00458,0,1,0,456,400Z"></path><circle cx="456" cy="448" r="8"></circle><path d="M407.63721,419.18579a31.93054,31.93054,0,0,0-42.42408-25.28662L315.31445,344.001a16.01916,16.01916,0,0,0-18.823-2.82325l-13.177-13.17675A15.99888,15.99888,0,0,0,260.68652,328L247.999,340.68652A16.02163,16.02163,0,0,0,248,363.31445l13.18359,13.18311a16.025,16.025,0,0,0,2.62427,18.604,32.30357,32.30357,0,0,0-4.573,6.93164,31.88827,31.88827,0,0,0-4.76806-1.36743,72.07607,72.07607,0,0,0-22.666-17.70972l-13.92572-6.96289a23.945,23.945,0,0,0,1.30835-30.3977A31.97048,31.97048,0,0,0,232,320V304a24,24,0,0,0-48,0,8,8,0,0,1-16,0,24,24,0,0,0-48,0,8,8,0,0,1-16,0,24,24,0,0,0-48,0v16a31.97087,31.97087,0,0,0,12.81671,25.5957,23.94441,23.94441,0,0,0,1.30823,30.39746l-13.92621,6.96289A72.32664,72.32664,0,0,0,16,448a48.054,48.054,0,0,0,48,48H392a39.99843,39.99843,0,0,0,15.63721-76.81421Zm-98.95142-59.18555-18.34253,18.34253,11.31348,11.31446,18.343-18.343,12.84326,12.843a32.05483,32.05483,0,0,0-28.68592,28.68652L275.31348,384l2.33911-2.33887.00415-.0039,12-12L304,355.31445ZM272,339.31445,284.686,352l-2.97706,2.97729-9.70935,9.70875L259.31348,352ZM208,360a8.00917,8.00917,0,0,1-8,8H152a8,8,0,0,1,0-16h48A8.00917,8.00917,0,0,1,208,360Zm-64-64a8.00917,8.00917,0,0,1,8,8,24,24,0,0,0,48,0,8,8,0,0,1,16,0v16a16.01833,16.01833,0,0,1-16,16H152a16.01833,16.01833,0,0,1-16-16V304A8.00917,8.00917,0,0,1,144,296Zm-72,8a8,8,0,0,1,16,0,23.98664,23.98664,0,0,0,32.64117,22.38428A31.77462,31.77462,0,0,0,124.30511,336H88a16.01833,16.01833,0,0,1-16-16Zm57.37616,48a23.94119,23.94119,0,0,0,0,16H88a8,8,0,0,1,0-16ZM32,448a56.414,56.414,0,0,1,31.35449-50.7334l5.91822-2.959A84.661,84.661,0,0,0,56,440H72a68.7985,68.7985,0,0,1,20.28467-48.9707L99.3136,384h18.88483A72.30068,72.30068,0,0,0,80,448a47.80151,47.80151,0,0,0,12.26123,32H64A32.03635,32.03635,0,0,1,32,448Zm64,0a56.414,56.414,0,0,1,31.35449-50.7334l18.23761-9.11841A84.5924,84.5924,0,0,0,128,440h16a68.7985,68.7985,0,0,1,20.28467-48.9707L171.3136,384h1.37268l7.02954,7.03027a68.99819,68.99819,0,0,1,14.06348,20.28321l14.56347-6.627A84.90272,84.90272,0,0,0,195.00256,384h3.10877l26.53418,13.2666a56.74929,56.74929,0,0,1,9.40991,5.93652,32.02482,32.02482,0,0,0-17.7898,32.9336A31.96221,31.96221,0,0,0,204.30511,480H128A32.03635,32.03635,0,0,1,96,448Zm296,32H232a16.0026,16.0026,0,0,1-4.2041-31.44238,8.00013,8.00013,0,0,0,5.32422-10.6836A15.76968,15.76968,0,0,1,232,432a16.00274,16.00274,0,0,1,26.72363-11.87793,8.00014,8.00014,0,0,0,13.334-5.34473,15.98659,15.98659,0,0,1,3.11328-8.292l16.68042,16.68042A31.94727,31.94727,0,0,0,280,448h16a16.01833,16.01833,0,0,1,16-16c.29248,0,.57861.00391.86523.02246a7.99913,7.99913,0,0,0,8.05909-10.67187A15.99243,15.99243,0,0,1,336,400a16.063,16.063,0,0,1,14.98486,10.39648,7.99963,7.99963,0,0,0,13.33594,2.66993A15.8379,15.8379,0,0,1,376,408a15.99922,15.99922,0,0,1,13.8783,8.07129,40.16967,40.16967,0,0,0-32.51014,19.918l13.84375,8.02148A23.999,23.999,0,1,1,392,480Z"></path><path d="M144,115.31445l13.18359,13.18311A16.03061,16.03061,0,0,0,160,147.31445l22.22,22.21973A31.96587,31.96587,0,0,0,164.30511,216H160a8.00008,8.00008,0,0,0-8,8v32a8.00008,8.00008,0,0,0,8,8h16v8h16v-8H336v80h16V264h96V384h16V264h16a8.00008,8.00008,0,0,0,8-8V224a7.99621,7.99621,0,0,0-4.72119-7.292,31.95789,31.95789,0,0,0-11.5166-44.54151,32.03575,32.03575,0,0,0-45.64429-25.02124A40.01053,40.01053,0,0,0,392,128V72a8.00008,8.00008,0,0,0-8-8H352a8.00008,8.00008,0,0,0-8,8V96H328V72a8.00008,8.00008,0,0,0-8-8H288a8.00008,8.00008,0,0,0-8,8v56.80884a39.81666,39.81666,0,0,0-30.02753,5.84936L211.31445,96.001a16.01916,16.01916,0,0,0-18.823-2.82325L179.31445,80.001A15.99888,15.99888,0,0,0,156.68652,80L143.999,92.68652A16.02163,16.02163,0,0,0,144,115.31445ZM168,248V232H336v16Zm304,0H352V232H472ZM296,80h16v24a8.00008,8.00008,0,0,0,8,8h32a8.00008,8.00008,0,0,0,8-8V80h16v51.356a40.07467,40.07467,0,0,0-12.00488,8.1101A39.97068,39.97068,0,0,0,304,143.98584a40.00142,40.00142,0,0,0-8-7.99023Zm-4.20569,74.42456a31.9946,31.9946,0,0,0-11.64392,50.9104L292.07227,194.665a16.00244,16.00244,0,1,1,27.019-15.999l15.08594-5.332a32.03539,32.03539,0,0,0-17.97486-18.90527A24.00207,24.00207,0,0,1,360,168h16a39.76788,39.76788,0,0,0-2.86035-14.82544A23.9912,23.9912,0,0,1,416,168h16a40.12208,40.12208,0,0,0-.40063-5.60352A15.99508,15.99508,0,1,1,440,192v16a32.03139,32.03139,0,0,0,28.65222-17.77368A15.9849,15.9849,0,0,1,456,216H192a16,16,0,1,1,15.09131-21.334l15.08594-5.332a31.98944,31.98944,0,0,0-13.78687-16.80566A15.9949,15.9949,0,0,1,240,176h16a31.81246,31.81246,0,0,0-5.71936-18.22583,24.00825,24.00825,0,0,1,41.51367-3.34961Zm-87.10846-42.42432-18.34259,18.34253,11.31348,11.31446,18.3432-18.34327L238.6405,145.9541q-.39678.59728-.77313,1.20947a31.98146,31.98146,0,0,0-41.92444,13.46558L171.31348,136l2.33905-2.33887.00421-.0039,12-12L200,107.31445ZM168,91.31445,180.686,104l-2.97712,2.97729-9.70929,9.70875L155.31348,104Z"></path><path d="M77.25488,168a37.00884,37.00884,0,0,1-10.91162,26.34277,53.25535,53.25535,0,0,0,0,75.31446l11.31348-11.31446a37.25409,37.25409,0,0,1,0-52.68554,53.25535,53.25535,0,0,0,0-75.31446L66.34326,141.65723A37.00884,37.00884,0,0,1,77.25488,168Z"></path><rect x="47.99982" y="108.68629" width="16.00036" height="22.62742" transform="translate(-68.45079 74.74517) rotate(-45)"></rect><path d="M117.25488,160a37.00884,37.00884,0,0,1-10.91162,26.34277l11.31348,11.31446a53.25535,53.25535,0,0,0,0-75.31446,37.25409,37.25409,0,0,1,0-52.68554L106.34326,58.34277a53.25535,53.25535,0,0,0,0,75.31446A37.00884,37.00884,0,0,1,117.25488,160Z"></path><rect x="116.68629" y="39.99982" width="22.62742" height="16.00036" transform="translate(3.54677 104.56317) rotate(-44.99753)"></rect><path d="M202.05859,69.37207A36.04561,36.04561,0,0,0,227.71582,80,20.30736,20.30736,0,0,1,248,100.28418V112h16V100.28418A36.32538,36.32538,0,0,0,227.71582,64a20.14773,20.14773,0,0,1-14.34326-5.94141L197.65674,42.34277,186.34326,53.65723Z"></path><rect x="167.99982" y="20.68629" width="16.00036" height="22.62742" transform="translate(28.92179 133.82338) rotate(-45)"></rect><path d="M418.34277,82.34375a30.66282,30.66282,0,0,0,0,43.3125l11.31446-11.3125a14.64563,14.64563,0,0,1,0-20.6875,30.66282,30.66282,0,0,0,0-43.3125l-11.31446,11.3125A14.64563,14.64563,0,0,1,418.34277,82.34375Z"></path><rect x="399.99982" y="28.68629" width="16.00036" height="22.62742" transform="translate(91.21616 300.2153) rotate(-45)"></rect><path d="M456,124a12.01343,12.01343,0,0,1,12-12,28.03146,28.03146,0,0,0,28-28V72H480V84a12.01343,12.01343,0,0,1-12,12,28.03146,28.03146,0,0,0-28,28v12h16Z"></path><rect x="480" y="40" width="16" height="16"></rect></g></svg>