<svg xmlns="http://www.w3.org/2000/svg" height="512" viewBox="0 0 64 64" width="512"><g id="Safe"><path d="m56.62 50.51a3.415 3.415 0 0 0 -3.04-.55l-13.72 4.04h-7.6l-5.4-3h10.14a1 1 0 0 0 1-1v-3a1.033 1.033 0 0 0 -.29-.71l-2-2a1.014 1.014 0 0 0 -.51-.27l-15-3a1.355 1.355 0 0 0 -.2-.02h-6a.937.937 0 0 0 -.37.07l-3.63 1.45v-1.52a1 1 0 0 0 -.84-.99l-6-1a1.039 1.039 0 0 0 -.81.23 1.011 1.011 0 0 0 -.35.76v20a1 1 0 0 0 1 1 .86.86 0 0 0 .16-.01l6-1a1 1 0 0 0 .84-.99v-1h2.84l11.84 3.95a1.185 1.185 0 0 0 .32.05h15a.919.919 0 0 0 .33-.06l15.37-5.42a3.449 3.449 0 0 0 2.3-3.25 3.411 3.411 0 0 0 -1.38-2.76zm-48.62 7.64-4 .67v-17.64l4 .67zm47.04-3.52-15.21 5.37h-14.67l-11.84-3.95a1.185 1.185 0 0 0 -.32-.05h-3v-11.32l4.19-1.68h5.71l14.61 2.92 1.49 1.49v1.59h-13a1 1 0 0 0 -.49 1.87l9 5a.947.947 0 0 0 .49.13h8a.863.863 0 0 0 .28-.04l13.87-4.08a1.413 1.413 0 0 1 1.27.23 1.446 1.446 0 0 1 -.38 2.52z"></path><path d="m32 40c8.822 0 16-9.421 16-21v-12a1 1 0 0 0 -.742-.966l-15-4a1 1 0 0 0 -.516 0l-15 4a1 1 0 0 0 -.742.966v12c0 11.579 7.178 21 16 21zm-14-32.231 14-3.734 14 3.734v11.231c0 10.477-6.28 19-14 19s-14-8.523-14-19z"></path><path d="m28 25v3a2 2 0 0 0 2 2h4a2 2 0 0 0 2-2v-3h3a2 2 0 0 0 2-2v-4a2 2 0 0 0 -2-2h-3v-3a2 2 0 0 0 -2-2h-4a2 2 0 0 0 -2 2v3h-3a2 2 0 0 0 -2 2v4a2 2 0 0 0 2 2zm-3-6h3a2 2 0 0 0 2-2v-3h4v3a2 2 0 0 0 2 2h3v4h-3a2 2 0 0 0 -2 2v3h-4v-3a2 2 0 0 0 -2-2h-3z"></path><path d="m52 8h2v-2h2v-2h-2v-2h-2v2h-2v2h2z"></path><path d="m62 10h-2v-2h-2v2h-2v2h2v2h2v-2h2z"></path><path d="m48 33v2h-2v2h2v2h2v-2h2v-2h-2v-2z"></path><path d="m56 27h-2v2h-2v2h2v2h2v-2h2v-2h-2z"></path><path d="m10 8h2v-2h2v-2h-2v-2h-2v2h-2v2h2z"></path><path d="m4 14h2v-2h2v-2h-2v-2h-2v2h-2v2h2z"></path><path d="m14 33v2h-2v2h2v2h2v-2h2v-2h-2v-2z"></path><path d="m10 33v-2h2v-2h-2v-2h-2v2h-2v2h2v2z"></path></g></svg>