<svg xmlns="http://www.w3.org/2000/svg" id="Capa_1" height="512" viewBox="0 0 492 492" width="512"><path d="m364.212 353.056-.522.281c-7.49-8.152-19.68-11.132-29.069-6.374-.045.022-.09.046-.134.069l-3.054 1.646c-10.343-8.142-24.596-9.184-36.013-2.631l-21.29 11.577h-28.432c-5.994-.008-11.909-1.363-17.308-3.966l-3.969-1.92c-23.611-11.488-51.673-8.747-72.615 7.092-.133.099-.26.203-.381.313l-9.585 8.531c-3.015 2.677-6.516 4.751-10.312 6.111l-4.942-16.212c-.77-2.525-3.099-4.25-5.739-4.25h-46.342c-3.314 0-6 2.686-6 6 0 .243.015.486.044.727l15.449 126.677c.367 3.01 2.923 5.273 5.955 5.273h69.518c3.314 0 6-2.686 6-6 0-.593-.088-1.183-.261-1.75l-8.762-28.738 27.314-17.267c3.424-1.88 7.433-2.392 11.219-1.433.124.031.249.058.375.081l57.863 10.655c16.08 2.876 32.658.536 47.313-6.68.255-.126.5-.269.735-.43l100.072-68.711c2.617-1.797 3.381-5.321 1.744-8.041-8.028-13.371-25.157-18.055-38.871-10.63zm-24.109 4.581c3.674-1.823 8.578-.944 12.38 1.746l-35.777 19.3-.546.288c-.957-2.289-2.157-4.468-3.579-6.5zm-38.741-1.164c5.435-3.141 12.018-3.584 17.825-1.2l-15.52 8.363c-2.484-1.696-5.179-3.06-8.017-4.057l5.571-3.029zm-206.096 123.527-13.985-114.677h35.126l34.962 114.677zm199.568-49.7c-12.249 5.933-26.061 7.839-39.459 5.445l-57.668-10.619c-6.749-1.654-13.874-.681-19.933 2.72-.093.052-.186.107-.277.165l-24.677 15.6-17.784-58.334c5.452-1.873 10.478-4.809 14.787-8.639l9.4-8.364c17.339-13.002 40.493-15.215 59.981-5.732l3.97 1.92c7.029 3.388 14.729 5.153 22.532 5.163h38.49c10.054.013 18.897 6.65 21.718 16.3l-25.662-1.162c-10.244-.46-20.508.015-30.666 1.417-3.287.418-5.613 3.422-5.195 6.709s3.422 5.613 6.709 5.195c.044-.006.087-.012.13-.018 9.433-1.302 18.966-1.743 28.479-1.315l32.831 1.486c.091 0 .182.006.272.006 3.314 0 6-2.686 6-6 0-.364-.017-.724-.028-1.085l3.572-1.885 47.558-25.655c6.195-3.355 13.812-2.584 19.209 1.944z"></path><path d="m105.798 463.836c.001 8.433 6.837 15.269 15.27 15.268s15.269-6.837 15.268-15.27c-.001-8.432-6.837-15.268-15.269-15.268-8.43.009-15.261 6.84-15.269 15.27zm15.269-3.27c1.805 0 3.269 1.464 3.269 3.269s-1.464 3.269-3.269 3.269-3.268-1.463-3.269-3.268c.002-1.806 1.466-3.269 3.272-3.27z"></path><path d="m407.998 5.274c-.367-3.01-2.922-5.274-5.955-5.274h-69.518c-3.314 0-6 2.686-6 6 0 .593.088 1.183.261 1.75l8.762 28.738-27.314 17.266c-3.423 1.881-7.433 2.393-11.219 1.434-.124-.031-.249-.058-.375-.081l-57.863-10.655c-16.08-2.876-32.658-.536-47.313 6.68-.255.126-.501.27-.735.431l-100.072 68.71c-2.617 1.797-3.381 5.321-1.744 8.041 8.025 13.374 25.157 18.06 38.871 10.631l.528-.285c4.956 5.42 11.931 8.551 19.275 8.654 3.396.022 6.75-.758 9.788-2.276.045-.023.09-.046.134-.07l3.037-1.637c10.347 8.151 24.611 9.189 36.029 2.622l21.29-11.577h28.433c5.994.009 11.909 1.364 17.308 3.966l3.969 1.919c23.611 11.487 51.672 8.747 72.615-7.091.133-.099.26-.203.381-.313l9.585-8.531c3.015-2.677 6.516-4.752 10.312-6.111l4.942 16.211c.77 2.525 3.099 4.251 5.739 4.251h46.346c3.314 0 6-2.686 6-6 0-.243-.015-.485-.044-.726zm-268.484 127.343 35.775-19.3.547-.288c.957 2.289 2.157 4.468 3.58 6.5l-27.518 14.834c-3.676 1.825-8.581.945-12.384-1.746zm51.119 2.91c-5.434 3.143-12.018 3.586-17.824 1.2l15.521-8.363c2.484 1.696 5.179 3.059 8.016 4.057l-5.571 3.029c-.048.023-.095.05-.142.077zm151.54-20.164-9.4 8.364c-17.339 13.001-40.493 15.213-59.981 5.731l-3.97-1.919c-7.029-3.388-14.729-5.153-22.532-5.163h-38.49c-10.054-.013-18.897-6.65-21.718-16.3l25.661 1.16c10.244.461 20.509-.013 30.667-1.416 3.287-.419 5.613-3.423 5.194-6.71s-3.423-5.613-6.71-5.194c-.043.005-.086.011-.129.018-9.433 1.303-18.966 1.743-28.479 1.315l-32.831-1.485c-3.31-.15-6.116 2.412-6.266 5.722-.004.09-.006.181-.006.271 0 .364.017.724.028 1.086l-3.572 1.883-47.557 25.657c-6.196 3.355-13.812 2.584-19.21-1.945l94.29-64.738c12.249-5.933 26.061-7.839 39.459-5.446l57.667 10.622c6.749 1.653 13.874.681 19.934-2.72.093-.052.186-.108.277-.165l24.678-15.6 17.784 58.333c-5.452 1.873-10.479 4.809-14.788 8.639zm33.416 11.314-34.962-114.677h56.1l13.985 114.677z"></path><path d="m370.926 12.9c-8.433.002-15.268 6.839-15.266 15.272s6.839 15.268 15.272 15.266 15.268-6.839 15.266-15.272v-.001c-.012-8.429-6.843-15.257-15.272-15.265zm0 18.538c-1.805 0-3.269-1.464-3.269-3.269s1.464-3.269 3.269-3.269 3.269 1.464 3.269 3.269c-.004 1.803-1.466 3.263-3.269 3.265z"></path><path d="m245.998 339.845c26.269-.111 50.48-14.234 63.508-37.045 12.064-21.054 12.184-45.709.321-65.954-.094-.159-.194-.314-.3-.465l-58.652-81.721c-1.126-1.568-2.939-2.499-4.87-2.5-1.931.001-3.744.932-4.87 2.5l-58.652 81.5c-.113.156-.217.317-.314.483-11.879 20.38-11.732 45.144.394 66.247 13.035 22.756 37.21 36.84 63.435 36.955zm-53.609-96.927 53.6-74.481 53.619 74.707c9.669 16.683 9.486 36.235-.515 53.687-16.529 29.319-53.696 39.688-83.015 23.159-9.665-5.449-17.659-13.432-23.12-23.09-10.06-17.5-10.26-37.165-.569-53.982z"></path><path d="m245.55 309.338c22.909.026 41.516-18.496 41.594-41.405 0-3.314-2.686-6-6-6s-6 2.686-6 6c-.071 16.284-13.31 29.438-29.594 29.405-3.314 0-6 2.686-6 6s2.686 6 6 6z"></path></svg>