<svg xmlns="http://www.w3.org/2000/svg" height="512" viewBox="0 0 512 512" width="512"><g id="Outline"><path d="m416.229 373.812c9.808-11.693 11.167-20.9 12.366-29.031 1.059-7.185 1.9-12.861 8.8-21.09s12.344-10.034 19.236-12.325c7.8-2.592 16.635-5.529 26.446-17.225s11.163-20.9 12.365-29.022l.211-1.418a29.674 29.674 0 0 0 .347-4.531 30.136 30.136 0 0 0 -31.2-30.1 29.336 29.336 0 0 0 -25.586 16.281 40.054 40.054 0 0 1 -5.164 7.656c-6.9 8.22-12.341 10.03-19.233 12.322-7.8 2.593-16.636 5.533-26.445 17.227s-11.172 20.906-12.372 29.036c-1.059 7.182-1.9 12.856-8.795 21.076s-12.351 10.038-19.244 12.332a68.324 68.324 0 0 0 -11.634 4.747c1.255-1.1 2.576-2.148 3.97-3.253 6.438-5.1 13.735-10.885 18.961-25.227s3.344-23.461 1.69-31.507c-1.462-7.116-2.617-12.738 1.06-22.833s8.167-13.652 13.859-18.162c6.439-5.1 13.736-10.886 18.96-25.228s3.345-23.461 1.692-31.508c-1.462-7.116-2.618-12.737 1.06-22.838 2.856-7.862 6.236-11.628 9.463-14.525a29.247 29.247 0 0 0 -9.416-49.3 29.327 29.327 0 0 0 -33.039 9.109 47.2 47.2 0 0 1 -8.191 7.608c-6.44 5.1-13.739 10.885-18.963 25.235s-3.347 23.464-1.695 31.511c1.461 7.113 2.616 12.732-1.055 22.821s-8.17 13.657-13.865 18.169c-6.439 5.1-13.737 10.888-18.956 25.23s-3.346 23.462-1.694 31.509c1.461 7.114 2.615 12.733-1.056 22.819-3.467 9.527-7.673 13.231-12.927 17.417-3.5-5.725-6.185-10.647-6.185-20.783 0-10.736 3.007-15.621 6.813-21.808 4.306-7 9.187-14.928 9.187-30.191s-4.881-23.2-9.187-30.194c-3.806-6.186-6.813-11.072-6.813-21.807s3.007-15.623 6.813-21.81c4.306-7.001 9.187-14.932 9.187-30.201s-4.881-23.2-9.187-30.194a47.177 47.177 0 0 1 -5.094-9.954 29.339 29.339 0 0 0 -27.938-19.852 29.241 29.241 0 0 0 -25.709 43.1c2.04 3.826 3.928 8.522 3.928 16.9 0 10.736-3.007 15.623-6.813 21.809-4.306 7-9.187 14.929-9.187 30.195s4.881 23.195 9.187 30.192c3.806 6.187 6.813 11.072 6.813 21.809s-3.007 15.621-6.813 21.8c-4.306 7-9.187 14.929-9.187 30.194a56.682 56.682 0 0 0 1.211 12.093 38.935 38.935 0 0 1 -4.323-8.725c-3.671-10.088-2.517-15.707-1.056-22.821 1.652-8.047 3.524-17.167-1.694-31.509s-12.517-20.126-18.956-25.23c-5.695-4.512-10.193-8.077-13.865-18.17s-2.516-15.707-1.055-22.82c1.652-8.047 3.525-17.168-1.695-31.513s-12.523-20.13-18.963-25.233a47.15 47.15 0 0 1 -8.189-7.607 29.323 29.323 0 0 0 -33.037-9.111 29.247 29.247 0 0 0 -9.423 49.3c3.23 2.9 6.61 6.665 9.468 14.534 3.676 10.094 2.52 15.715 1.058 22.831-1.653 8.047-3.527 17.167 1.693 31.51s12.52 20.123 18.959 25.226c5.692 4.51 10.188 8.073 13.86 18.164s2.521 15.715 1.059 22.831c-1.654 8.046-3.529 17.167 1.691 31.51s12.522 20.123 18.96 25.224c1.394 1.1 2.715 2.153 3.97 3.253a68.324 68.324 0 0 0 -11.634-4.736c-6.893-2.293-12.339-4.1-19.241-12.332s-7.735-13.893-8.794-21.075c-1.2-8.13-2.559-17.344-12.375-29.033s-18.65-14.637-26.448-17.23c-6.892-2.292-12.334-4.1-19.226-12.313a40.114 40.114 0 0 1 -5.173-7.669 29.335 29.335 0 0 0 -25.582-16.278 30.135 30.135 0 0 0 -31.2 30.1 29.6 29.6 0 0 0 .341 4.511l.214 1.438c1.2 8.125 2.564 17.335 12.366 29.023s18.648 14.632 26.445 17.224c6.893 2.291 12.336 4.1 19.237 12.327s7.743 13.9 8.8 21.088c1.2 8.127 2.558 17.338 12.367 29.031a55.886 55.886 0 0 0 9.27 8.914c-7.217.2-12.939.339-22.194-5-7.244-4.181-10.372-8.166-12.668-11.842a29.24 29.24 0 0 0 -50.19.712 29.817 29.817 0 0 0 -3.988 14.874 29.068 29.068 0 0 0 7.223 19.245 47.123 47.123 0 0 1 6.077 9.385c3.906 7.225 8.335 15.416 21.552 23.044s22.526 7.368 30.738 7.14c7.253-.207 12.994-.367 22.292 5s12.019 10.413 15.472 16.8c3.04 5.626 6.416 11.835 13.986 17.91h-77.34v16h400v-15.994h-77.337c7.57-6.075 10.946-12.284 13.986-17.91 3.453-6.389 6.18-11.436 15.471-16.8s15.034-5.207 22.293-5c8.212.229 17.521.493 30.736-7.139s17.651-15.823 21.551-23.051a47.094 47.094 0 0 1 6.081-9.395 29.065 29.065 0 0 0 7.219-19.235 29.818 29.818 0 0 0 -3.992-14.881 29.24 29.24 0 0 0 -50.183-.717c-2.3 3.684-5.429 7.669-12.676 11.851-9.253 5.343-14.98 5.206-22.191 5a55.97 55.97 0 0 0 9.271-8.911zm-63.218-13.63c7.8-2.594 16.636-5.534 26.447-17.23s11.168-20.9 12.367-29.025c1.06-7.186 1.9-12.861 8.8-21.085s12.347-10.038 19.24-12.331c7.795-2.593 16.63-5.532 26.445-17.226a55.719 55.719 0 0 0 7.189-10.731 13.543 13.543 0 0 1 11.828-7.492 14.116 14.116 0 0 1 14.51 16.218l-.224 1.5c-1.062 7.185-1.9 12.861-8.8 21.08s-12.342 10.035-19.234 12.326c-7.8 2.591-16.635 5.529-26.445 17.222s-11.177 20.911-12.376 29.04c-1.06 7.184-1.9 12.859-8.794 21.081s-12.342 10.03-19.234 12.322c-7.8 2.593-16.635 5.533-26.446 17.228s-11.171 20.9-12.371 29.029c-1.062 7.185-1.9 12.861-8.8 21.082s-12.346 10.039-19.239 12.331c-7.513 2.5-16 5.343-25.383 16.01a50.5 50.5 0 0 0 3.509-19.531 53.776 53.776 0 0 0 -1.962-15.06c5.731-2.5 11.928-6.4 18.571-14.321 9.81-11.694 11.17-20.906 12.37-29.033 1.062-7.186 1.9-12.861 8.8-21.086s12.341-10.026 19.232-12.318zm-38.864-55.336c5.219-14.343 3.347-23.463 1.695-31.51-1.461-7.114-2.615-12.732 1.055-22.82s8.166-13.65 13.859-18.161c6.441-5.1 13.742-10.89 18.962-25.24s3.345-23.462 1.693-31.509c-1.461-7.114-2.614-12.732 1.057-22.819s8.171-13.656 13.864-18.167a62.323 62.323 0 0 0 10.768-10.172 13.348 13.348 0 0 1 15.062-4.05 13.247 13.247 0 0 1 4.2 22.359c-4.283 3.846-9.723 9.7-13.813 20.966-5.226 14.351-3.351 23.475-1.7 31.526 1.462 7.112 2.616 12.73-1.053 22.813s-8.171 13.651-13.863 18.162c-6.44 5.1-13.738 10.886-18.956 25.229s-3.352 23.476-1.7 31.526c1.461 7.113 2.616 12.731-1.052 22.813s-8.172 13.65-13.865 18.161c-6.439 5.1-13.737 10.887-18.956 25.229-4.943 13.569-3.533 22.458-1.969 30.19-.1.632-.191 1.26-.283 1.879-1.061 7.186-1.9 12.861-8.8 21.089-4.753 5.667-8.815 8.285-13.139 10.12-.133-.216-.266-.435-.4-.649-3.806-6.187-6.813-11.073-6.813-21.811s3.007-15.621 6.813-21.806c4.306-6.994 9.187-14.925 9.187-30.194a52.527 52.527 0 0 0 -2.44-16.632c.539-.434 1.084-.869 1.641-1.31 6.435-5.098 13.729-10.879 18.946-25.212zm-75.334-30.646c4.306-7 9.187-14.928 9.187-30.191s-4.881-23.2-9.187-30.194c-3.806-6.186-6.813-11.072-6.813-21.807s3.007-15.623 6.813-21.81c4.306-6.998 9.187-14.929 9.187-30.198 0-11.993-3.1-19.355-5.81-24.429a13.292 13.292 0 0 1 .307-13.2 12.88 12.88 0 0 1 11.284-6.371 13.356 13.356 0 0 1 12.772 8.954 62.248 62.248 0 0 0 6.634 13.24c3.806 6.186 6.813 11.073 6.813 21.806s-3.007 15.623-6.813 21.809c-4.306 7-9.187 14.929-9.187 30.195s4.881 23.195 9.187 30.192c3.806 6.187 6.813 11.072 6.813 21.809s-3.007 15.621-6.813 21.8c-4.306 7-9.187 14.929-9.187 30.194s4.881 23.195 9.187 30.192c3.806 6.193 6.813 11.079 6.813 21.809s-3.007 15.622-6.813 21.808c-4.306 7-9.187 14.927-9.187 30.191s4.881 23.195 9.187 30.192c3.806 6.191 6.813 11.077 6.813 21.809s-3.007 15.619-6.812 21.805c-1.161 1.884-2.41 3.922-3.6 6.192h-29.44c3.918-6.512 7.849-14.3 7.849-28 0-15.265-4.881-23.195-9.187-30.192-3.803-6.181-6.81-11.067-6.81-21.805s3.007-15.621 6.813-21.806c4.306-6.994 9.187-14.925 9.187-30.194s-4.881-23.194-9.187-30.191c-3.806-6.185-6.813-11.071-6.813-21.806s3.007-15.617 6.813-21.803zm-71.036 41.6c-3.669-10.085-2.514-15.7-1.053-22.816 1.654-8.05 3.529-17.175-1.7-31.524s-12.517-20.129-18.957-25.231c-5.692-4.511-10.188-8.075-13.862-18.161s-2.516-15.7-1.054-22.814c1.655-8.051 3.53-17.175-1.694-31.52-4.092-11.268-9.532-17.126-13.818-20.974a13.247 13.247 0 0 1 4.2-22.358 13.347 13.347 0 0 1 15.06 4.052 62.239 62.239 0 0 0 10.761 10.171c5.693 4.511 10.189 8.073 13.864 18.165s2.518 15.707 1.057 22.821c-1.652 8.047-3.526 17.167 1.693 31.508s12.521 20.137 18.962 25.241c5.693 4.511 10.189 8.075 13.859 18.161s2.516 15.706 1.055 22.82c-1.652 8.047-3.524 17.167 1.7 31.51s12.518 20.127 18.959 25.23c5.693 4.511 10.19 8.073 13.863 18.165.451 1.24.827 2.468 1.17 3.712-.654 8.091-3.353 12.488-6.658 17.859-4.306 7-9.187 14.927-9.187 30.191a50.44 50.44 0 0 0 3.548 19.646 37.494 37.494 0 0 1 -7.9-7.31c-6.9-8.227-7.738-13.9-8.8-21.088-.092-.619-.186-1.247-.283-1.879 1.564-7.732 2.974-16.621-1.968-30.187-5.22-14.345-12.518-20.128-18.957-25.232-5.689-4.516-10.186-8.079-13.86-18.158zm-68.543 26.646c-1.2-8.129-2.558-17.342-12.375-29.038s-18.648-14.633-26.446-17.224c-6.892-2.291-12.335-4.1-19.233-12.325s-7.735-13.9-8.8-21.081l-.227-1.518a13.841 13.841 0 0 1 -.153-2.09 14.137 14.137 0 0 1 14.669-14.108 13.541 13.541 0 0 1 11.831 7.488 55.827 55.827 0 0 0 7.2 10.743c9.809 11.686 18.644 14.625 26.439 17.218 6.893 2.293 12.339 4.1 19.243 12.334s7.741 13.9 8.8 21.082c1.2 8.127 2.557 17.338 12.366 29.024s18.65 14.637 26.448 17.231c6.891 2.292 12.334 4.1 19.232 12.32s7.738 13.9 8.8 21.087c1.2 8.127 2.56 17.339 12.37 29.033s18.635 14.625 26.429 17.218c1.687.561 3.311 1.113 4.9 1.733a37.885 37.885 0 0 1 1.273 10.427c0 10.734-3.007 15.619-6.812 21.805-.541.878-1.1 1.792-1.666 2.743-.913-1.269-1.894-2.538-2.964-3.814-9.809-11.687-18.645-14.626-26.44-17.218-6.893-2.292-12.338-4.1-19.24-12.331s-7.737-13.9-8.8-21.082c-1.2-8.127-2.56-17.339-12.37-29.028s-18.65-14.636-26.448-17.229c-6.891-2.292-12.334-4.1-19.232-12.321s-7.734-13.895-8.794-21.079zm71.966 133.847c-7.262.2-13 .362-22.292-5s-12.028-10.417-15.482-16.808c-3.906-7.227-8.332-15.42-21.547-23.051s-22.528-7.368-30.744-7.139c-7.254.2-12.991.366-22.287-5s-12.025-10.411-15.478-16.8a62.148 62.148 0 0 0 -8.147-12.36 13.079 13.079 0 0 1 -3.223-8.665 13.79 13.79 0 0 1 1.848-6.879 12.883 12.883 0 0 1 11.168-6.591h.229a13.3 13.3 0 0 1 11.359 6.35c3.048 4.879 7.876 11.246 18.245 17.229 13.217 7.633 22.526 7.372 30.738 7.139 7.26-.206 12.995-.365 22.292 5s12.019 10.414 15.472 16.8a60.93 60.93 0 0 0 8.557 12.816c1.506 5.913 4.3 12.492 10.713 20.135 9.812 11.7 18.65 14.635 26.447 17.229 5.949 1.979 10.82 3.608 16.477 9.3h-10.476c-9.734-4.098-17.225-3.898-23.869-3.705zm265.947-84.714c10.372-5.984 15.2-12.351 18.252-17.238a13.293 13.293 0 0 1 11.356-6.341h.229a12.881 12.881 0 0 1 11.166 6.587 13.79 13.79 0 0 1 1.85 6.883 13.072 13.072 0 0 1 -3.217 8.655 62.164 62.164 0 0 0 -8.154 12.368c-3.453 6.387-6.181 11.432-15.48 16.8s-15.029 5.2-22.285 5c-8.219-.23-17.523-.494-30.745 7.14s-17.64 15.823-21.546 23.05c-3.454 6.391-6.182 11.44-15.482 16.808s-15.029 5.2-22.292 5c-6.641-.188-14.134-.389-23.868 3.707h-10.476c5.657-5.691 10.528-7.321 16.476-9.3 7.8-2.594 16.636-5.533 26.447-17.228 6.414-7.643 9.207-14.222 10.714-20.136a60.93 60.93 0 0 0 8.557-12.816c3.453-6.389 6.179-11.436 15.471-16.8s15.039-5.2 22.293-5c8.213.231 17.523.493 30.735-7.139z"></path><path d="m56 200a24 24 0 1 0 -24-24 24.028 24.028 0 0 0 24 24zm0-32a8 8 0 1 1 -8 8 8.009 8.009 0 0 1 8-8z"></path><path d="m128 64a24 24 0 1 0 -24-24 24.028 24.028 0 0 0 24 24zm0-32a8 8 0 1 1 -8 8 8.009 8.009 0 0 1 8-8z"></path><path d="m328 104a24 24 0 1 0 -24-24 24.028 24.028 0 0 0 24 24zm0-32a8 8 0 1 1 -8 8 8.009 8.009 0 0 1 8-8z"></path><path d="m448 208a24 24 0 1 0 -24-24 24.028 24.028 0 0 0 24 24zm0-32a8 8 0 1 1 -8 8 8.009 8.009 0 0 1 8-8z"></path><path d="m472 72a24 24 0 1 0 -24-24 24.028 24.028 0 0 0 24 24zm0-32a8 8 0 1 1 -8 8 8.009 8.009 0 0 1 8-8z"></path><path d="m40 80h16v16h-16z"></path><path d="m184 80h16v16h-16z"></path><path d="m256 32h16v16h-16z"></path><path d="m384 32h16v16h-16z"></path><path d="m448 104h16v16h-16z"></path></g></svg>