<svg xmlns="http://www.w3.org/2000/svg" height="512" viewBox="0 0 60 60" width="512"><g id="Page-1" fill="none" fill-rule="evenodd"><g id="023---Cruise-Ship-Front" fill="rgb(0,0,0)" fill-rule="nonzero"><path id="Shape" d="m6.11 57.375-4.843-1.339c-.34440403-.0953899-.71353641.0002035-.96834852.2507712-.25481211.2505677-.35659194.6180424-.26700001.964.08959194.3459576.35694449.6178389.70134853.7132288l4.844 1.336c3.33544883.936961 6.8645512.936961 10.2 0 2.9860113-.8378157 6.1449887-.8378157 9.131 0 3.3355128.9364968 6.8644872.9364968 10.2 0 2.9856477-.8379892 6.1443523-.8379892 9.13 0 3.3354346.9370643 6.8645654.9370643 10.2 0l4.83-1.337c.344404-.0953899.6117566-.3672712.7013485-.7132288s-.0121879-.7134323-.267-.964-.6239445-.3461611-.9683485-.2507712l-4.834 1.338c-2.9865254.8390149-6.1464746.8390149-9.133 0-1.0056971-.2757275-2.0320407-.4696927-3.069-.58l11.8-17.985c.5250909-.7946146.6394639-1.7921029.3078586-2.684947-.3316052-.8928442-1.0693743-1.5738442-1.9858586-1.833053l-2.82-.821v-13.469c0-1.6568542-1.3431458-3-3-3h-1v-9c0-1.65685425-1.3431458-3-3-3h-7v-3c0-1.1045695-.8954305-2-2-2h-6c-1.1045695 0-2 .8954305-2 2v3h-7c-1.6568542 0-3 1.34314575-3 3v9h-1c-1.6568542 0-3 1.3431458-3 3v13.469l-2.824.819c-.91759611.2586931-1.65658388.9398616-1.98901401 1.833391-.33243013.8935295-.21836376 1.8920696.30701401 2.687609l11.806 17.985c-1.0361421.1118993-2.0617208.3061808-3.067.581-2.9833796.8371946-6.13962043.8371946-9.123 0zm28.46 0c-1.1658739.3226586-2.3624607.5217545-3.57.594v-3.969c0-.5522847-.4477153-1-1-1s-1 .4477153-1 1v3.968c-1.2050576-.0748061-2.3989333-.2759081-3.562-.6-1.5706863-.4364011-3.1909782-.6689757-4.821-.692l-2.95-4.495 11.333-3.791v1.61c0 .5522847.4477153 1 1 1s1-.4477153 1-1v-1.61l11.333 3.8-2.95 4.495c-1.6271305.0246108-3.2444917.2564785-4.813.69zm-3.57-13.975 13.951 4.8-1.483 2.259-12.468-4.179zm-2 2.88-12.468 4.177-1.483-2.257 13.951-4.8zm22.938-9.462c.1116228.2965016.0744413.6285325-.1.893l-5.751 8.761-15.087-5.186v-10.955l20.276 5.881c.3052203.0838952.5515244.3093639.662.606zm-24.938-34.818h6v3h-6zm-10 6c0-.55228475.4477153-1 1-1h24c.5522847 0 1 .44771525 1 1v9h-26zm-4 12c0-.5522847.4477153-1 1-1h32c.5522847 0 1 .4477153 1 1v12.889l-16.722-4.849c-.1815442-.053-.3744558-.053-.556 0l-16.722 4.849zm-4.937 16.818c.11088599-.2982606.35889769-.5246737.666-.608l20.271-5.879v10.955l-15.083 5.186-5.75-8.76c-.17674584-.2638145-.21546585-.5966576-.104-.894z"></path><path id="Shape" d="m34 27c1.6568542 0 3-1.3431458 3-3s-1.3431458-3-3-3-3 1.3431458-3 3 1.3431458 3 3 3zm0-4c.5522847 0 1 .4477153 1 1s-.4477153 1-1 1-1-.4477153-1-1 .4477153-1 1-1z"></path><path id="Shape" d="m26 21c-1.6568542 0-3 1.3431458-3 3s1.3431458 3 3 3 3-1.3431458 3-3-1.3431458-3-3-3zm0 4c-.5522847 0-1-.4477153-1-1s.4477153-1 1-1 1 .4477153 1 1-.4477153 1-1 1z"></path><path id="Shape" d="m18 21c-1.6568542 0-3 1.3431458-3 3s1.3431458 3 3 3 3-1.3431458 3-3-1.3431458-3-3-3zm0 4c-.5522847 0-1-.4477153-1-1s.4477153-1 1-1 1 .4477153 1 1-.4477153 1-1 1z"></path><path id="Shape" d="m38 9c-1.6568542 0-3 1.3431458-3 3s1.3431458 3 3 3 3-1.3431458 3-3-1.3431458-3-3-3zm0 4c-.5522847 0-1-.4477153-1-1s.4477153-1 1-1 1 .4477153 1 1-.4477153 1-1 1z"></path><path id="Shape" d="m30 9c-1.6568542 0-3 1.3431458-3 3s1.3431458 3 3 3 3-1.3431458 3-3-1.3431458-3-3-3zm0 4c-.5522847 0-1-.4477153-1-1s.4477153-1 1-1 1 .4477153 1 1-.4477153 1-1 1z"></path><path id="Shape" d="m22 9c-1.2133867 0-2.3072956.73092653-2.7716386 1.8519497-.464343 1.1210232-.2076757 2.4113767.6503183 3.2693706.8579939.857994 2.1483474 1.1146613 3.2693706.6503183s1.8519497-1.5582519 1.8519497-2.7716386c0-1.6568542-1.3431458-3-3-3zm0 4c-.5522847 0-1-.4477153-1-1s.4477153-1 1-1 1 .4477153 1 1-.4477153 1-1 1z"></path><path id="Shape" d="m42 27c1.6568542 0 3-1.3431458 3-3s-1.3431458-3-3-3-3 1.3431458-3 3 1.3431458 3 3 3zm0-4c.5522847 0 1 .4477153 1 1s-.4477153 1-1 1-1-.4477153-1-1 .4477153-1 1-1z"></path></g></g></svg>