<svg xmlns="http://www.w3.org/2000/svg" id="Out_line" data-name="Out line" viewBox="0 0 512 512" width="512" height="512"><path d="M488,424H432V263.29A34.78715,34.78715,0,0,0,457.46,216.72L432,150.51V24a7.9979,7.9979,0,0,0-8-8H88a7.9979,7.9979,0,0,0-8,8V150.51L54.54,216.72A34.78715,34.78715,0,0,0,80,263.29V424H24a7.9979,7.9979,0,0,0-8,8v56a7.9979,7.9979,0,0,0,8,8H488a7.9979,7.9979,0,0,0,8-8V432A7.9979,7.9979,0,0,0,488,424Zm-88,0V253.37012a34.71789,34.71789,0,0,0,16,9.42968V424Zm-64,8v48H304V424h16a8.00008,8.00008,0,0,0,8-8V392a8.00008,8.00008,0,0,0-8-8H272a8.00008,8.00008,0,0,0-8,8v24a8.00008,8.00008,0,0,0,8,8h16v56H256V432a7.9979,7.9979,0,0,0-8-8H232V400a7.9979,7.9979,0,0,0-8-8H208V263.27a34.76613,34.76613,0,0,0,19.77-11.91992c.49.60986,1.01,1.2,1.56006,1.77978A34.45484,34.45484,0,0,0,254.59009,264h2.81982a34.45484,34.45484,0,0,0,25.26-10.87012c.55-.57983,1.07007-1.16992,1.56006-1.77978a35.34823,35.34823,0,0,0,3.77,3.89306V280a40.04018,40.04018,0,0,0-40,40,7.9979,7.9979,0,0,0,8,8h80a7.9979,7.9979,0,0,0,8-8,40.04018,40.04018,0,0,0-40-40V263.27a34.32831,34.32831,0,0,0,7.07007.73h2.5A34.74109,34.74109,0,0,0,340.1,251.72c.21008-.24.41-.49.6-.74A34.66032,34.66032,0,0,0,367.88,264h1.54993A34.87794,34.87794,0,0,0,384,260.83984V392H368a7.9979,7.9979,0,0,0-8,8v24H344A7.9979,7.9979,0,0,0,336,432Zm-56-24v-8h32v8ZM124.43994,224.27,142.1,160h32.47009l-11.91016,72.27A18.72575,18.72575,0,0,1,144.12,248h-1.54993a18.79649,18.79649,0,0,1-18.13013-23.73ZM128,260.83984A34.87794,34.87794,0,0,0,142.57007,264H144.12a34.66032,34.66032,0,0,0,27.18-13.02c.18994.25.38989.5.6.74A34.7192,34.7192,0,0,0,192,263.3999V304H128ZM198.42993,248A18.78368,18.78368,0,0,1,179.89,226.1499L190.79,160h32.76l-3.86011,70.24a18.79017,18.79017,0,0,1-18.76,17.76Zm72.62012-5.87012A18.62778,18.62778,0,0,1,257.40991,248h-2.81982a18.78805,18.78805,0,0,1-18.76-19.77l3.74-68.23h32.85986l3.74,68.17993v.05A18.56839,18.56839,0,0,1,271.05005,242.12988Zm21.26-11.88989L288.45,160h32.76l10.9,66.1499A18.78368,18.78368,0,0,1,313.57007,248h-2.5A18.79017,18.79017,0,0,1,292.31006,230.24ZM304,296a24.04436,24.04436,0,0,1,22.63,16H265.37A24.04436,24.04436,0,0,1,288,296Zm80.37-55.3999A18.646,18.646,0,0,1,369.42993,248H367.88a18.72575,18.72575,0,0,1-18.53991-15.73L337.42993,160H369.9l17.65,64.23c0,.01.01.03.01.04A18.66841,18.66841,0,0,1,384.37,240.6001ZM376,408h8v16h-8Zm66.53-185.54A18.79162,18.79162,0,0,1,424.99,248a18.848,18.848,0,0,1-18.12-13.81006L386.49,160h32.02ZM96,32H416V144H96ZM71.52,239.8501A18.53785,18.53785,0,0,1,69.47,222.46L93.49,160h32.02l-20.38,74.18994A18.848,18.848,0,0,1,87.01,248,18.53854,18.53854,0,0,1,71.52,239.8501ZM96,262.7998a34.71789,34.71789,0,0,0,16-9.42968V424H96ZM160,480H32V440H160Zm8-56H128V320h64V480H176V432A7.9979,7.9979,0,0,0,168,424Zm40-16h8v24a7.9979,7.9979,0,0,0,8,8h16v40H208Zm272,72H352V440H480Z"></path><path d="M312,96h-8.67944A48.10631,48.10631,0,0,0,264,56.67944V48a8,8,0,0,0-16,0v8.67944A48.10631,48.10631,0,0,0,208.67944,96H200a8.00008,8.00008,0,0,0-8,8,32.03635,32.03635,0,0,0,32,32h64a32.03635,32.03635,0,0,0,32-32A8.00008,8.00008,0,0,0,312,96ZM256,72a32.0583,32.0583,0,0,1,30.98779,24H225.01221A32.0583,32.0583,0,0,1,256,72Zm32,48H224a16.008,16.008,0,0,1-13.85254-8h91.70508A16.008,16.008,0,0,1,288,120Z"></path><path d="M196.4375,78.65625A7.99943,7.99943,0,0,0,200,72V48H184V67.43164a35.21285,35.21285,0,0,1-8,2.926V48H160V70.35767a35.22267,35.22267,0,0,1-8-2.926V48H136V72a7.99943,7.99943,0,0,0,3.5625,6.65625A51.28005,51.28005,0,0,0,160,86.65576V136h16V86.65576A51.28005,51.28005,0,0,0,196.4375,78.65625Z"></path><path d="M344,40a32.00193,32.00193,0,0,0-8,62.9873V136h16V102.9873A32.00193,32.00193,0,0,0,344,40Zm0,48a16,16,0,1,1,16-16A16.01833,16.01833,0,0,1,344,88Z"></path></svg>