<svg xmlns="http://www.w3.org/2000/svg" height="480pt" viewBox="0 -52 480 480" width="480pt"><path d="m472 120h-51.054688l10.210938-20.421875c1.238281-2.480469 1.105469-5.425781-.351562-7.78125-1.457032-2.359375-4.03125-3.796875-6.804688-3.796875h-3.054688l10.210938-20.421875c1.238281-2.480469 1.105469-5.425781-.351562-7.78125-1.457032-2.359375-4.03125-3.796875-6.804688-3.796875h-3.054688l10.210938-20.421875c1.238281-2.480469 1.105469-5.425781-.351562-7.78125-1.457032-2.359375-4.03125-3.796875-6.804688-3.796875h-128c-2.773438 0-5.347656 1.4375-6.804688 3.796875-1.457031 2.355469-1.589843 5.300781-.351562 7.78125l10.210938 20.421875h-3.054688c-2.773438 0-5.347656 1.4375-6.804688 3.796875-1.457031 2.355469-1.589843 5.300781-.351562 7.78125l10.210938 20.421875h-3.054688c-2.773438 0-5.347656 1.4375-6.804688 3.796875-1.457031 2.355469-1.589843 5.300781-.351562 7.78125l10.210938 20.421875h-131.054688v-72h32v16c0 4.417969 3.582031 8 8 8h32c4.417969 0 8-3.582031 8-8v-56c0-4.417969-3.582031-8-8-8h-112c-4.417969 0-8 3.582031-8 8v112h-16v-24c0-4.417969-3.582031-8-8-8h-32c-4.417969 0-8 3.582031-8 8v24h-48c-4.417969 0-8 3.582031-8 8v32c0 4.417969 3.582031 8 8 8h24v200c0 4.417969 3.582031 8 8 8h400c4.417969 0 8-3.582031 8-8v-200h24c4.417969 0 8-3.582031 8-8v-32c0-4.417969-3.582031-8-8-8zm-163.054688-80h102.109376l-8 16h-86.109376zm0 32h102.109376l-8 16h-86.109376zm0 32h102.109376l-8 16h-86.109376zm-172.945312-88h96v40h-16v-16c0-4.417969-3.582031-8-8-8h-48c-4.417969 0-8 3.582031-8 8v80h-16zm-64 88h16v16h-16zm360 256h-384v-192h384zm32-208h-448v-16h448zm0 0"></path><path d="m80 328h320c4.417969 0 8-3.582031 8-8v-128c0-4.417969-3.582031-8-8-8h-320c-4.417969 0-8 3.582031-8 8v128c0 4.417969 3.582031 8 8 8zm312-16h-144v-112h144zm-304-112h144v112h-144zm0 0"></path><path d="m208 216h-96c-4.417969 0-8 3.582031-8 8s3.582031 8 8 8h96c4.417969 0 8-3.582031 8-8s-3.582031-8-8-8zm0 0"></path><path d="m208 248h-96c-4.417969 0-8 3.582031-8 8s3.582031 8 8 8h96c4.417969 0 8-3.582031 8-8s-3.582031-8-8-8zm0 0"></path><path d="m208 280h-96c-4.417969 0-8 3.582031-8 8s3.582031 8 8 8h96c4.417969 0 8-3.582031 8-8s-3.582031-8-8-8zm0 0"></path><path d="m272 232h96c4.417969 0 8-3.582031 8-8s-3.582031-8-8-8h-96c-4.417969 0-8 3.582031-8 8s3.582031 8 8 8zm0 0"></path><path d="m272 264h96c4.417969 0 8-3.582031 8-8s-3.582031-8-8-8h-96c-4.417969 0-8 3.582031-8 8s3.582031 8 8 8zm0 0"></path><path d="m272 296h96c4.417969 0 8-3.582031 8-8s-3.582031-8-8-8h-96c-4.417969 0-8 3.582031-8 8s3.582031 8 8 8zm0 0"></path></svg>