<svg xmlns="http://www.w3.org/2000/svg" id="Capa_1" height="512" viewBox="0 0 512 512" width="512"><g><circle cx="456" cy="336" r="10"></circle><circle cx="416" cy="376" r="10"></circle><circle cx="336" cy="376" r="10"></circle><circle cx="296" cy="336" r="10"></circle><circle cx="256" cy="376" r="10"></circle><circle cx="216" cy="336" r="10"></circle><circle cx="176" cy="376" r="10"></circle><circle cx="96" cy="376" r="10"></circle><circle cx="56" cy="336" r="10"></circle><path d="m136 306c16.542 0 30-13.458 30-30 0-11.741-12.832-32.439-20-43.084v-40.346c0-33.809 13.166-65.593 37.071-89.499 3.905-3.905 3.905-10.237 0-14.143-3.905-3.905-10.237-3.905-14.143 0-27.682 27.684-42.928 64.491-42.928 103.642v40.346c-7.168 10.645-20 31.342-20 43.084 0 16.542 13.458 30 30 30zm.002-51.468c5.756 9.695 9.913 18.407 9.998 21.475-.004 5.511-4.488 9.993-10 9.993-5.514 0-10-4.486-10-9.989.081-3.057 4.241-11.773 10.002-21.479z"></path><path d="m376 306c16.542 0 30-13.458 30-30 0-11.741-12.832-32.439-20-43.084v-40.346c0-33.809 13.166-65.593 37.071-89.499 3.905-3.905 3.905-10.237 0-14.143-3.905-3.905-10.237-3.905-14.143 0-27.682 27.684-42.928 64.491-42.928 103.642v40.346c-7.168 10.645-20 31.342-20 43.084 0 16.542 13.458 30 30 30zm.002-51.468c5.756 9.695 9.913 18.407 9.998 21.475-.004 5.511-4.488 9.993-10 9.993-5.514 0-10-4.486-10-9.989.081-3.057 4.241-11.773 10.002-21.479z"></path><circle cx="256" cy="416" r="10"></circle><path d="m10 426h201c5.523 0 10-4.477 10-10s-4.477-10-10-10h-191v-120h46.726c4.868 33.876 34.072 60 69.274 60s64.406-26.124 69.274-60h101.451c4.868 33.876 34.072 60 69.274 60s64.406-26.124 69.274-60h46.727v120h-191c-5.523 0-10 4.477-10 10s4.477 10 10 10h201c5.523 0 10-4.477 10-10v-180c0-5.523-4.477-10-10-10h-81.61c-3.951 0-7.532 2.327-9.138 5.938-1.605 3.61-.934 7.828 1.713 10.761 8.406 9.316 13.035 21.142 13.035 33.301 0 27.57-22.43 50-50 50s-50-22.43-50-50c0-12.618 4.751-25.12 13.035-34.301 2.647-2.934 3.318-7.151 1.713-10.761-1.605-3.611-5.187-5.938-9.138-5.938h-151.22c-3.951 0-7.532 2.327-9.138 5.938-1.605 3.61-.934 7.828 1.713 10.761 8.284 9.181 13.035 21.683 13.035 34.301 0 27.57-22.43 50-50 50s-50-22.43-50-50c0-12.159 4.629-23.985 13.035-33.301 2.647-2.934 3.318-7.151 1.713-10.761-1.606-3.611-5.187-5.938-9.138-5.938h-81.61c-5.523 0-10 4.477-10 10v180c0 5.523 4.477 10 10 10zm482-180v20h-46.765c-1.029-6.93-3.091-13.671-6.156-20zm-178.934-1c-3.15 6.606-5.309 13.717-6.351 21h-101.431c-1.042-7.283-3.201-14.394-6.351-21zm-293.066 1h52.922c-3.065 6.329-5.128 13.07-6.156 20h-46.766z"></path></g></svg>