<svg xmlns="http://www.w3.org/2000/svg" id="Capa_1" height="512" viewBox="0 0 512 512" width="512"><path d="m228.794 134.617c3.121 2.721 7.859 2.396 10.582-.727 8.787-10.084 24.436-10.113 33.248 0 2.721 3.122 7.459 3.448 10.582.727 3.123-2.722 3.448-7.459.727-10.582-14.784-16.963-41.098-16.944-55.865 0-2.722 3.123-2.397 7.861.726 10.582z"></path><path d="m152.992 95.811 12.848 3.442c-1.144 1.316-1.841 3.031-1.841 4.912v14.027c0 4.142 3.358 7.5 7.5 7.5s7.5-3.358 7.5-7.5c-.049-14.632.109-14.158-.139-15.45 6.25 1.603 6.978 2.051 8.641 2.051 3.311 0 6.342-2.21 7.24-5.561 1.072-4.001-1.302-8.114-5.304-9.186l-32.563-8.726c-3.996-1.071-8.113 1.302-9.186 5.303-1.072 4.003 1.302 8.116 5.304 9.188z"></path><path d="m364.312 86.625c-1.072-4.001-5.185-6.375-9.186-5.303l-32.563 8.726c-4.001 1.072-6.375 5.185-5.304 9.186 1.073 4.003 5.189 6.375 9.186 5.303l6.695-1.794c-.248 1.292-.09.81-.139 15.45 0 4.142 3.358 7.5 7.5 7.5s7.5-3.358 7.5-7.5v-14.027c0-1.88-.697-3.595-1.841-4.912l12.848-3.442c4.002-1.073 6.376-5.186 5.304-9.187z"></path><path d="m10.413 414.364c0 27.846 22.654 50.5 50.5 50.5h329.813c4.142 0 7.5-3.358 7.5-7.5s-3.358-7.5-7.5-7.5h-57.077v-101.768h152.938v66.268c0 19.575-15.925 35.5-35.5 35.5h-30.362c-4.142 0-7.5 3.358-7.5 7.5s3.358 7.5 7.5 7.5h30.362c27.846 0 50.5-22.654 50.5-50.5v-161.318c6.487-7.756 10.413-17.705 10.413-28.484v-114.178c0-34.875-28.373-63.248-63.248-63.248h-291.453c-4.142 0-7.5 3.358-7.5 7.5s3.358 7.5 7.5 7.5h291.453c26.604 0 48.248 21.644 48.248 48.248v114.178c0 15.999-13.007 29.264-28.995 29.569-16.686.317-30.154-13.822-30.154-30.302-.135-25.733.323-27.083-.463-32.229-2.336-15.288-13.278-27.963-27.729-32.747-26.95-8.919-53.609 12.066-53.609 39.518v45.303c0 10.372-5.494 19.759-13.972 25.075-20.208 12.691-45.177-2.859-45.177-25.807-.519-43.822 1.238-47.355-1.806-57.184-5.223-16.863-20.86-28.607-38.3-28.939-23.254-.446-41.695 18.968-41.695 41.553-.114 76.493.279 74.375-.335 78.391-3.604 23.602-32.334 33.637-49.6 16.695-5.855-5.745-9.214-13.708-9.214-21.846v-73.899c0-22.128-17.993-40.47-40.106-40.893-23.399-.447-41.695 19.151-41.695 41.553v25.458c0 16.32-13.316 30.623-30.154 30.302-15.989-.308-28.996-13.573-28.996-29.571v-114.178c0-26.604 21.644-48.248 48.248-48.248h64.052c4.142 0 7.5-3.358 7.5-7.5s-3.358-7.5-7.5-7.5h-64.052c-34.875 0-63.248 28.373-63.248 63.248v114.178c0 10.779 3.926 20.728 10.413 28.484zm78.089-183.035h19.699v101.767h-82.788v-68.266c26.996 12.873 58.111-4.171 63.089-33.501zm-63.089 183.035v-66.268h152.938v101.767h-117.438c-19.575.001-35.5-15.924-35.5-35.499zm293.236 35.5h-125.298v-101.768h125.299v101.768zm167.938-185.034v68.266h-82.789v-101.767h19.7c4.983 29.352 36.119 46.364 63.089 33.501zm-71.182-85.22c3.117 3.177 5.48 7.203 6.645 11.743 1.32 5.15.587 7.354.801 24.976h-51.801v-17.958c0-22.99 27.633-35.817 44.355-18.761zm-54.348 92.056c5.021-6.182 8.298-13.536 9.489-21.331.803-5.261.393-8.16.504-19.006h17.749v101.767h-125.299v-101.767h18.401v11.613c0 41.234 51.776 62.416 79.156 28.724zm-90.361-95.233c6.778 4.715 11.205 12.548 11.205 21.279v18.618h-51.801v-17.958c0-20.774 23.075-34.135 40.596-21.939zm-40.596 95.911v-41.014h18.4v101.767h-125.299v-101.768h17.75v40.282c0 29.026 27.475 51.712 56.351 43.71 18.996-5.263 32.798-22.782 32.798-42.977zm-89.149-56.015h-51.802v-17.958c0-6.688 2.588-13.241 7.141-18.184 14.348-15.583 38.929-8.052 43.859 11.166 1.321 5.15.588 7.354.802 24.976z"></path></svg>