<svg xmlns="http://www.w3.org/2000/svg" xmlns:xlink="http://www.w3.org/1999/xlink" id="Capa_1" x="0px" y="0px" viewBox="0 0 512 512" style="enable-background:new 0 0 512 512;" xml:space="preserve">
<g>
	<g>
		<path d="M291.241,213.802h-4.789v-7.626h9.379c4.142,0,7.5-3.357,7.5-7.5v-61.197c0-4.143-3.358-7.5-7.5-7.5h-9.379v-10.864    c0-8.527-6.267-15.618-14.436-16.909V82.733V52.751V18.438C272.015,8.271,263.744,0,253.577,0h-64.295    c-10.167,0-18.438,8.271-18.438,18.438v24.051c0,4.143,3.358,7.5,7.5,7.5c4.142,0,7.5-3.357,7.5-7.5V18.438    c0-1.896,1.543-3.438,3.438-3.438h64.295c1.896,0,3.438,1.542,3.438,3.438v19.785c-3.593-1.39-7.453-2.134-11.432-2.134    c-17.454,0-31.654,14.2-31.654,31.654s14.2,31.654,31.654,31.654c3.978,0,7.839-0.745,11.432-2.134v12.233    c0,4.143,3.358,7.5,7.5,7.5h4.817c1.168,0,2.119,0.95,2.119,2.119v10.864H171.408v-10.864c0-1.169,0.951-2.119,2.12-2.119h4.816    c4.142,0,7.5-3.357,7.5-7.5V72.489c0-4.143-3.358-7.5-7.5-7.5c-4.142,0-7.5,3.357-7.5,7.5v29.716    c-8.17,1.291-14.436,8.382-14.436,16.909v10.864h-9.379c-4.142,0-7.5,3.357-7.5,7.5v61.197c0,4.143,3.358,7.5,7.5,7.5h9.379v7.626    h-4.789c-21.14,0-38.338,17.198-38.338,38.337v27.136c0,4.143,3.358,7.5,7.5,7.5c4.142,0,7.5-3.357,7.5-7.5V268.5h186.297v16    H174.19c-4.142,0-7.5,3.357-7.5,7.5v30.769c0,4.143,3.358,7.5,7.5,7.5c4.142,0,7.5-3.357,7.5-7.5V299.5h132.888v126.802H181.69    v-73.534c0-4.143-3.358-7.5-7.5-7.5c-4.142,0-7.5,3.357-7.5,7.5v81.034c0,4.143,3.358,7.5,7.5,7.5h140.388v32.36    c0,12.868-10.469,23.338-23.337,23.338H151.619c-12.869,0-23.338-10.47-23.338-23.338V309.274c0-4.143-3.358-7.5-7.5-7.5    c-4.142,0-7.5,3.357-7.5,7.5v164.388c0,21.14,17.198,38.338,38.338,38.338h139.622c21.139,0,38.337-17.198,38.337-38.338v-39.86    V292v-31v-8.861C329.578,231,312.38,213.802,291.241,213.802z M257.015,79.848c-3.075,2.915-7.128,4.548-11.432,4.548    c-9.183,0-16.654-7.471-16.654-16.654s7.471-16.654,16.654-16.654c4.303,0,8.356,1.634,11.432,4.549V79.848z M268.462,144.979    h10.489h9.379v46.197h-9.379h-10.489V144.979z M228.93,144.979h24.532v46.197H228.93V144.979z M154.529,191.176v-46.197h9.379    h10.489v46.197h-10.489H154.529z M213.929,253.5h-85.648v-1.361c0-12.868,10.469-23.337,23.338-23.337h12.289    c4.142,0,7.5-3.357,7.5-7.5v-15.126h42.521V253.5z M213.93,191.176h-24.532v-46.197h24.532V191.176z M314.577,253.5H228.93    v-47.324h42.521v15.126c0,4.143,3.358,7.5,7.5,7.5h12.289c12.868,0,23.337,10.469,23.337,23.337V253.5z" fill="#3291a7"/>
	</g>
</g>
<g>
	<g>
		<path d="M252.94,66.279c-0.1-0.479-0.24-0.949-0.43-1.409c-0.19-0.45-0.42-0.891-0.69-1.29c-0.27-0.41-0.59-0.801-0.93-1.141    c-1.4-1.399-3.329-2.199-5.31-2.199c-1.97,0-3.9,0.8-5.3,2.199c-0.35,0.34-0.66,0.73-0.93,1.141c-0.27,0.399-0.5,0.84-0.69,1.29    c-0.19,0.46-0.33,0.93-0.43,1.409c-0.1,0.481-0.15,0.971-0.15,1.461c0,0.489,0.05,0.98,0.15,1.47c0.1,0.479,0.24,0.95,0.43,1.399    c0.19,0.45,0.42,0.891,0.69,1.29c0.27,0.41,0.58,0.801,0.93,1.141c0.34,0.35,0.73,0.66,1.14,0.939c0.41,0.271,0.84,0.5,1.29,0.69    c0.46,0.189,0.93,0.33,1.41,0.43c0.48,0.09,0.98,0.141,1.46,0.141c1.98,0,3.91-0.801,5.31-2.2c0.34-0.34,0.66-0.73,0.93-1.141    c0.27-0.399,0.5-0.84,0.69-1.29c0.19-0.449,0.33-0.92,0.43-1.399c0.09-0.49,0.14-0.98,0.14-1.47S253.03,66.76,252.94,66.279z" fill="#3291a7"/>
	</g>
</g>
<g>
	<g>
		<path d="M319.64,60.288h-0.771c-4.142,0-7.5,3.358-7.5,7.5c0,4.143,3.358,7.5,7.5,7.5h0.771c4.142,0,7.5-3.357,7.5-7.5    C327.14,63.645,323.782,60.288,319.64,60.288z" fill="#3291a7"/>
	</g>
</g>
<g>
	<g>
		<path d="M343.5,60.288h-0.772c-4.142,0-7.5,3.357-7.5,7.5c0,4.143,3.358,7.5,7.5,7.5h0.772c4.142,0,7.5-3.357,7.5-7.5    C351,63.645,347.642,60.288,343.5,60.288z" fill="#3291a7"/>
	</g>
</g>
<g>
	<g>
		<path d="M367.359,60.288h-0.771c-4.142,0-7.5,3.357-7.5,7.5c0,4.143,3.358,7.5,7.5,7.5h0.771c4.142,0,7.5-3.357,7.5-7.5    C374.859,63.645,371.501,60.288,367.359,60.288z" fill="#3291a7"/>
	</g>
</g>
<g>
	<g>
		<path d="M391.219,60.288h-0.772c-4.142,0-7.5,3.357-7.5,7.5c0,4.143,3.358,7.5,7.5,7.5h0.772c4.142,0,7.5-3.357,7.5-7.5    C398.719,63.645,395.361,60.288,391.219,60.288z" fill="#3291a7"/>
	</g>
</g>
<g>
	<g>
		<path d="M312.071,96.916l-0.668-0.343c-3.688-1.891-8.206-0.434-10.096,3.252c-1.892,3.686-0.435,8.206,3.25,10.096l0.668,0.343    c1.096,0.562,2.265,0.828,3.417,0.828c2.724,0,5.351-1.489,6.68-4.08C317.212,103.326,315.756,98.806,312.071,96.916z" fill="#3291a7"/>
	</g>
</g>
<g>
	<g>
		<path d="M332.742,107.532l-0.668-0.344c-3.682-1.892-8.205-0.445-10.101,3.237c-1.895,3.683-0.446,8.205,3.237,10.101l0.668,0.344    c1.098,0.564,2.27,0.833,3.425,0.833c2.72,0,5.345-1.485,6.675-4.07C337.875,113.95,336.425,109.428,332.742,107.532z" fill="#3291a7"/>
	</g>
</g>
<g>
	<g>
		<path d="M353.403,118.142l-0.668-0.344c-3.684-1.894-8.204-0.443-10.1,3.24c-1.894,3.684-0.443,8.205,3.24,10.1l0.668,0.344    c1.098,0.564,2.269,0.832,3.423,0.832c2.721,0,5.346-1.486,6.676-4.072C358.538,124.558,357.087,120.036,353.403,118.142z" fill="#3291a7"/>
	</g>
</g>
<g>
	<g>
		<path d="M315.707,28.471c-1.891-3.687-6.41-5.143-10.096-3.252l-0.668,0.343c-3.686,1.89-5.142,6.41-3.251,10.096    c1.328,2.591,3.955,4.08,6.679,4.08c1.152,0,2.321-0.267,3.417-0.828l0.668-0.343C316.142,36.677,317.598,32.157,315.707,28.471z" fill="#3291a7"/>
	</g>
</g>
<g>
	<g>
		<path d="M336.37,17.859c-1.892-3.685-6.41-5.142-10.097-3.249l-0.668,0.343c-3.685,1.892-5.14,6.412-3.249,10.097    c1.329,2.59,3.955,4.078,6.679,4.078c1.152,0,2.322-0.267,3.418-0.829l0.668-0.343C336.806,26.064,338.261,21.544,336.37,17.859z" fill="#3291a7"/>
	</g>
</g>
<g>
	<g>
		<path d="M357.033,7.251c-1.89-3.686-6.409-5.143-10.096-3.252l-0.668,0.343c-3.686,1.89-5.142,6.41-3.251,10.096    c1.329,2.591,3.956,4.08,6.68,4.08c1.152,0,2.321-0.267,3.416-0.828l0.668-0.343C357.468,15.457,358.924,10.937,357.033,7.251z" fill="#3291a7"/>
	</g>
</g>
<g>
</g>
<g>
</g>
<g>
</g>
<g>
</g>
<g>
</g>
<g>
</g>
<g>
</g>
<g>
</g>
<g>
</g>
<g>
</g>
<g>
</g>
<g>
</g>
<g>
</g>
<g>
</g>
<g>
</g>
</svg>