<svg xmlns="http://www.w3.org/2000/svg" height="512pt" viewBox="0 -29 512 512" width="512pt"><path d="m478.914062 312.195312c-4.144531 0-7.5 3.359376-7.5 7.5v119.570313h-154.59375v-141.941406c0-9.652344-7.851562-17.503907-17.5-17.503907h-86.640624c-9.648438 0-17.5 7.855469-17.5 17.503907v141.941406h-154.59375v-119.570313c0-4.140624-3.355469-7.5-7.5-7.5-4.144532 0-7.5 3.359376-7.5 7.5v123.070313c0 6.339844 5.160156 11.5 11.5 11.5h437.828124c6.339844 0 11.5-5.160156 11.5-11.5v-123.070313c0-4.140624-3.355468-7.5-7.5-7.5zm-268.734374 127.070313v-141.941406c0-1.378907 1.121093-2.503907 2.5-2.503907h86.640624c1.378907 0 2.5 1.125 2.5 2.503907v141.941406zm0 0"></path><path d="m443.285156 409.632812c8.804688 0 15.96875-7.164062 15.96875-15.96875v-81.84375c0-8.804687-7.164062-15.964843-15.96875-15.964843h-92.816406c-8.804688 0-15.96875 7.160156-15.96875 15.964843v81.84375c0 8.804688 7.164062 15.96875 15.96875 15.96875zm-93.785156-15.96875v-81.84375c0-.53125.433594-.964843.96875-.964843h92.816406c.535156 0 .96875.433593.96875.964843v81.84375c0 .535157-.433594.96875-.96875.96875h-92.816406c-.535156 0-.96875-.433593-.96875-.96875zm0 0"></path><path d="m161.53125 409.632812c8.804688 0 15.96875-7.164062 15.96875-15.96875v-81.84375c0-8.804687-7.164062-15.964843-15.96875-15.964843h-92.816406c-8.804688 0-15.96875 7.160156-15.96875 15.964843v81.84375c0 8.804688 7.164062 15.96875 15.96875 15.96875zm-93.785156-15.96875v-81.84375c0-.53125.433594-.964843.96875-.964843h92.816406c.535156 0 .96875.433593.96875.964843v81.84375c0 .535157-.433594.96875-.96875.96875h-92.816406c-.535156 0-.96875-.433593-.96875-.96875zm0 0"></path><path d="m489.960938 110.570312c0-8.011718 6.519531-14.527343 14.539062-14.527343 4.144531 0 7.5-3.359375 7.5-7.5v-18.351563c0-4.140625-3.355469-7.5-7.5-7.5h-123.808594c-4.144531 0-7.5 3.359375-7.5 7.5 0 4.144532 3.355469 7.5 7.5 7.5h116.308594v4.316406c-10.269531 2.695313-18.375 10.796876-21.074219 21.0625h-117.988281v-66.578124c0-20.121094-16.371094-36.492188-36.492188-36.492188h-130.886718c-20.125 0-36.492188 16.371094-36.492188 36.492188v26.199218h-146.566406c-4.144531 0-7.5 3.359375-7.5 7.5v18.351563c0 4.140625 3.355469 7.5 7.5 7.5 8.019531 0 14.539062 6.515625 14.539062 14.527343 0 2.707032 1.433594 5.078126 3.582032 6.398438v51.226562h-13.496094c-6.34375 0-11.503906 5.160157-11.503906 11.5v40.839844c0 6.339844 5.160156 11.5 11.503906 11.5h13.496094v57.714844c0 4.140625 3.355468 7.5 7.5 7.5 4.144531 0 7.5-3.359375 7.5-7.5v-57.714844h431.378906v57.726563c0 4.140625 3.355469 7.5 7.5 7.5 4.140625 0 7.5-3.359375 7.5-7.5v-57.726563h13.496094c6.34375 0 11.503906-5.160156 11.503906-11.5v-40.839844c0-6.339843-5.160156-11.5-11.503906-11.5h-13.496094v-51.652343c1.796875-1.371094 2.960938-3.535157 2.960938-5.972657zm-320.898438-74.078124c0-11.851563 9.644531-21.492188 21.492188-21.492188h130.886718c11.851563 0 21.492188 9.640625 21.492188 21.492188v81.832031c0 11.851562-9.640625 21.492187-21.492188 21.492187h-130.882812c-11.851563 0-21.492188-9.640625-21.492188-21.492187v-81.832031zm327.9375 180.542968h-481.378906v-33.839844h481.378906zm-456.378906-48.839844v-50.125h90.949218c4.144532 0 7.5-3.355468 7.5-7.5 0-4.140624-3.355468-7.5-7.5-7.5h-95.496093c-2.699219-10.265624-10.804688-18.367187-21.074219-21.0625v-4.316406h139.0625v40.636719c0 20.121094 16.371094 36.492187 36.492188 36.492187h130.886718c20.125 0 36.492188-16.371093 36.492188-36.492187v-.253906h114.0625v50.121093zm0 0"></path><path d="m227 359.542969h-6c-4.144531 0-7.5 3.359375-7.5 7.5s3.355469 7.5 7.5 7.5h6c4.144531 0 7.5-3.359375 7.5-7.5s-3.355469-7.5-7.5-7.5zm0 0"></path><path d="m202.277344 44.933594h9.191406l9.429688 45.078125c1.828124 8.734375 9.632812 15.078125 18.558593 15.078125h44.535157c7.839843 0 14.96875-4.929688 17.738281-12.261719l14.707031-38.933594c1.398438-3.707031.890625-7.863281-1.359375-11.117187-2.25-3.257813-5.960937-5.203125-9.917969-5.203125h-62.988281c-4.140625 0-7.5 3.355469-7.5 7.5 0 4.140625 3.359375 7.5 7.5 7.5h58.730469l-13.203125 34.953125c-.578125 1.53125-2.066407 2.5625-3.703125 2.5625h-44.539063c-1.863281 0-3.492187-1.328125-3.875-3.148438l-9.46875-45.253906c-1.425781-6.8125-7.507812-11.753906-14.46875-11.753906h-9.363281c-4.144531 0-7.5 3.355468-7.5 7.5 0 4.140625 3.355469 7.5 7.496094 7.5zm0 0"></path><path d="m240.75 111.382812h-2c-4.144531 0-7.5 3.355469-7.5 7.5 0 4.140626 3.355469 7.5 7.5 7.5h2c4.144531 0 7.5-3.359374 7.5-7.5 0-4.144531-3.355469-7.5-7.5-7.5zm0 0"></path><path d="m273.25 111.382812h-2c-4.144531 0-7.5 3.355469-7.5 7.5 0 4.140626 3.355469 7.5 7.5 7.5h2c4.144531 0 7.5-3.359374 7.5-7.5 0-4.144531-3.355469-7.5-7.5-7.5zm0 0"></path></svg>