<svg xmlns="http://www.w3.org/2000/svg" height="512" viewBox="0 0 40 60" width="512"><g id="Page-1" fill="none" fill-rule="evenodd"><g id="010---Stove" fill="rgb(0,0,0)" fill-rule="nonzero"><path id="Shape" d="m2.477 46c-.66371305-.0000445-1.28421426.3291759-1.65629698.8787844-.37208272.5496084-.44727242 1.2480025-.20070302 1.8642156l1.2 3c.30153041.7610739 1.03837555 1.2598431 1.857 1.257h.323v4c0 1.6568542 1.34314575 3 3 3s3-1.3431458 3-3v-.122c1.894-.491 2.676-2.366 2.91-3.878h14.18c.234 1.512 1.016 3.387 2.91 3.878v.122c0 1.6568542 1.3431458 3 3 3s3-1.3431458 3-3v-4h.323c.8186244.0028431 1.5554696-.4959261 1.857-1.257l1.2-3c.2465694-.6162131.1713797-1.3146072-.200703-1.8642156-.3720827-.5496085-.992584-.8788289-1.656297-.8787844h-.523v-30.1c.5092734-.1616764.9315855-.5223187 1.171-1l1-2c.3126559-.6204662.2808963-1.3587395-.0838891-1.9500631-.3647855-.5913235-1.0103225-.95095962-1.7051109-.9499369h-.764l-1.447-2.894c-.336329-.67993181-1.0304388-1.10904606-1.789-1.106h-9.382v-5c0-.55228475-.4477153-1-1-1h-6c-.5522847 0-1 .44771525-1 1v5h-9.382c-.75826995-.00299558-1.45220632.42562358-1.789 1.105l-1.447 2.895h-.764c-.69478841-.00102272-1.34032541.3586134-1.70511087.9499369-.36478547.5913236-.39654501 1.3295969-.08388913 1.9500631l1 2c.23923123.4778247.66161358.838527 1.171 1v30.1zm6.523 9c-.55228475 0-1 .4477153-1 1v1c0 .5522847-.44771525 1-1 1s-1-.4477153-1-1v-4h4.884c-.184.874-.659 2-1.884 2zm25 2c0 .5522847-.4477153 1-1 1s-1-.4477153-1-1v-1c0-.5522847-.4477153-1-1-1-1.225 0-1.7-1.126-1.883-2h4.883zm2.323-6h-32.645l-1.2-3h35.044zm-18.323-49h4v4h-4zm-11.382 6h26.764l1 2h-28.764zm-2.618 4h33.382l-1 2v.077-.077h-32.764l-1-2zm1 4h30v30h-30z"></path><path id="Shape" d="m29 18h-18c-2.209139 0-4 1.790861-4 4v17c0 2.209139 1.790861 4 4 4h18c2.209139 0 4-1.790861 4-4v-17c0-2.209139-1.790861-4-4-4zm-15.974 20.4c-.12-.7.174-1.227.705-2.1.165-.272.331-.546.48-.831.4243699-.8250061.6309019-1.7447622.6-2.672.9550273.8948203 1.6875353 2.0006026 2.139 3.229.1150329.3449805.4082767.6003207.7657996.6668153.3575229.0664945.7229618-.0663393.9543359-.3468928.231374-.2805534.2922072-.6645974.1588645-1.0029225-.4423386-1.2104726-1.1074713-2.3273934-1.961-3.293.182-.17.361-.343.546-.51.7570211-.634043 1.4364054-1.3553854 2.024-2.149.3839202-.5610396.6662169-1.1852064.834-1.844.9527473 1.2984432 1.4858938 2.8570593 1.528 4.467-.2612917.2333591-.5382744.4485303-.829.644-.3079014.1912755-.4881895.5341934-.4712126.8962727.0169768.3620793.2285603.6866235.5530083.84825.324448.1616264.7109567.1350267 1.0102043-.0695227 1.2480596-.8191297 2.2931573-1.911763 3.056-3.195 1.0101203 1.8139154 1.6338702 3.8172691 1.832 5.884.2148948 1.3608545-.0111168 2.7547678-.645 3.978h-11.7c-.7594032-.7018924-1.3067883-1.6026527-1.58-2.6zm17.974.6c0 1.1045695-.8954305 2-2 2h-.47c.444662-1.3426598.583716-2.767707.407-4.171-.2857958-3.0060351-1.3687303-5.8813177-3.137-8.329-.2163065-.3001569-.5820568-.4544819-.948-.4-.3656711.0514173-.6732455.3001681-.8.647-.1443598.3944996-.3195683.7770158-.524 1.144-.5457297-2.334174-1.9497511-4.3775554-3.933-5.724-.3909196-.2534029-.9050349-.2032964-1.2396685.1208202-.3346335.3241165-.4011262.8363703-.1603315 1.2351798.3712228.9155804.218201 1.960337-.4 2.731-.5014861.664117-1.0779695 1.2681159-1.718 1.8-.225.2-.448.416-.671.628-.5966828-.4586034-1.2447082-.8462105-1.931-1.155-.4076554-.1818077-.8864396-.0714311-1.1733549.2704995-.2869154.3419307-.3124775.8326076-.0626451 1.2025005.6872771 1.0596305.7633362 2.4035934.2 3.534-.129.247-.274.484-.418.72-.762154.9898962-1.1083348 2.2379406-.965 3.479.154967.8183267.4885612 1.5923883.977 2.267h-1.033c-1.1045695 0-2-.8954305-2-2v-17c0-1.1045695.8954305-2 2-2h18c1.1045695 0 2 .8954305 2 2z"></path></g></g></svg>