<svg xmlns="http://www.w3.org/2000/svg" id="Layer_1" data-name="Layer 1" viewBox="0 0 512 512" width="512" height="512"><path d="M499.64,261.47H476.048a77.75,77.75,0,0,0,16.712-48.08V187.41a78.054,78.054,0,0,0-58.34-75.393V102.06a6,6,0,0,0-12,0v7.8c-2.524-.249-5.063-.379-7.6-.379H385.83v-7.42a6,6,0,0,0-12,0v7.42h-38.6A24.028,24.028,0,0,0,311.27,86.89H279.32a24.028,24.028,0,0,0-23.955,22.59h-.025a78.024,78.024,0,0,0-77.94,77.93v25.98a77.482,77.482,0,0,0,19.93,51.9V299.52H184.617l-15.228-10.978-1.61-95.946a24.818,24.818,0,0,0-21.659-24.111V153.42a6,6,0,0,0-6-6H83.64a6,6,0,0,0-6,6v14.87H65.48a24.642,24.642,0,0,0-22.163,13.69c-1.988,3.963-3.974,8.007-5.905,12.021C20.43,229.323,11.82,253.311,11.82,265.3v72.048A12.887,12.887,0,0,0,6.36,347.84v24.03a12.864,12.864,0,0,0,12.85,12.85H67.37a6,6,0,0,0,6-6V367.99a42.609,42.609,0,0,1,42.61-42.62h23.98a42.6,42.6,0,0,1,42.62,42.62v10.73a6,6,0,0,0,6,6h20.37v4.5a18.021,18.021,0,0,0,18,18h76.66a18.021,18.021,0,0,0,18-18v-4.5h20.46a6,6,0,0,0,6-6V367.99a42.612,42.612,0,0,1,42.61-42.62h21.51a42.629,42.629,0,0,1,42.531,39.95c.052.876.079,1.774.079,2.67v10.73a6,6,0,0,0,12,0V367.99c0-.262-.02-.523-.023-.786l29.62-34.4a6.055,6.055,0,0,0,1.453-3.935V305.52a6,6,0,0,0-6-6h-4.52V294.5h12.31a6,6,0,0,0,6-6V267.47A6,6,0,0,0,499.64,261.47Zm-410-102.05h44.48v8.87H89.64ZM46.6,202.6H75.37v41.1L25.014,257.166C27.787,245.459,35.305,226.4,46.6,202.6ZM61.37,367.99v4.73H19.21a.872.872,0,0,1-.85-.85V347.84a.872.872,0,0,1,.644-.826,1.06,1.06,0,0,1,.206-.024H65.551A54.487,54.487,0,0,0,61.37,367.99Zm115.31-40.437a54.6,54.6,0,0,0-36.72-14.183H115.98a54.527,54.527,0,0,0-43.519,21.62H58.569c3.086-10.082,12.464-28.787,40.274-35.142a6,6,0,1,0-2.673-11.7c-24.254,5.542-36.83,19.355-43.11,29.968a62.558,62.558,0,0,0-6.893,16.872H23.82V269.906l102.31-27.353a18.934,18.934,0,0,0,8.454-4.882,18.71,18.71,0,0,0,5.536-13.351v-21.5a12.229,12.229,0,0,0-12.21-12.22H52.435c.537-1.084,1.073-2.172,1.612-3.247A12.712,12.712,0,0,1,65.48,180.29h77.61a12.75,12.75,0,0,1,12.691,12.5l1.557,92.859h-37.4a6,6,0,0,0,0,12H161.5l15.177,10.941ZM87.37,240.5V202.6h40.54a.213.213,0,0,1,.21.22v21.5a6.8,6.8,0,0,1-2.013,4.857,6.926,6.926,0,0,1-3.086,1.786Zm347.05-116a66.041,66.041,0,0,1,46.34,62.918v25.98a66.272,66.272,0,0,1-46.34,62.929Zm0,164.315a77.782,77.782,0,0,0,29.9-15.337H475.33v26.05H434.42ZM385.83,121.48h28.99a65.454,65.454,0,0,1,7.6.462v8.008H385.83Zm0,20.47h36.59v9.37H385.83Zm0,21.37h36.59v9.36H385.83Zm0,21.36h36.59v9.37H385.83Zm0,21.37h36.59v9.37H385.83Zm0,21.37h36.59v9.37H385.83Zm0,21.37h36.59v9.27H385.83Zm0,21.27h36.59v8.808a65.414,65.414,0,0,1-7.6.462H385.83Zm0,21.27h28.99c2.537,0,5.077-.13,7.6-.379v8.569H385.83ZM279.32,98.89h31.95a12.013,12.013,0,0,1,11.91,10.59H267.41A12.012,12.012,0,0,1,279.32,98.89ZM189.4,213.39V187.41a66.01,66.01,0,0,1,65.94-65.93H373.83V279.33H357.3l-7.7-14.652a6,6,0,0,0-5.311-3.208h-8.623a6,6,0,1,0,0,12h5l13.692,26.05h-92l13.692-26.05h39.613a6,6,0,0,0,0-12H272.43a6,6,0,0,0-5.311,3.208l-7.7,14.652H255.34a66.144,66.144,0,0,1-65.94-65.94Zm184.43,77.94v8.19h-5.916l-4.3-8.19Zm-120.691-.055-4.334,8.245H209.33V276.208A76.877,76.877,0,0,0,253.139,291.275ZM309.61,389.22a6.007,6.007,0,0,1-6,6H226.95a6.006,6.006,0,0,1-6-6V356.76a6.006,6.006,0,0,1,6-6h76.66a6.007,6.007,0,0,1,6,6Zm26.46-21.23v4.73H321.61V356.76a18.02,18.02,0,0,0-18-18H226.95a18.02,18.02,0,0,0-18,18v15.96H194.58v-4.73a54.711,54.711,0,0,0-5.9-24.651V334.87H347.3A54.831,54.831,0,0,0,336.07,367.99Zm128.236-16.307a54.333,54.333,0,0,0-8.694-16.813h23.171ZM485.85,322.87H442.961a54.123,54.123,0,0,0-30.771-9.5H390.68a54.135,54.135,0,0,0-30.778,9.5H188.68V311.52H485.85Zm7.79-40.37h-6.31v-9.03h6.31Z"></path><path d="M129.26,334.33a45.39,45.39,0,1,0,45.38,45.39A45.442,45.442,0,0,0,129.26,334.33Zm0,78.78a33.39,33.39,0,1,1,33.38-33.39A33.428,33.428,0,0,1,129.26,413.11Z"></path><path d="M129.26,364.41a15.31,15.31,0,1,0,15.31,15.31A15.332,15.332,0,0,0,129.26,364.41Zm0,18.62a3.31,3.31,0,1,1,3.31-3.31A3.319,3.319,0,0,1,129.26,383.03Z"></path><path d="M401,334.33a45.39,45.39,0,1,0,45.38,45.39A45.442,45.442,0,0,0,401,334.33Zm0,78.78a33.39,33.39,0,1,1,33.38-33.39A33.428,33.428,0,0,1,401,413.11Z"></path><path d="M401,364.41a15.31,15.31,0,1,0,15.31,15.31A15.332,15.332,0,0,0,401,364.41Zm0,18.62a3.31,3.31,0,1,1,3.31-3.31A3.319,3.319,0,0,1,401,383.03Z"></path></svg>