<svg xmlns="http://www.w3.org/2000/svg" data-name="Layer 1" viewBox="0 0 128 128"><path d="M64,0a64,64,0,1,0,64,64A64.07239,64.07239,0,0,0,64,0Zm0,124a60,60,0,1,1,60-60A60.06812,60.06812,0,0,1,64,124Z"></path><path d="M42.13232 79.541A1.99986 1.99986 0 0 0 43.5 83h20a2 2 0 0 0 0-4H48.51758C53.6167 74.06445 59.00781 68.21973 62.0332 61.3584a12.94924 12.94924 0 0 0-1.50342-12.78125 9.3387 9.3387 0 0 0-9.31543-3.38965 14.46116 14.46116 0 0 0-7.51562 4.48145 2.00009 2.00009 0 1 0 2.89941 2.75586 10.50407 10.50407 0 0 1 5.3457-3.30371 5.29848 5.29848 0 0 1 5.44922 1.93848 8.92121 8.92121 0 0 1 .98 8.68555C54.9375 67.53711 47.8374 74.19336 42.13232 79.541zM84.5 83a2.0001 2.0001 0 0 0 2-2V47a2 2 0 0 0-4 0V61h-10V47a2 2 0 0 0-4 0V63a2.0001 2.0001 0 0 0 2 2h12V81A2.0001 2.0001 0 0 0 84.5 83z"></path><path d="M109.16113 69.59668a1.99764 1.99764 0 0 0-2.35693 1.5625 42.99123 42.99123 0 0 1-83.594 3.50037l3.12036 3.02112a1.9997 1.9997 0 1 0 2.78223-2.873l-8.31818-8.05353a2.02238 2.02238 0 0 0-3.30048.84064s-3.3808 10.835-3.4032 10.90686c-.76581 2.45428 3.045 3.6712 3.81824 1.19177l1.35046-4.32831a46.988 46.988 0 0 0 91.46448-3.41095A1.99932 1.99932 0 0 0 109.16113 69.59668zM18.83887 58.40332a2.00132 2.00132 0 0 0 2.35693-1.5625 42.99123 42.99123 0 0 1 83.594-3.50037l-3.12036-3.02112a1.9997 1.9997 0 1 0-2.78223 2.873s8.27319 8.00995 8.31818 8.05353a2.03965 2.03965 0 0 0 3.30048-.84064L113.90918 49.498a2 2 0 0 0-3.81836-1.19141l-1.35046 4.32831A46.988 46.988 0 0 0 17.27588 56.0459 1.99932 1.99932 0 0 0 18.83887 58.40332z"></path><circle cx="64" cy="10" r="2"></circle><circle cx="43.335" cy="14.11" r="2" transform="rotate(-22.5 43.335 14.11)"></circle><circle cx="25.816" cy="25.816" r="2" transform="rotate(-45 25.816 25.816)"></circle><circle cx="14.111" cy="43.335" r="2" transform="rotate(-67.501 14.11 43.335)"></circle><circle cx="10" cy="64" r="2"></circle><circle cx="14.111" cy="84.665" r="2" transform="rotate(-22.5 14.11 84.665)"></circle><circle cx="25.816" cy="102.184" r="2" transform="rotate(-45 25.816 102.184)"></circle><circle cx="43.335" cy="113.889" r="2" transform="rotate(-67.5 43.335 113.89)"></circle><circle cx="64" cy="118" r="2"></circle><circle cx="84.665" cy="113.889" r="2" transform="rotate(-22.5 84.665 113.89)"></circle><circle cx="102.184" cy="102.184" r="2" transform="rotate(-45 102.184 102.184)"></circle><circle cx="113.889" cy="84.665" r="2" transform="rotate(-67.5 113.89 84.665)"></circle><circle cx="118" cy="64" r="2"></circle><circle cx="113.889" cy="43.335" r="2" transform="rotate(-22.499 113.89 43.335)"></circle><circle cx="102.184" cy="25.816" r="2" transform="rotate(-45 102.184 25.816)"></circle><circle cx="84.665" cy="14.11" r="2" transform="rotate(-67.5 84.665 14.11)"></circle></svg>