<svg xmlns="http://www.w3.org/2000/svg" id="Capa_1" height="512" viewBox="0 0 512 512" width="512"><g><g><path d="m450.083 226.349h-50.664c-4.142 0-7.5 3.357-7.5 7.5s3.358 7.5 7.5 7.5h50.664c4.142 0 7.5-3.357 7.5-7.5s-3.358-7.5-7.5-7.5z"></path><path d="m457.583 261.057c0-4.143-3.358-7.5-7.5-7.5h-50.664c-4.142 0-7.5 3.357-7.5 7.5s3.358 7.5 7.5 7.5h50.664c4.142 0 7.5-3.358 7.5-7.5z"></path><path d="m399.419 280.766c-4.142 0-7.5 3.357-7.5 7.5s3.358 7.5 7.5 7.5h15.581c4.142 0 7.5-3.357 7.5-7.5s-3.358-7.5-7.5-7.5z"></path><path d="m488.544 274.65v-16.65c0-4.143-3.358-7.5-7.5-7.5s-7.5 3.357-7.5 7.5v11.879c-1.847-.237-3.725-.373-5.635-.373-24.312 0-44.09 19.779-44.09 44.091 0 7.838 2.065 15.199 5.666 21.584h-53.527v-128.546h97.586v16.365c0 4.143 3.358 7.5 7.5 7.5s7.5-3.357 7.5-7.5v-20.865c0-5.79-4.71-10.5-10.5-10.5h-34.667v-2.369c0-36.747-29.896-66.643-66.642-66.643h-29.869v-9.46c0-5.79-4.71-10.5-10.5-10.5h-9.612v-84.54c0-5.79-4.71-10.5-10.5-10.5h-22.856c-5.79 0-10.5 4.71-10.5 10.5v84.54h-5.031v-84.54c0-5.79-4.71-10.5-10.5-10.5h-22.856c-5.79 0-10.5 4.71-10.5 10.5v50.947l-12.103 8.197v-4.925c0-3.525-1.935-6.741-5.05-8.393s-6.862-1.448-9.778.527l-37.336 25.288c-2.887 1.957-4.61 5.207-4.61 8.693v24.165h-34.602c-36.747 0-66.642 29.896-66.642 66.643v14.084c-21.533 3.588-38.003 22.338-38.003 44.874 0 10.174 3.357 19.577 9.02 27.164-20.348 7.487-34.907 27.051-34.907 49.965v8.75c0 6.893 5.607 12.5 12.5 12.5h51.39v13.455c0 36.747 29.896 66.643 66.642 66.643h52.644v27.499c0 2.548 1.293 4.922 3.435 6.303l66.162 42.679c1.237.798 2.651 1.197 4.065 1.197s2.828-.399 4.065-1.197l66.162-42.679c2.141-1.381 3.435-3.755 3.435-6.303v-27.499h46.235c36.747 0 66.642-29.896 66.642-66.643v-9.843c7.018 4.717 15.458 7.474 24.532 7.474 24.312 0 44.091-19.778 44.091-44.09 0-16.86-9.516-31.533-23.456-38.948zm-190.646-252.027h13.856v15.465h-13.856zm0 30.465h13.856v49.575h-13.856zm-48.887-30.465h13.856v15.465h-13.856zm0 30.465h13.856v49.575h-7.247v-30.321c0-3.525-1.935-6.741-5.05-8.393-.504-.267-1.029-.468-1.56-.639v-10.222zm-27.103 42.296 18.712-12.674v111.347h-18.712zm-41.774 5.461 26.774-18.135v111.347h-26.774zm-108.744 116.876c16.82 0 30.503 13.684 30.503 30.503 0 16.82-13.684 30.504-30.503 30.504s-30.503-13.684-30.503-30.504 13.683-30.503 30.503-30.503zm177.948 265.393-51.162-33.003v-53.67l51.162 33.004zm7.5-66.68-52.326-33.755 52.326-33.754 52.326 33.754zm58.662 33.677-51.162 33.003v-53.669l51.162-33.004zm61.235-38.412h-46.235v-29.021c0-2.526-1.279-4.852-3.358-6.234-.028-.021-.046-.049-.076-.069l-66.162-42.679c-2.475-1.596-5.656-1.596-8.131 0l-66.162 42.679c-.036.023-.061.055-.095.081-2.068 1.383-3.34 3.704-3.34 6.222v29.021h-52.644c-28.476 0-51.642-23.167-51.642-51.643v-13.455h4.11c4.142 0 7.5-3.357 7.5-7.5s-3.358-7.5-7.5-7.5h-68v-6.25c0-19.427 14.568-35.505 33.352-37.911 6.763 3.988 14.635 6.287 23.039 6.287s16.276-2.299 23.039-6.287c18.783 2.406 33.352 18.484 33.352 37.911v6.25h-9.782c-4.142 0-7.5 3.357-7.5 7.5s3.358 7.5 7.5 7.5h12.28c6.893 0 12.5-5.607 12.5-12.5v-8.75c0-22.913-14.559-42.477-34.907-49.964 5.663-7.587 9.02-16.99 9.02-27.164 0-22.536-16.47-41.286-38.003-44.874v-14.084c0-28.476 23.167-51.643 51.642-51.643h34.602v60.934c0 5.79 4.71 10.5 10.5 10.5h160.732c5.79 0 10.5-4.71 10.5-10.5v-16.556c0-4.143-3.358-7.5-7.5-7.5s-7.5 3.357-7.5 7.5v12.057h-12.107v-36.671c0-5.79-4.71-10.5-10.5-10.5h-28.977c-5.79 0-10.5 4.71-10.5 10.5v36.671h-14.162v-76.394h76.246v29.337c0 4.143 3.358 7.5 7.5 7.5s7.5-3.357 7.5-7.5v-9.377h29.869c28.476 0 51.642 23.167 51.642 51.643v2.369h-56.919c-5.79 0-10.5 4.71-10.5 10.5v137.547c0 5.79 4.71 10.5 10.5 10.5h56.919v9.875c0 28.475-23.166 51.642-51.642 51.642zm-91.953-217.642v-32.171h19.977v32.171zm183.127 148.631c-16.041 0-29.09-13.05-29.09-29.09 0-16.041 13.05-29.091 29.09-29.091s29.091 13.05 29.091 29.091c0 16.04-13.05 29.09-29.091 29.09z"></path><path d="m479.144 299.778-13.559 13.56-8.91-8.91c-2.929-2.929-7.678-2.93-10.606-.001-2.929 2.93-2.929 7.678 0 10.606l14.213 14.214c1.406 1.407 3.314 2.197 5.303 2.197s3.897-.79 5.303-2.196l18.862-18.862c2.929-2.93 2.929-7.678 0-10.607-2.928-2.928-7.677-2.928-10.606-.001z"></path></g></g></svg>