<svg xmlns="http://www.w3.org/2000/svg" height="512pt" viewBox="-61 0 512 512" width="512pt"><path d="m190.324219 510.417969 4.742187 1.582031 4.746094-1.582031c126.078125-42.023438 190.320312-146.007813 190.320312-254.316407v-196.066406h-50.164062c-102.335938 0-139.03125-56.714844-144.902344-60.035156-5.730468 3.238281-42.707031 60.035156-144.902344 60.035156h-50.164062v196.066406c0 108.152344 63.820312 212.152344 190.324219 254.316407zm-160.3125-420.375h20.152343c57.949219 0 107.714844-16.683594 144.902344-48.410157 37.1875 31.726563 86.953125 48.410157 144.902344 48.410157h20.15625v166.058593c0 80.773438-43.484375 181.511719-165.058594 224.222657-121.574218-42.710938-165.054687-143.449219-165.054687-224.222657zm0 0"></path><path d="m195.066406 391.148438c74.464844 0 135.046875-60.582032 135.046875-135.046876 0-74.464843-60.582031-135.046874-135.046875-135.046874s-135.046875 60.582031-135.046875 135.046874c0 74.464844 60.582031 135.046876 135.046875 135.046876zm0-240.082032c57.917969 0 105.035156 47.117188 105.035156 105.035156 0 57.917969-47.117187 105.035157-105.035156 105.035157-57.917968 0-105.035156-47.117188-105.035156-105.035157 0-57.917968 47.117188-105.035156 105.035156-105.035156zm0 0"></path><path d="m265.699219 236.703125-21.222657-21.222656-64.414062 64.414062-34.40625-34.402343-21.21875 21.21875 55.625 55.625zm0 0"></path></svg>