<svg xmlns="http://www.w3.org/2000/svg" id="Layer_3" height="512" viewBox="0 0 64 64" width="512" data-name="Layer 3"><path d="m32 1a31 31 0 1 0 31 31 31 31 0 0 0 -31-31zm0 60a29 29 0 1 1 29-29 29 29 0 0 1 -29 29z"></path><path d="m49.58 16.83 2.13-2.12-1.42-1.42-1.8 1.81-.2-.22-1.17-1.17-.22-.2 1.81-1.8-1.42-1.42-2.12 2.13a5.86 5.86 0 0 0 -2.17-.42v-2h-2v2.36a5.81 5.81 0 0 0 -2 1.23l-2.3-2.3-1.42 1.42 2.31 2.29-1.59 1.59-2.29-2.3-1.42 1.42 2.3 2.29-1.59 1.59-2.29-2.3-1.42 1.42 2.3 2.3a5.81 5.81 0 0 0 -1.23 2h-2.36v2h2a5.86 5.86 0 0 0 .42 2.17l-2.13 2.12 1.42 1.42 1.8-1.81.2.22 1.17 1.17.22.2-1.81 1.8 1.42 1.42 2.12-2.13a5.86 5.86 0 0 0 2.17.41v2h2v-2.36a5.81 5.81 0 0 0 2-1.23l2.3 2.3 1.42-1.42-2.31-2.29 1.59-1.59 2.29 2.3 1.42-1.42-2.3-2.29 1.59-1.59 2.29 2.3 1.42-1.42-2.3-2.29a5.81 5.81 0 0 0 1.23-2h2.36v-2h-2a5.86 5.86 0 0 0 -.42-2.17zm-15.29 12.05-1.17-1.17a3.84 3.84 0 0 1 0-5.42l7.17-7.17a3.84 3.84 0 0 1 5.42 0l1.17 1.17a3.84 3.84 0 0 1 0 5.42l-7.17 7.17a3.92 3.92 0 0 1 -5.42 0z"></path><path d="m41 16h2v2h-2z"></path><path d="m43 20h2v2h-2z"></path><path d="m37 20h2v2h-2z"></path><path d="m39 24h2v2h-2z"></path><path d="m35 25h2v2h-2z"></path><path d="m30.41 43 2.3-2.3-1.42-1.42-2.29 2.31-1.59-1.59 2.3-2.29-1.42-1.42-2.29 2.3-1.59-1.59 2.3-2.29-1.42-1.42-2.29 2.3a5.81 5.81 0 0 0 -2-1.23v-2.36h-2v2a5.86 5.86 0 0 0 -2.17.42l-2.12-2.13-1.42 1.42 1.81 1.8-.22.2-1.17 1.17-.2.22-1.8-1.81-1.42 1.42 2.13 2.12a5.86 5.86 0 0 0 -.42 2.17h-2v2h2.36a5.81 5.81 0 0 0 1.23 2l-2.3 2.3 1.42 1.42 2.29-2.31 1.59 1.59-2.3 2.29 1.42 1.42 2.29-2.3 1.59 1.59-2.3 2.29 1.42 1.42 2.3-2.3a5.81 5.81 0 0 0 2 1.23v2.36h2v-2a5.86 5.86 0 0 0 2.17-.42l2.12 2.13 1.42-1.42-1.81-1.8.22-.2 1.17-1.17.2-.22 1.8 1.81 1.42-1.42-2.13-2.12a5.86 5.86 0 0 0 .41-2.17h2v-2h-2.36a5.81 5.81 0 0 0 -1.23-2zm-1.53 6.7-1.17 1.17a3.92 3.92 0 0 1 -5.42 0l-7.17-7.17a3.84 3.84 0 0 1 0-5.42l1.17-1.17a3.84 3.84 0 0 1 5.42 0l7.17 7.17a3.84 3.84 0 0 1 0 5.42z"></path><path d="m19 38h2v2h-2z"></path><path d="m17 42h2v2h-2z"></path><path d="m23 42h2v2h-2z"></path><path d="m21 46h2v2h-2z"></path><path d="m25 47h2v2h-2z"></path><path d="m56 31a3 3 0 1 0 3 3 3 3 0 0 0 -3-3zm0 4a1 1 0 1 1 1-1 1 1 0 0 1 -1 1z"></path><path d="m45 36a4 4 0 1 0 4 4 4 4 0 0 0 -4-4zm0 6a2 2 0 1 1 2-2 2 2 0 0 1 -2 2z"></path><path d="m21 25a4 4 0 1 0 -4-4 4 4 0 0 0 4 4zm0-6a2 2 0 1 1 -2 2 2 2 0 0 1 2-2z"></path><path d="m40 50a3 3 0 1 0 3 3 3 3 0 0 0 -3-3zm0 4a1 1 0 1 1 1-1 1 1 0 0 1 -1 1z"></path><path d="m11 29a3 3 0 1 0 -3 3 3 3 0 0 0 3-3zm-3 1a1 1 0 1 1 1-1 1 1 0 0 1 -1 1z"></path><path d="m27 12a3 3 0 1 0 -3-3 3 3 0 0 0 3 3zm0-4a1 1 0 1 1 -1 1 1 1 0 0 1 1-1z"></path></svg>