<svg xmlns="http://www.w3.org/2000/svg" id="Capa_1" height="512" viewBox="0 0 512 512" width="512"><g><path d="m480.253 390.975c-19.745-30.047-46.988-53.369-79.114-67.832l-11.342-45.37c-2.597-10.389.675-21.618 8.539-29.306 28.771-28.128 45.272-67.341 45.272-107.658 0-77.642-63.167-140.809-140.809-140.809h-150.572v44.2c0 20.178 7.095 39.263 20.106 54.409v43.619l-44.103 73.466 22.993 22.993c-41.032 11.18-77.919 35.02-104.938 68.072-29.847 36.514-46.285 82.595-46.285 129.755v75.485h152.707l-14.963-108.696c-4.12-29.933 5.155-59.442 24.677-81.348 6.637 13.619 21.572 22.18 37.497 19.486l44.636-7.661 3.87 42.387-43.076 135.831h306.646l.006-14.991c.019-37.734-10.96-74.399-31.747-106.032zm-298.026-360.975h120.572c61.101 0 110.81 49.709 110.81 110.884.101 31.708-13.487 64.286-36.707 86.6l-17.842-24.663c7.333-14.871 6.664-32.37-2.403-47.151-10.931-18.032-32.784-27.506-53.792-22.161v-8.071c0-26.3-21.396-47.697-47.697-47.697h-61.158c-7.63-9.486-11.783-21.192-11.783-33.541zm-74.204 377.395 10.27 74.605h-88.293v-45.485c0-40.259 14.033-79.597 39.513-110.767 24.531-30.009 58.595-51.119 96.307-59.795l12.175 5.052c-51.529 31.936-76.958 78.884-69.972 136.39zm86.818-95.52c-5.082 1.231-6.705-6.734-7.128-11.018l34.918-24.612-.845-19.551-39.56-16.415v-13.015l-16.216-16.216 36.323-60.506v-42.802h52.834c9.758 0 17.697 7.939 17.697 17.697v45.789l37.508-8.662c9.896-2.285 17.188 3.046 20.712 8.792 1.692 2.758 6.573 12.522-1.661 22.357l-7.499 8.957 38.76 53.579c-2.298 9.361-2.38 19.245.009 28.8l9.835 39.342-93.704 32.899-5.348-58.569zm51.492 170.124 29.336-92.509 112.234-39.405c52.053 23.092 88.045 74.368 93.402 131.913h-234.972z"></path><path d="m66.25 421.747h30v30h-30z"></path><path d="m58.25 361.5h30v30h-30z"></path></g></svg>