<svg xmlns="http://www.w3.org/2000/svg" id="Capa_1" height="512" viewBox="0 0 512 512" width="512"><g><g><path d="m171.734 226.994c2.269 0 4.511-1.025 5.986-2.974l7.402-9.779c2.5-3.303 1.849-8.007-1.454-10.507-3.304-2.498-8.006-1.849-10.506 1.454l-7.402 9.779c-2.5 3.303-1.849 8.007 1.454 10.507 1.354 1.025 2.943 1.52 4.52 1.52z"></path><path d="m211.215 226.509c.874.331 1.771.487 2.653.487 3.028 0 5.88-1.848 7.016-4.848l3.701-9.779c1.466-3.873-.486-8.202-4.36-9.669-3.875-1.468-8.203.486-9.669 4.36l-3.701 9.779c-1.465 3.874.486 8.203 4.36 9.67z"></path><path d="m256 226.994c4.143 0 7.5-3.357 7.5-7.5v-9.779c0-4.143-3.357-7.5-7.5-7.5-4.142 0-7.5 3.357-7.5 7.5v9.779c0 4.143 3.358 7.5 7.5 7.5z"></path><path d="m301.443 207.061c-1.467-3.876-5.802-5.822-9.669-4.36-3.874 1.467-5.826 5.796-4.36 9.669l3.701 9.779c1.136 3.001 3.987 4.848 7.016 4.848.883 0 1.78-.157 2.653-.487 3.874-1.467 5.826-5.796 4.36-9.669z"></path><path d="m334.279 224.021c1.476 1.948 3.718 2.974 5.986 2.974 1.576 0 3.166-.495 4.521-1.52 3.303-2.5 3.953-7.204 1.454-10.507l-7.402-9.779c-2.5-3.302-7.203-3.953-10.507-1.454-3.303 2.5-3.953 7.204-1.454 10.507z"></path><path d="m135.271 285.492c2.324 0 4.615-1.077 6.082-3.103l9.216-12.73c2.429-3.355 1.678-8.045-1.677-10.474s-8.044-1.678-10.473 1.677l-9.216 12.73c-2.429 3.355-1.678 8.045 1.677 10.474 1.328.963 2.867 1.426 4.391 1.426z"></path><path d="m202.8 258.209c-3.893-1.411-8.195.604-9.605 4.499l-4.608 12.73c-1.41 3.895.604 8.195 4.5 9.604.843.306 1.705.45 2.552.45 3.068 0 5.948-1.897 7.053-4.949l4.608-12.73c1.409-3.894-.605-8.195-4.5-9.604z"></path><path d="m248.5 277.992c0 4.143 3.358 7.5 7.5 7.5 4.143 0 7.5-3.357 7.5-7.5v-12.73c0-4.143-3.357-7.5-7.5-7.5-4.142 0-7.5 3.357-7.5 7.5z"></path><path d="m309.31 280.544c1.104 3.052 3.983 4.949 7.052 4.949.848 0 1.71-.145 2.553-.45 3.895-1.409 5.909-5.71 4.499-9.604l-4.608-12.73c-1.41-3.895-5.711-5.91-9.604-4.499-3.895 1.409-5.909 5.71-4.499 9.604z"></path><path d="m370.647 282.39c1.467 2.026 3.758 3.103 6.081 3.103 1.524 0 3.063-.464 4.393-1.426 3.354-2.43 4.105-7.118 1.677-10.474l-9.217-12.73c-2.429-3.355-7.118-4.104-10.474-1.677-3.354 2.43-4.105 7.118-1.677 10.474z"></path><path d="m486.361 450.757h-6.537v-237.062c5.965 1.024 12.168.023 17.783-3.037 9.012-4.912 14.393-13.973 14.393-24.236 0-9.42-4.727-18.092-12.644-23.198l-48.744-31.43c-3.479-2.243-8.122-1.241-10.368 2.239-2.244 3.481-1.242 8.123 2.239 10.368l48.743 31.429c3.615 2.331 5.773 6.291 5.773 10.592 0 4.687-2.456 8.823-6.571 11.065-4.113 2.242-8.922 2.065-12.86-.475l-211.145-136.147c-6.332-4.082-14.515-4.08-20.846 0l-211.146 136.148c-3.938 2.538-8.746 2.717-12.86.474s-6.571-6.379-6.571-11.066c0-4.301 2.158-8.26 5.773-10.591l232.934-150.196c1.394-.898 3.193-.899 4.587.001l154.72 99.763c3.48 2.244 8.123 1.243 10.368-2.238 2.244-3.481 1.242-8.123-2.239-10.368l-154.719-99.763c-6.332-4.084-14.516-4.084-20.847-.001l-232.933 150.196c-7.917 5.105-12.644 13.777-12.644 23.197 0 17.917 16.219 29.999 32.176 27.259v176.195c0 4.143 3.358 7.5 7.5 7.5s7.5-3.357 7.5-7.5v-183.232l201.324-129.815v26.272c-10.746 3.23-18.599 13.211-18.599 24.995v4.078c-11.314.473-20.379 9.798-20.379 21.226 0 11.729 9.542 21.271 21.271 21.271h50.414c11.729 0 21.271-9.542 21.271-21.271 0-11.428-9.065-20.754-20.38-21.226v-4.078c0-11.784-7.853-21.764-18.599-24.995v-26.271l201.324 129.814v244.115h-68.627v-39.408c29.56 6.053 47.12-13.589 52.691-43.879.565-3.069-.595-6.19-3.029-8.146-2.427-1.95-5.715-2.408-8.579-1.2-14.415 6.082-27.588-2.015-41.083 6.651v-3.081c.444-3.79 1.597-19.661-8.521-30.009-15.223-15.57-37.233-3.248-51.297-7.276-2.99-.851-6.196.004-8.369 2.23-2.179 2.235-2.953 5.473-2.022 8.45l.001.001c11.064 35.351 33.298 44.438 55.209 37.7v77.967h-116.314v-39.408c29.716 6.085 47.159-13.802 52.691-43.883.001-.002.001-.004.001-.006.562-3.068-.601-6.188-3.035-8.14-2.427-1.947-5.714-2.402-8.574-1.197-14.413 6.082-27.589-2.014-41.083 6.651v-3.081c.444-3.792 1.596-19.662-8.522-30.01-15.22-15.567-37.183-3.251-51.295-7.274-6.45-1.837-12.407 4.24-10.392 10.68v.001c11.02 35.207 33.005 44.528 55.209 37.7v77.967h-116.315v-39.408c29.565 6.052 47.12-13.592 52.692-43.883v-.001c1.217-6.624-5.427-11.953-11.609-9.342-14.429 6.088-27.534-2.056-41.083 6.65v-3.084c2.707-23.147-10.268-40.94-35.999-37.818-16.72 2.036-22.458.926-23.819.538-2.989-.852-6.197.002-8.37 2.229-2.179 2.234-2.954 5.473-2.022 8.45v.001c11.065 35.351 33.298 44.438 55.209 37.7v77.967h-71.391v-25.647c0-4.143-3.358-7.5-7.5-7.5s-7.5 3.357-7.5 7.5v25.647h-6.538c-14.137 0-25.638 11.501-25.638 25.639s11.501 25.639 25.638 25.639h460.723c14.137 0 25.639-11.501 25.639-25.639s-11.502-25.639-25.639-25.639zm-205.154-303.629c3.458 0 6.271 2.813 6.271 6.271s-2.813 6.271-6.271 6.271h-50.414c-3.458 0-6.271-2.813-6.271-6.271s2.813-6.271 6.271-6.271zm-14.108-19.033v4.033h-.03-22.139-.03v-4.033c0-3.195 1.427-6.174 3.64-8.195h.011c1.969-1.797 4.578-2.904 7.447-2.904s5.479 1.107 7.447 2.904h.012c2.23 2.036 3.642 5.018 3.642 8.195zm135.339 250.798c6.351-6.33 12.057-1.539 29.159-3.903-5.759 17.711-17.266 26.129-35.31 20.957.422-5.35 1.931-12.852 6.151-17.054zm-131.339.024c6.362-6.371 12.012-1.557 29.185-3.928-5.758 17.71-17.266 26.129-35.31 20.957.425-5.288 1.929-12.827 6.125-17.029zm-131.29-.024c6.24-6.214 12.681-1.629 29.159-3.903-6.289 19.35-18.755 25.703-35.309 20.957.421-5.351 1.93-12.852 6.15-17.054zm204.047-38.84h.004c18.073 0 37.533-8.69 37.606 16.609-17.283 8.034-29.777.686-37.61-16.609zm-131.314 0h.003c18.131 0 37.531-8.682 37.607 16.609-17.318 8.044-29.793.652-37.61-16.609zm-131.315 0h.003c18.833 0 37.534-8.567 37.607 16.611-17.16 7.971-29.71.832-37.61-16.611zm405.134 146.981h-460.723c-5.866 0-10.638-4.772-10.638-10.639s4.772-10.639 10.638-10.639h460.723c5.866 0 10.639 4.772 10.639 10.639s-4.772 10.639-10.639 10.639z"></path></g></g></svg>