<svg xmlns="http://www.w3.org/2000/svg" id="Capa_1" height="512" viewBox="0 0 512.387 512.387" width="512"><path d="m404.004 497.387h-4.127l-21.627-164.264 9.768-9.168c2.851-2.675 4.562-6.298 4.82-10.203l10.322-156.802c.272-4.133-2.857-7.705-6.991-7.977-4.113-.271-7.704 2.857-7.976 6.991l-9.86 149.795h-52.877c-4.143 0-7.5 3.358-7.5 7.5s3.357 7.5 7.5 7.5h44.048l-67.065 62.944h-14.176c-4.143 0-7.5 3.358-7.5 7.5s3.357 7.5 7.5 7.5h9.645v20.604c0 .208-.17.378-.378.378h-82.674c-.208 0-.378-.169-.378-.378v-20.604h45.826c4.143 0 7.5-3.358 7.5-7.5s-3.357-7.5-7.5-7.5h-50.357l-67.066-62.944h150.612c4.143 0 7.5-3.358 7.5-7.5s-3.357-7.5-7.5-7.5h-57.353v-220.787h156.321c.049 0 .164 0 .276.12s.104.235.102.284l-2.547 38.688c-.272 4.133 2.857 7.705 6.991 7.977 4.09.26 7.703-2.858 7.976-6.991l2.547-38.688c.278-4.229-1.224-8.428-4.12-11.521s-6.987-4.867-11.225-4.867h-17.568l-17.531-27.017c-3.16-4.869-8.514-7.776-14.318-7.776h-13.814v-17.146c0-9.945-8.09-18.035-18.035-18.035h-13.764c-4.143 0-7.5 3.358-7.5 7.5s3.357 7.5 7.5 7.5h13.764c1.674 0 3.035 1.361 3.035 3.035v17.144h-113.074v-17.144c0-1.673 1.361-3.035 3.035-3.035h61.278c4.143 0 7.5-3.358 7.5-7.5s-3.357-7.5-7.5-7.5h-61.278c-9.944 0-18.035 8.09-18.035 18.035v17.144h-13.815c-5.805 0-11.158 2.907-14.318 7.777l-17.531 27.016h-20.568c-4.237 0-8.328 1.774-11.225 4.867-2.896 3.093-4.398 7.293-4.12 11.522l14.969 227.395c.258 3.902 1.97 7.525 4.82 10.201l9.768 9.168-21.626 164.262h-4.127c-4.143 0-7.5 3.358-7.5 7.5s3.357 7.5 7.5 7.5h56.949c4.143 0 7.5-3.358 7.5-7.5s-3.357-7.5-7.5-7.5h-4.559l30.126-110.989 8.579 8.052v24.858c0 8.479 6.898 15.378 15.378 15.378h82.674c8.479 0 15.378-6.898 15.378-15.378v-24.858l8.579-8.052 30.126 110.989h-4.559c-4.143 0-7.5 3.358-7.5 7.5s3.357 7.5 7.5 7.5h56.949c4.143 0 7.5-3.358 7.5-7.5s-3.357-7.5-7.499-7.5zm-228.511-307.788v-25.494h45.648v25.494zm45.649 15v25.493h-45.648v-25.493zm-45.649-55.494v-25.493h45.648v25.493zm0 95.987h45.648v25.493h-45.648zm45.649-136.48h-45.648v-23.64h45.648zm-45.649 197.148v-20.174h45.648v20.174zm-4.889-254.638c.384-.591 1.032-.943 1.736-.943h170.705c.704 0 1.353.353 1.736.942l12.233 18.851h-198.642zm-51.058 34.253c-.003-.049-.011-.164.102-.284.112-.12.228-.12.276-.12h40.569v220.789h-26.44zm25.684 412.012h-17.591l19.963-151.626 30.911 29.011zm188.645-122.616 30.91-29.011 19.963 151.626h-17.591z"></path></svg>