<svg xmlns="http://www.w3.org/2000/svg" height="512pt" viewBox="-74 0 512 512" width="512pt"><path d="m334 92h-58.023438c-1.070312-50.910156-42.8125-92-93.976562-92s-92.90625 41.089844-93.976562 92h-58.023438c-16.542969 0-30 13.457031-30 30v198.667969c0 5.519531 4.476562 10 10 10s10-4.480469 10-10v-198.667969c0-5.515625 4.484375-10 10-10h58v10.5c-16.117188 4.402344-28 19.160156-28 36.652344 0 20.953125 17.046875 38 38 38s38-17.046875 38-38c0-17.492188-11.882812-32.25-28-36.652344v-10.5h148v10.5c-16.117188 4.402344-28 19.160156-28 36.652344 0 20.953125 17.046875 38 38 38s38-17.046875 38-38c0-17.492188-11.882812-32.25-28-36.652344v-10.5h58c5.515625 0 10 4.484375 10 10v62.332031c0 5.523438 4.476562 10 10 10s10-4.476562 10-10v-62.332031c0-16.542969-13.457031-30-30-30zm-218 67.152344c0 9.925781-8.074219 18-18 18s-18-8.074219-18-18c0-6.226563 3.179688-11.722656 8-14.953125v14.953125c0 5.523437 4.476562 10 10 10s10-4.476563 10-10v-14.953125c4.820312 3.230469 8 8.726562 8 14.953125zm168 0c0 9.925781-8.074219 18-18 18s-18-8.074219-18-18c0-6.226563 3.179688-11.722656 8-14.953125v14.953125c0 5.523437 4.476562 10 10 10s10-4.476563 10-10v-14.953125c4.820312 3.230469 8 8.726562 8 14.953125zm-102-139.152344c40.132812 0 72.882812 32.121094 73.949219 72h-147.898438c1.066407-39.878906 33.816407-72 73.949219-72zm0 0"></path><path d="m354 213.601562c-2.628906 0-5.210938 1.070313-7.070312 2.929688-1.859376 1.859375-2.929688 4.4375-2.929688 7.070312 0 2.628907 1.070312 5.207032 2.929688 7.070313 1.859374 1.859375 4.441406 2.929687 7.070312 2.929687s5.210938-1.070312 7.070312-2.929687c1.859376-1.863281 2.929688-4.441406 2.929688-7.070313 0-2.632812-1.070312-5.210937-2.929688-7.070312-1.859374-1.859375-4.441406-2.929688-7.070312-2.929688zm0 0"></path><path d="m354 252.332031c-5.523438 0-10 4.476563-10 10v219.667969c0 5.515625-4.484375 10-10 10h-304c-5.515625 0-10-4.484375-10-10v-80.101562c0-5.523438-4.476562-10-10-10s-10 4.476562-10 10v80.101562c0 16.542969 13.457031 30 30 30h304c16.542969 0 30-13.457031 30-30v-219.667969c0-5.523437-4.476562-10-10-10zm0 0"></path><path d="m176.667969 246.128906h-107c-5.523438 0-10 4.476563-10 10v92.269532c0 31.609374 23.21875 57.894531 53.5 62.707031v26.894531h-16.835938c-5.519531 0-10 4.476562-10 10s4.480469 10 10 10h53.667969c5.523438 0 10-4.476562 10-10s-4.476562-10-10-10h-16.832031v-26.914062c14.460937-2.320313 27.492187-9.585938 37.078125-20.152344 4.726562 9.875 13.75 17.304687 24.632812 19.882812-1 3.335938-1.546875 6.863282-1.546875 10.515625 0 20.21875 16.449219 36.667969 36.667969 36.667969s36.667969-16.449219 36.667969-36.667969c0-3.652343-.546875-7.179687-1.546875-10.515625 16.15625-3.828125 28.210937-18.363281 28.210937-35.667968 0-3.664063-.546875-7.199219-1.550781-10.539063 16.15625-3.828125 28.21875-18.363281 28.21875-35.671875 0-20.21875-16.449219-36.664062-36.667969-36.664062-10.5 0-19.976562 4.441406-26.664062 11.539062-4.402344-4.671875-10.011719-8.1875-16.328125-10.046875.921875-5.988281 3.703125-11.515625 8.070312-15.882813l1.996094-1.992187c3.902344-3.90625 3.902344-10.238281 0-14.144531-3.90625-3.902344-10.238281-3.902344-14.144531 0l-1.992188 1.996094c-8.113281 8.113281-13.007812 18.582031-14.050781 29.867187-6.542969 1.8125-12.355469 5.394531-16.886719 10.203125-4.480469-4.753906-10.210937-8.308594-16.664062-10.140625v-37.542969c0-5.523437-4.480469-10-10-10zm-10 20v27.539063c-8.097657 2.300781-15.058594 7.316406-19.839844 14h-67.160156v-41.539063zm-43.5 125.769532c-23.988281 0-43.5-19.515626-43.5-43.5v-20.730469h60.363281c-.011719.421875-.03125.84375-.03125 1.269531 0 15.777344 10.015625 29.253906 24.019531 34.417969-6.179687 16.859375-22.453125 28.542969-40.851562 28.542969zm63.5-16.75c0-9.191407 7.476562-16.667969 16.664062-16.667969 9.191407 0 16.667969 7.476562 16.667969 16.667969 0 9.1875-7.476562 16.664062-16.667969 16.664062-9.1875 0-16.664062-7.476562-16.664062-16.664062zm43.332031 62.851562c-9.191406 0-16.667969-7.476562-16.667969-16.667969 0-9.1875 7.476563-16.664062 16.667969-16.664062s16.667969 7.476562 16.667969 16.664062c0 9.191407-7.476563 16.667969-16.667969 16.667969zm26.667969-46.1875c-9.191407 0-16.667969-7.476562-16.667969-16.664062 0-9.191407 7.476562-16.667969 16.667969-16.667969 9.1875 0 16.664062 7.476562 16.664062 16.667969 0 9.1875-7.476562 16.664062-16.664062 16.664062zm26.664062-79.542969c9.191407 0 16.667969 7.476563 16.667969 16.667969s-7.476562 16.667969-16.667969 16.667969c-9.1875 0-16.664062-7.476563-16.664062-16.667969s7.476562-16.667969 16.664062-16.667969zm-53.332031 0c9.191406 0 16.667969 7.476563 16.667969 16.667969s-7.476563 16.667969-16.667969 16.667969-16.667969-7.476563-16.667969-16.667969 7.476563-16.667969 16.667969-16.667969zm-36.667969 16.667969c0 9.191406-7.476562 16.667969-16.664062 16.667969-9.191407 0-16.667969-7.476563-16.667969-16.667969 0-9.1875 7.476562-16.664062 16.667969-16.664062 9.1875-.003907 16.664062 7.472656 16.664062 16.664062zm0 0"></path><path d="m10 373.671875c2.628906 0 5.210938-1.070313 7.070312-2.933594 1.859376-1.859375 2.929688-4.4375 2.929688-7.066406 0-2.640625-1.070312-5.210937-2.929688-7.070313-1.859374-1.871093-4.441406-2.929687-7.070312-2.929687s-5.210938 1.058594-7.070312 2.929687c-1.859376 1.859376-2.929688 4.4375-2.929688 7.070313 0 2.628906 1.070312 5.207031 2.929688 7.066406 1.859374 1.863281 4.441406 2.933594 7.070312 2.933594zm0 0"></path></svg>