<svg xmlns="http://www.w3.org/2000/svg" id="Layer_1" data-name="Layer 1" viewBox="0 0 512 512" width="512" height="512"><path d="M82.015,232.558a6,6,0,0,0-5.788,6.2l2.964,85.613a6,6,0,0,0,5.993,5.792c.07,0,.14,0,.212,0a6,6,0,0,0,5.788-6.2l-2.965-85.613A5.983,5.983,0,0,0,82.015,232.558Z"></path><path d="M81.51,224.076l.212,0a6,6,0,0,0,5.788-6.205l-.186-5.353a6,6,0,1,0-11.992.416l.186,5.353A6,6,0,0,0,81.51,224.076Z"></path><path d="M436.744,385H75.256c-14.435,0-26.179,12.061-26.179,26.5S60.821,438,75.256,438H436.744c14.435,0,26.179-12.061,26.179-26.5S451.179,385,436.744,385ZM88,426H75.256a14.5,14.5,0,0,1,0-29H88Zm40,0H100V397h28Zm41,0H140V397h29Zm40,0H181V397h28Zm41,0H221V397h29Zm41,0H262V397h29Zm40,0H303V397h28Zm41,0H343V397h29Zm40,0H384V397h28Zm24.744,0H424V397h12.744a14.5,14.5,0,0,1,0,29Z"></path><path d="M457.939,364.006A30.576,30.576,0,0,0,428.332,340H152.311L113.447,159.849l12.738-10.477,23.387,23.4a12.084,12.084,0,0,0,17.093,0l13.856-13.863a6,6,0,0,0,0-8.483l-95.1-95.136a6,6,0,0,0-8.487,0L63.079,69.153a12.1,12.1,0,0,0,0,17.086l23.394,23.4L75.208,123.348a27.506,27.506,0,0,0-3.874,5.969A21.908,21.908,0,0,0,54,150.551V364.19a47.048,47.048,0,0,0-42.995,47.525C11.385,437.52,32.965,458,58.772,458H453.893A47.159,47.159,0,0,0,501,410.172C500.639,385.956,481.61,366.318,457.939,364.006ZM71.565,77.755a.083.083,0,0,1,0-.118l9.617-9.62L167.8,154.666l-9.616,9.62a.1.1,0,0,1-.119,0Zm12.914,53.212L95,118.17l22.666,22.675-12.8,10.526a14.491,14.491,0,0,1-20.388-20.4ZM66,150.551a9.846,9.846,0,0,1,3.2-7.027A26.6,26.6,0,0,0,102.436,165.8L145.205,364H66ZM453.361,446H58.107a35.05,35.05,0,0,1-35.1-35.653C23.351,391.167,39.456,376,58.639,376H175a6,6,0,0,0,0-12H157l-2-12H428.332c7.709,0,14.309,5.242,17.012,12H215a6,6,0,0,0,0,12H453.893a35.05,35.05,0,0,1,35.1,35.653C488.649,430.833,472.544,446,453.361,446Z"></path></svg>