<svg xmlns="http://www.w3.org/2000/svg" id="Layer_1" height="512" viewBox="0 0 511.976 511.976" width="512"><g><path d="m436.994 74.843c-83.053-85.844-225.308-99.51-323.426-31.737-3.44 2.308-4.359 6.967-2.053 10.406 2.308 3.441 6.967 4.359 10.406 2.053 37.635-25.238 81.241-39.198 126.553-40.587v45.026c-104.614 3.955-188.5 90.294-188.5 195.858-1.953 152.045 173.371 248.665 300.643 165.656 3.498-2.215 4.537-6.849 2.319-10.347-2.219-3.5-6.853-4.537-10.35-2.32-117.527 76.637-279.431-12.6-277.611-152.992-.001-99.8 81.195-180.996 180.999-180.996 160.499-.996 242.271 199.168 126.432 310.381-2.962 2.896-3.017 7.644-.121 10.605 2.894 2.964 7.644 3.016 10.605.121 36.302-35.482 57.064-82.327 58.944-132.607h45.026c-1.338 126.576-114.156 236.104-240.888 233.498-172.807 1.508-291.589-181.739-220.267-338.919 13.289-29.836 32.214-56.292 56.25-78.632 3.033-2.819 3.207-7.565.387-10.599-2.819-3.033-7.564-3.209-10.6-.388-169.417 158.884-58.044 442.52 174.234 443.539 227.216-.214 341.545-276.198 181.018-437.019zm-173.52-14.838v-45.028c123.771 1.307 232.078 109.62 233.386 233.386h-45.028c-3.861-102.125-86.233-184.497-188.358-188.358z"></path><path d="m324.444 318.304c3.756 1.574 8.237-.247 9.818-4.014l46.38-110.515c1.603-3.819-.194-8.215-4.014-9.818-3.818-1.6-8.215.194-9.818 4.014l-46.38 110.515c-1.602 3.819.194 8.215 4.014 9.818z"></path><path d="m346.872 217.287c0-13.186-9.701-23.913-21.625-23.913-28.635 1.164-28.626 46.668 0 47.826 11.924 0 21.625-10.728 21.625-23.913zm-28.249 0c.429-11.789 12.82-11.786 13.249 0-.429 11.788-12.82 11.787-13.249 0z"></path><path d="m375.825 318.888c11.924 0 21.624-10.728 21.624-23.913-1.118-31.693-42.135-31.685-43.249 0 0 13.186 9.701 23.913 21.625 23.913zm0-32.826c8.743.51 8.739 17.319 0 17.826-8.745-.51-8.741-17.318 0-17.826z"></path><path d="m254.123 305.995c-14.651.236-27.052-11.796-27.052-26.496 0-4.143-3.357-7.5-7.5-7.5s-7.5 3.357-7.5 7.5c0 22.935 19.421 41.965 42.354 41.492 21.641-.436 39.471-17.696 40.592-39.295 1.623-30.047-27.095-49.385-55.112-42.447l5.158-31.134h35.41c9.906-.302 9.919-14.694 0-15h-41.769c-3.669 0-6.8 2.654-7.399 6.274l-8.274 49.943c-1.215 7.33 6.426 9.85 11.92 7.382 12.21-5.495 28.051-5.767 37.84 4.544 5.055 5.324 7.629 12.307 7.247 19.66-.715 13.783-12.098 24.797-25.915 25.077z"></path><path d="m173.117 250.806c-17.67 25.246-28.22 39.061-33.887 46.481-6.739 8.824-8.551 11.196-7.173 15.672.771 2.509 2.689 4.439 5.262 5.297 5.717 1.477 40.826.648 59.117.559 4.143-.052 7.458-3.451 7.405-7.594-.048-4.142-3.462-7.461-7.593-7.404-13.6.17-31.551.3-43.314.237 6.059-7.95 16.332-21.586 32.472-44.646 6.729-9.612 11.096-18.609 12.981-26.74 4.943-21.476-14.006-41.941-35.204-41.941-17.139 0-31.973 12.19-35.271 28.987-.798 4.064 1.85 8.007 5.914 8.805 4.067.797 8.007-1.85 8.805-5.914 6.238-26.331 43.891-19.908 41.062 7.024-1.502 6.171-5.059 13.294-10.576 21.177z"></path><path d="m464.993 226.887c.512 3.711 3.684 6.476 7.43 6.476h.022c4.668.054 8.292-4.394 7.348-8.952-13.908-99.441-92.911-178.448-192.351-192.364-10.075-1.638-12.546 13.053-2.492 14.798 93.156 12.849 167.193 86.886 180.043 180.042z"></path></g></svg>