<svg id="a" xmlns="http://www.w3.org/2000/svg" viewBox="0 0 64 64"><path d="M62,54h-6v-10h4c.35,0,.67-.18,.85-.47,.18-.29,.2-.66,.04-.97l-2.28-4.55h.38c.35,0,.67-.18,.85-.47,.18-.29,.2-.66,.04-.97l-2.28-4.55h.38c.35,0,.67-.18,.85-.47,.18-.29,.2-.66,.04-.97l-3-6c-.34-.68-1.45-.68-1.79,0l-3,6c-.15,.31-.14,.68,.04,.97,.18,.29,.5,.47,.85,.47h.38l-2.28,4.55c-.15,.31-.14,.68,.04,.97,.18,.29,.5,.47,.85,.47h.38l-2.28,4.55c-.15,.31-.14,.68,.04,.97,.18,.29,.5,.47,.85,.47h4v10h-1.45l-7.55-12.09v-13.91h4c.35,0,.67-.18,.85-.47,.18-.29,.2-.66,.04-.97l-2.28-4.55h.38c.35,0,.67-.18,.85-.47,.18-.29,.2-.66,.04-.97l-2.28-4.55h.38c.35,0,.67-.18,.85-.47,.18-.29,.2-.66,.04-.97l-3-6c-.34-.68-1.45-.68-1.79,0l-3,6c-.15,.31-.14,.68,.04,.97,.18,.29,.5,.47,.85,.47h.38l-2.28,4.55c-.15,.31-.14,.68,.04,.97,.18,.29,.5,.47,.85,.47h.38l-2.28,4.55c-.15,.31-.14,.68,.04,.97,.18,.29,.5,.47,.85,.47h4v10.71l-10.15-16.24c-.37-.58-1.33-.58-1.7,0l-10.15,16.24v-10.71h4c.35,0,.67-.18,.85-.47,.18-.29,.2-.66,.04-.97l-2.28-4.55h.38c.35,0,.67-.18,.85-.47,.18-.29,.2-.66,.04-.97l-2.28-4.55h.38c.35,0,.67-.18,.85-.47,.18-.29,.2-.66,.04-.97l-3-6c-.34-.68-1.45-.68-1.79,0l-3,6c-.15,.31-.14,.68,.04,.97,.18,.29,.5,.47,.85,.47h.38l-2.28,4.55c-.15,.31-.14,.68,.04,.97,.18,.29,.5,.47,.85,.47h.38l-2.28,4.55c-.15,.31-.14,.68,.04,.97,.18,.29,.5,.47,.85,.47h4v13.91l-7.55,12.09h-1.45v-10h4c.35,0,.67-.18,.85-.47,.18-.29,.2-.66,.04-.97l-2.28-4.55h.38c.35,0,.67-.18,.85-.47,.18-.29,.2-.66,.04-.97l-2.28-4.55h.38c.35,0,.67-.18,.85-.47,.18-.29,.2-.66,.04-.97l-3-6c-.34-.68-1.45-.68-1.79,0l-3,6c-.15,.31-.14,.68,.04,.97,.18,.29,.5,.47,.85,.47h.38l-2.28,4.55c-.15,.31-.14,.68,.04,.97,.18,.29,.5,.47,.85,.47h.38l-2.28,4.55c-.15,.31-.14,.68,.04,.97,.18,.29,.5,.47,.85,.47h4v10H2v2H62v-2ZM9,27.24l1.38,2.76h-.38c-.35,0-.67,.18-.85,.47-.1,.16-.15,.34-.15,.52,0-.18-.05-.36-.15-.52-.18-.29-.5-.47-.85-.47h-.38l1.38-2.76Zm-3.38,14.76l2.28-4.55c.15-.31,.14-.68-.04-.97-.18-.29-.5-.47-.85-.47h-.38l2.28-4.55c.07-.14,.1-.29,.11-.45,0,.15,.04,.31,.11,.45l2.28,4.55h-.38c-.35,0-.67,.18-.85,.47-.18,.29-.2,.66-.04,.97l2.28,4.55H5.62ZM44,11.24l1.38,2.76h-.38c-.35,0-.67,.18-.85,.47-.1,.16-.15,.34-.15,.52,0-.18-.05-.36-.15-.52-.18-.29-.5-.47-.85-.47h-.38l1.38-2.76Zm-3.38,14.76l2.28-4.55c.15-.31,.14-.68-.04-.97-.18-.29-.5-.47-.85-.47h-.38l2.28-4.55c.07-.14,.1-.29,.11-.45,0,.15,.04,.31,.11,.45l2.28,4.55h-.38c-.35,0-.67,.18-.85,.47-.18,.29-.2,.66-.04,.97l2.28,4.55h-6.76Zm-7.62,.49l14.59,23.34-7.83-2.02c-3.98-1.03-6.75-4.62-6.75-8.72v-12.59Zm-13-15.25l1.38,2.76h-.38c-.35,0-.67,.18-.85,.47-.1,.16-.15,.34-.15,.52,0-.18-.05-.36-.15-.52-.18-.29-.5-.47-.85-.47h-.38l1.38-2.76Zm-3.38,14.76l2.28-4.55c.15-.31,.14-.68-.04-.97-.18-.29-.5-.47-.85-.47h-.38l2.28-4.55c.07-.14,.1-.29,.11-.45,0,.15,.04,.31,.11,.45l2.28,4.55h-.38c-.35,0-.67,.18-.85,.47-.18,.29-.2,.66-.04,.97l2.28,4.55h-6.76Zm14.38,.49v12.59c0,4.1-2.78,7.69-6.75,8.72l-7.84,2.02,14.59-23.34Zm-12,27.51h-5.2l1.07-1.71,4.13-1.07v2.78Zm24,0H21v-3.29l3.75-.97c3.29-.86,5.9-3.14,7.25-6.09,1.35,2.94,3.96,5.23,7.25,6.09l3.75,.97v3.29Zm2,0v-2.78l4.13,1.07,1.07,1.71h-5.2Zm10-26.76l1.38,2.76h-.38c-.35,0-.67,.18-.85,.47-.1,.16-.15,.34-.15,.52,0-.18-.05-.36-.15-.52-.18-.29-.5-.47-.85-.47h-.38l1.38-2.76Zm-3.38,14.76l2.28-4.55c.15-.31,.14-.68-.04-.97-.18-.29-.5-.47-.85-.47h-.38l2.28-4.55c.07-.14,.1-.29,.11-.45,0,.15,.04,.31,.11,.45l2.28,4.55h-.38c-.35,0-.67,.18-.85,.47-.18,.29-.2,.66-.04,.97l2.28,4.55h-6.76Z" id="id_101" style="fill: rgb(66, 177, 199);"></path><rect x="31" y="9" width="2" height="2" id="id_102"></rect><rect x="31" y="13" width="2" height="2" id="id_103"></rect><rect x="33" y="11" width="2" height="2" id="id_104"></rect><rect x="29" y="11" width="2" height="2" id="id_105"></rect><rect x="53" y="16" width="2" height="2" id="id_106"></rect><rect x="53" y="20" width="2" height="2" id="id_107"></rect><rect x="55" y="18" width="2" height="2" id="id_108"></rect><rect x="51" y="18" width="2" height="2" id="id_109"></rect><rect x="9" y="16" width="2" height="2" id="id_110"></rect><rect x="9" y="20" width="2" height="2" id="id_111"></rect><rect x="11" y="18" width="2" height="2" id="id_112"></rect><rect x="7" y="18" width="2" height="2" id="id_113"></rect></svg>