<?xml version="1.0" standalone="no"?>
<!DOCTYPE svg PUBLIC "-//W3C//DTD SVG 20010904//EN"
 "http://www.w3.org/TR/2001/REC-SVG-20010904/DTD/svg10.dtd">
<svg version="1.0" xmlns="http://www.w3.org/2000/svg"
 width="128.000000pt" height="128.000000pt" viewBox="0 0 128.000000 128.000000"
 preserveAspectRatio="xMidYMid meet">
<metadata>
Created by potrace 1.16, written by Peter Selinger 2001-2019
</metadata>
<g transform="translate(0.000000,128.000000) scale(0.100000,-0.100000)"
fill="#000000" stroke="none">
<path d="M0 640 l0 -640 640 0 640 0 0 640 0 640 -640 0 -640 0 0 -640z m660
565 c0 -32 2 -35 30 -35 23 0 30 -4 30 -20 0 -16 -7 -20 -30 -20 l-30 0 1 -67
0 -68 90 -69 89 -69 0 -141 0 -142 74 -42 c40 -23 76 -42 80 -42 3 0 6 87 6
193 l0 193 40 39 c37 36 40 43 40 92 0 50 -1 53 -25 53 -18 0 -25 5 -25 20 0
15 7 20 25 20 21 0 25 5 25 30 0 23 4 30 20 30 16 0 20 -7 20 -30 0 -25 4 -30
25 -30 18 0 25 -5 25 -20 0 -15 -7 -20 -25 -20 -24 0 -25 -3 -25 -53 0 -49 3
-56 40 -92 l40 -39 0 -358 c0 -351 0 -358 20 -358 18 0 20 -7 20 -60 l0 -60
-600 0 -600 0 0 60 c0 53 2 60 20 60 20 0 20 7 20 358 l0 358 40 39 c37 36 40
43 40 92 0 50 -1 53 -25 53 -18 0 -25 5 -25 20 0 15 7 20 25 20 21 0 25 5 25
30 0 23 4 30 20 30 16 0 20 -7 20 -30 0 -25 4 -30 25 -30 18 0 25 -5 25 -20 0
-15 -7 -20 -25 -20 -24 0 -25 -3 -25 -53 0 -49 3 -56 40 -92 l40 -39 0 -198 0
-198 40 25 c22 14 42 25 45 25 3 0 21 10 40 23 l35 22 0 142 0 142 28 20 c40
31 44 34 78 61 17 14 41 32 53 40 18 12 21 24 21 82 l0 68 -30 0 c-23 0 -30 4
-30 20 0 16 7 20 30 20 28 0 30 3 30 35 0 28 4 35 20 35 16 0 20 -7 20 -35z"/>
<path d="M571 894 c-30 -25 -62 -49 -73 -55 -16 -9 -18 -23 -18 -125 l0 -114
43 21 c23 12 54 30 69 40 36 26 61 24 111 -8 23 -15 54 -33 70 -40 l27 -12 0
113 0 112 -47 35 c-25 19 -60 44 -77 57 -17 12 -35 22 -41 22 -5 0 -34 -21
-64 -46z m126 -36 c30 -28 32 -89 3 -118 -28 -28 -87 -27 -117 2 -30 28 -32
89 -3 118 28 28 87 27 117 -2z"/>
<path d="M120 460 l0 -300 60 0 60 0 0 300 0 300 -60 0 -60 0 0 -300z"/>
<path d="M1040 460 l0 -300 60 0 60 0 0 300 0 300 -60 0 -60 0 0 -300z"/>
<path d="M595 606 c-21 -11 -44 -25 -50 -29 -5 -5 -66 -41 -135 -81 l-125 -72
-3 -132 c-2 -127 -2 -132 18 -132 19 0 20 6 20 98 0 98 0 98 33 130 18 18 40
32 48 32 8 0 29 -15 47 -33 32 -32 32 -34 32 -130 0 -90 1 -97 20 -97 19 0 20
7 20 128 l0 128 53 52 c29 29 59 52 68 52 8 0 38 -24 67 -53 l52 -53 0 -127
c0 -120 1 -127 20 -127 19 0 20 7 20 98 0 98 0 98 33 130 18 18 40 32 48 32 8
0 29 -15 47 -33 32 -32 32 -34 32 -130 0 -90 1 -97 20 -97 19 0 20 7 20 129 0
138 2 134 -61 169 -19 11 -95 54 -167 96 -72 42 -133 76 -134 75 -2 -1 -21
-11 -43 -23z"/>
<path d="M597 422 l-37 -38 0 -112 0 -112 80 0 80 0 0 113 0 113 -38 37 c-21
20 -40 37 -43 37 -3 0 -22 -17 -42 -38z"/>
<path d="M80 100 c0 -20 7 -20 560 -20 553 0 560 0 560 20 0 20 -7 20 -560 20
-553 0 -560 0 -560 -20z"/>
</g>
</svg>
