<svg version="1.1" id="Layer_1" xmlns="http://www.w3.org/2000/svg" xmlns:xlink="http://www.w3.org/1999/xlink" x="0px" y="0px"
	 width="100%" viewBox="0 0 512 512" enable-background="new 0 0 512 512" xml:space="preserve">
<path fill="#000000" opacity="1.000000" stroke="none" 
	d="
M513.000000,180.000000 
	C513.000000,291.306274 513.000000,402.112549 513.000000,512.959412 
	C342.402039,512.959412 171.804092,512.959412 1.103063,512.959412 
	C1.103063,342.443756 1.103063,171.887421 1.103063,1.165548 
	C171.666534,1.165548 342.333252,1.165548 513.000000,1.165548 
	C513.000000,60.529209 513.000000,120.014603 513.000000,180.000000 
M138.921753,371.669708 
	C139.160217,364.017822 137.845993,355.908020 139.941055,348.803650 
	C145.286926,330.675842 152.112274,312.981720 158.500015,295.169403 
	C158.953751,293.904175 160.663376,293.089355 161.789032,292.065125 
	C162.525452,293.506927 164.022583,295.029419 163.879501,296.377899 
	C162.581253,308.614685 162.163956,321.113831 159.193436,332.960632 
	C155.661865,347.045044 157.835480,358.624390 167.606323,369.269073 
	C172.230164,374.306458 176.279282,379.950806 180.048325,385.675934 
	C186.713409,395.800201 192.130264,406.710999 190.775375,419.175110 
	C190.033218,426.002472 186.822495,432.532562 185.052429,439.282532 
	C179.632401,459.951324 174.305954,480.645355 169.100861,501.369202 
	C168.024368,505.655273 170.270874,509.361359 173.640152,509.974670 
	C177.917435,510.753265 180.853073,508.553864 182.012756,503.783325 
	C185.634171,488.886230 189.038147,473.930573 192.989456,459.121185 
	C196.134155,447.334900 199.841400,435.692383 203.568756,424.072632 
	C204.418671,421.423157 206.342117,419.106873 207.837234,416.677734 
	C211.844788,410.166595 216.881912,404.070068 219.645920,397.072510 
	C222.587296,389.625946 223.389542,381.334442 224.924438,374.330750 
	C235.353333,376.810455 246.266449,381.428131 257.180573,381.430511 
	C268.058350,381.432892 278.937103,376.806427 289.692108,374.238922 
	C290.047302,376.788116 290.531281,380.193573 290.995056,383.601715 
	C292.766632,396.620880 297.349915,408.298126 307.032776,417.600342 
	C308.182709,418.705048 309.428162,420.020844 309.895477,421.474701 
	C312.732269,430.300385 315.640228,439.119934 317.991699,448.081329 
	C322.833344,466.532990 327.353424,485.069244 331.974915,503.578400 
	C333.225891,508.588531 336.368439,510.954498 340.645386,509.958954 
	C344.006500,509.176575 345.822327,505.110229 344.806427,500.613770 
	C342.864227,492.017059 341.266357,483.323456 338.889130,474.848602 
	C335.060181,461.198608 331.085114,447.565887 326.468597,434.168182 
	C322.924591,423.883148 321.777069,413.836975 325.252167,403.410553 
	C329.698608,390.069763 338.159729,379.263641 346.875153,368.565277 
	C352.409607,361.771606 357.772614,354.618683 356.881622,345.210358 
	C356.266846,338.718414 354.411865,332.353790 353.512634,325.876556 
	C352.157928,316.118439 351.052399,306.321381 350.115509,296.514648 
	C349.981567,295.112732 351.385010,293.563995 352.076965,292.083191 
	C353.302673,293.209595 355.148010,294.107819 355.659607,295.497162 
	C361.701782,311.905853 367.842346,328.289154 373.345123,344.882111 
	C377.718903,358.070709 377.055939,371.398743 372.150818,384.460358 
	C368.017242,395.467407 363.693817,406.409668 359.853180,417.518463 
	C355.576935,429.887360 354.295319,442.226807 359.811462,454.874908 
	C366.925659,471.187195 373.315125,487.815918 379.989655,504.319336 
	C381.960510,509.192474 385.653351,511.369354 389.442841,509.778961 
	C392.878052,508.337250 394.018005,504.025513 392.126282,499.490051 
	C388.411072,490.582886 384.592834,481.717651 380.973541,472.771851 
	C377.482971,464.144226 374.189392,455.436859 370.530731,446.050079 
	C377.490417,448.632690 383.356537,450.704834 389.143860,452.977631 
	C403.593567,458.652527 416.844238,466.120026 425.368652,479.703674 
	C430.571411,487.994202 435.391998,496.547455 439.941284,505.215179 
	C442.099518,509.327209 445.068481,510.722961 449.175018,509.790192 
	C452.274841,509.086121 453.730499,504.382385 452.010773,500.124115 
	C449.930511,494.973022 447.724304,489.806244 444.928528,485.022675 
	C435.341095,468.618347 423.791748,453.947784 405.817566,446.044708 
	C395.065430,441.317108 383.944244,437.433472 373.071503,432.969330 
	C371.842072,432.464508 370.107300,430.329620 370.365723,429.495514 
	C373.690765,418.762970 377.098145,408.040222 381.047791,397.526581 
	C382.199097,394.461914 384.629639,391.338959 387.327454,389.484802 
	C401.059631,380.046997 404.612579,365.863617 403.634338,350.972626 
	C402.653748,336.046204 398.975586,321.277649 391.983246,307.711914 
	C386.512024,297.097351 381.213135,291.068542 369.681549,293.317780 
	C369.605347,293.332611 369.434296,292.861481 369.309601,292.616211 
	C383.059174,287.916687 393.653076,280.049896 401.780212,265.630829 
	C410.024323,251.004227 410.790344,236.142944 401.922150,221.286514 
	C400.818573,219.437805 399.946564,216.915497 400.215881,214.869690 
	C401.946472,201.723312 404.986298,188.677063 405.730835,175.492569 
	C406.544861,161.077881 405.532227,146.541870 404.965637,132.072433 
	C404.376312,117.022209 399.600952,103.217773 391.778595,90.365288 
	C378.251648,68.139954 361.440796,48.856865 340.181519,33.803516 
	C310.302032,12.646313 277.395660,2.397635 240.417145,6.918813 
	C217.457321,9.725997 196.724548,18.200911 177.785294,30.921515 
	C157.742294,44.383446 141.834229,62.018814 127.610207,81.580368 
	C111.555771,103.659180 107.727119,128.646713 107.160492,154.676285 
	C106.967850,163.525635 108.084000,172.437439 109.062920,181.269638 
	C110.272507,192.182953 112.064438,203.030899 113.361107,213.936050 
	C113.630722,216.203568 113.597122,219.120041 112.411003,220.852890 
	C100.590126,238.122406 106.040810,260.765289 118.449074,274.927734 
	C125.663284,283.161835 134.235565,289.511810 145.009827,293.042786 
	C134.406326,290.936157 128.022415,296.199554 123.763557,304.683167 
	C115.154808,321.831726 109.668839,339.665253 110.841080,359.290131 
	C111.521393,370.679413 115.689743,379.869568 123.943832,387.457916 
	C126.338051,389.658997 129.679352,391.490051 130.859741,394.233673 
	C135.288208,404.526886 138.936737,415.152985 143.013229,425.601410 
	C144.951080,430.568298 143.395416,432.502411 138.266403,434.199585 
	C117.387863,441.108459 96.539383,448.117493 81.948776,466.389862 
	C73.568306,476.884979 66.649460,488.051636 61.771000,500.540924 
	C60.170948,504.637207 61.079884,507.788116 65.055672,509.446259 
	C69.073845,511.122070 71.982986,509.346375 73.840210,505.505768 
	C76.402618,500.206909 78.444443,494.502411 81.852539,489.800323 
	C87.887550,481.473969 93.912125,472.789551 101.522354,466.037140 
	C113.129654,455.738220 128.093353,451.339142 143.116379,446.397491 
	C141.601318,450.712372 140.417236,454.601318 138.887375,458.349091 
	C133.266876,472.118103 127.521851,485.836182 121.844971,499.582245 
	C119.957184,504.153381 121.162231,508.431641 124.657768,509.805939 
	C128.080933,511.151764 132.384995,509.033203 133.926590,505.256287 
	C140.037567,490.284454 146.290604,475.368591 152.213242,460.322662 
	C155.634674,451.630829 159.426605,442.802551 157.856781,433.159729 
	C155.590866,419.241302 150.976288,405.999329 145.599854,392.968109 
	C142.881256,386.378906 141.157608,379.379181 138.921753,371.669708 
z"/>
<path fill="#3590A6" opacity="1.000000" stroke="none" 
	d="
M138.952942,372.117371 
	C141.157608,379.379181 142.881256,386.378906 145.599854,392.968109 
	C150.976288,405.999329 155.590866,419.241302 157.856781,433.159729 
	C159.426605,442.802551 155.634674,451.630829 152.213242,460.322662 
	C146.290604,475.368591 140.037567,490.284454 133.926590,505.256287 
	C132.384995,509.033203 128.080933,511.151764 124.657768,509.805939 
	C121.162231,508.431641 119.957184,504.153381 121.844971,499.582245 
	C127.521851,485.836182 133.266876,472.118103 138.887375,458.349091 
	C140.417236,454.601318 141.601318,450.712372 143.116379,446.397491 
	C128.093353,451.339142 113.129654,455.738220 101.522354,466.037140 
	C93.912125,472.789551 87.887550,481.473969 81.852539,489.800323 
	C78.444443,494.502411 76.402618,500.206909 73.840210,505.505768 
	C71.982986,509.346375 69.073845,511.122070 65.055672,509.446259 
	C61.079884,507.788116 60.170948,504.637207 61.771000,500.540924 
	C66.649460,488.051636 73.568306,476.884979 81.948776,466.389862 
	C96.539383,448.117493 117.387863,441.108459 138.266403,434.199585 
	C143.395416,432.502411 144.951080,430.568298 143.013229,425.601410 
	C138.936737,415.152985 135.288208,404.526886 130.859741,394.233673 
	C129.679352,391.490051 126.338051,389.658997 123.943832,387.457916 
	C115.689743,379.869568 111.521393,370.679413 110.841080,359.290131 
	C109.668839,339.665253 115.154808,321.831726 123.763557,304.683167 
	C128.022415,296.199554 134.406326,290.936157 145.009827,293.042786 
	C134.235565,289.511810 125.663284,283.161835 118.449074,274.927734 
	C106.040810,260.765289 100.590126,238.122406 112.411003,220.852890 
	C113.597122,219.120041 113.630722,216.203568 113.361107,213.936050 
	C112.064438,203.030899 110.272507,192.182953 109.062920,181.269638 
	C108.084000,172.437439 106.967850,163.525635 107.160492,154.676285 
	C107.727119,128.646713 111.555771,103.659180 127.610207,81.580368 
	C141.834229,62.018814 157.742294,44.383446 177.785294,30.921515 
	C196.724548,18.200911 217.457321,9.725997 240.417145,6.918813 
	C277.395660,2.397635 310.302032,12.646313 340.181519,33.803516 
	C361.440796,48.856865 378.251648,68.139954 391.778595,90.365288 
	C399.600952,103.217773 404.376312,117.022209 404.965637,132.072433 
	C405.532227,146.541870 406.544861,161.077881 405.730835,175.492569 
	C404.986298,188.677063 401.946472,201.723312 400.215881,214.869690 
	C399.946564,216.915497 400.818573,219.437805 401.922150,221.286514 
	C410.790344,236.142944 410.024323,251.004227 401.780212,265.630829 
	C393.653076,280.049896 383.059174,287.916687 369.308594,292.616760 
	C369.434296,292.861481 369.605347,293.332611 369.681549,293.317780 
	C381.213135,291.068542 386.512024,297.097351 391.983246,307.711914 
	C398.975586,321.277649 402.653748,336.046204 403.634338,350.972626 
	C404.612579,365.863617 401.059631,380.046997 387.327454,389.484802 
	C384.629639,391.338959 382.199097,394.461914 381.047791,397.526581 
	C377.098145,408.040222 373.690765,418.762970 370.365723,429.495514 
	C370.107300,430.329620 371.842072,432.464508 373.071503,432.969330 
	C383.944244,437.433472 395.065430,441.317108 405.817566,446.044708 
	C423.791748,453.947784 435.341095,468.618347 444.928528,485.022675 
	C447.724304,489.806244 449.930511,494.973022 452.010773,500.124115 
	C453.730499,504.382385 452.274841,509.086121 449.175018,509.790192 
	C445.068481,510.722961 442.099518,509.327209 439.941284,505.215179 
	C435.391998,496.547455 430.571411,487.994202 425.368652,479.703674 
	C416.844238,466.120026 403.593567,458.652527 389.143860,452.977631 
	C383.356537,450.704834 377.490417,448.632690 370.530731,446.050079 
	C374.189392,455.436859 377.482971,464.144226 380.973541,472.771851 
	C384.592834,481.717651 388.411072,490.582886 392.126282,499.490051 
	C394.018005,504.025513 392.878052,508.337250 389.442841,509.778961 
	C385.653351,511.369354 381.960510,509.192474 379.989655,504.319336 
	C373.315125,487.815918 366.925659,471.187195 359.811462,454.874908 
	C354.295319,442.226807 355.576935,429.887360 359.853180,417.518463 
	C363.693817,406.409668 368.017242,395.467407 372.150818,384.460358 
	C377.055939,371.398743 377.718903,358.070709 373.345123,344.882111 
	C367.842346,328.289154 361.701782,311.905853 355.659607,295.497162 
	C355.148010,294.107819 353.302673,293.209595 352.076965,292.083191 
	C351.385010,293.563995 349.981567,295.112732 350.115509,296.514648 
	C351.052399,306.321381 352.157928,316.118439 353.512634,325.876556 
	C354.411865,332.353790 356.266846,338.718414 356.881622,345.210358 
	C357.772614,354.618683 352.409607,361.771606 346.875153,368.565277 
	C338.159729,379.263641 329.698608,390.069763 325.252167,403.410553 
	C321.777069,413.836975 322.924591,423.883148 326.468597,434.168182 
	C331.085114,447.565887 335.060181,461.198608 338.889130,474.848602 
	C341.266357,483.323456 342.864227,492.017059 344.806427,500.613770 
	C345.822327,505.110229 344.006500,509.176575 340.645386,509.958954 
	C336.368439,510.954498 333.225891,508.588531 331.974915,503.578400 
	C327.353424,485.069244 322.833344,466.532990 317.991699,448.081329 
	C315.640228,439.119934 312.732269,430.300385 309.895477,421.474701 
	C309.428162,420.020844 308.182709,418.705048 307.032776,417.600342 
	C297.349915,408.298126 292.766632,396.620880 290.995056,383.601715 
	C290.531281,380.193573 290.047302,376.788116 289.692108,374.238922 
	C278.937103,376.806427 268.058350,381.432892 257.180573,381.430511 
	C246.266449,381.428131 235.353333,376.810455 224.924438,374.330750 
	C223.389542,381.334442 222.587296,389.625946 219.645920,397.072510 
	C216.881912,404.070068 211.844788,410.166595 207.837234,416.677734 
	C206.342117,419.106873 204.418671,421.423157 203.568756,424.072632 
	C199.841400,435.692383 196.134155,447.334900 192.989456,459.121185 
	C189.038147,473.930573 185.634171,488.886230 182.012756,503.783325 
	C180.853073,508.553864 177.917435,510.753265 173.640152,509.974670 
	C170.270874,509.361359 168.024368,505.655273 169.100861,501.369202 
	C174.305954,480.645355 179.632401,459.951324 185.052429,439.282532 
	C186.822495,432.532562 190.033218,426.002472 190.775375,419.175110 
	C192.130264,406.710999 186.713409,395.800201 180.048325,385.675934 
	C176.279282,379.950806 172.230164,374.306458 167.606323,369.269073 
	C157.835480,358.624390 155.661865,347.045044 159.193436,332.960632 
	C162.163956,321.113831 162.581253,308.614685 163.879501,296.377899 
	C164.022583,295.029419 162.525452,293.506927 161.789032,292.065125 
	C160.663376,293.089355 158.953751,293.904175 158.500015,295.169403 
	C152.112274,312.981720 145.286926,330.675842 139.941055,348.803650 
	C137.845993,355.908020 139.160217,364.017822 138.952942,372.117371 
M170.046097,175.459366 
	C175.805054,174.262131 181.526596,172.826202 187.330627,171.916595 
	C200.025238,169.927032 212.570587,170.217834 224.746628,175.048080 
	C227.936218,176.313400 228.810547,178.868805 227.767639,181.390305 
	C227.102173,182.999268 224.552200,184.796768 222.821930,184.822647 
	C216.719772,184.913956 210.536331,184.739441 204.512146,183.822250 
	C191.066284,181.775131 177.833862,183.505585 164.574524,185.251007 
	C161.657272,185.635040 158.791580,186.410843 154.838943,187.225342 
	C148.667526,217.459229 152.458191,248.144821 160.079697,278.546692 
	C168.623489,279.761169 173.304047,281.877228 175.192810,288.019867 
	C176.819214,293.309174 176.490204,299.300964 176.433075,304.976166 
	C176.383438,309.907410 174.349106,314.915314 178.599152,319.245697 
	C186.210022,327.000488 193.359940,335.236969 201.291809,342.640747 
	C214.002106,354.504852 229.428345,361.798401 245.904999,366.809784 
	C250.385864,368.172638 255.557388,369.606873 259.883881,368.641602 
	C268.576904,366.702057 277.110138,363.615448 285.343964,360.137299 
	C303.166504,352.608704 317.406281,340.023743 330.276825,325.967560 
	C334.219757,321.661377 339.304810,317.321014 338.078613,310.001099 
	C337.318451,305.463104 337.208954,300.800293 337.024963,296.184814 
	C336.599640,285.515625 342.336792,280.515747 351.378021,278.915344 
	C352.678497,278.685150 354.652222,277.476135 354.838013,276.452240 
	C357.376831,262.457489 360.485748,248.488953 361.734039,234.361923 
	C362.719574,223.208160 362.048737,211.767914 360.832977,200.594208 
	C359.205536,185.636459 357.190308,170.617081 353.807373,155.978745 
	C348.863129,134.584473 337.052795,118.528397 314.845703,111.762421 
	C311.107819,110.623581 307.182831,108.026657 304.774017,104.974922 
	C296.586700,94.602455 286.317169,87.201561 274.328247,82.185318 
	C263.141235,77.504593 251.498764,76.343506 239.652206,79.740715 
	C222.647705,84.617065 212.638992,96.758659 207.100784,112.669258 
	C199.269913,135.166397 187.570938,154.457291 167.064484,167.743256 
	C163.188354,170.254578 160.727737,174.950714 157.613983,178.638733 
	C157.981567,178.917572 158.349152,179.196411 158.716736,179.475266 
	C162.262863,178.279755 165.809006,177.084259 170.046097,175.459366 
M128.997330,105.552765 
	C120.961601,121.659210 120.956894,139.243347 120.196533,156.545975 
	C119.793930,165.707489 121.075592,174.983383 122.080627,184.154648 
	C123.017555,192.704361 124.595123,201.183884 125.873192,209.579407 
	C130.613770,208.410095 134.692780,207.403976 138.554031,206.451553 
	C139.391647,200.231888 139.899734,194.165710 141.071899,188.230698 
	C143.549011,175.688187 148.397964,164.424713 159.468246,156.835663 
	C174.999329,146.188599 186.215042,132.296280 192.102707,114.177803 
	C195.820648,102.736336 200.983154,91.858238 209.467697,83.135315 
	C227.061005,65.047729 248.512390,61.459232 272.167511,67.611458 
	C286.515594,71.343102 298.607574,79.271317 308.871094,89.646919 
	C313.421448,94.246948 317.378326,98.948990 323.810272,101.109200 
	C336.988220,105.535072 347.442322,113.681404 355.092041,125.355888 
	C367.259186,143.924561 370.590088,165.076767 372.993988,186.498734 
	C373.756531,193.294205 374.449677,200.097458 375.116486,206.352081 
	C379.785187,207.514496 383.702179,208.489746 388.401459,209.659775 
	C389.939606,197.427643 392.021423,185.297791 392.838074,173.083374 
	C393.594879,161.764267 393.691803,150.299072 392.784393,139.002243 
	C392.031555,129.630035 390.576965,119.971054 387.333649,111.217003 
	C381.471893,95.395325 371.038391,82.086037 359.912903,69.565895 
	C349.245026,57.560627 337.127258,47.079739 323.266174,38.798389 
	C298.655853,24.094872 272.526062,16.136744 243.429047,19.880445 
	C223.539902,22.439440 205.450378,29.396271 188.689255,40.111359 
	C172.277161,50.603302 157.927780,63.418671 146.427826,79.188515 
	C140.357864,87.512215 134.848495,96.244690 128.997330,105.552765 
M327.980560,347.526215 
	C320.356567,353.173126 312.741547,358.832275 305.102783,364.459137 
	C302.940399,366.052002 300.847687,367.402924 302.721130,370.738586 
	C303.442139,372.022308 302.893494,373.994446 303.008972,375.646912 
	C303.664551,385.027130 306.092377,393.830627 310.924744,401.360382 
	C315.639069,392.543884 319.890564,383.510773 325.144714,375.104279 
	C329.460968,368.198395 335.160889,362.171967 339.853821,355.479675 
	C341.755188,352.768280 343.553589,349.368652 343.702423,346.202423 
	C343.882935,342.363159 342.268677,338.439545 341.329132,334.079773 
	C336.862946,338.575958 332.671997,342.795074 327.980560,347.526215 
M210.194717,365.627716 
	C197.373795,355.542847 184.552872,345.457977 171.994476,335.579590 
	C171.994476,335.700195 172.286301,336.800873 171.949585,337.653290 
	C168.338974,346.793823 172.316391,353.615509 177.759903,360.753815 
	C184.955597,370.189819 191.270233,380.319855 197.607422,390.376038 
	C199.749878,393.775787 200.808441,397.858643 202.631134,402.281494 
	C207.775375,393.555328 210.388062,384.924316 210.962524,375.689545 
	C211.163071,372.465881 210.935043,369.215576 210.194717,365.627716 
M119.861671,248.527710 
	C120.532928,259.642181 136.062347,277.564880 146.054749,278.302673 
	C144.472183,270.100189 142.940826,261.964294 141.319412,253.846390 
	C140.551651,250.002396 138.476578,247.878891 134.161591,247.906586 
	C130.143723,247.932404 127.779526,245.233322 127.400093,241.422302 
	C127.041504,237.820663 130.355667,235.102890 134.526535,235.006653 
	C136.159225,234.968979 137.793503,235.000488 138.989288,235.000488 
	C138.989288,229.799515 138.989288,225.057938 138.989288,220.016754 
	C137.402145,220.164444 136.241470,220.111420 135.171051,220.396881 
	C124.112320,223.346054 117.045204,234.166733 119.861671,248.527710 
M375.478729,220.261459 
	C375.270966,225.006470 375.063171,229.751480 374.845673,234.718567 
	C376.260986,234.848389 377.049683,234.959930 377.841309,234.987076 
	C383.842682,235.192917 385.866333,236.699295 385.997894,241.086304 
	C386.137329,245.735870 384.346771,247.040817 378.554840,248.165787 
	C376.534210,248.558243 373.668793,250.539474 373.258667,252.282166 
	C371.218933,260.949371 369.869415,269.779022 368.095825,279.548523 
	C381.157654,272.150269 390.895538,263.347107 394.204773,248.557114 
	C397.367615,234.421494 390.297028,222.615219 375.478729,220.261459 
M123.996536,346.495636 
	C123.996536,351.606659 123.996536,356.717682 123.996536,361.828705 
	C124.423767,341.951660 134.734573,324.840546 139.304016,306.173981 
	C130.066788,317.755859 126.892548,331.627686 123.996536,346.495636 
M375.917999,306.485657 
	C375.295349,306.854156 374.093872,307.352356 374.142700,307.570374 
	C374.495209,309.143585 375.078217,310.668304 375.629761,312.193359 
	C381.482056,328.375031 389.243866,344.024628 389.657654,361.735199 
	C391.884399,341.921875 385.887756,324.062164 375.917999,306.485657 
z"/>
<path fill="#000000" opacity="1.000000" stroke="none" 
	d="
M169.700623,175.674057 
	C165.809006,177.084259 162.262863,178.279755 158.716736,179.475266 
	C158.349152,179.196411 157.981567,178.917572 157.613983,178.638733 
	C160.727737,174.950714 163.188354,170.254578 167.064484,167.743256 
	C187.570938,154.457291 199.269913,135.166397 207.100784,112.669258 
	C212.638992,96.758659 222.647705,84.617065 239.652206,79.740715 
	C251.498764,76.343506 263.141235,77.504593 274.328247,82.185318 
	C286.317169,87.201561 296.586700,94.602455 304.774017,104.974922 
	C307.182831,108.026657 311.107819,110.623581 314.845703,111.762421 
	C337.052795,118.528397 348.863129,134.584473 353.807373,155.978745 
	C357.190308,170.617081 359.205536,185.636459 360.832977,200.594208 
	C362.048737,211.767914 362.719574,223.208160 361.734039,234.361923 
	C360.485748,248.488953 357.376831,262.457489 354.838013,276.452240 
	C354.652222,277.476135 352.678497,278.685150 351.378021,278.915344 
	C342.336792,280.515747 336.599640,285.515625 337.024963,296.184814 
	C337.208954,300.800293 337.318451,305.463104 338.078613,310.001099 
	C339.304810,317.321014 334.219757,321.661377 330.276825,325.967560 
	C317.406281,340.023743 303.166504,352.608704 285.343964,360.137299 
	C277.110138,363.615448 268.576904,366.702057 259.883881,368.641602 
	C255.557388,369.606873 250.385864,368.172638 245.904999,366.809784 
	C229.428345,361.798401 214.002106,354.504852 201.291809,342.640747 
	C193.359940,335.236969 186.210022,327.000488 178.599152,319.245697 
	C174.349106,314.915314 176.383438,309.907410 176.433075,304.976166 
	C176.490204,299.300964 176.819214,293.309174 175.192810,288.019867 
	C173.304047,281.877228 168.623489,279.761169 160.079697,278.546692 
	C152.458191,248.144821 148.667526,217.459229 154.838943,187.225342 
	C158.791580,186.410843 161.657272,185.635040 164.574524,185.251007 
	C177.833862,183.505585 191.066284,181.775131 204.512146,183.822250 
	C210.536331,184.739441 216.719772,184.913956 222.821930,184.822647 
	C224.552200,184.796768 227.102173,182.999268 227.767639,181.390305 
	C228.810547,178.868805 227.936218,176.313400 224.746628,175.048080 
	C212.570587,170.217834 200.025238,169.927032 187.330627,171.916595 
	C181.526596,172.826202 175.805054,174.262131 169.700623,175.674057 
M251.569260,309.154663 
	C254.970200,309.327423 259.014618,310.751007 261.633545,309.403687 
	C266.566681,306.865814 271.477448,307.291962 276.526917,306.919098 
	C280.395996,306.633453 284.239777,305.744659 288.041595,304.888000 
	C291.299164,304.153961 292.632904,301.936859 291.970734,298.610229 
	C291.287903,295.179688 288.770294,295.034607 285.929810,294.957672 
	C279.149597,294.773987 272.209595,293.306213 265.648621,294.344360 
	C259.741913,295.279022 254.486465,295.434753 248.521759,294.373383 
	C241.847672,293.185791 234.699539,294.772614 227.752533,294.955872 
	C224.817688,295.033264 222.523636,295.459290 221.991409,298.923157 
	C221.459702,302.383575 223.024261,304.416656 226.248398,304.920868 
	C231.722824,305.776917 237.260300,306.225220 242.741959,307.041656 
	C245.441650,307.443756 248.075790,308.285950 251.569260,309.154663 
M337.646606,183.994965 
	C342.641174,184.773575 347.617126,185.751038 352.640594,186.220306 
	C354.342773,186.379303 356.164856,185.254044 357.932159,184.715668 
	C357.096161,183.175980 356.615967,180.746246 355.364441,180.245911 
	C348.877441,177.652512 342.332031,174.939896 335.549957,173.403458 
	C320.146149,169.913788 304.694427,169.040771 289.482178,174.924942 
	C286.263611,176.169891 285.295807,178.510773 286.206055,181.069992 
	C286.792358,182.718399 289.236389,184.823380 290.824432,184.804031 
	C297.557129,184.722046 304.275208,183.586823 311.009735,183.468338 
	C319.575348,183.317642 328.151764,183.778000 337.646606,183.994965 
M196.059753,218.553665 
	C192.867050,217.324203 189.631531,216.194260 186.491211,214.843063 
	C181.158096,212.548401 175.979553,212.262589 171.403320,216.280197 
	C170.269226,217.275864 169.519363,219.356369 169.631042,220.861176 
	C169.690262,221.659027 171.923157,222.428406 173.271515,222.969696 
	C175.949738,224.044830 178.929535,224.556854 181.370255,226.001694 
	C190.150711,231.199539 199.422943,234.993835 209.707458,233.797729 
	C214.490860,233.241440 219.162445,230.816406 223.575363,228.617615 
	C224.683228,228.065613 225.505981,224.619644 224.833923,223.398224 
	C223.972076,221.831802 220.971786,219.865265 219.750305,220.329132 
	C211.765930,223.361130 204.345856,220.687256 196.059753,218.553665 
M290.102112,221.383469 
	C286.824066,224.915375 288.412842,227.716858 291.701019,229.830200 
	C293.840149,231.205048 296.295532,232.265259 298.753998,232.934494 
	C308.250610,235.519638 317.206268,233.199188 325.969299,229.539185 
	C331.314484,227.306732 336.691833,225.151062 342.030884,222.904221 
	C344.585571,221.829102 345.732819,219.958221 343.769135,217.597244 
	C342.560211,216.143753 340.836823,214.925552 339.101166,214.137741 
	C333.168854,211.445114 328.005859,214.738892 322.745453,216.685196 
	C313.387482,220.147552 304.103088,223.706436 293.883698,220.140640 
	C293.009125,219.835480 291.761108,220.600601 290.102112,221.383469 
M239.083923,261.841400 
	C239.877914,263.887390 240.185120,266.361969 241.546646,267.908203 
	C249.119827,276.508789 264.113770,276.503967 272.303741,268.345428 
	C275.560242,265.101410 275.978760,261.994720 273.184906,258.873077 
	C270.307800,255.658386 266.907257,256.145538 263.584076,258.857941 
	C259.565002,262.138397 254.625641,262.106903 250.598175,259.090271 
	C245.718216,255.435150 242.460556,256.024109 239.083923,261.841400 
M255.896027,317.400818 
	C255.097733,317.215881 254.228317,317.175049 253.512924,316.822113 
	C249.563293,314.873352 246.311798,315.870758 244.294952,319.557678 
	C242.374817,323.067871 244.315994,327.160004 248.847275,328.882904 
	C254.761139,331.131561 260.779510,331.299835 266.569397,328.108032 
	C269.578247,326.449310 270.819153,324.156586 269.364410,320.839752 
	C267.892181,317.483093 265.392944,315.614044 261.632690,316.208191 
	C259.901459,316.481750 258.254272,317.287445 255.896027,317.400818 
M182.344193,266.016724 
	C180.603943,267.230042 177.702194,268.230225 177.430145,269.712891 
	C177.120270,271.401794 178.695801,274.220978 180.292450,275.271942 
	C182.183609,276.516754 184.960602,276.559631 187.381470,276.731567 
	C187.852173,276.765015 188.709976,275.061493 188.945984,274.055206 
	C190.082260,269.210724 185.773041,268.223602 182.344193,266.016724 
M327.356995,276.979797 
	C331.885223,278.589355 334.492920,275.624756 336.561707,272.554443 
	C337.280121,271.488159 336.786865,268.765930 335.841797,267.655457 
	C334.904053,266.553558 332.576263,265.870789 331.076569,266.155396 
	C326.718292,266.982513 324.491180,272.728577 327.356995,276.979797 
M192.132050,281.424805 
	C189.397308,284.741150 189.590286,289.948608 192.945602,292.184021 
	C194.253464,293.055359 196.582489,293.240234 198.082916,292.709778 
	C199.294006,292.281555 200.583542,290.384491 200.749130,289.008026 
	C201.239319,284.933258 197.268280,281.179871 192.132050,281.424805 
M159.019318,263.349579 
	C160.480759,267.990082 164.278427,268.203583 168.127106,267.920135 
	C169.403046,267.826172 171.528687,267.004883 171.668365,266.228668 
	C171.986893,264.458649 171.941010,262.020264 170.927155,260.731293 
	C168.345703,257.449341 161.304016,258.723480 159.019318,263.349579 
M314.474121,291.896332 
	C320.606049,294.416718 324.353912,291.831177 323.884735,285.110016 
	C323.789062,283.739288 322.402466,281.564270 321.319031,281.367493 
	C319.711395,281.075531 316.887573,281.711884 316.282867,282.853943 
	C314.980255,285.314087 314.761749,288.348267 314.474121,291.896332 
M346.032776,259.054840 
	C343.140839,259.939575 341.355774,261.992188 342.259430,264.844269 
	C342.692657,266.211609 344.971039,267.622345 346.583771,267.860046 
	C350.178192,268.389832 354.563263,268.467194 354.824463,263.488464 
	C355.126160,257.737518 350.274353,259.240173 346.032776,259.054840 
M189.556229,325.933777 
	C189.958862,329.855316 193.448761,332.657837 195.557510,330.498505 
	C197.732117,328.271729 198.723785,324.789185 199.820511,321.709167 
	C200.003555,321.195099 198.229736,319.425049 197.112518,319.108002 
	C193.163300,317.987305 191.486496,320.790131 190.110641,323.780304 
	C189.912399,324.211090 189.970779,324.760010 189.556229,325.933777 
M316.084320,328.325378 
	C317.923370,331.100800 320.532013,332.291931 323.169006,330.036865 
	C326.797943,326.933563 324.345123,323.356720 322.155731,321.070435 
	C320.786774,319.640930 316.528046,318.782745 315.414856,319.764526 
	C313.144958,321.766418 313.154694,325.096436 316.084320,328.325378 
M318.989410,309.020599 
	C318.989014,307.360840 319.131134,305.686035 318.958344,304.044434 
	C318.603790,300.676483 315.025604,298.440063 312.565033,300.465118 
	C311.021027,301.735840 310.105255,304.663757 310.215637,306.779907 
	C310.311096,308.609955 311.899536,311.207397 313.485016,311.853668 
	C314.813324,312.395111 317.090607,310.608307 318.989410,309.020599 
M199.647598,311.995483 
	C201.091034,311.068481 203.773270,310.109924 203.750626,309.220245 
	C203.676270,306.299683 202.858505,303.299164 201.677170,300.615112 
	C201.504974,300.223877 197.129837,300.718140 195.860672,301.975098 
	C193.228058,304.582397 195.129654,310.116516 199.647598,311.995483 
z"/>
<path fill="#000000" opacity="1.000000" stroke="none" 
	d="
M129.041672,105.172684 
	C134.848495,96.244690 140.357864,87.512215 146.427826,79.188515 
	C157.927780,63.418671 172.277161,50.603302 188.689255,40.111359 
	C205.450378,29.396271 223.539902,22.439440 243.429047,19.880445 
	C272.526062,16.136744 298.655853,24.094872 323.266174,38.798389 
	C337.127258,47.079739 349.245026,57.560627 359.912903,69.565895 
	C371.038391,82.086037 381.471893,95.395325 387.333649,111.217003 
	C390.576965,119.971054 392.031555,129.630035 392.784393,139.002243 
	C393.691803,150.299072 393.594879,161.764267 392.838074,173.083374 
	C392.021423,185.297791 389.939606,197.427643 388.401459,209.659775 
	C383.702179,208.489746 379.785187,207.514496 375.116486,206.352081 
	C374.449677,200.097458 373.756531,193.294205 372.993988,186.498734 
	C370.590088,165.076767 367.259186,143.924561 355.092041,125.355888 
	C347.442322,113.681404 336.988220,105.535072 323.810272,101.109200 
	C317.378326,98.948990 313.421448,94.246948 308.871094,89.646919 
	C298.607574,79.271317 286.515594,71.343102 272.167511,67.611458 
	C248.512390,61.459232 227.061005,65.047729 209.467697,83.135315 
	C200.983154,91.858238 195.820648,102.736336 192.102707,114.177803 
	C186.215042,132.296280 174.999329,146.188599 159.468246,156.835663 
	C148.397964,164.424713 143.549011,175.688187 141.071899,188.230698 
	C139.899734,194.165710 139.391647,200.231888 138.554031,206.451553 
	C134.692780,207.403976 130.613770,208.410095 125.873192,209.579407 
	C124.595123,201.183884 123.017555,192.704361 122.080627,184.154648 
	C121.075592,174.983383 119.793930,165.707489 120.196533,156.545975 
	C120.956894,139.243347 120.961601,121.659210 129.041672,105.172684 
z"/>
<path fill="#000000" opacity="1.000000" stroke="none" 
	d="
M328.230774,347.270203 
	C332.671997,342.795074 336.862946,338.575958 341.329132,334.079773 
	C342.268677,338.439545 343.882935,342.363159 343.702423,346.202423 
	C343.553589,349.368652 341.755188,352.768280 339.853821,355.479675 
	C335.160889,362.171967 329.460968,368.198395 325.144714,375.104279 
	C319.890564,383.510773 315.639069,392.543884 310.924744,401.360382 
	C306.092377,393.830627 303.664551,385.027130 303.008972,375.646912 
	C302.893494,373.994446 303.442139,372.022308 302.721130,370.738586 
	C300.847687,367.402924 302.940399,366.052002 305.102783,364.459137 
	C312.741547,358.832275 320.356567,353.173126 328.230774,347.270203 
z"/>
<path fill="#000000" opacity="1.000000" stroke="none" 
	d="
M210.548721,365.802551 
	C210.935043,369.215576 211.163071,372.465881 210.962524,375.689545 
	C210.388062,384.924316 207.775375,393.555328 202.631134,402.281494 
	C200.808441,397.858643 199.749878,393.775787 197.607422,390.376038 
	C191.270233,380.319855 184.955597,370.189819 177.759903,360.753815 
	C172.316391,353.615509 168.338974,346.793823 171.949585,337.653290 
	C172.286301,336.800873 171.994476,335.700195 171.994476,335.579590 
	C184.552872,345.457977 197.373795,355.542847 210.548721,365.802551 
z"/>
<path fill="#000000" opacity="1.000000" stroke="none" 
	d="
M119.608208,248.172028 
	C117.045204,234.166733 124.112320,223.346054 135.171051,220.396881 
	C136.241470,220.111420 137.402145,220.164444 138.989288,220.016754 
	C138.989288,225.057938 138.989288,229.799515 138.989288,235.000488 
	C137.793503,235.000488 136.159225,234.968979 134.526535,235.006653 
	C130.355667,235.102890 127.041504,237.820663 127.400093,241.422302 
	C127.779526,245.233322 130.143723,247.932404 134.161591,247.906586 
	C138.476578,247.878891 140.551651,250.002396 141.319412,253.846390 
	C142.940826,261.964294 144.472183,270.100189 146.054749,278.302673 
	C136.062347,277.564880 120.532928,259.642181 119.608208,248.172028 
z"/>
<path fill="#000000" opacity="1.000000" stroke="none" 
	d="
M375.904266,220.159134 
	C390.297028,222.615219 397.367615,234.421494 394.204773,248.557114 
	C390.895538,263.347107 381.157654,272.150269 368.095825,279.548523 
	C369.869415,269.779022 371.218933,260.949371 373.258667,252.282166 
	C373.668793,250.539474 376.534210,248.558243 378.554840,248.165787 
	C384.346771,247.040817 386.137329,245.735870 385.997894,241.086304 
	C385.866333,236.699295 383.842682,235.192917 377.841309,234.987076 
	C377.049683,234.959930 376.260986,234.848389 374.845673,234.718567 
	C375.063171,229.751480 375.270966,225.006470 375.904266,220.159134 
z"/>
<path fill="#000000" opacity="1.000000" stroke="none" 
	d="
M124.000000,346.052734 
	C126.892548,331.627686 130.066788,317.755859 139.304016,306.173981 
	C134.734573,324.840546 124.423767,341.951660 123.996536,361.828705 
	C123.996536,356.717682 123.996536,351.606659 124.000000,346.052734 
z"/>
<path fill="#000000" opacity="1.000000" stroke="none" 
	d="
M376.187805,306.750580 
	C385.887756,324.062164 391.884399,341.921875 389.657654,361.735199 
	C389.243866,344.024628 381.482056,328.375031 375.629761,312.193359 
	C375.078217,310.668304 374.495209,309.143585 374.142700,307.570374 
	C374.093872,307.352356 375.295349,306.854156 376.187805,306.750580 
z"/>
<path fill="#3590A6" opacity="1.000000" stroke="none" 
	d="
M251.154434,309.041809 
	C248.075790,308.285950 245.441650,307.443756 242.741959,307.041656 
	C237.260300,306.225220 231.722824,305.776917 226.248398,304.920868 
	C223.024261,304.416656 221.459702,302.383575 221.991409,298.923157 
	C222.523636,295.459290 224.817688,295.033264 227.752533,294.955872 
	C234.699539,294.772614 241.847672,293.185791 248.521759,294.373383 
	C254.486465,295.434753 259.741913,295.279022 265.648621,294.344360 
	C272.209595,293.306213 279.149597,294.773987 285.929810,294.957672 
	C288.770294,295.034607 291.287903,295.179688 291.970734,298.610229 
	C292.632904,301.936859 291.299164,304.153961 288.041595,304.888000 
	C284.239777,305.744659 280.395996,306.633453 276.526917,306.919098 
	C271.477448,307.291962 266.566681,306.865814 261.633545,309.403687 
	C259.014618,310.751007 254.970200,309.327423 251.154434,309.041809 
z"/>
<path fill="#3590A6" opacity="1.000000" stroke="none" 
	d="
M337.185059,183.984940 
	C328.151764,183.778000 319.575348,183.317642 311.009735,183.468338 
	C304.275208,183.586823 297.557129,184.722046 290.824432,184.804031 
	C289.236389,184.823380 286.792358,182.718399 286.206055,181.069992 
	C285.295807,178.510773 286.263611,176.169891 289.482178,174.924942 
	C304.694427,169.040771 320.146149,169.913788 335.549957,173.403458 
	C342.332031,174.939896 348.877441,177.652512 355.364441,180.245911 
	C356.615967,180.746246 357.096161,183.175980 357.932159,184.715668 
	C356.164856,185.254044 354.342773,186.379303 352.640594,186.220306 
	C347.617126,185.751038 342.641174,184.773575 337.185059,183.984940 
z"/>
<path fill="#3590A6" opacity="1.000000" stroke="none" 
	d="
M196.425949,218.733582 
	C204.345856,220.687256 211.765930,223.361130 219.750305,220.329132 
	C220.971786,219.865265 223.972076,221.831802 224.833923,223.398224 
	C225.505981,224.619644 224.683228,228.065613 223.575363,228.617615 
	C219.162445,230.816406 214.490860,233.241440 209.707458,233.797729 
	C199.422943,234.993835 190.150711,231.199539 181.370255,226.001694 
	C178.929535,224.556854 175.949738,224.044830 173.271515,222.969696 
	C171.923157,222.428406 169.690262,221.659027 169.631042,220.861176 
	C169.519363,219.356369 170.269226,217.275864 171.403320,216.280197 
	C175.979553,212.262589 181.158096,212.548401 186.491211,214.843063 
	C189.631531,216.194260 192.867050,217.324203 196.425949,218.733582 
z"/>
<path fill="#3590A6" opacity="1.000000" stroke="none" 
	d="
M290.394348,221.125992 
	C291.761108,220.600601 293.009125,219.835480 293.883698,220.140640 
	C304.103088,223.706436 313.387482,220.147552 322.745453,216.685196 
	C328.005859,214.738892 333.168854,211.445114 339.101166,214.137741 
	C340.836823,214.925552 342.560211,216.143753 343.769135,217.597244 
	C345.732819,219.958221 344.585571,221.829102 342.030884,222.904221 
	C336.691833,225.151062 331.314484,227.306732 325.969299,229.539185 
	C317.206268,233.199188 308.250610,235.519638 298.753998,232.934494 
	C296.295532,232.265259 293.840149,231.205048 291.701019,229.830200 
	C288.412842,227.716858 286.824066,224.915375 290.394348,221.125992 
z"/>
<path fill="#3590A6" opacity="1.000000" stroke="none" 
	d="
M239.246490,261.477295 
	C242.460556,256.024109 245.718216,255.435150 250.598175,259.090271 
	C254.625641,262.106903 259.565002,262.138397 263.584076,258.857941 
	C266.907257,256.145538 270.307800,255.658386 273.184906,258.873077 
	C275.978760,261.994720 275.560242,265.101410 272.303741,268.345428 
	C264.113770,276.503967 249.119827,276.508789 241.546646,267.908203 
	C240.185120,266.361969 239.877914,263.887390 239.246490,261.477295 
z"/>
<path fill="#3590A6" opacity="1.000000" stroke="none" 
	d="
M256.232483,317.626343 
	C258.254272,317.287445 259.901459,316.481750 261.632690,316.208191 
	C265.392944,315.614044 267.892181,317.483093 269.364410,320.839752 
	C270.819153,324.156586 269.578247,326.449310 266.569397,328.108032 
	C260.779510,331.299835 254.761139,331.131561 248.847275,328.882904 
	C244.315994,327.160004 242.374817,323.067871 244.294952,319.557678 
	C246.311798,315.870758 249.563293,314.873352 253.512924,316.822113 
	C254.228317,317.175049 255.097733,317.215881 256.232483,317.626343 
z"/>
<path fill="#3490A5" opacity="1.000000" stroke="none" 
	d="
M182.729080,266.045959 
	C185.773041,268.223602 190.082260,269.210724 188.945984,274.055206 
	C188.709976,275.061493 187.852173,276.765015 187.381470,276.731567 
	C184.960602,276.559631 182.183609,276.516754 180.292450,275.271942 
	C178.695801,274.220978 177.120270,271.401794 177.430145,269.712891 
	C177.702194,268.230225 180.603943,267.230042 182.729080,266.045959 
z"/>
<path fill="#3590A6" opacity="1.000000" stroke="none" 
	d="
M326.982727,276.908997 
	C324.491180,272.728577 326.718292,266.982513 331.076569,266.155396 
	C332.576263,265.870789 334.904053,266.553558 335.841797,267.655457 
	C336.786865,268.765930 337.280121,271.488159 336.561707,272.554443 
	C334.492920,275.624756 331.885223,278.589355 326.982727,276.908997 
z"/>
<path fill="#3590A6" opacity="1.000000" stroke="none" 
	d="
M192.498291,281.256622 
	C197.268280,281.179871 201.239319,284.933258 200.749130,289.008026 
	C200.583542,290.384491 199.294006,292.281555 198.082916,292.709778 
	C196.582489,293.240234 194.253464,293.055359 192.945602,292.184021 
	C189.590286,289.948608 189.397308,284.741150 192.498291,281.256622 
z"/>
<path fill="#3590A6" opacity="1.000000" stroke="none" 
	d="
M159.022217,262.949036 
	C161.304016,258.723480 168.345703,257.449341 170.927155,260.731293 
	C171.941010,262.020264 171.986893,264.458649 171.668365,266.228668 
	C171.528687,267.004883 169.403046,267.826172 168.127106,267.920135 
	C164.278427,268.203583 160.480759,267.990082 159.022217,262.949036 
z"/>
<path fill="#3590A6" opacity="1.000000" stroke="none" 
	d="
M314.286865,291.521912 
	C314.761749,288.348267 314.980255,285.314087 316.282867,282.853943 
	C316.887573,281.711884 319.711395,281.075531 321.319031,281.367493 
	C322.402466,281.564270 323.789062,283.739288 323.884735,285.110016 
	C324.353912,291.831177 320.606049,294.416718 314.286865,291.521912 
z"/>
<path fill="#3590A6" opacity="1.000000" stroke="none" 
	d="
M346.453674,259.033112 
	C350.274353,259.240173 355.126160,257.737518 354.824463,263.488464 
	C354.563263,268.467194 350.178192,268.389832 346.583771,267.860046 
	C344.971039,267.622345 342.692657,266.211609 342.259430,264.844269 
	C341.355774,261.992188 343.140839,259.939575 346.453674,259.033112 
z"/>
<path fill="#3490A6" opacity="1.000000" stroke="none" 
	d="
M189.733307,325.593994 
	C189.970779,324.760010 189.912399,324.211090 190.110641,323.780304 
	C191.486496,320.790131 193.163300,317.987305 197.112518,319.108002 
	C198.229736,319.425049 200.003555,321.195099 199.820511,321.709167 
	C198.723785,324.789185 197.732117,328.271729 195.557510,330.498505 
	C193.448761,332.657837 189.958862,329.855316 189.733307,325.593994 
z"/>
<path fill="#3490A6" opacity="1.000000" stroke="none" 
	d="
M315.987488,327.943878 
	C313.154694,325.096436 313.144958,321.766418 315.414856,319.764526 
	C316.528046,318.782745 320.786774,319.640930 322.155731,321.070435 
	C324.345123,323.356720 326.797943,326.933563 323.169006,330.036865 
	C320.532013,332.291931 317.923370,331.100800 315.987488,327.943878 
z"/>
<path fill="#3590A6" opacity="1.000000" stroke="none" 
	d="
M318.968567,309.436493 
	C317.090607,310.608307 314.813324,312.395111 313.485016,311.853668 
	C311.899536,311.207397 310.311096,308.609955 310.215637,306.779907 
	C310.105255,304.663757 311.021027,301.735840 312.565033,300.465118 
	C315.025604,298.440063 318.603790,300.676483 318.958344,304.044434 
	C319.131134,305.686035 318.989014,307.360840 318.968567,309.436493 
z"/>
<path fill="#3590A6" opacity="1.000000" stroke="none" 
	d="
M199.224365,311.989258 
	C195.129654,310.116516 193.228058,304.582397 195.860672,301.975098 
	C197.129837,300.718140 201.504974,300.223877 201.677170,300.615112 
	C202.858505,303.299164 203.676270,306.299683 203.750626,309.220245 
	C203.773270,310.109924 201.091034,311.068481 199.224365,311.989258 
z"/>
</svg>