<?xml version="1.0" standalone="no"?>
<!DOCTYPE svg PUBLIC "-//W3C//DTD SVG 20010904//EN"
 "http://www.w3.org/TR/2001/REC-SVG-20010904/DTD/svg10.dtd">
<svg version="1.0" xmlns="http://www.w3.org/2000/svg"
 width="512.000000pt" height="512.000000pt" viewBox="0 0 512.000000 512.000000"
 preserveAspectRatio="xMidYMid meet">

<g transform="translate(0.000000,512.000000) scale(0.100000,-0.100000)"
fill="#000000" stroke="none">
<path d="M941 4900 l-113 -208 -207 -113 c-113 -61 -207 -113 -209 -114 -1 -1
94 -57 213 -124 118 -67 215 -124 215 -127 0 -3 -9 -22 -20 -44 -50 -98 -89
-240 -117 -425 -16 -105 -18 -193 -18 -710 0 -663 -2 -645 76 -804 43 -87 148
-210 215 -252 25 -15 35 -29 39 -57 60 -394 192 -713 418 -1016 72 -95 248
-279 324 -337 l53 -41 0 -264 0 -264 70 0 70 0 0 210 c0 116 2 210 4 210 2 0
40 -21 83 -47 149 -89 451 -207 523 -205 38 1 251 74 350 120 47 21 120 60
163 86 43 25 81 46 83 46 2 0 4 -94 4 -210 l0 -210 70 0 70 0 0 264 0 264 38
28 c20 16 80 70 133 122 l97 93 93 -171 c71 -130 96 -167 104 -157 5 8 57 101
115 206 l105 192 175 96 c96 53 190 105 208 116 l33 19 -207 113 c-172 94
-210 118 -227 148 l-20 35 27 68 c51 135 98 318 121 474 6 40 12 49 57 80 69
48 160 158 202 244 71 145 69 131 73 741 4 469 -4 776 -20 791 -1 2 -33 -2
-71 -8 l-68 -11 6 -31 c4 -17 9 -219 13 -448 l6 -418 -87 0 -86 0 0 65 c0 36
-5 109 -11 163 -72 662 -438 1156 -994 1341 -177 59 -270 73 -512 78 l-221 5
-35 29 c-52 43 -87 120 -87 192 0 90 18 135 77 196 l52 54 298 -6 c338 -5 419
-16 604 -77 134 -44 231 -91 344 -166 197 -129 336 -283 490 -539 9 -16 15
-15 68 11 31 16 57 33 57 39 0 7 -23 50 -51 96 -197 329 -525 586 -895 702
-212 67 -262 72 -709 72 -415 0 -488 -5 -684 -47 -199 -42 -407 -136 -565
-255 -48 -36 -88 -64 -90 -62 -1 2 -40 74 -86 159 -46 85 -91 167 -100 182
l-16 26 -113 -208z m1215 12 c-66 -130 -52 -289 35 -413 l19 -26 -63 -12
c-158 -31 -360 -116 -507 -214 -104 -69 -282 -251 -359 -367 -167 -250 -264
-543 -291 -874 -5 -71 -10 -135 -10 -143 0 -11 -16 -13 -77 -11 l-78 3 -3 290
c-3 315 8 537 33 655 18 90 65 240 74 240 3 0 28 -42 55 -93 27 -50 55 -100
61 -110 11 -16 27 9 125 190 l113 208 210 114 209 114 -73 40 c-41 22 -112 61
-158 87 -47 26 -86 51 -88 57 -6 16 153 117 278 177 151 73 361 131 482 135
l37 1 -24 -48z m-1036 -212 c28 -52 60 -103 71 -112 11 -9 62 -39 114 -68 53
-28 93 -55 90 -60 -3 -5 -53 -34 -110 -65 l-104 -56 -58 -106 c-32 -58 -62
-107 -67 -107 -5 -1 -36 47 -68 106 l-59 108 -104 55 c-58 31 -107 60 -110 65
-3 5 42 34 100 65 113 61 118 66 189 198 27 49 52 85 56 80 4 -4 31 -51 60
-103z m1653 -355 c333 -44 613 -170 807 -364 100 -100 198 -257 269 -429 35
-83 74 -218 69 -234 -2 -6 -24 16 -48 48 -270 357 -732 624 -1192 689 l-48 6
0 75 0 74 -70 0 -70 0 0 -57 c-1 -179 -40 -347 -104 -446 l-33 -52 55 -42 54
-43 19 25 c36 45 100 185 117 255 11 44 22 70 31 70 38 0 269 -53 347 -81 254
-88 450 -213 644 -408 145 -146 227 -256 311 -416 l49 -95 0 -333 c0 -348 -11
-558 -36 -717 -17 -111 -49 -246 -71 -298 l-15 -36 -21 37 c-12 20 -35 60 -51
88 l-28 53 -15 -25 c-8 -13 -60 -107 -116 -208 l-102 -184 -202 -111 c-112
-61 -203 -113 -203 -116 0 -3 78 -48 174 -100 l174 -94 -29 -36 c-41 -51 -193
-182 -296 -256 -144 -103 -385 -220 -545 -264 -45 -12 -53 -10 -160 25 -739
245 -1163 785 -1287 1640 -28 194 -43 479 -35 677 l7 167 151 149 c213 209
266 234 563 267 164 18 234 34 321 75 63 29 182 108 182 119 -1 3 -20 28 -44
55 l-43 49 -47 -32 c-122 -84 -214 -113 -416 -131 -69 -6 -153 -17 -186 -25
-132 -30 -250 -101 -381 -228 -94 -91 -94 -92 -69 48 59 332 197 623 389 817
275 277 756 415 1230 353z m-1793 -1917 l-1 -283 -29 35 c-43 51 -87 138 -105
206 -8 32 -18 119 -22 192 l-6 132 81 0 82 0 0 -282z m3310 186 c0 -208 -32
-311 -139 -444 l-21 -25 0 283 0 282 80 0 80 0 0 -96z m-461 -1321 l54 -99
108 -58 c60 -31 109 -60 109 -64 0 -4 -49 -34 -109 -67 l-109 -60 -62 -113
-62 -114 -17 29 c-9 15 -38 67 -64 114 l-46 85 -110 60 c-61 32 -111 61 -111
64 0 3 50 32 110 65 l111 60 61 113 c50 91 64 111 73 99 6 -8 35 -59 64 -114z"/>
<path d="M1580 3680 l0 -70 70 0 70 0 0 70 0 70 -70 0 -70 0 0 -70z"/>
<path d="M1880 3680 l0 -70 70 0 70 0 0 70 0 70 -70 0 -70 0 0 -70z"/>
<path d="M1580 2977 c-86 -26 -178 -73 -233 -120 l-38 -32 50 -49 50 -49 38
30 c52 41 111 70 180 88 45 12 126 15 380 15 l323 0 0 70 0 70 -337 -1 c-320
0 -342 -1 -413 -22z"/>
<path d="M2790 2931 l0 -71 318 0 c342 0 383 -5 481 -54 26 -14 63 -37 80 -52
l33 -27 50 50 50 50 -44 36 c-47 38 -134 84 -213 113 -44 17 -91 19 -402 22
l-353 3 0 -70z"/>
<path d="M2132 2390 c-34 -55 -101 -104 -167 -121 -69 -19 -175 -6 -236 28
-48 27 -110 90 -121 124 -3 10 -19 7 -61 -10 -32 -13 -60 -28 -63 -33 -8 -12
38 -86 81 -131 148 -152 408 -172 582 -43 55 40 143 151 143 180 0 9 -101 56
-121 56 -3 0 -20 -22 -37 -50z"/>
<path d="M2873 2404 c-29 -13 -53 -27 -53 -32 0 -19 60 -100 104 -140 26 -24
77 -58 114 -75 129 -61 314 -46 435 34 54 36 110 97 138 152 l20 37 -43 19
c-82 35 -84 35 -108 -3 -32 -52 -96 -103 -153 -122 -67 -22 -186 -15 -243 14
-39 20 -134 114 -134 133 0 14 -20 9 -77 -17z"/>
<path d="M2107 1355 l-37 -54 32 -24 c45 -34 110 -66 191 -93 204 -69 449 -52
635 46 125 66 121 60 77 125 -21 30 -41 54 -44 53 -3 -2 -40 -20 -81 -40 -106
-52 -192 -71 -330 -70 -137 0 -240 24 -337 77 -35 19 -65 35 -66 35 -1 -1 -19
-25 -40 -55z"/>
<path d="M2470 4730 l0 -70 70 0 70 0 0 70 0 70 -70 0 -70 0 0 -70z"/>
<path d="M4249 4048 l-56 -21 20 -61 c11 -34 21 -62 22 -64 2 -2 125 28 133
33 8 6 -41 135 -51 134 -7 0 -37 -10 -68 -21z"/>
<path d="M160 3975 l0 -75 -75 0 -75 0 0 -70 0 -70 75 0 75 0 0 -75 0 -75 70
0 70 0 0 75 0 75 75 0 75 0 0 70 0 70 -75 0 -75 0 0 75 0 75 -70 0 -70 0 0
-75z"/>
<path d="M4970 2040 l0 -70 70 0 70 0 0 70 0 70 -70 0 -70 0 0 -70z"/>
<path d="M4510 1735 l0 -75 -75 0 -75 0 0 -70 0 -70 75 0 75 0 0 -75 0 -75 70
0 69 0 3 73 3 72 73 3 72 3 0 69 0 70 -75 0 -75 0 0 75 0 75 -70 0 -70 0 0
-75z"/>
<path d="M4970 1140 l0 -70 70 0 70 0 0 70 0 70 -70 0 -70 0 0 -70z"/>
</g>
</svg>
