<?xml version="1.0" standalone="no"?>
<!DOCTYPE svg PUBLIC "-//W3C//DTD SVG 20010904//EN"
 "http://www.w3.org/TR/2001/REC-SVG-20010904/DTD/svg10.dtd">
<svg version="1.0" xmlns="http://www.w3.org/2000/svg"
 width="512.000000pt" height="512.000000pt" viewBox="0 0 512.000000 512.000000"
 preserveAspectRatio="xMidYMid meet">

<g transform="translate(0.000000,512.000000) scale(0.100000,-0.100000)"
fill="#000000" stroke="none">
<path d="M4165 5109 c-54 -8 -85 -22 -123 -54 -139 -117 -113 -338 50 -419
122 -61 267 -16 331 102 34 62 42 118 27 181 -30 126 -157 211 -285 190z m115
-168 c33 -33 45 -69 36 -107 -4 -15 -20 -39 -36 -55 -41 -41 -106 -41 -152 0
-29 26 -33 35 -33 81 0 46 4 55 33 81 46 41 111 41 152 0z"/>
<path d="M2147 5096 c-63 -23 -115 -64 -151 -119 -19 -28 -253 -432 -521 -896
-267 -465 -494 -850 -503 -858 -49 -37 -132 5 -132 67 0 22 63 142 217 412
119 210 223 400 231 422 17 49 11 139 -12 184 -59 115 -199 193 -320 178 -69
-9 -148 -55 -184 -108 -60 -88 -372 -633 -372 -651 0 -26 45 -67 73 -67 13 0
32 9 43 21 10 12 98 156 195 322 96 165 187 309 201 320 93 69 257 -18 245
-129 -3 -31 -62 -143 -227 -434 -198 -348 -224 -398 -228 -445 -6 -69 12 -119
60 -171 49 -53 110 -78 176 -72 l48 5 12 -91 c6 -50 14 -100 17 -111 5 -16 -2
-24 -30 -39 -51 -28 -127 -107 -159 -167 -75 -137 -74 -307 1 -438 32 -56 95
-125 138 -151 31 -19 33 -23 40 -102 13 -158 56 -281 140 -403 l48 -69 -114
-108 c-63 -59 -166 -156 -230 -215 -134 -124 -147 -142 -131 -177 17 -38 58
-61 85 -48 12 5 142 123 289 262 224 211 268 256 268 279 0 18 -18 50 -56 97
-109 136 -157 264 -157 424 0 105 17 178 63 270 61 121 142 211 456 506 540
507 596 559 622 573 38 20 114 9 156 -22 48 -37 73 -104 57 -157 -12 -42 -60
-91 -473 -484 -203 -194 -238 -239 -238 -305 0 -64 23 -114 76 -168 73 -74
156 -92 240 -54 26 12 146 118 320 283 154 145 342 324 419 396 77 72 143 141
147 152 18 49 -45 106 -92 84 -10 -5 -168 -151 -352 -325 -523 -495 -493 -469
-529 -469 -38 0 -89 47 -89 83 0 13 9 36 20 50 11 14 161 160 334 326 351 336
361 349 360 461 -1 154 -128 286 -285 298 -119 8 -116 11 -667 -507 -555 -521
-584 -554 -647 -740 l-22 -63 -41 47 c-97 110 -95 288 4 403 23 27 62 55 110
78 91 43 97 58 63 153 -29 82 -31 200 -5 279 43 127 150 234 273 272 79 24
189 26 263 4 61 -18 90 -9 109 33 10 21 6 38 -24 111 -20 48 -38 104 -41 124
-15 90 46 201 130 239 53 24 139 24 191 0 47 -21 99 -71 115 -111 6 -16 25
-34 41 -41 42 -17 73 0 100 53 12 24 54 75 93 114 78 79 157 124 258 149 35 9
80 21 100 26 47 12 55 38 40 123 -26 144 54 264 191 282 77 11 133 -11 201
-78 35 -35 67 -58 80 -58 13 0 48 20 78 43 96 75 146 92 268 92 94 0 111 -3
164 -28 157 -73 246 -214 246 -387 0 -81 15 -99 90 -111 119 -19 228 -100 278
-207 23 -49 27 -70 27 -147 0 -78 -4 -98 -28 -152 -16 -33 -41 -73 -57 -88
l-28 -27 -47 36 c-59 46 -142 70 -205 62 l-47 -6 -7 37 c-9 59 -62 140 -112
176 -63 44 -98 55 -180 56 -101 1 -144 -24 -310 -180 -189 -177 -244 -234
-244 -254 0 -23 54 -75 79 -75 13 0 86 63 197 168 97 92 189 175 205 186 38
24 123 19 162 -10 57 -43 84 -137 54 -192 -7 -12 -248 -244 -537 -515 -288
-270 -528 -499 -533 -508 -25 -40 28 -107 75 -95 21 5 140 114 828 760 327
307 323 304 365 312 58 11 121 -19 156 -74 32 -51 36 -86 15 -136 -9 -21 -204
-211 -575 -560 -607 -570 -592 -553 -538 -604 47 -44 57 -38 333 221 142 134
385 361 538 505 296 278 303 282 383 267 47 -9 98 -59 112 -111 14 -53 -1
-106 -42 -149 -18 -18 -293 -277 -612 -575 -659 -615 -655 -612 -655 -640 0
-29 44 -70 75 -70 27 0 56 26 582 521 257 242 281 259 357 245 46 -9 101 -57
116 -102 19 -55 4 -108 -43 -158 -23 -25 -133 -130 -244 -233 -170 -159 -209
-191 -255 -206 -123 -43 -267 -146 -347 -251 -24 -31 -64 -96 -88 -144 -40
-80 -55 -98 -186 -221 -78 -73 -160 -147 -182 -163 -110 -82 -253 -128 -400
-128 -95 0 -215 24 -275 55 -18 9 -42 14 -55 11 -30 -8 -587 -529 -599 -562
-15 -37 20 -79 67 -79 33 0 54 17 244 195 114 108 232 217 261 244 l52 49 78
-24 c67 -21 97 -24 227 -24 129 0 160 3 225 23 143 46 229 98 365 221 48 45
92 81 97 81 4 0 8 -23 8 -51 0 -144 86 -349 196 -468 158 -170 342 -252 569
-252 137 0 232 23 354 86 196 101 336 281 392 505 30 119 24 290 -15 405 -67
198 -201 357 -381 450 -75 39 -143 61 -246 78 l-71 12 163 154 c90 85 177 173
192 197 88 133 40 316 -107 403 l-58 35 175 170 c202 197 212 214 205 338 -6
128 -81 229 -194 264 l-53 17 6 71 c6 68 8 73 58 128 187 207 179 507 -19 696
-61 59 -153 113 -211 126 -29 6 -31 10 -43 84 -33 213 -200 394 -415 448 -129
34 -299 6 -416 -67 l-45 -27 -44 34 c-55 41 -155 74 -228 74 -46 0 -54 3 -54
18 0 10 -7 39 -16 64 -48 142 -227 225 -374 173 -56 -20 -56 -20 -70 15 -18
44 -102 115 -157 134 -56 19 -144 20 -196 2z m156 -140 c42 -17 85 -68 92
-110 9 -46 -2 -68 -207 -421 l-182 -313 -71 -4 c-226 -12 -391 -238 -332 -455
l14 -53 -71 0 c-39 0 -102 -8 -139 -19 -37 -10 -67 -17 -67 -16 0 11 777 1345
793 1364 12 13 31 27 42 31 31 13 92 11 128 -4z m430 -150 c54 -23 80 -59 84
-118 l5 -53 -60 -61 c-72 -73 -104 -147 -106 -245 l-1 -66 -70 -22 c-97 -30
-197 -92 -280 -173 -38 -37 -71 -68 -72 -68 -2 0 -23 15 -47 34 l-45 34 200
343 c200 344 227 384 264 399 31 13 92 11 128 -4z m1457 -3429 c274 -88 449
-323 450 -603 0 -173 -58 -313 -185 -439 -130 -131 -258 -185 -440 -185 -111
0 -194 19 -283 64 -123 63 -217 158 -277 281 -47 94 -65 172 -65 276 0 250
134 461 359 569 49 23 80 33 166 54 38 9 230 -3 275 -17z"/>
<path d="M3727 1002 c-39 -42 -8 -114 48 -114 57 0 88 78 47 115 -25 22 -75
21 -95 -1z"/>
<path d="M4207 1002 c-39 -42 -8 -114 48 -114 57 0 88 78 47 115 -25 22 -75
21 -95 -1z"/>
<path d="M3691 564 c-24 -31 -25 -38 -10 -66 32 -59 156 -130 259 -149 58 -10
87 -10 144 -1 141 24 291 129 269 189 -22 63 -72 69 -139 18 -73 -56 -109 -68
-199 -68 -90 0 -126 12 -199 68 -57 43 -96 46 -125 9z"/>
<path d="M4653 4662 c-234 -84 -296 -390 -112 -556 168 -151 432 -97 524 106
56 123 33 263 -60 366 -80 89 -234 126 -352 84z m184 -133 c64 -24 122 -109
123 -180 0 -49 -43 -129 -85 -158 -38 -26 -104 -37 -160 -27 -70 14 -144 107
-145 184 0 68 53 150 115 178 36 16 113 18 152 3z"/>
<path d="M218 3418 c-23 -18 -110 -172 -142 -250 -38 -97 -60 -236 -51 -336 7
-91 43 -229 77 -295 54 -107 177 -251 250 -295 16 -9 28 -21 28 -27 0 -5 -72
-134 -160 -284 -88 -151 -160 -284 -160 -296 0 -44 69 -81 107 -57 23 15 383
643 383 668 0 28 -28 58 -90 94 -61 36 -151 125 -194 193 -76 119 -111 266
-95 400 11 86 69 262 112 335 18 31 36 65 40 75 9 24 -11 63 -40 76 -31 14
-45 14 -65 -1z"/>
</g>
</svg>
